%TF.GenerationSoftware,KiCad,Pcbnew,8.0.9-rc1*%
%TF.CreationDate,2026-08-24T22:03:20-06:00*%
%TF.ProjectId,40\u0025v2,34302576-322e-46b6-9963-61645f706362,v1.0.0*%
%TF.SameCoordinates,Original*%
%TF.FileFunction,Legend,Bot*%
%TF.FilePolarity,Positive*%
%FSLAX46Y46*%
G04 Gerber Fmt 4.6, Leading zero omitted, Abs format (unit mm)*
G04 Created by KiCad (PCBNEW 8.0.9-rc1) date 2026-08-24 22:03:20*
%MOMM*%
%LPD*%
G01*
G04 APERTURE LIST*
%ADD10C,0.150000*%
%ADD11C,0.100000*%
%ADD12C,0.400000*%
%ADD13C,0.120000*%
G04 APERTURE END LIST*
D10*
X99219819Y-117936779D02*
X98553152Y-117936779D01*
X98743628Y-117936779D02*
X98648390Y-117984398D01*
X98648390Y-117984398D02*
X98600771Y-118032017D01*
X98600771Y-118032017D02*
X98553152Y-118127255D01*
X98553152Y-118127255D02*
X98553152Y-118222493D01*
X99172200Y-118936779D02*
X99219819Y-118841541D01*
X99219819Y-118841541D02*
X99219819Y-118651065D01*
X99219819Y-118651065D02*
X99172200Y-118555827D01*
X99172200Y-118555827D02*
X99076961Y-118508208D01*
X99076961Y-118508208D02*
X98696009Y-118508208D01*
X98696009Y-118508208D02*
X98600771Y-118555827D01*
X98600771Y-118555827D02*
X98553152Y-118651065D01*
X98553152Y-118651065D02*
X98553152Y-118841541D01*
X98553152Y-118841541D02*
X98600771Y-118936779D01*
X98600771Y-118936779D02*
X98696009Y-118984398D01*
X98696009Y-118984398D02*
X98791247Y-118984398D01*
X98791247Y-118984398D02*
X98886485Y-118508208D01*
X98553152Y-119317732D02*
X99219819Y-119555827D01*
X99219819Y-119555827D02*
X98553152Y-119793922D01*
X99172200Y-120555827D02*
X99219819Y-120460589D01*
X99219819Y-120460589D02*
X99219819Y-120270113D01*
X99219819Y-120270113D02*
X99172200Y-120174875D01*
X99172200Y-120174875D02*
X99076961Y-120127256D01*
X99076961Y-120127256D02*
X98696009Y-120127256D01*
X98696009Y-120127256D02*
X98600771Y-120174875D01*
X98600771Y-120174875D02*
X98553152Y-120270113D01*
X98553152Y-120270113D02*
X98553152Y-120460589D01*
X98553152Y-120460589D02*
X98600771Y-120555827D01*
X98600771Y-120555827D02*
X98696009Y-120603446D01*
X98696009Y-120603446D02*
X98791247Y-120603446D01*
X98791247Y-120603446D02*
X98886485Y-120127256D01*
X99219819Y-121032018D02*
X98553152Y-121032018D01*
X98743628Y-121032018D02*
X98648390Y-121079637D01*
X98648390Y-121079637D02*
X98600771Y-121127256D01*
X98600771Y-121127256D02*
X98553152Y-121222494D01*
X98553152Y-121222494D02*
X98553152Y-121317732D01*
X99172200Y-121603447D02*
X99219819Y-121698685D01*
X99219819Y-121698685D02*
X99219819Y-121889161D01*
X99219819Y-121889161D02*
X99172200Y-121984399D01*
X99172200Y-121984399D02*
X99076961Y-122032018D01*
X99076961Y-122032018D02*
X99029342Y-122032018D01*
X99029342Y-122032018D02*
X98934104Y-121984399D01*
X98934104Y-121984399D02*
X98886485Y-121889161D01*
X98886485Y-121889161D02*
X98886485Y-121746304D01*
X98886485Y-121746304D02*
X98838866Y-121651066D01*
X98838866Y-121651066D02*
X98743628Y-121603447D01*
X98743628Y-121603447D02*
X98696009Y-121603447D01*
X98696009Y-121603447D02*
X98600771Y-121651066D01*
X98600771Y-121651066D02*
X98553152Y-121746304D01*
X98553152Y-121746304D02*
X98553152Y-121889161D01*
X98553152Y-121889161D02*
X98600771Y-121984399D01*
X99172200Y-122841542D02*
X99219819Y-122746304D01*
X99219819Y-122746304D02*
X99219819Y-122555828D01*
X99219819Y-122555828D02*
X99172200Y-122460590D01*
X99172200Y-122460590D02*
X99076961Y-122412971D01*
X99076961Y-122412971D02*
X98696009Y-122412971D01*
X98696009Y-122412971D02*
X98600771Y-122460590D01*
X98600771Y-122460590D02*
X98553152Y-122555828D01*
X98553152Y-122555828D02*
X98553152Y-122746304D01*
X98553152Y-122746304D02*
X98600771Y-122841542D01*
X98600771Y-122841542D02*
X98696009Y-122889161D01*
X98696009Y-122889161D02*
X98791247Y-122889161D01*
X98791247Y-122889161D02*
X98886485Y-122412971D01*
X99219819Y-124079638D02*
X98553152Y-124079638D01*
X98648390Y-124079638D02*
X98600771Y-124127257D01*
X98600771Y-124127257D02*
X98553152Y-124222495D01*
X98553152Y-124222495D02*
X98553152Y-124365352D01*
X98553152Y-124365352D02*
X98600771Y-124460590D01*
X98600771Y-124460590D02*
X98696009Y-124508209D01*
X98696009Y-124508209D02*
X99219819Y-124508209D01*
X98696009Y-124508209D02*
X98600771Y-124555828D01*
X98600771Y-124555828D02*
X98553152Y-124651066D01*
X98553152Y-124651066D02*
X98553152Y-124793923D01*
X98553152Y-124793923D02*
X98600771Y-124889162D01*
X98600771Y-124889162D02*
X98696009Y-124936781D01*
X98696009Y-124936781D02*
X99219819Y-124936781D01*
X99219819Y-125555828D02*
X99172200Y-125460590D01*
X99172200Y-125460590D02*
X99124580Y-125412971D01*
X99124580Y-125412971D02*
X99029342Y-125365352D01*
X99029342Y-125365352D02*
X98743628Y-125365352D01*
X98743628Y-125365352D02*
X98648390Y-125412971D01*
X98648390Y-125412971D02*
X98600771Y-125460590D01*
X98600771Y-125460590D02*
X98553152Y-125555828D01*
X98553152Y-125555828D02*
X98553152Y-125698685D01*
X98553152Y-125698685D02*
X98600771Y-125793923D01*
X98600771Y-125793923D02*
X98648390Y-125841542D01*
X98648390Y-125841542D02*
X98743628Y-125889161D01*
X98743628Y-125889161D02*
X99029342Y-125889161D01*
X99029342Y-125889161D02*
X99124580Y-125841542D01*
X99124580Y-125841542D02*
X99172200Y-125793923D01*
X99172200Y-125793923D02*
X99219819Y-125698685D01*
X99219819Y-125698685D02*
X99219819Y-125555828D01*
X98553152Y-126746304D02*
X99219819Y-126746304D01*
X98553152Y-126317733D02*
X99076961Y-126317733D01*
X99076961Y-126317733D02*
X99172200Y-126365352D01*
X99172200Y-126365352D02*
X99219819Y-126460590D01*
X99219819Y-126460590D02*
X99219819Y-126603447D01*
X99219819Y-126603447D02*
X99172200Y-126698685D01*
X99172200Y-126698685D02*
X99124580Y-126746304D01*
X98553152Y-127222495D02*
X99219819Y-127222495D01*
X98648390Y-127222495D02*
X98600771Y-127270114D01*
X98600771Y-127270114D02*
X98553152Y-127365352D01*
X98553152Y-127365352D02*
X98553152Y-127508209D01*
X98553152Y-127508209D02*
X98600771Y-127603447D01*
X98600771Y-127603447D02*
X98696009Y-127651066D01*
X98696009Y-127651066D02*
X99219819Y-127651066D01*
X98553152Y-127984400D02*
X98553152Y-128365352D01*
X98219819Y-128127257D02*
X99076961Y-128127257D01*
X99076961Y-128127257D02*
X99172200Y-128174876D01*
X99172200Y-128174876D02*
X99219819Y-128270114D01*
X99219819Y-128270114D02*
X99219819Y-128365352D01*
X227734649Y-178868208D02*
X227734649Y-179534875D01*
X227972744Y-178487256D02*
X228210839Y-179201541D01*
X228210839Y-179201541D02*
X227591792Y-179201541D01*
X227067982Y-179534875D02*
X227163220Y-179487256D01*
X227163220Y-179487256D02*
X227210839Y-179439636D01*
X227210839Y-179439636D02*
X227258458Y-179344398D01*
X227258458Y-179344398D02*
X227258458Y-179058684D01*
X227258458Y-179058684D02*
X227210839Y-178963446D01*
X227210839Y-178963446D02*
X227163220Y-178915827D01*
X227163220Y-178915827D02*
X227067982Y-178868208D01*
X227067982Y-178868208D02*
X226925125Y-178868208D01*
X226925125Y-178868208D02*
X226829887Y-178915827D01*
X226829887Y-178915827D02*
X226782268Y-178963446D01*
X226782268Y-178963446D02*
X226734649Y-179058684D01*
X226734649Y-179058684D02*
X226734649Y-179344398D01*
X226734649Y-179344398D02*
X226782268Y-179439636D01*
X226782268Y-179439636D02*
X226829887Y-179487256D01*
X226829887Y-179487256D02*
X226925125Y-179534875D01*
X226925125Y-179534875D02*
X227067982Y-179534875D01*
X225877506Y-178868208D02*
X225877506Y-179534875D01*
X226306077Y-178868208D02*
X226306077Y-179392017D01*
X226306077Y-179392017D02*
X226258458Y-179487256D01*
X226258458Y-179487256D02*
X226163220Y-179534875D01*
X226163220Y-179534875D02*
X226020363Y-179534875D01*
X226020363Y-179534875D02*
X225925125Y-179487256D01*
X225925125Y-179487256D02*
X225877506Y-179439636D01*
X225401315Y-179534875D02*
X225401315Y-178868208D01*
X225401315Y-179058684D02*
X225353696Y-178963446D01*
X225353696Y-178963446D02*
X225306077Y-178915827D01*
X225306077Y-178915827D02*
X225210839Y-178868208D01*
X225210839Y-178868208D02*
X225115601Y-178868208D01*
X224925124Y-178868208D02*
X224544172Y-178868208D01*
X224782267Y-178534875D02*
X224782267Y-179392017D01*
X224782267Y-179392017D02*
X224734648Y-179487256D01*
X224734648Y-179487256D02*
X224639410Y-179534875D01*
X224639410Y-179534875D02*
X224544172Y-179534875D01*
X224306076Y-178868208D02*
X224067981Y-179534875D01*
X223829886Y-178868208D02*
X224067981Y-179534875D01*
X224067981Y-179534875D02*
X224163219Y-179772970D01*
X224163219Y-179772970D02*
X224210838Y-179820589D01*
X224210838Y-179820589D02*
X224306076Y-179868208D01*
X222687028Y-179153922D02*
X221925124Y-179153922D01*
X220829885Y-178868208D02*
X220448933Y-178868208D01*
X220687028Y-178534875D02*
X220687028Y-179392017D01*
X220687028Y-179392017D02*
X220639409Y-179487256D01*
X220639409Y-179487256D02*
X220544171Y-179534875D01*
X220544171Y-179534875D02*
X220448933Y-179534875D01*
X220115599Y-179534875D02*
X220115599Y-178534875D01*
X219687028Y-179534875D02*
X219687028Y-179011065D01*
X219687028Y-179011065D02*
X219734647Y-178915827D01*
X219734647Y-178915827D02*
X219829885Y-178868208D01*
X219829885Y-178868208D02*
X219972742Y-178868208D01*
X219972742Y-178868208D02*
X220067980Y-178915827D01*
X220067980Y-178915827D02*
X220115599Y-178963446D01*
X218829885Y-179487256D02*
X218925123Y-179534875D01*
X218925123Y-179534875D02*
X219115599Y-179534875D01*
X219115599Y-179534875D02*
X219210837Y-179487256D01*
X219210837Y-179487256D02*
X219258456Y-179392017D01*
X219258456Y-179392017D02*
X219258456Y-179011065D01*
X219258456Y-179011065D02*
X219210837Y-178915827D01*
X219210837Y-178915827D02*
X219115599Y-178868208D01*
X219115599Y-178868208D02*
X218925123Y-178868208D01*
X218925123Y-178868208D02*
X218829885Y-178915827D01*
X218829885Y-178915827D02*
X218782266Y-179011065D01*
X218782266Y-179011065D02*
X218782266Y-179106303D01*
X218782266Y-179106303D02*
X219258456Y-179201541D01*
X218353694Y-179534875D02*
X218353694Y-178534875D01*
X218353694Y-178915827D02*
X218258456Y-178868208D01*
X218258456Y-178868208D02*
X218067980Y-178868208D01*
X218067980Y-178868208D02*
X217972742Y-178915827D01*
X217972742Y-178915827D02*
X217925123Y-178963446D01*
X217925123Y-178963446D02*
X217877504Y-179058684D01*
X217877504Y-179058684D02*
X217877504Y-179344398D01*
X217877504Y-179344398D02*
X217925123Y-179439636D01*
X217925123Y-179439636D02*
X217972742Y-179487256D01*
X217972742Y-179487256D02*
X218067980Y-179534875D01*
X218067980Y-179534875D02*
X218258456Y-179534875D01*
X218258456Y-179534875D02*
X218353694Y-179487256D01*
X217258456Y-178534875D02*
X217163218Y-178534875D01*
X217163218Y-178534875D02*
X217067980Y-178582494D01*
X217067980Y-178582494D02*
X217020361Y-178630113D01*
X217020361Y-178630113D02*
X216972742Y-178725351D01*
X216972742Y-178725351D02*
X216925123Y-178915827D01*
X216925123Y-178915827D02*
X216925123Y-179153922D01*
X216925123Y-179153922D02*
X216972742Y-179344398D01*
X216972742Y-179344398D02*
X217020361Y-179439636D01*
X217020361Y-179439636D02*
X217067980Y-179487256D01*
X217067980Y-179487256D02*
X217163218Y-179534875D01*
X217163218Y-179534875D02*
X217258456Y-179534875D01*
X217258456Y-179534875D02*
X217353694Y-179487256D01*
X217353694Y-179487256D02*
X217401313Y-179439636D01*
X217401313Y-179439636D02*
X217448932Y-179344398D01*
X217448932Y-179344398D02*
X217496551Y-179153922D01*
X217496551Y-179153922D02*
X217496551Y-178915827D01*
X217496551Y-178915827D02*
X217448932Y-178725351D01*
X217448932Y-178725351D02*
X217401313Y-178630113D01*
X217401313Y-178630113D02*
X217353694Y-178582494D01*
X217353694Y-178582494D02*
X217258456Y-178534875D01*
X216496551Y-179534875D02*
X216496551Y-178534875D01*
X216496551Y-178915827D02*
X216401313Y-178868208D01*
X216401313Y-178868208D02*
X216210837Y-178868208D01*
X216210837Y-178868208D02*
X216115599Y-178915827D01*
X216115599Y-178915827D02*
X216067980Y-178963446D01*
X216067980Y-178963446D02*
X216020361Y-179058684D01*
X216020361Y-179058684D02*
X216020361Y-179344398D01*
X216020361Y-179344398D02*
X216067980Y-179439636D01*
X216067980Y-179439636D02*
X216115599Y-179487256D01*
X216115599Y-179487256D02*
X216210837Y-179534875D01*
X216210837Y-179534875D02*
X216401313Y-179534875D01*
X216401313Y-179534875D02*
X216496551Y-179487256D01*
X228020363Y-180573390D02*
X228115601Y-180525771D01*
X228115601Y-180525771D02*
X228163220Y-180478152D01*
X228163220Y-180478152D02*
X228210839Y-180382914D01*
X228210839Y-180382914D02*
X228210839Y-180335295D01*
X228210839Y-180335295D02*
X228163220Y-180240057D01*
X228163220Y-180240057D02*
X228115601Y-180192438D01*
X228115601Y-180192438D02*
X228020363Y-180144819D01*
X228020363Y-180144819D02*
X227829887Y-180144819D01*
X227829887Y-180144819D02*
X227734649Y-180192438D01*
X227734649Y-180192438D02*
X227687030Y-180240057D01*
X227687030Y-180240057D02*
X227639411Y-180335295D01*
X227639411Y-180335295D02*
X227639411Y-180382914D01*
X227639411Y-180382914D02*
X227687030Y-180478152D01*
X227687030Y-180478152D02*
X227734649Y-180525771D01*
X227734649Y-180525771D02*
X227829887Y-180573390D01*
X227829887Y-180573390D02*
X228020363Y-180573390D01*
X228020363Y-180573390D02*
X228115601Y-180621009D01*
X228115601Y-180621009D02*
X228163220Y-180668628D01*
X228163220Y-180668628D02*
X228210839Y-180763866D01*
X228210839Y-180763866D02*
X228210839Y-180954342D01*
X228210839Y-180954342D02*
X228163220Y-181049580D01*
X228163220Y-181049580D02*
X228115601Y-181097200D01*
X228115601Y-181097200D02*
X228020363Y-181144819D01*
X228020363Y-181144819D02*
X227829887Y-181144819D01*
X227829887Y-181144819D02*
X227734649Y-181097200D01*
X227734649Y-181097200D02*
X227687030Y-181049580D01*
X227687030Y-181049580D02*
X227639411Y-180954342D01*
X227639411Y-180954342D02*
X227639411Y-180763866D01*
X227639411Y-180763866D02*
X227687030Y-180668628D01*
X227687030Y-180668628D02*
X227734649Y-180621009D01*
X227734649Y-180621009D02*
X227829887Y-180573390D01*
X226496554Y-180097200D02*
X227353696Y-181382914D01*
X226210839Y-180240057D02*
X226163220Y-180192438D01*
X226163220Y-180192438D02*
X226067982Y-180144819D01*
X226067982Y-180144819D02*
X225829887Y-180144819D01*
X225829887Y-180144819D02*
X225734649Y-180192438D01*
X225734649Y-180192438D02*
X225687030Y-180240057D01*
X225687030Y-180240057D02*
X225639411Y-180335295D01*
X225639411Y-180335295D02*
X225639411Y-180430533D01*
X225639411Y-180430533D02*
X225687030Y-180573390D01*
X225687030Y-180573390D02*
X226258458Y-181144819D01*
X226258458Y-181144819D02*
X225639411Y-181144819D01*
X224782268Y-180478152D02*
X224782268Y-181144819D01*
X225020363Y-180097200D02*
X225258458Y-180811485D01*
X225258458Y-180811485D02*
X224639411Y-180811485D01*
X223544173Y-180097200D02*
X224401315Y-181382914D01*
X223258458Y-180240057D02*
X223210839Y-180192438D01*
X223210839Y-180192438D02*
X223115601Y-180144819D01*
X223115601Y-180144819D02*
X222877506Y-180144819D01*
X222877506Y-180144819D02*
X222782268Y-180192438D01*
X222782268Y-180192438D02*
X222734649Y-180240057D01*
X222734649Y-180240057D02*
X222687030Y-180335295D01*
X222687030Y-180335295D02*
X222687030Y-180430533D01*
X222687030Y-180430533D02*
X222734649Y-180573390D01*
X222734649Y-180573390D02*
X223306077Y-181144819D01*
X223306077Y-181144819D02*
X222687030Y-181144819D01*
X221829887Y-180144819D02*
X222020363Y-180144819D01*
X222020363Y-180144819D02*
X222115601Y-180192438D01*
X222115601Y-180192438D02*
X222163220Y-180240057D01*
X222163220Y-180240057D02*
X222258458Y-180382914D01*
X222258458Y-180382914D02*
X222306077Y-180573390D01*
X222306077Y-180573390D02*
X222306077Y-180954342D01*
X222306077Y-180954342D02*
X222258458Y-181049580D01*
X222258458Y-181049580D02*
X222210839Y-181097200D01*
X222210839Y-181097200D02*
X222115601Y-181144819D01*
X222115601Y-181144819D02*
X221925125Y-181144819D01*
X221925125Y-181144819D02*
X221829887Y-181097200D01*
X221829887Y-181097200D02*
X221782268Y-181049580D01*
X221782268Y-181049580D02*
X221734649Y-180954342D01*
X221734649Y-180954342D02*
X221734649Y-180716247D01*
X221734649Y-180716247D02*
X221782268Y-180621009D01*
X221782268Y-180621009D02*
X221829887Y-180573390D01*
X221829887Y-180573390D02*
X221925125Y-180525771D01*
X221925125Y-180525771D02*
X222115601Y-180525771D01*
X222115601Y-180525771D02*
X222210839Y-180573390D01*
X222210839Y-180573390D02*
X222258458Y-180621009D01*
X222258458Y-180621009D02*
X222306077Y-180716247D01*
X100757380Y-143729819D02*
X100566904Y-143729819D01*
X100566904Y-143729819D02*
X100471666Y-143777438D01*
X100471666Y-143777438D02*
X100376428Y-143872676D01*
X100376428Y-143872676D02*
X100328809Y-144063152D01*
X100328809Y-144063152D02*
X100328809Y-144396485D01*
X100328809Y-144396485D02*
X100376428Y-144586961D01*
X100376428Y-144586961D02*
X100471666Y-144682200D01*
X100471666Y-144682200D02*
X100566904Y-144729819D01*
X100566904Y-144729819D02*
X100757380Y-144729819D01*
X100757380Y-144729819D02*
X100852618Y-144682200D01*
X100852618Y-144682200D02*
X100947856Y-144586961D01*
X100947856Y-144586961D02*
X100995475Y-144396485D01*
X100995475Y-144396485D02*
X100995475Y-144063152D01*
X100995475Y-144063152D02*
X100947856Y-143872676D01*
X100947856Y-143872676D02*
X100852618Y-143777438D01*
X100852618Y-143777438D02*
X100757380Y-143729819D01*
X99566904Y-144206009D02*
X99900237Y-144206009D01*
X99900237Y-144729819D02*
X99900237Y-143729819D01*
X99900237Y-143729819D02*
X99424047Y-143729819D01*
X98709761Y-144206009D02*
X99043094Y-144206009D01*
X99043094Y-144729819D02*
X99043094Y-143729819D01*
X99043094Y-143729819D02*
X98566904Y-143729819D01*
X100424047Y-133729819D02*
X100233571Y-133729819D01*
X100233571Y-133729819D02*
X100138333Y-133777438D01*
X100138333Y-133777438D02*
X100043095Y-133872676D01*
X100043095Y-133872676D02*
X99995476Y-134063152D01*
X99995476Y-134063152D02*
X99995476Y-134396485D01*
X99995476Y-134396485D02*
X100043095Y-134586961D01*
X100043095Y-134586961D02*
X100138333Y-134682200D01*
X100138333Y-134682200D02*
X100233571Y-134729819D01*
X100233571Y-134729819D02*
X100424047Y-134729819D01*
X100424047Y-134729819D02*
X100519285Y-134682200D01*
X100519285Y-134682200D02*
X100614523Y-134586961D01*
X100614523Y-134586961D02*
X100662142Y-134396485D01*
X100662142Y-134396485D02*
X100662142Y-134063152D01*
X100662142Y-134063152D02*
X100614523Y-133872676D01*
X100614523Y-133872676D02*
X100519285Y-133777438D01*
X100519285Y-133777438D02*
X100424047Y-133729819D01*
X99566904Y-134729819D02*
X99566904Y-133729819D01*
X99566904Y-133729819D02*
X98995476Y-134729819D01*
X98995476Y-134729819D02*
X98995476Y-133729819D01*
X130009819Y-111010714D02*
X129009819Y-111010714D01*
X129009819Y-111010714D02*
X129009819Y-111391666D01*
X129009819Y-111391666D02*
X129057438Y-111486904D01*
X129057438Y-111486904D02*
X129105057Y-111534523D01*
X129105057Y-111534523D02*
X129200295Y-111582142D01*
X129200295Y-111582142D02*
X129343152Y-111582142D01*
X129343152Y-111582142D02*
X129438390Y-111534523D01*
X129438390Y-111534523D02*
X129486009Y-111486904D01*
X129486009Y-111486904D02*
X129533628Y-111391666D01*
X129533628Y-111391666D02*
X129533628Y-111010714D01*
X130009819Y-112534523D02*
X130009819Y-111963095D01*
X130009819Y-112248809D02*
X129009819Y-112248809D01*
X129009819Y-112248809D02*
X129152676Y-112153571D01*
X129152676Y-112153571D02*
X129247914Y-112058333D01*
X129247914Y-112058333D02*
X129295533Y-111963095D01*
X129009819Y-113153571D02*
X129009819Y-113248809D01*
X129009819Y-113248809D02*
X129057438Y-113344047D01*
X129057438Y-113344047D02*
X129105057Y-113391666D01*
X129105057Y-113391666D02*
X129200295Y-113439285D01*
X129200295Y-113439285D02*
X129390771Y-113486904D01*
X129390771Y-113486904D02*
X129628866Y-113486904D01*
X129628866Y-113486904D02*
X129819342Y-113439285D01*
X129819342Y-113439285D02*
X129914580Y-113391666D01*
X129914580Y-113391666D02*
X129962200Y-113344047D01*
X129962200Y-113344047D02*
X130009819Y-113248809D01*
X130009819Y-113248809D02*
X130009819Y-113153571D01*
X130009819Y-113153571D02*
X129962200Y-113058333D01*
X129962200Y-113058333D02*
X129914580Y-113010714D01*
X129914580Y-113010714D02*
X129819342Y-112963095D01*
X129819342Y-112963095D02*
X129628866Y-112915476D01*
X129628866Y-112915476D02*
X129390771Y-112915476D01*
X129390771Y-112915476D02*
X129200295Y-112963095D01*
X129200295Y-112963095D02*
X129105057Y-113010714D01*
X129105057Y-113010714D02*
X129057438Y-113058333D01*
X129057438Y-113058333D02*
X129009819Y-113153571D01*
X107149819Y-111677380D02*
X106673628Y-111344047D01*
X107149819Y-111105952D02*
X106149819Y-111105952D01*
X106149819Y-111105952D02*
X106149819Y-111486904D01*
X106149819Y-111486904D02*
X106197438Y-111582142D01*
X106197438Y-111582142D02*
X106245057Y-111629761D01*
X106245057Y-111629761D02*
X106340295Y-111677380D01*
X106340295Y-111677380D02*
X106483152Y-111677380D01*
X106483152Y-111677380D02*
X106578390Y-111629761D01*
X106578390Y-111629761D02*
X106626009Y-111582142D01*
X106626009Y-111582142D02*
X106673628Y-111486904D01*
X106673628Y-111486904D02*
X106673628Y-111105952D01*
X107102200Y-112058333D02*
X107149819Y-112201190D01*
X107149819Y-112201190D02*
X107149819Y-112439285D01*
X107149819Y-112439285D02*
X107102200Y-112534523D01*
X107102200Y-112534523D02*
X107054580Y-112582142D01*
X107054580Y-112582142D02*
X106959342Y-112629761D01*
X106959342Y-112629761D02*
X106864104Y-112629761D01*
X106864104Y-112629761D02*
X106768866Y-112582142D01*
X106768866Y-112582142D02*
X106721247Y-112534523D01*
X106721247Y-112534523D02*
X106673628Y-112439285D01*
X106673628Y-112439285D02*
X106626009Y-112248809D01*
X106626009Y-112248809D02*
X106578390Y-112153571D01*
X106578390Y-112153571D02*
X106530771Y-112105952D01*
X106530771Y-112105952D02*
X106435533Y-112058333D01*
X106435533Y-112058333D02*
X106340295Y-112058333D01*
X106340295Y-112058333D02*
X106245057Y-112105952D01*
X106245057Y-112105952D02*
X106197438Y-112153571D01*
X106197438Y-112153571D02*
X106149819Y-112248809D01*
X106149819Y-112248809D02*
X106149819Y-112486904D01*
X106149819Y-112486904D02*
X106197438Y-112629761D01*
X106149819Y-112915476D02*
X106149819Y-113486904D01*
X107149819Y-113201190D02*
X106149819Y-113201190D01*
X114869819Y-132561905D02*
X113869819Y-132561905D01*
X113869819Y-132561905D02*
X113869819Y-132942857D01*
X113869819Y-132942857D02*
X113917438Y-133038095D01*
X113917438Y-133038095D02*
X113965057Y-133085714D01*
X113965057Y-133085714D02*
X114060295Y-133133333D01*
X114060295Y-133133333D02*
X114203152Y-133133333D01*
X114203152Y-133133333D02*
X114298390Y-133085714D01*
X114298390Y-133085714D02*
X114346009Y-133038095D01*
X114346009Y-133038095D02*
X114393628Y-132942857D01*
X114393628Y-132942857D02*
X114393628Y-132561905D01*
X113869819Y-133466667D02*
X113869819Y-134085714D01*
X113869819Y-134085714D02*
X114250771Y-133752381D01*
X114250771Y-133752381D02*
X114250771Y-133895238D01*
X114250771Y-133895238D02*
X114298390Y-133990476D01*
X114298390Y-133990476D02*
X114346009Y-134038095D01*
X114346009Y-134038095D02*
X114441247Y-134085714D01*
X114441247Y-134085714D02*
X114679342Y-134085714D01*
X114679342Y-134085714D02*
X114774580Y-134038095D01*
X114774580Y-134038095D02*
X114822200Y-133990476D01*
X114822200Y-133990476D02*
X114869819Y-133895238D01*
X114869819Y-133895238D02*
X114869819Y-133609524D01*
X114869819Y-133609524D02*
X114822200Y-133514286D01*
X114822200Y-133514286D02*
X114774580Y-133466667D01*
X102169819Y-132561905D02*
X101169819Y-132561905D01*
X101169819Y-132561905D02*
X101169819Y-132942857D01*
X101169819Y-132942857D02*
X101217438Y-133038095D01*
X101217438Y-133038095D02*
X101265057Y-133085714D01*
X101265057Y-133085714D02*
X101360295Y-133133333D01*
X101360295Y-133133333D02*
X101503152Y-133133333D01*
X101503152Y-133133333D02*
X101598390Y-133085714D01*
X101598390Y-133085714D02*
X101646009Y-133038095D01*
X101646009Y-133038095D02*
X101693628Y-132942857D01*
X101693628Y-132942857D02*
X101693628Y-132561905D01*
X102169819Y-134085714D02*
X102169819Y-133514286D01*
X102169819Y-133800000D02*
X101169819Y-133800000D01*
X101169819Y-133800000D02*
X101312676Y-133704762D01*
X101312676Y-133704762D02*
X101407914Y-133609524D01*
X101407914Y-133609524D02*
X101455533Y-133514286D01*
X114769819Y-111010714D02*
X113769819Y-111010714D01*
X113769819Y-111010714D02*
X113769819Y-111391666D01*
X113769819Y-111391666D02*
X113817438Y-111486904D01*
X113817438Y-111486904D02*
X113865057Y-111534523D01*
X113865057Y-111534523D02*
X113960295Y-111582142D01*
X113960295Y-111582142D02*
X114103152Y-111582142D01*
X114103152Y-111582142D02*
X114198390Y-111534523D01*
X114198390Y-111534523D02*
X114246009Y-111486904D01*
X114246009Y-111486904D02*
X114293628Y-111391666D01*
X114293628Y-111391666D02*
X114293628Y-111010714D01*
X113865057Y-111963095D02*
X113817438Y-112010714D01*
X113817438Y-112010714D02*
X113769819Y-112105952D01*
X113769819Y-112105952D02*
X113769819Y-112344047D01*
X113769819Y-112344047D02*
X113817438Y-112439285D01*
X113817438Y-112439285D02*
X113865057Y-112486904D01*
X113865057Y-112486904D02*
X113960295Y-112534523D01*
X113960295Y-112534523D02*
X114055533Y-112534523D01*
X114055533Y-112534523D02*
X114198390Y-112486904D01*
X114198390Y-112486904D02*
X114769819Y-111915476D01*
X114769819Y-111915476D02*
X114769819Y-112534523D01*
X113769819Y-113153571D02*
X113769819Y-113248809D01*
X113769819Y-113248809D02*
X113817438Y-113344047D01*
X113817438Y-113344047D02*
X113865057Y-113391666D01*
X113865057Y-113391666D02*
X113960295Y-113439285D01*
X113960295Y-113439285D02*
X114150771Y-113486904D01*
X114150771Y-113486904D02*
X114388866Y-113486904D01*
X114388866Y-113486904D02*
X114579342Y-113439285D01*
X114579342Y-113439285D02*
X114674580Y-113391666D01*
X114674580Y-113391666D02*
X114722200Y-113344047D01*
X114722200Y-113344047D02*
X114769819Y-113248809D01*
X114769819Y-113248809D02*
X114769819Y-113153571D01*
X114769819Y-113153571D02*
X114722200Y-113058333D01*
X114722200Y-113058333D02*
X114674580Y-113010714D01*
X114674580Y-113010714D02*
X114579342Y-112963095D01*
X114579342Y-112963095D02*
X114388866Y-112915476D01*
X114388866Y-112915476D02*
X114150771Y-112915476D01*
X114150771Y-112915476D02*
X113960295Y-112963095D01*
X113960295Y-112963095D02*
X113865057Y-113010714D01*
X113865057Y-113010714D02*
X113817438Y-113058333D01*
X113817438Y-113058333D02*
X113769819Y-113153571D01*
X122389819Y-111010714D02*
X121389819Y-111010714D01*
X121389819Y-111010714D02*
X121389819Y-111391666D01*
X121389819Y-111391666D02*
X121437438Y-111486904D01*
X121437438Y-111486904D02*
X121485057Y-111534523D01*
X121485057Y-111534523D02*
X121580295Y-111582142D01*
X121580295Y-111582142D02*
X121723152Y-111582142D01*
X121723152Y-111582142D02*
X121818390Y-111534523D01*
X121818390Y-111534523D02*
X121866009Y-111486904D01*
X121866009Y-111486904D02*
X121913628Y-111391666D01*
X121913628Y-111391666D02*
X121913628Y-111010714D01*
X122389819Y-112534523D02*
X122389819Y-111963095D01*
X122389819Y-112248809D02*
X121389819Y-112248809D01*
X121389819Y-112248809D02*
X121532676Y-112153571D01*
X121532676Y-112153571D02*
X121627914Y-112058333D01*
X121627914Y-112058333D02*
X121675533Y-111963095D01*
X121389819Y-113439285D02*
X121389819Y-112963095D01*
X121389819Y-112963095D02*
X121866009Y-112915476D01*
X121866009Y-112915476D02*
X121818390Y-112963095D01*
X121818390Y-112963095D02*
X121770771Y-113058333D01*
X121770771Y-113058333D02*
X121770771Y-113296428D01*
X121770771Y-113296428D02*
X121818390Y-113391666D01*
X121818390Y-113391666D02*
X121866009Y-113439285D01*
X121866009Y-113439285D02*
X121961247Y-113486904D01*
X121961247Y-113486904D02*
X122199342Y-113486904D01*
X122199342Y-113486904D02*
X122294580Y-113439285D01*
X122294580Y-113439285D02*
X122342200Y-113391666D01*
X122342200Y-113391666D02*
X122389819Y-113296428D01*
X122389819Y-113296428D02*
X122389819Y-113058333D01*
X122389819Y-113058333D02*
X122342200Y-112963095D01*
X122342200Y-112963095D02*
X122294580Y-112915476D01*
X127469819Y-111010714D02*
X126469819Y-111010714D01*
X126469819Y-111010714D02*
X126469819Y-111391666D01*
X126469819Y-111391666D02*
X126517438Y-111486904D01*
X126517438Y-111486904D02*
X126565057Y-111534523D01*
X126565057Y-111534523D02*
X126660295Y-111582142D01*
X126660295Y-111582142D02*
X126803152Y-111582142D01*
X126803152Y-111582142D02*
X126898390Y-111534523D01*
X126898390Y-111534523D02*
X126946009Y-111486904D01*
X126946009Y-111486904D02*
X126993628Y-111391666D01*
X126993628Y-111391666D02*
X126993628Y-111010714D01*
X127469819Y-112534523D02*
X127469819Y-111963095D01*
X127469819Y-112248809D02*
X126469819Y-112248809D01*
X126469819Y-112248809D02*
X126612676Y-112153571D01*
X126612676Y-112153571D02*
X126707914Y-112058333D01*
X126707914Y-112058333D02*
X126755533Y-111963095D01*
X126469819Y-113391666D02*
X126469819Y-113201190D01*
X126469819Y-113201190D02*
X126517438Y-113105952D01*
X126517438Y-113105952D02*
X126565057Y-113058333D01*
X126565057Y-113058333D02*
X126707914Y-112963095D01*
X126707914Y-112963095D02*
X126898390Y-112915476D01*
X126898390Y-112915476D02*
X127279342Y-112915476D01*
X127279342Y-112915476D02*
X127374580Y-112963095D01*
X127374580Y-112963095D02*
X127422200Y-113010714D01*
X127422200Y-113010714D02*
X127469819Y-113105952D01*
X127469819Y-113105952D02*
X127469819Y-113296428D01*
X127469819Y-113296428D02*
X127422200Y-113391666D01*
X127422200Y-113391666D02*
X127374580Y-113439285D01*
X127374580Y-113439285D02*
X127279342Y-113486904D01*
X127279342Y-113486904D02*
X127041247Y-113486904D01*
X127041247Y-113486904D02*
X126946009Y-113439285D01*
X126946009Y-113439285D02*
X126898390Y-113391666D01*
X126898390Y-113391666D02*
X126850771Y-113296428D01*
X126850771Y-113296428D02*
X126850771Y-113105952D01*
X126850771Y-113105952D02*
X126898390Y-113010714D01*
X126898390Y-113010714D02*
X126946009Y-112963095D01*
X126946009Y-112963095D02*
X127041247Y-112915476D01*
X102069819Y-111534523D02*
X101593628Y-111201190D01*
X102069819Y-110963095D02*
X101069819Y-110963095D01*
X101069819Y-110963095D02*
X101069819Y-111344047D01*
X101069819Y-111344047D02*
X101117438Y-111439285D01*
X101117438Y-111439285D02*
X101165057Y-111486904D01*
X101165057Y-111486904D02*
X101260295Y-111534523D01*
X101260295Y-111534523D02*
X101403152Y-111534523D01*
X101403152Y-111534523D02*
X101498390Y-111486904D01*
X101498390Y-111486904D02*
X101546009Y-111439285D01*
X101546009Y-111439285D02*
X101593628Y-111344047D01*
X101593628Y-111344047D02*
X101593628Y-110963095D01*
X101784104Y-111915476D02*
X101784104Y-112391666D01*
X102069819Y-111820238D02*
X101069819Y-112153571D01*
X101069819Y-112153571D02*
X102069819Y-112486904D01*
X101069819Y-112725000D02*
X102069819Y-112963095D01*
X102069819Y-112963095D02*
X101355533Y-113153571D01*
X101355533Y-113153571D02*
X102069819Y-113344047D01*
X102069819Y-113344047D02*
X101069819Y-113582143D01*
X122489819Y-132561905D02*
X121489819Y-132561905D01*
X121489819Y-132561905D02*
X121489819Y-132942857D01*
X121489819Y-132942857D02*
X121537438Y-133038095D01*
X121537438Y-133038095D02*
X121585057Y-133085714D01*
X121585057Y-133085714D02*
X121680295Y-133133333D01*
X121680295Y-133133333D02*
X121823152Y-133133333D01*
X121823152Y-133133333D02*
X121918390Y-133085714D01*
X121918390Y-133085714D02*
X121966009Y-133038095D01*
X121966009Y-133038095D02*
X122013628Y-132942857D01*
X122013628Y-132942857D02*
X122013628Y-132561905D01*
X121489819Y-133990476D02*
X121489819Y-133800000D01*
X121489819Y-133800000D02*
X121537438Y-133704762D01*
X121537438Y-133704762D02*
X121585057Y-133657143D01*
X121585057Y-133657143D02*
X121727914Y-133561905D01*
X121727914Y-133561905D02*
X121918390Y-133514286D01*
X121918390Y-133514286D02*
X122299342Y-133514286D01*
X122299342Y-133514286D02*
X122394580Y-133561905D01*
X122394580Y-133561905D02*
X122442200Y-133609524D01*
X122442200Y-133609524D02*
X122489819Y-133704762D01*
X122489819Y-133704762D02*
X122489819Y-133895238D01*
X122489819Y-133895238D02*
X122442200Y-133990476D01*
X122442200Y-133990476D02*
X122394580Y-134038095D01*
X122394580Y-134038095D02*
X122299342Y-134085714D01*
X122299342Y-134085714D02*
X122061247Y-134085714D01*
X122061247Y-134085714D02*
X121966009Y-134038095D01*
X121966009Y-134038095D02*
X121918390Y-133990476D01*
X121918390Y-133990476D02*
X121870771Y-133895238D01*
X121870771Y-133895238D02*
X121870771Y-133704762D01*
X121870771Y-133704762D02*
X121918390Y-133609524D01*
X121918390Y-133609524D02*
X121966009Y-133561905D01*
X121966009Y-133561905D02*
X122061247Y-133514286D01*
X108837438Y-132538095D02*
X108789819Y-132442857D01*
X108789819Y-132442857D02*
X108789819Y-132300000D01*
X108789819Y-132300000D02*
X108837438Y-132157143D01*
X108837438Y-132157143D02*
X108932676Y-132061905D01*
X108932676Y-132061905D02*
X109027914Y-132014286D01*
X109027914Y-132014286D02*
X109218390Y-131966667D01*
X109218390Y-131966667D02*
X109361247Y-131966667D01*
X109361247Y-131966667D02*
X109551723Y-132014286D01*
X109551723Y-132014286D02*
X109646961Y-132061905D01*
X109646961Y-132061905D02*
X109742200Y-132157143D01*
X109742200Y-132157143D02*
X109789819Y-132300000D01*
X109789819Y-132300000D02*
X109789819Y-132395238D01*
X109789819Y-132395238D02*
X109742200Y-132538095D01*
X109742200Y-132538095D02*
X109694580Y-132585714D01*
X109694580Y-132585714D02*
X109361247Y-132585714D01*
X109361247Y-132585714D02*
X109361247Y-132395238D01*
X109789819Y-133014286D02*
X108789819Y-133014286D01*
X108789819Y-133014286D02*
X109789819Y-133585714D01*
X109789819Y-133585714D02*
X108789819Y-133585714D01*
X109789819Y-134061905D02*
X108789819Y-134061905D01*
X108789819Y-134061905D02*
X108789819Y-134300000D01*
X108789819Y-134300000D02*
X108837438Y-134442857D01*
X108837438Y-134442857D02*
X108932676Y-134538095D01*
X108932676Y-134538095D02*
X109027914Y-134585714D01*
X109027914Y-134585714D02*
X109218390Y-134633333D01*
X109218390Y-134633333D02*
X109361247Y-134633333D01*
X109361247Y-134633333D02*
X109551723Y-134585714D01*
X109551723Y-134585714D02*
X109646961Y-134538095D01*
X109646961Y-134538095D02*
X109742200Y-134442857D01*
X109742200Y-134442857D02*
X109789819Y-134300000D01*
X109789819Y-134300000D02*
X109789819Y-134061905D01*
X130109819Y-132561905D02*
X129109819Y-132561905D01*
X129109819Y-132561905D02*
X129109819Y-132942857D01*
X129109819Y-132942857D02*
X129157438Y-133038095D01*
X129157438Y-133038095D02*
X129205057Y-133085714D01*
X129205057Y-133085714D02*
X129300295Y-133133333D01*
X129300295Y-133133333D02*
X129443152Y-133133333D01*
X129443152Y-133133333D02*
X129538390Y-133085714D01*
X129538390Y-133085714D02*
X129586009Y-133038095D01*
X129586009Y-133038095D02*
X129633628Y-132942857D01*
X129633628Y-132942857D02*
X129633628Y-132561905D01*
X130109819Y-133609524D02*
X130109819Y-133800000D01*
X130109819Y-133800000D02*
X130062200Y-133895238D01*
X130062200Y-133895238D02*
X130014580Y-133942857D01*
X130014580Y-133942857D02*
X129871723Y-134038095D01*
X129871723Y-134038095D02*
X129681247Y-134085714D01*
X129681247Y-134085714D02*
X129300295Y-134085714D01*
X129300295Y-134085714D02*
X129205057Y-134038095D01*
X129205057Y-134038095D02*
X129157438Y-133990476D01*
X129157438Y-133990476D02*
X129109819Y-133895238D01*
X129109819Y-133895238D02*
X129109819Y-133704762D01*
X129109819Y-133704762D02*
X129157438Y-133609524D01*
X129157438Y-133609524D02*
X129205057Y-133561905D01*
X129205057Y-133561905D02*
X129300295Y-133514286D01*
X129300295Y-133514286D02*
X129538390Y-133514286D01*
X129538390Y-133514286D02*
X129633628Y-133561905D01*
X129633628Y-133561905D02*
X129681247Y-133609524D01*
X129681247Y-133609524D02*
X129728866Y-133704762D01*
X129728866Y-133704762D02*
X129728866Y-133895238D01*
X129728866Y-133895238D02*
X129681247Y-133990476D01*
X129681247Y-133990476D02*
X129633628Y-134038095D01*
X129633628Y-134038095D02*
X129538390Y-134085714D01*
X103657438Y-111463095D02*
X103609819Y-111367857D01*
X103609819Y-111367857D02*
X103609819Y-111225000D01*
X103609819Y-111225000D02*
X103657438Y-111082143D01*
X103657438Y-111082143D02*
X103752676Y-110986905D01*
X103752676Y-110986905D02*
X103847914Y-110939286D01*
X103847914Y-110939286D02*
X104038390Y-110891667D01*
X104038390Y-110891667D02*
X104181247Y-110891667D01*
X104181247Y-110891667D02*
X104371723Y-110939286D01*
X104371723Y-110939286D02*
X104466961Y-110986905D01*
X104466961Y-110986905D02*
X104562200Y-111082143D01*
X104562200Y-111082143D02*
X104609819Y-111225000D01*
X104609819Y-111225000D02*
X104609819Y-111320238D01*
X104609819Y-111320238D02*
X104562200Y-111463095D01*
X104562200Y-111463095D02*
X104514580Y-111510714D01*
X104514580Y-111510714D02*
X104181247Y-111510714D01*
X104181247Y-111510714D02*
X104181247Y-111320238D01*
X104609819Y-111939286D02*
X103609819Y-111939286D01*
X103609819Y-111939286D02*
X104609819Y-112510714D01*
X104609819Y-112510714D02*
X103609819Y-112510714D01*
X104609819Y-112986905D02*
X103609819Y-112986905D01*
X103609819Y-112986905D02*
X103609819Y-113225000D01*
X103609819Y-113225000D02*
X103657438Y-113367857D01*
X103657438Y-113367857D02*
X103752676Y-113463095D01*
X103752676Y-113463095D02*
X103847914Y-113510714D01*
X103847914Y-113510714D02*
X104038390Y-113558333D01*
X104038390Y-113558333D02*
X104181247Y-113558333D01*
X104181247Y-113558333D02*
X104371723Y-113510714D01*
X104371723Y-113510714D02*
X104466961Y-113463095D01*
X104466961Y-113463095D02*
X104562200Y-113367857D01*
X104562200Y-113367857D02*
X104609819Y-113225000D01*
X104609819Y-113225000D02*
X104609819Y-112986905D01*
X119949819Y-132561905D02*
X118949819Y-132561905D01*
X118949819Y-132561905D02*
X118949819Y-132942857D01*
X118949819Y-132942857D02*
X118997438Y-133038095D01*
X118997438Y-133038095D02*
X119045057Y-133085714D01*
X119045057Y-133085714D02*
X119140295Y-133133333D01*
X119140295Y-133133333D02*
X119283152Y-133133333D01*
X119283152Y-133133333D02*
X119378390Y-133085714D01*
X119378390Y-133085714D02*
X119426009Y-133038095D01*
X119426009Y-133038095D02*
X119473628Y-132942857D01*
X119473628Y-132942857D02*
X119473628Y-132561905D01*
X118949819Y-134038095D02*
X118949819Y-133561905D01*
X118949819Y-133561905D02*
X119426009Y-133514286D01*
X119426009Y-133514286D02*
X119378390Y-133561905D01*
X119378390Y-133561905D02*
X119330771Y-133657143D01*
X119330771Y-133657143D02*
X119330771Y-133895238D01*
X119330771Y-133895238D02*
X119378390Y-133990476D01*
X119378390Y-133990476D02*
X119426009Y-134038095D01*
X119426009Y-134038095D02*
X119521247Y-134085714D01*
X119521247Y-134085714D02*
X119759342Y-134085714D01*
X119759342Y-134085714D02*
X119854580Y-134038095D01*
X119854580Y-134038095D02*
X119902200Y-133990476D01*
X119902200Y-133990476D02*
X119949819Y-133895238D01*
X119949819Y-133895238D02*
X119949819Y-133657143D01*
X119949819Y-133657143D02*
X119902200Y-133561905D01*
X119902200Y-133561905D02*
X119854580Y-133514286D01*
X106297438Y-132538095D02*
X106249819Y-132442857D01*
X106249819Y-132442857D02*
X106249819Y-132300000D01*
X106249819Y-132300000D02*
X106297438Y-132157143D01*
X106297438Y-132157143D02*
X106392676Y-132061905D01*
X106392676Y-132061905D02*
X106487914Y-132014286D01*
X106487914Y-132014286D02*
X106678390Y-131966667D01*
X106678390Y-131966667D02*
X106821247Y-131966667D01*
X106821247Y-131966667D02*
X107011723Y-132014286D01*
X107011723Y-132014286D02*
X107106961Y-132061905D01*
X107106961Y-132061905D02*
X107202200Y-132157143D01*
X107202200Y-132157143D02*
X107249819Y-132300000D01*
X107249819Y-132300000D02*
X107249819Y-132395238D01*
X107249819Y-132395238D02*
X107202200Y-132538095D01*
X107202200Y-132538095D02*
X107154580Y-132585714D01*
X107154580Y-132585714D02*
X106821247Y-132585714D01*
X106821247Y-132585714D02*
X106821247Y-132395238D01*
X107249819Y-133014286D02*
X106249819Y-133014286D01*
X106249819Y-133014286D02*
X107249819Y-133585714D01*
X107249819Y-133585714D02*
X106249819Y-133585714D01*
X107249819Y-134061905D02*
X106249819Y-134061905D01*
X106249819Y-134061905D02*
X106249819Y-134300000D01*
X106249819Y-134300000D02*
X106297438Y-134442857D01*
X106297438Y-134442857D02*
X106392676Y-134538095D01*
X106392676Y-134538095D02*
X106487914Y-134585714D01*
X106487914Y-134585714D02*
X106678390Y-134633333D01*
X106678390Y-134633333D02*
X106821247Y-134633333D01*
X106821247Y-134633333D02*
X107011723Y-134585714D01*
X107011723Y-134585714D02*
X107106961Y-134538095D01*
X107106961Y-134538095D02*
X107202200Y-134442857D01*
X107202200Y-134442857D02*
X107249819Y-134300000D01*
X107249819Y-134300000D02*
X107249819Y-134061905D01*
X127569819Y-132561905D02*
X126569819Y-132561905D01*
X126569819Y-132561905D02*
X126569819Y-132942857D01*
X126569819Y-132942857D02*
X126617438Y-133038095D01*
X126617438Y-133038095D02*
X126665057Y-133085714D01*
X126665057Y-133085714D02*
X126760295Y-133133333D01*
X126760295Y-133133333D02*
X126903152Y-133133333D01*
X126903152Y-133133333D02*
X126998390Y-133085714D01*
X126998390Y-133085714D02*
X127046009Y-133038095D01*
X127046009Y-133038095D02*
X127093628Y-132942857D01*
X127093628Y-132942857D02*
X127093628Y-132561905D01*
X126998390Y-133704762D02*
X126950771Y-133609524D01*
X126950771Y-133609524D02*
X126903152Y-133561905D01*
X126903152Y-133561905D02*
X126807914Y-133514286D01*
X126807914Y-133514286D02*
X126760295Y-133514286D01*
X126760295Y-133514286D02*
X126665057Y-133561905D01*
X126665057Y-133561905D02*
X126617438Y-133609524D01*
X126617438Y-133609524D02*
X126569819Y-133704762D01*
X126569819Y-133704762D02*
X126569819Y-133895238D01*
X126569819Y-133895238D02*
X126617438Y-133990476D01*
X126617438Y-133990476D02*
X126665057Y-134038095D01*
X126665057Y-134038095D02*
X126760295Y-134085714D01*
X126760295Y-134085714D02*
X126807914Y-134085714D01*
X126807914Y-134085714D02*
X126903152Y-134038095D01*
X126903152Y-134038095D02*
X126950771Y-133990476D01*
X126950771Y-133990476D02*
X126998390Y-133895238D01*
X126998390Y-133895238D02*
X126998390Y-133704762D01*
X126998390Y-133704762D02*
X127046009Y-133609524D01*
X127046009Y-133609524D02*
X127093628Y-133561905D01*
X127093628Y-133561905D02*
X127188866Y-133514286D01*
X127188866Y-133514286D02*
X127379342Y-133514286D01*
X127379342Y-133514286D02*
X127474580Y-133561905D01*
X127474580Y-133561905D02*
X127522200Y-133609524D01*
X127522200Y-133609524D02*
X127569819Y-133704762D01*
X127569819Y-133704762D02*
X127569819Y-133895238D01*
X127569819Y-133895238D02*
X127522200Y-133990476D01*
X127522200Y-133990476D02*
X127474580Y-134038095D01*
X127474580Y-134038095D02*
X127379342Y-134085714D01*
X127379342Y-134085714D02*
X127188866Y-134085714D01*
X127188866Y-134085714D02*
X127093628Y-134038095D01*
X127093628Y-134038095D02*
X127046009Y-133990476D01*
X127046009Y-133990476D02*
X126998390Y-133895238D01*
X125029819Y-132561905D02*
X124029819Y-132561905D01*
X124029819Y-132561905D02*
X124029819Y-132942857D01*
X124029819Y-132942857D02*
X124077438Y-133038095D01*
X124077438Y-133038095D02*
X124125057Y-133085714D01*
X124125057Y-133085714D02*
X124220295Y-133133333D01*
X124220295Y-133133333D02*
X124363152Y-133133333D01*
X124363152Y-133133333D02*
X124458390Y-133085714D01*
X124458390Y-133085714D02*
X124506009Y-133038095D01*
X124506009Y-133038095D02*
X124553628Y-132942857D01*
X124553628Y-132942857D02*
X124553628Y-132561905D01*
X124029819Y-133466667D02*
X124029819Y-134133333D01*
X124029819Y-134133333D02*
X125029819Y-133704762D01*
X112229819Y-111010714D02*
X111229819Y-111010714D01*
X111229819Y-111010714D02*
X111229819Y-111391666D01*
X111229819Y-111391666D02*
X111277438Y-111486904D01*
X111277438Y-111486904D02*
X111325057Y-111534523D01*
X111325057Y-111534523D02*
X111420295Y-111582142D01*
X111420295Y-111582142D02*
X111563152Y-111582142D01*
X111563152Y-111582142D02*
X111658390Y-111534523D01*
X111658390Y-111534523D02*
X111706009Y-111486904D01*
X111706009Y-111486904D02*
X111753628Y-111391666D01*
X111753628Y-111391666D02*
X111753628Y-111010714D01*
X111325057Y-111963095D02*
X111277438Y-112010714D01*
X111277438Y-112010714D02*
X111229819Y-112105952D01*
X111229819Y-112105952D02*
X111229819Y-112344047D01*
X111229819Y-112344047D02*
X111277438Y-112439285D01*
X111277438Y-112439285D02*
X111325057Y-112486904D01*
X111325057Y-112486904D02*
X111420295Y-112534523D01*
X111420295Y-112534523D02*
X111515533Y-112534523D01*
X111515533Y-112534523D02*
X111658390Y-112486904D01*
X111658390Y-112486904D02*
X112229819Y-111915476D01*
X112229819Y-111915476D02*
X112229819Y-112534523D01*
X112229819Y-113486904D02*
X112229819Y-112915476D01*
X112229819Y-113201190D02*
X111229819Y-113201190D01*
X111229819Y-113201190D02*
X111372676Y-113105952D01*
X111372676Y-113105952D02*
X111467914Y-113010714D01*
X111467914Y-113010714D02*
X111515533Y-112915476D01*
X119849819Y-111010714D02*
X118849819Y-111010714D01*
X118849819Y-111010714D02*
X118849819Y-111391666D01*
X118849819Y-111391666D02*
X118897438Y-111486904D01*
X118897438Y-111486904D02*
X118945057Y-111534523D01*
X118945057Y-111534523D02*
X119040295Y-111582142D01*
X119040295Y-111582142D02*
X119183152Y-111582142D01*
X119183152Y-111582142D02*
X119278390Y-111534523D01*
X119278390Y-111534523D02*
X119326009Y-111486904D01*
X119326009Y-111486904D02*
X119373628Y-111391666D01*
X119373628Y-111391666D02*
X119373628Y-111010714D01*
X119849819Y-112534523D02*
X119849819Y-111963095D01*
X119849819Y-112248809D02*
X118849819Y-112248809D01*
X118849819Y-112248809D02*
X118992676Y-112153571D01*
X118992676Y-112153571D02*
X119087914Y-112058333D01*
X119087914Y-112058333D02*
X119135533Y-111963095D01*
X119278390Y-113105952D02*
X119230771Y-113010714D01*
X119230771Y-113010714D02*
X119183152Y-112963095D01*
X119183152Y-112963095D02*
X119087914Y-112915476D01*
X119087914Y-112915476D02*
X119040295Y-112915476D01*
X119040295Y-112915476D02*
X118945057Y-112963095D01*
X118945057Y-112963095D02*
X118897438Y-113010714D01*
X118897438Y-113010714D02*
X118849819Y-113105952D01*
X118849819Y-113105952D02*
X118849819Y-113296428D01*
X118849819Y-113296428D02*
X118897438Y-113391666D01*
X118897438Y-113391666D02*
X118945057Y-113439285D01*
X118945057Y-113439285D02*
X119040295Y-113486904D01*
X119040295Y-113486904D02*
X119087914Y-113486904D01*
X119087914Y-113486904D02*
X119183152Y-113439285D01*
X119183152Y-113439285D02*
X119230771Y-113391666D01*
X119230771Y-113391666D02*
X119278390Y-113296428D01*
X119278390Y-113296428D02*
X119278390Y-113105952D01*
X119278390Y-113105952D02*
X119326009Y-113010714D01*
X119326009Y-113010714D02*
X119373628Y-112963095D01*
X119373628Y-112963095D02*
X119468866Y-112915476D01*
X119468866Y-112915476D02*
X119659342Y-112915476D01*
X119659342Y-112915476D02*
X119754580Y-112963095D01*
X119754580Y-112963095D02*
X119802200Y-113010714D01*
X119802200Y-113010714D02*
X119849819Y-113105952D01*
X119849819Y-113105952D02*
X119849819Y-113296428D01*
X119849819Y-113296428D02*
X119802200Y-113391666D01*
X119802200Y-113391666D02*
X119754580Y-113439285D01*
X119754580Y-113439285D02*
X119659342Y-113486904D01*
X119659342Y-113486904D02*
X119468866Y-113486904D01*
X119468866Y-113486904D02*
X119373628Y-113439285D01*
X119373628Y-113439285D02*
X119326009Y-113391666D01*
X119326009Y-113391666D02*
X119278390Y-113296428D01*
X104709819Y-132561905D02*
X103709819Y-132561905D01*
X103709819Y-132561905D02*
X103709819Y-132942857D01*
X103709819Y-132942857D02*
X103757438Y-133038095D01*
X103757438Y-133038095D02*
X103805057Y-133085714D01*
X103805057Y-133085714D02*
X103900295Y-133133333D01*
X103900295Y-133133333D02*
X104043152Y-133133333D01*
X104043152Y-133133333D02*
X104138390Y-133085714D01*
X104138390Y-133085714D02*
X104186009Y-133038095D01*
X104186009Y-133038095D02*
X104233628Y-132942857D01*
X104233628Y-132942857D02*
X104233628Y-132561905D01*
X103709819Y-133752381D02*
X103709819Y-133847619D01*
X103709819Y-133847619D02*
X103757438Y-133942857D01*
X103757438Y-133942857D02*
X103805057Y-133990476D01*
X103805057Y-133990476D02*
X103900295Y-134038095D01*
X103900295Y-134038095D02*
X104090771Y-134085714D01*
X104090771Y-134085714D02*
X104328866Y-134085714D01*
X104328866Y-134085714D02*
X104519342Y-134038095D01*
X104519342Y-134038095D02*
X104614580Y-133990476D01*
X104614580Y-133990476D02*
X104662200Y-133942857D01*
X104662200Y-133942857D02*
X104709819Y-133847619D01*
X104709819Y-133847619D02*
X104709819Y-133752381D01*
X104709819Y-133752381D02*
X104662200Y-133657143D01*
X104662200Y-133657143D02*
X104614580Y-133609524D01*
X104614580Y-133609524D02*
X104519342Y-133561905D01*
X104519342Y-133561905D02*
X104328866Y-133514286D01*
X104328866Y-133514286D02*
X104090771Y-133514286D01*
X104090771Y-133514286D02*
X103900295Y-133561905D01*
X103900295Y-133561905D02*
X103805057Y-133609524D01*
X103805057Y-133609524D02*
X103757438Y-133657143D01*
X103757438Y-133657143D02*
X103709819Y-133752381D01*
X112329819Y-132561905D02*
X111329819Y-132561905D01*
X111329819Y-132561905D02*
X111329819Y-132942857D01*
X111329819Y-132942857D02*
X111377438Y-133038095D01*
X111377438Y-133038095D02*
X111425057Y-133085714D01*
X111425057Y-133085714D02*
X111520295Y-133133333D01*
X111520295Y-133133333D02*
X111663152Y-133133333D01*
X111663152Y-133133333D02*
X111758390Y-133085714D01*
X111758390Y-133085714D02*
X111806009Y-133038095D01*
X111806009Y-133038095D02*
X111853628Y-132942857D01*
X111853628Y-132942857D02*
X111853628Y-132561905D01*
X111425057Y-133514286D02*
X111377438Y-133561905D01*
X111377438Y-133561905D02*
X111329819Y-133657143D01*
X111329819Y-133657143D02*
X111329819Y-133895238D01*
X111329819Y-133895238D02*
X111377438Y-133990476D01*
X111377438Y-133990476D02*
X111425057Y-134038095D01*
X111425057Y-134038095D02*
X111520295Y-134085714D01*
X111520295Y-134085714D02*
X111615533Y-134085714D01*
X111615533Y-134085714D02*
X111758390Y-134038095D01*
X111758390Y-134038095D02*
X112329819Y-133466667D01*
X112329819Y-133466667D02*
X112329819Y-134085714D01*
X124929819Y-111010714D02*
X123929819Y-111010714D01*
X123929819Y-111010714D02*
X123929819Y-111391666D01*
X123929819Y-111391666D02*
X123977438Y-111486904D01*
X123977438Y-111486904D02*
X124025057Y-111534523D01*
X124025057Y-111534523D02*
X124120295Y-111582142D01*
X124120295Y-111582142D02*
X124263152Y-111582142D01*
X124263152Y-111582142D02*
X124358390Y-111534523D01*
X124358390Y-111534523D02*
X124406009Y-111486904D01*
X124406009Y-111486904D02*
X124453628Y-111391666D01*
X124453628Y-111391666D02*
X124453628Y-111010714D01*
X124929819Y-112534523D02*
X124929819Y-111963095D01*
X124929819Y-112248809D02*
X123929819Y-112248809D01*
X123929819Y-112248809D02*
X124072676Y-112153571D01*
X124072676Y-112153571D02*
X124167914Y-112058333D01*
X124167914Y-112058333D02*
X124215533Y-111963095D01*
X124263152Y-113391666D02*
X124929819Y-113391666D01*
X123882200Y-113153571D02*
X124596485Y-112915476D01*
X124596485Y-112915476D02*
X124596485Y-113534523D01*
X117309819Y-111010714D02*
X116309819Y-111010714D01*
X116309819Y-111010714D02*
X116309819Y-111391666D01*
X116309819Y-111391666D02*
X116357438Y-111486904D01*
X116357438Y-111486904D02*
X116405057Y-111534523D01*
X116405057Y-111534523D02*
X116500295Y-111582142D01*
X116500295Y-111582142D02*
X116643152Y-111582142D01*
X116643152Y-111582142D02*
X116738390Y-111534523D01*
X116738390Y-111534523D02*
X116786009Y-111486904D01*
X116786009Y-111486904D02*
X116833628Y-111391666D01*
X116833628Y-111391666D02*
X116833628Y-111010714D01*
X117309819Y-112534523D02*
X117309819Y-111963095D01*
X117309819Y-112248809D02*
X116309819Y-112248809D01*
X116309819Y-112248809D02*
X116452676Y-112153571D01*
X116452676Y-112153571D02*
X116547914Y-112058333D01*
X116547914Y-112058333D02*
X116595533Y-111963095D01*
X117309819Y-113010714D02*
X117309819Y-113201190D01*
X117309819Y-113201190D02*
X117262200Y-113296428D01*
X117262200Y-113296428D02*
X117214580Y-113344047D01*
X117214580Y-113344047D02*
X117071723Y-113439285D01*
X117071723Y-113439285D02*
X116881247Y-113486904D01*
X116881247Y-113486904D02*
X116500295Y-113486904D01*
X116500295Y-113486904D02*
X116405057Y-113439285D01*
X116405057Y-113439285D02*
X116357438Y-113391666D01*
X116357438Y-113391666D02*
X116309819Y-113296428D01*
X116309819Y-113296428D02*
X116309819Y-113105952D01*
X116309819Y-113105952D02*
X116357438Y-113010714D01*
X116357438Y-113010714D02*
X116405057Y-112963095D01*
X116405057Y-112963095D02*
X116500295Y-112915476D01*
X116500295Y-112915476D02*
X116738390Y-112915476D01*
X116738390Y-112915476D02*
X116833628Y-112963095D01*
X116833628Y-112963095D02*
X116881247Y-113010714D01*
X116881247Y-113010714D02*
X116928866Y-113105952D01*
X116928866Y-113105952D02*
X116928866Y-113296428D01*
X116928866Y-113296428D02*
X116881247Y-113391666D01*
X116881247Y-113391666D02*
X116833628Y-113439285D01*
X116833628Y-113439285D02*
X116738390Y-113486904D01*
X117409819Y-132561905D02*
X116409819Y-132561905D01*
X116409819Y-132561905D02*
X116409819Y-132942857D01*
X116409819Y-132942857D02*
X116457438Y-133038095D01*
X116457438Y-133038095D02*
X116505057Y-133085714D01*
X116505057Y-133085714D02*
X116600295Y-133133333D01*
X116600295Y-133133333D02*
X116743152Y-133133333D01*
X116743152Y-133133333D02*
X116838390Y-133085714D01*
X116838390Y-133085714D02*
X116886009Y-133038095D01*
X116886009Y-133038095D02*
X116933628Y-132942857D01*
X116933628Y-132942857D02*
X116933628Y-132561905D01*
X116743152Y-133990476D02*
X117409819Y-133990476D01*
X116362200Y-133752381D02*
X117076485Y-133514286D01*
X117076485Y-133514286D02*
X117076485Y-134133333D01*
X108689819Y-110891667D02*
X109689819Y-111225000D01*
X109689819Y-111225000D02*
X108689819Y-111558333D01*
X109594580Y-112463095D02*
X109642200Y-112415476D01*
X109642200Y-112415476D02*
X109689819Y-112272619D01*
X109689819Y-112272619D02*
X109689819Y-112177381D01*
X109689819Y-112177381D02*
X109642200Y-112034524D01*
X109642200Y-112034524D02*
X109546961Y-111939286D01*
X109546961Y-111939286D02*
X109451723Y-111891667D01*
X109451723Y-111891667D02*
X109261247Y-111844048D01*
X109261247Y-111844048D02*
X109118390Y-111844048D01*
X109118390Y-111844048D02*
X108927914Y-111891667D01*
X108927914Y-111891667D02*
X108832676Y-111939286D01*
X108832676Y-111939286D02*
X108737438Y-112034524D01*
X108737438Y-112034524D02*
X108689819Y-112177381D01*
X108689819Y-112177381D02*
X108689819Y-112272619D01*
X108689819Y-112272619D02*
X108737438Y-112415476D01*
X108737438Y-112415476D02*
X108785057Y-112463095D01*
X109594580Y-113463095D02*
X109642200Y-113415476D01*
X109642200Y-113415476D02*
X109689819Y-113272619D01*
X109689819Y-113272619D02*
X109689819Y-113177381D01*
X109689819Y-113177381D02*
X109642200Y-113034524D01*
X109642200Y-113034524D02*
X109546961Y-112939286D01*
X109546961Y-112939286D02*
X109451723Y-112891667D01*
X109451723Y-112891667D02*
X109261247Y-112844048D01*
X109261247Y-112844048D02*
X109118390Y-112844048D01*
X109118390Y-112844048D02*
X108927914Y-112891667D01*
X108927914Y-112891667D02*
X108832676Y-112939286D01*
X108832676Y-112939286D02*
X108737438Y-113034524D01*
X108737438Y-113034524D02*
X108689819Y-113177381D01*
X108689819Y-113177381D02*
X108689819Y-113272619D01*
X108689819Y-113272619D02*
X108737438Y-113415476D01*
X108737438Y-113415476D02*
X108785057Y-113463095D01*
D11*
%TO.C,D5*%
X184750000Y-129000000D02*
X185150000Y-129000000D01*
X185150000Y-129000000D02*
X185150000Y-128450000D01*
X185150000Y-129000000D02*
X185150000Y-129550000D01*
X185150000Y-129000000D02*
X185750000Y-128600000D01*
X185750000Y-128600000D02*
X185750000Y-129400000D01*
X185750000Y-129000000D02*
X186250000Y-129000000D01*
X185750000Y-129400000D02*
X185150000Y-129000000D01*
%TO.C,D28*%
X180000000Y-167000000D02*
X180400000Y-167000000D01*
X180400000Y-167000000D02*
X180400000Y-166450000D01*
X180400000Y-167000000D02*
X180400000Y-167550000D01*
X180400000Y-167000000D02*
X181000000Y-166600000D01*
X181000000Y-166600000D02*
X181000000Y-167400000D01*
X181000000Y-167000000D02*
X181500000Y-167000000D01*
X181000000Y-167400000D02*
X180400000Y-167000000D01*
%TO.C,D16*%
X170500000Y-148000000D02*
X170900000Y-148000000D01*
X170900000Y-148000000D02*
X170900000Y-147450000D01*
X170900000Y-148000000D02*
X170900000Y-148550000D01*
X170900000Y-148000000D02*
X171500000Y-147600000D01*
X171500000Y-147600000D02*
X171500000Y-148400000D01*
X171500000Y-148000000D02*
X172000000Y-148000000D01*
X171500000Y-148400000D02*
X170900000Y-148000000D01*
%TO.C,D42*%
X275000000Y-186000000D02*
X275400000Y-186000000D01*
X275400000Y-186000000D02*
X275400000Y-185450000D01*
X275400000Y-186000000D02*
X275400000Y-186550000D01*
X275400000Y-186000000D02*
X276000000Y-185600000D01*
X276000000Y-185600000D02*
X276000000Y-186400000D01*
X276000000Y-186000000D02*
X276500000Y-186000000D01*
X276000000Y-186400000D02*
X275400000Y-186000000D01*
%TO.C,D4*%
X165750000Y-129000000D02*
X166150000Y-129000000D01*
X166150000Y-129000000D02*
X166150000Y-128450000D01*
X166150000Y-129000000D02*
X166150000Y-129550000D01*
X166150000Y-129000000D02*
X166750000Y-128600000D01*
X166750000Y-128600000D02*
X166750000Y-129400000D01*
X166750000Y-129000000D02*
X167250000Y-129000000D01*
X166750000Y-129400000D02*
X166150000Y-129000000D01*
%TO.C,D10*%
X279750000Y-129000000D02*
X280150000Y-129000000D01*
X280150000Y-129000000D02*
X280150000Y-128450000D01*
X280150000Y-129000000D02*
X280150000Y-129550000D01*
X280150000Y-129000000D02*
X280750000Y-128600000D01*
X280750000Y-128600000D02*
X280750000Y-129400000D01*
X280750000Y-129000000D02*
X281250000Y-129000000D01*
X280750000Y-129400000D02*
X280150000Y-129000000D01*
%TO.C,D29*%
X199000000Y-167000000D02*
X199400000Y-167000000D01*
X199400000Y-167000000D02*
X199400000Y-166450000D01*
X199400000Y-167000000D02*
X199400000Y-167550000D01*
X199400000Y-167000000D02*
X200000000Y-166600000D01*
X200000000Y-166600000D02*
X200000000Y-167400000D01*
X200000000Y-167000000D02*
X200500000Y-167000000D01*
X200000000Y-167400000D02*
X199400000Y-167000000D01*
%TO.C,D22*%
X284500000Y-148000000D02*
X284900000Y-148000000D01*
X284900000Y-148000000D02*
X284900000Y-147450000D01*
X284900000Y-148000000D02*
X284900000Y-148550000D01*
X284900000Y-148000000D02*
X285500000Y-147600000D01*
X285500000Y-147600000D02*
X285500000Y-148400000D01*
X285500000Y-148000000D02*
X286000000Y-148000000D01*
X285500000Y-148400000D02*
X284900000Y-148000000D01*
%TO.C,D9*%
X260750000Y-129000000D02*
X261150000Y-129000000D01*
X261150000Y-129000000D02*
X261150000Y-128450000D01*
X261150000Y-129000000D02*
X261150000Y-129550000D01*
X261150000Y-129000000D02*
X261750000Y-128600000D01*
X261750000Y-128600000D02*
X261750000Y-129400000D01*
X261750000Y-129000000D02*
X262250000Y-129000000D01*
X261750000Y-129400000D02*
X261150000Y-129000000D01*
%TO.C,D2*%
X119650002Y-123049999D02*
X120050000Y-122450003D01*
X120049999Y-123049999D02*
X120050000Y-123550000D01*
X120050000Y-122050000D02*
X120050000Y-122450003D01*
X120050000Y-122450003D02*
X119499997Y-122450000D01*
X120050000Y-122450003D02*
X120449999Y-123049998D01*
X120050000Y-122450003D02*
X120600000Y-122450000D01*
X120449999Y-123049998D02*
X119650002Y-123049999D01*
%TO.C,D44*%
X313000000Y-186000000D02*
X313400000Y-186000000D01*
X313400000Y-186000000D02*
X313400000Y-185450000D01*
X313400000Y-186000000D02*
X313400000Y-186550000D01*
X313400000Y-186000000D02*
X314000000Y-185600000D01*
X314000000Y-185600000D02*
X314000000Y-186400000D01*
X314000000Y-186000000D02*
X314500000Y-186000000D01*
X314000000Y-186400000D02*
X313400000Y-186000000D01*
%TO.C,D40*%
X196625000Y-186000000D02*
X197025000Y-186000000D01*
X197025000Y-186000000D02*
X197025000Y-185450000D01*
X197025000Y-186000000D02*
X197025000Y-186550000D01*
X197025000Y-186000000D02*
X197625000Y-185600000D01*
X197625000Y-185600000D02*
X197625000Y-186400000D01*
X197625000Y-186000000D02*
X198125000Y-186000000D01*
X197625000Y-186400000D02*
X197025000Y-186000000D01*
%TO.C,D30*%
X218000000Y-167000000D02*
X218400000Y-167000000D01*
X218400000Y-167000000D02*
X218400000Y-166450000D01*
X218400000Y-167000000D02*
X218400000Y-167550000D01*
X218400000Y-167000000D02*
X219000000Y-166600000D01*
X219000000Y-166600000D02*
X219000000Y-167400000D01*
X219000000Y-167000000D02*
X219500000Y-167000000D01*
X219000000Y-167400000D02*
X218400000Y-167000000D01*
%TO.C,D27*%
X161000000Y-167000000D02*
X161400000Y-167000000D01*
X161400000Y-167000000D02*
X161400000Y-166450000D01*
X161400000Y-167000000D02*
X161400000Y-167550000D01*
X161400000Y-167000000D02*
X162000000Y-166600000D01*
X162000000Y-166600000D02*
X162000000Y-167400000D01*
X162000000Y-167000000D02*
X162500000Y-167000000D01*
X162000000Y-167400000D02*
X161400000Y-167000000D01*
%TO.C,D1*%
X100475002Y-122724999D02*
X100875000Y-122125003D01*
X100874999Y-122724999D02*
X100875000Y-123225000D01*
X100875000Y-121725000D02*
X100875000Y-122125003D01*
X100875000Y-122125003D02*
X100324997Y-122125000D01*
X100875000Y-122125003D02*
X101274999Y-122724998D01*
X100875000Y-122125003D02*
X101425000Y-122125000D01*
X101274999Y-122724998D02*
X100475002Y-122724999D01*
%TO.C,D31*%
X237000000Y-167000000D02*
X237400000Y-167000000D01*
X237400000Y-167000000D02*
X237400000Y-166450000D01*
X237400000Y-167000000D02*
X237400000Y-167550000D01*
X237400000Y-167000000D02*
X238000000Y-166600000D01*
X238000000Y-166600000D02*
X238000000Y-167400000D01*
X238000000Y-167000000D02*
X238500000Y-167000000D01*
X238000000Y-167400000D02*
X237400000Y-167000000D01*
%TO.C,D41*%
X244125000Y-186000000D02*
X244525000Y-186000000D01*
X244525000Y-186000000D02*
X244525000Y-185450000D01*
X244525000Y-186000000D02*
X244525000Y-186550000D01*
X244525000Y-186000000D02*
X245125000Y-185600000D01*
X245125000Y-185600000D02*
X245125000Y-186400000D01*
X245125000Y-186000000D02*
X245625000Y-186000000D01*
X245125000Y-186400000D02*
X244525000Y-186000000D01*
%TO.C,D17*%
X189500000Y-148000000D02*
X189900000Y-148000000D01*
X189900000Y-148000000D02*
X189900000Y-147450000D01*
X189900000Y-148000000D02*
X189900000Y-148550000D01*
X189900000Y-148000000D02*
X190500000Y-147600000D01*
X190500000Y-147600000D02*
X190500000Y-148400000D01*
X190500000Y-148000000D02*
X191000000Y-148000000D01*
X190500000Y-148400000D02*
X189900000Y-148000000D01*
%TO.C,D38*%
X134875000Y-186000000D02*
X135275000Y-186000000D01*
X135275000Y-186000000D02*
X135275000Y-185450000D01*
X135275000Y-186000000D02*
X135275000Y-186550000D01*
X135275000Y-186000000D02*
X135875000Y-185600000D01*
X135875000Y-185600000D02*
X135875000Y-186400000D01*
X135875000Y-186000000D02*
X136375000Y-186000000D01*
X135875000Y-186400000D02*
X135275000Y-186000000D01*
%TO.C,D36*%
X332000000Y-167000000D02*
X332400000Y-167000000D01*
X332400000Y-167000000D02*
X332400000Y-166450000D01*
X332400000Y-167000000D02*
X332400000Y-167550000D01*
X332400000Y-167000000D02*
X333000000Y-166600000D01*
X333000000Y-166600000D02*
X333000000Y-167400000D01*
X333000000Y-167000000D02*
X333500000Y-167000000D01*
X333000000Y-167400000D02*
X332400000Y-167000000D01*
%TO.C,D15*%
X151500000Y-148000000D02*
X151900000Y-148000000D01*
X151900000Y-148000000D02*
X151900000Y-147450000D01*
X151900000Y-148000000D02*
X151900000Y-148550000D01*
X151900000Y-148000000D02*
X152500000Y-147600000D01*
X152500000Y-147600000D02*
X152500000Y-148400000D01*
X152500000Y-148000000D02*
X153000000Y-148000000D01*
X152500000Y-148400000D02*
X151900000Y-148000000D01*
%TO.C,D43*%
X294000000Y-186000000D02*
X294400000Y-186000000D01*
X294400000Y-186000000D02*
X294400000Y-185450000D01*
X294400000Y-186000000D02*
X294400000Y-186550000D01*
X294400000Y-186000000D02*
X295000000Y-185600000D01*
X295000000Y-185600000D02*
X295000000Y-186400000D01*
X295000000Y-186000000D02*
X295500000Y-186000000D01*
X295000000Y-186400000D02*
X294400000Y-186000000D01*
%TO.C,D25*%
X115875000Y-167000000D02*
X116275000Y-167000000D01*
X116275000Y-167000000D02*
X116275000Y-166450000D01*
X116275000Y-167000000D02*
X116275000Y-167550000D01*
X116275000Y-167000000D02*
X116875000Y-166600000D01*
X116875000Y-166600000D02*
X116875000Y-167400000D01*
X116875000Y-167000000D02*
X117375000Y-167000000D01*
X116875000Y-167400000D02*
X116275000Y-167000000D01*
%TO.C,D11*%
X298750000Y-129000000D02*
X299150000Y-129000000D01*
X299150000Y-129000000D02*
X299150000Y-128450000D01*
X299150000Y-129000000D02*
X299150000Y-129550000D01*
X299150000Y-129000000D02*
X299750000Y-128600000D01*
X299750000Y-128600000D02*
X299750000Y-129400000D01*
X299750000Y-129000000D02*
X300250000Y-129000000D01*
X299750000Y-129400000D02*
X299150000Y-129000000D01*
%TO.C,D7*%
X222750000Y-129000000D02*
X223150000Y-129000000D01*
X223150000Y-129000000D02*
X223150000Y-128450000D01*
X223150000Y-129000000D02*
X223150000Y-129550000D01*
X223150000Y-129000000D02*
X223750000Y-128600000D01*
X223750000Y-128600000D02*
X223750000Y-129400000D01*
X223750000Y-129000000D02*
X224250000Y-129000000D01*
X223750000Y-129400000D02*
X223150000Y-129000000D01*
%TO.C,D37*%
X111125000Y-186000000D02*
X111525000Y-186000000D01*
X111525000Y-186000000D02*
X111525000Y-185450000D01*
X111525000Y-186000000D02*
X111525000Y-186550000D01*
X111525000Y-186000000D02*
X112125000Y-185600000D01*
X112125000Y-185600000D02*
X112125000Y-186400000D01*
X112125000Y-186000000D02*
X112625000Y-186000000D01*
X112125000Y-186400000D02*
X111525000Y-186000000D01*
%TO.C,D3*%
X146750000Y-129000000D02*
X147150000Y-129000000D01*
X147150000Y-129000000D02*
X147150000Y-128450000D01*
X147150000Y-129000000D02*
X147150000Y-129550000D01*
X147150000Y-129000000D02*
X147750000Y-128600000D01*
X147750000Y-128600000D02*
X147750000Y-129400000D01*
X147750000Y-129000000D02*
X148250000Y-129000000D01*
X147750000Y-129400000D02*
X147150000Y-129000000D01*
%TO.C,D6*%
X203750000Y-129000000D02*
X204150000Y-129000000D01*
X204150000Y-129000000D02*
X204150000Y-128450000D01*
X204150000Y-129000000D02*
X204150000Y-129550000D01*
X204150000Y-129000000D02*
X204750000Y-128600000D01*
X204750000Y-128600000D02*
X204750000Y-129400000D01*
X204750000Y-129000000D02*
X205250000Y-129000000D01*
X204750000Y-129400000D02*
X204150000Y-129000000D01*
%TO.C,D32*%
X256000000Y-167000000D02*
X256400000Y-167000000D01*
X256400000Y-167000000D02*
X256400000Y-166450000D01*
X256400000Y-167000000D02*
X256400000Y-167550000D01*
X256400000Y-167000000D02*
X257000000Y-166600000D01*
X257000000Y-166600000D02*
X257000000Y-167400000D01*
X257000000Y-167000000D02*
X257500000Y-167000000D01*
X257000000Y-167400000D02*
X256400000Y-167000000D01*
%TO.C,D13*%
X111125000Y-148000000D02*
X111525000Y-148000000D01*
X111525000Y-148000000D02*
X111525000Y-147450000D01*
X111525000Y-148000000D02*
X111525000Y-148550000D01*
X111525000Y-148000000D02*
X112125000Y-147600000D01*
X112125000Y-147600000D02*
X112125000Y-148400000D01*
X112125000Y-148000000D02*
X112625000Y-148000000D01*
X112125000Y-148400000D02*
X111525000Y-148000000D01*
%TO.C,D26*%
X142000000Y-167000000D02*
X142400000Y-167000000D01*
X142400000Y-167000000D02*
X142400000Y-166450000D01*
X142400000Y-167000000D02*
X142400000Y-167550000D01*
X142400000Y-167000000D02*
X143000000Y-166600000D01*
X143000000Y-166600000D02*
X143000000Y-167400000D01*
X143000000Y-167000000D02*
X143500000Y-167000000D01*
X143000000Y-167400000D02*
X142400000Y-167000000D01*
%TO.C,D14*%
X132500000Y-148000000D02*
X132900000Y-148000000D01*
X132900000Y-148000000D02*
X132900000Y-147450000D01*
X132900000Y-148000000D02*
X132900000Y-148550000D01*
X132900000Y-148000000D02*
X133500000Y-147600000D01*
X133500000Y-147600000D02*
X133500000Y-148400000D01*
X133500000Y-148000000D02*
X134000000Y-148000000D01*
X133500000Y-148400000D02*
X132900000Y-148000000D01*
%TO.C,D34*%
X294000000Y-167000000D02*
X294400000Y-167000000D01*
X294400000Y-167000000D02*
X294400000Y-166450000D01*
X294400000Y-167000000D02*
X294400000Y-167550000D01*
X294400000Y-167000000D02*
X295000000Y-166600000D01*
X295000000Y-166600000D02*
X295000000Y-167400000D01*
X295000000Y-167000000D02*
X295500000Y-167000000D01*
X295000000Y-167400000D02*
X294400000Y-167000000D01*
%TO.C,D24*%
X327250000Y-148000000D02*
X327650000Y-148000000D01*
X327650000Y-148000000D02*
X327650000Y-147450000D01*
X327650000Y-148000000D02*
X327650000Y-148550000D01*
X327650000Y-148000000D02*
X328250000Y-147600000D01*
X328250000Y-147600000D02*
X328250000Y-148400000D01*
X328250000Y-148000000D02*
X328750000Y-148000000D01*
X328250000Y-148400000D02*
X327650000Y-148000000D01*
%TO.C,D39*%
X158625000Y-186000000D02*
X159025000Y-186000000D01*
X159025000Y-186000000D02*
X159025000Y-185450000D01*
X159025000Y-186000000D02*
X159025000Y-186550000D01*
X159025000Y-186000000D02*
X159625000Y-185600000D01*
X159625000Y-185600000D02*
X159625000Y-186400000D01*
X159625000Y-186000000D02*
X160125000Y-186000000D01*
X159625000Y-186400000D02*
X159025000Y-186000000D01*
%TO.C,D12*%
X324970000Y-129000000D02*
X325370000Y-129000000D01*
X325370000Y-129000000D02*
X325370000Y-128450000D01*
X325370000Y-129000000D02*
X325370000Y-129550000D01*
X325370000Y-129000000D02*
X325970000Y-128600000D01*
X325970000Y-128600000D02*
X325970000Y-129400000D01*
X325970000Y-129000000D02*
X326470000Y-129000000D01*
X325970000Y-129400000D02*
X325370000Y-129000000D01*
%TO.C,D19*%
X227500000Y-148000000D02*
X227900000Y-148000000D01*
X227900000Y-148000000D02*
X227900000Y-147450000D01*
X227900000Y-148000000D02*
X227900000Y-148550000D01*
X227900000Y-148000000D02*
X228500000Y-147600000D01*
X228500000Y-147600000D02*
X228500000Y-148400000D01*
X228500000Y-148000000D02*
X229000000Y-148000000D01*
X228500000Y-148400000D02*
X227900000Y-148000000D01*
%TO.C,D35*%
X313000000Y-167000000D02*
X313400000Y-167000000D01*
X313400000Y-167000000D02*
X313400000Y-166450000D01*
X313400000Y-167000000D02*
X313400000Y-167550000D01*
X313400000Y-167000000D02*
X314000000Y-166600000D01*
X314000000Y-166600000D02*
X314000000Y-167400000D01*
X314000000Y-167000000D02*
X314500000Y-167000000D01*
X314000000Y-167400000D02*
X313400000Y-167000000D01*
%TO.C,D21*%
X265500000Y-148000000D02*
X265900000Y-148000000D01*
X265900000Y-148000000D02*
X265900000Y-147450000D01*
X265900000Y-148000000D02*
X265900000Y-148550000D01*
X265900000Y-148000000D02*
X266500000Y-147600000D01*
X266500000Y-147600000D02*
X266500000Y-148400000D01*
X266500000Y-148000000D02*
X267000000Y-148000000D01*
X266500000Y-148400000D02*
X265900000Y-148000000D01*
%TO.C,D45*%
X332000000Y-186000000D02*
X332400000Y-186000000D01*
X332400000Y-186000000D02*
X332400000Y-185450000D01*
X332400000Y-186000000D02*
X332400000Y-186550000D01*
X332400000Y-186000000D02*
X333000000Y-185600000D01*
X333000000Y-185600000D02*
X333000000Y-186400000D01*
X333000000Y-186000000D02*
X333500000Y-186000000D01*
X333000000Y-186400000D02*
X332400000Y-186000000D01*
%TO.C,D18*%
X208500000Y-148000000D02*
X208900000Y-148000000D01*
X208900000Y-148000000D02*
X208900000Y-147450000D01*
X208900000Y-148000000D02*
X208900000Y-148550000D01*
X208900000Y-148000000D02*
X209500000Y-147600000D01*
X209500000Y-147600000D02*
X209500000Y-148400000D01*
X209500000Y-148000000D02*
X210000000Y-148000000D01*
X209500000Y-148400000D02*
X208900000Y-148000000D01*
%TO.C,D8*%
X241750000Y-129000000D02*
X242150000Y-129000000D01*
X242150000Y-129000000D02*
X242150000Y-128450000D01*
X242150000Y-129000000D02*
X242150000Y-129550000D01*
X242150000Y-129000000D02*
X242750000Y-128600000D01*
X242750000Y-128600000D02*
X242750000Y-129400000D01*
X242750000Y-129000000D02*
X243250000Y-129000000D01*
X242750000Y-129400000D02*
X242150000Y-129000000D01*
%TO.C,D33*%
X275000000Y-167000000D02*
X275400000Y-167000000D01*
X275400000Y-167000000D02*
X275400000Y-166450000D01*
X275400000Y-167000000D02*
X275400000Y-167550000D01*
X275400000Y-167000000D02*
X276000000Y-166600000D01*
X276000000Y-166600000D02*
X276000000Y-167400000D01*
X276000000Y-167000000D02*
X276500000Y-167000000D01*
X276000000Y-167400000D02*
X275400000Y-167000000D01*
%TO.C,D20*%
X246500000Y-148000000D02*
X246900000Y-148000000D01*
X246900000Y-148000000D02*
X246900000Y-147450000D01*
X246900000Y-148000000D02*
X246900000Y-148550000D01*
X246900000Y-148000000D02*
X247500000Y-147600000D01*
X247500000Y-147600000D02*
X247500000Y-148400000D01*
X247500000Y-148000000D02*
X248000000Y-148000000D01*
X247500000Y-148400000D02*
X246900000Y-148000000D01*
%TO.C,D23*%
X303500000Y-148000000D02*
X303900000Y-148000000D01*
X303900000Y-148000000D02*
X303900000Y-147450000D01*
X303900000Y-148000000D02*
X303900000Y-148550000D01*
X303900000Y-148000000D02*
X304500000Y-147600000D01*
X304500000Y-147600000D02*
X304500000Y-148400000D01*
X304500000Y-148000000D02*
X305000000Y-148000000D01*
X304500000Y-148400000D02*
X303900000Y-148000000D01*
D12*
%TO.C,S17*%
X191800000Y-142050000D02*
X192000000Y-142600000D01*
X192400000Y-143150000D01*
X192700000Y-143400000D01*
X193200000Y-143700000D01*
X193800000Y-143850000D01*
X194300000Y-143850000D01*
X194750000Y-143750000D01*
X195000000Y-143650000D01*
X195450000Y-143400000D01*
X195600000Y-143500000D01*
X195750000Y-143600000D01*
X195750000Y-144000000D01*
X195650000Y-144400000D01*
X195500000Y-144650000D01*
X195350000Y-144850000D01*
X195200000Y-145000000D01*
X195000000Y-145150000D01*
X194850000Y-145250000D01*
X194650000Y-145350000D01*
X194350000Y-145450000D01*
X194050000Y-145500000D01*
X193850000Y-145500000D01*
X189500000Y-145500000D01*
X189800000Y-145050000D01*
X189950000Y-144650000D01*
X190000000Y-144400000D01*
X190000000Y-144050000D01*
X190000000Y-143750000D01*
X189900000Y-143350000D01*
X189750000Y-143000000D01*
X189600000Y-142750000D01*
X189300000Y-142400000D01*
X189050000Y-142200000D01*
X188600000Y-141950000D01*
X190650000Y-141950000D01*
X191150000Y-141900000D01*
X191500000Y-141800000D01*
X191750000Y-141600000D01*
X191800000Y-142050000D01*
G36*
X191800000Y-142050000D02*
G01*
X192000000Y-142600000D01*
X192400000Y-143150000D01*
X192700000Y-143400000D01*
X193200000Y-143700000D01*
X193800000Y-143850000D01*
X194300000Y-143850000D01*
X194750000Y-143750000D01*
X195000000Y-143650000D01*
X195450000Y-143400000D01*
X195600000Y-143500000D01*
X195750000Y-143600000D01*
X195750000Y-144000000D01*
X195650000Y-144400000D01*
X195500000Y-144650000D01*
X195350000Y-144850000D01*
X195200000Y-145000000D01*
X195000000Y-145150000D01*
X194850000Y-145250000D01*
X194650000Y-145350000D01*
X194350000Y-145450000D01*
X194050000Y-145500000D01*
X193850000Y-145500000D01*
X189500000Y-145500000D01*
X189800000Y-145050000D01*
X189950000Y-144650000D01*
X190000000Y-144400000D01*
X190000000Y-144050000D01*
X190000000Y-143750000D01*
X189900000Y-143350000D01*
X189750000Y-143000000D01*
X189600000Y-142750000D01*
X189300000Y-142400000D01*
X189050000Y-142200000D01*
X188600000Y-141950000D01*
X190650000Y-141950000D01*
X191150000Y-141900000D01*
X191500000Y-141800000D01*
X191750000Y-141600000D01*
X191800000Y-142050000D01*
G37*
D13*
%TO.C,JST1*%
X126540000Y-152865000D02*
X126540000Y-153865000D01*
X126540000Y-160685000D02*
X126540000Y-159685000D01*
X127460000Y-160685000D02*
X126540000Y-160685000D01*
X127540000Y-152865000D02*
X126540000Y-152865000D01*
D11*
X128100000Y-161725000D02*
X129100000Y-161725000D01*
X128600000Y-161225000D02*
X128600000Y-162225000D01*
X131100000Y-161725000D02*
X130100000Y-161725000D01*
D13*
X131740000Y-152865000D02*
X132660000Y-152865000D01*
X131740000Y-160685000D02*
X132660000Y-160685000D01*
X132660000Y-152865000D02*
X132660000Y-153865000D01*
X132660000Y-160685000D02*
X132660000Y-159685000D01*
D12*
%TO.C,S25*%
X118175000Y-161050000D02*
X118375000Y-161600000D01*
X118775000Y-162150000D01*
X119075000Y-162400000D01*
X119575000Y-162700000D01*
X120175000Y-162850000D01*
X120675000Y-162850000D01*
X121125000Y-162750000D01*
X121375000Y-162650000D01*
X121825000Y-162400000D01*
X121975000Y-162500000D01*
X122125000Y-162600000D01*
X122125000Y-163000000D01*
X122025000Y-163400000D01*
X121875000Y-163650000D01*
X121725000Y-163850000D01*
X121575000Y-164000000D01*
X121375000Y-164150000D01*
X121225000Y-164250000D01*
X121025000Y-164350000D01*
X120725000Y-164450000D01*
X120425000Y-164500000D01*
X120225000Y-164500000D01*
X115875000Y-164500000D01*
X116175000Y-164050000D01*
X116325000Y-163650000D01*
X116375000Y-163400000D01*
X116375000Y-163050000D01*
X116375000Y-162750000D01*
X116275000Y-162350000D01*
X116125000Y-162000000D01*
X115975000Y-161750000D01*
X115675000Y-161400000D01*
X115425000Y-161200000D01*
X114975000Y-160950000D01*
X117025000Y-160950000D01*
X117525000Y-160900000D01*
X117875000Y-160800000D01*
X118125000Y-160600000D01*
X118175000Y-161050000D01*
G36*
X118175000Y-161050000D02*
G01*
X118375000Y-161600000D01*
X118775000Y-162150000D01*
X119075000Y-162400000D01*
X119575000Y-162700000D01*
X120175000Y-162850000D01*
X120675000Y-162850000D01*
X121125000Y-162750000D01*
X121375000Y-162650000D01*
X121825000Y-162400000D01*
X121975000Y-162500000D01*
X122125000Y-162600000D01*
X122125000Y-163000000D01*
X122025000Y-163400000D01*
X121875000Y-163650000D01*
X121725000Y-163850000D01*
X121575000Y-164000000D01*
X121375000Y-164150000D01*
X121225000Y-164250000D01*
X121025000Y-164350000D01*
X120725000Y-164450000D01*
X120425000Y-164500000D01*
X120225000Y-164500000D01*
X115875000Y-164500000D01*
X116175000Y-164050000D01*
X116325000Y-163650000D01*
X116375000Y-163400000D01*
X116375000Y-163050000D01*
X116375000Y-162750000D01*
X116275000Y-162350000D01*
X116125000Y-162000000D01*
X115975000Y-161750000D01*
X115675000Y-161400000D01*
X115425000Y-161200000D01*
X114975000Y-160950000D01*
X117025000Y-160950000D01*
X117525000Y-160900000D01*
X117875000Y-160800000D01*
X118125000Y-160600000D01*
X118175000Y-161050000D01*
G37*
%TO.C,S37*%
X113425000Y-180050000D02*
X113625000Y-180600000D01*
X114025000Y-181150000D01*
X114325000Y-181400000D01*
X114825000Y-181700000D01*
X115425000Y-181850000D01*
X115925000Y-181850000D01*
X116375000Y-181750000D01*
X116625000Y-181650000D01*
X117075000Y-181400000D01*
X117225000Y-181500000D01*
X117375000Y-181600000D01*
X117375000Y-182000000D01*
X117275000Y-182400000D01*
X117125000Y-182650000D01*
X116975000Y-182850000D01*
X116825000Y-183000000D01*
X116625000Y-183150000D01*
X116475000Y-183250000D01*
X116275000Y-183350000D01*
X115975000Y-183450000D01*
X115675000Y-183500000D01*
X115475000Y-183500000D01*
X111125000Y-183500000D01*
X111425000Y-183050000D01*
X111575000Y-182650000D01*
X111625000Y-182400000D01*
X111625000Y-182050000D01*
X111625000Y-181750000D01*
X111525000Y-181350000D01*
X111375000Y-181000000D01*
X111225000Y-180750000D01*
X110925000Y-180400000D01*
X110675000Y-180200000D01*
X110225000Y-179950000D01*
X112275000Y-179950000D01*
X112775000Y-179900000D01*
X113125000Y-179800000D01*
X113375000Y-179600000D01*
X113425000Y-180050000D01*
G36*
X113425000Y-180050000D02*
G01*
X113625000Y-180600000D01*
X114025000Y-181150000D01*
X114325000Y-181400000D01*
X114825000Y-181700000D01*
X115425000Y-181850000D01*
X115925000Y-181850000D01*
X116375000Y-181750000D01*
X116625000Y-181650000D01*
X117075000Y-181400000D01*
X117225000Y-181500000D01*
X117375000Y-181600000D01*
X117375000Y-182000000D01*
X117275000Y-182400000D01*
X117125000Y-182650000D01*
X116975000Y-182850000D01*
X116825000Y-183000000D01*
X116625000Y-183150000D01*
X116475000Y-183250000D01*
X116275000Y-183350000D01*
X115975000Y-183450000D01*
X115675000Y-183500000D01*
X115475000Y-183500000D01*
X111125000Y-183500000D01*
X111425000Y-183050000D01*
X111575000Y-182650000D01*
X111625000Y-182400000D01*
X111625000Y-182050000D01*
X111625000Y-181750000D01*
X111525000Y-181350000D01*
X111375000Y-181000000D01*
X111225000Y-180750000D01*
X110925000Y-180400000D01*
X110675000Y-180200000D01*
X110225000Y-179950000D01*
X112275000Y-179950000D01*
X112775000Y-179900000D01*
X113125000Y-179800000D01*
X113375000Y-179600000D01*
X113425000Y-180050000D01*
G37*
%TO.C,S19*%
X229800000Y-142050000D02*
X230000000Y-142600000D01*
X230400000Y-143150000D01*
X230700000Y-143400000D01*
X231200000Y-143700000D01*
X231800000Y-143850000D01*
X232300000Y-143850000D01*
X232750000Y-143750000D01*
X233000000Y-143650000D01*
X233450000Y-143400000D01*
X233600000Y-143500000D01*
X233750000Y-143600000D01*
X233750000Y-144000000D01*
X233650000Y-144400000D01*
X233500000Y-144650000D01*
X233350000Y-144850000D01*
X233200000Y-145000000D01*
X233000000Y-145150000D01*
X232850000Y-145250000D01*
X232650000Y-145350000D01*
X232350000Y-145450000D01*
X232050000Y-145500000D01*
X231850000Y-145500000D01*
X227500000Y-145500000D01*
X227800000Y-145050000D01*
X227950000Y-144650000D01*
X228000000Y-144400000D01*
X228000000Y-144050000D01*
X228000000Y-143750000D01*
X227900000Y-143350000D01*
X227750000Y-143000000D01*
X227600000Y-142750000D01*
X227300000Y-142400000D01*
X227050000Y-142200000D01*
X226600000Y-141950000D01*
X228650000Y-141950000D01*
X229150000Y-141900000D01*
X229500000Y-141800000D01*
X229750000Y-141600000D01*
X229800000Y-142050000D01*
G36*
X229800000Y-142050000D02*
G01*
X230000000Y-142600000D01*
X230400000Y-143150000D01*
X230700000Y-143400000D01*
X231200000Y-143700000D01*
X231800000Y-143850000D01*
X232300000Y-143850000D01*
X232750000Y-143750000D01*
X233000000Y-143650000D01*
X233450000Y-143400000D01*
X233600000Y-143500000D01*
X233750000Y-143600000D01*
X233750000Y-144000000D01*
X233650000Y-144400000D01*
X233500000Y-144650000D01*
X233350000Y-144850000D01*
X233200000Y-145000000D01*
X233000000Y-145150000D01*
X232850000Y-145250000D01*
X232650000Y-145350000D01*
X232350000Y-145450000D01*
X232050000Y-145500000D01*
X231850000Y-145500000D01*
X227500000Y-145500000D01*
X227800000Y-145050000D01*
X227950000Y-144650000D01*
X228000000Y-144400000D01*
X228000000Y-144050000D01*
X228000000Y-143750000D01*
X227900000Y-143350000D01*
X227750000Y-143000000D01*
X227600000Y-142750000D01*
X227300000Y-142400000D01*
X227050000Y-142200000D01*
X226600000Y-141950000D01*
X228650000Y-141950000D01*
X229150000Y-141900000D01*
X229500000Y-141800000D01*
X229750000Y-141600000D01*
X229800000Y-142050000D01*
G37*
%TO.C,S38*%
X137175000Y-180050000D02*
X137375000Y-180600000D01*
X137775000Y-181150000D01*
X138075000Y-181400000D01*
X138575000Y-181700000D01*
X139175000Y-181850000D01*
X139675000Y-181850000D01*
X140125000Y-181750000D01*
X140375000Y-181650000D01*
X140825000Y-181400000D01*
X140975000Y-181500000D01*
X141125000Y-181600000D01*
X141125000Y-182000000D01*
X141025000Y-182400000D01*
X140875000Y-182650000D01*
X140725000Y-182850000D01*
X140575000Y-183000000D01*
X140375000Y-183150000D01*
X140225000Y-183250000D01*
X140025000Y-183350000D01*
X139725000Y-183450000D01*
X139425000Y-183500000D01*
X139225000Y-183500000D01*
X134875000Y-183500000D01*
X135175000Y-183050000D01*
X135325000Y-182650000D01*
X135375000Y-182400000D01*
X135375000Y-182050000D01*
X135375000Y-181750000D01*
X135275000Y-181350000D01*
X135125000Y-181000000D01*
X134975000Y-180750000D01*
X134675000Y-180400000D01*
X134425000Y-180200000D01*
X133975000Y-179950000D01*
X136025000Y-179950000D01*
X136525000Y-179900000D01*
X136875000Y-179800000D01*
X137125000Y-179600000D01*
X137175000Y-180050000D01*
G36*
X137175000Y-180050000D02*
G01*
X137375000Y-180600000D01*
X137775000Y-181150000D01*
X138075000Y-181400000D01*
X138575000Y-181700000D01*
X139175000Y-181850000D01*
X139675000Y-181850000D01*
X140125000Y-181750000D01*
X140375000Y-181650000D01*
X140825000Y-181400000D01*
X140975000Y-181500000D01*
X141125000Y-181600000D01*
X141125000Y-182000000D01*
X141025000Y-182400000D01*
X140875000Y-182650000D01*
X140725000Y-182850000D01*
X140575000Y-183000000D01*
X140375000Y-183150000D01*
X140225000Y-183250000D01*
X140025000Y-183350000D01*
X139725000Y-183450000D01*
X139425000Y-183500000D01*
X139225000Y-183500000D01*
X134875000Y-183500000D01*
X135175000Y-183050000D01*
X135325000Y-182650000D01*
X135375000Y-182400000D01*
X135375000Y-182050000D01*
X135375000Y-181750000D01*
X135275000Y-181350000D01*
X135125000Y-181000000D01*
X134975000Y-180750000D01*
X134675000Y-180400000D01*
X134425000Y-180200000D01*
X133975000Y-179950000D01*
X136025000Y-179950000D01*
X136525000Y-179900000D01*
X136875000Y-179800000D01*
X137125000Y-179600000D01*
X137175000Y-180050000D01*
G37*
%TO.C,S24*%
X329550000Y-142050000D02*
X329750000Y-142600000D01*
X330150000Y-143150000D01*
X330450000Y-143400000D01*
X330950000Y-143700000D01*
X331550000Y-143850000D01*
X332050000Y-143850000D01*
X332500000Y-143750000D01*
X332750000Y-143650000D01*
X333200000Y-143400000D01*
X333350000Y-143500000D01*
X333500000Y-143600000D01*
X333500000Y-144000000D01*
X333400000Y-144400000D01*
X333250000Y-144650000D01*
X333100000Y-144850000D01*
X332950000Y-145000000D01*
X332750000Y-145150000D01*
X332600000Y-145250000D01*
X332400000Y-145350000D01*
X332100000Y-145450000D01*
X331800000Y-145500000D01*
X331600000Y-145500000D01*
X327250000Y-145500000D01*
X327550000Y-145050000D01*
X327700000Y-144650000D01*
X327750000Y-144400000D01*
X327750000Y-144050000D01*
X327750000Y-143750000D01*
X327650000Y-143350000D01*
X327500000Y-143000000D01*
X327350000Y-142750000D01*
X327050000Y-142400000D01*
X326800000Y-142200000D01*
X326350000Y-141950000D01*
X328400000Y-141950000D01*
X328900000Y-141900000D01*
X329250000Y-141800000D01*
X329500000Y-141600000D01*
X329550000Y-142050000D01*
G36*
X329550000Y-142050000D02*
G01*
X329750000Y-142600000D01*
X330150000Y-143150000D01*
X330450000Y-143400000D01*
X330950000Y-143700000D01*
X331550000Y-143850000D01*
X332050000Y-143850000D01*
X332500000Y-143750000D01*
X332750000Y-143650000D01*
X333200000Y-143400000D01*
X333350000Y-143500000D01*
X333500000Y-143600000D01*
X333500000Y-144000000D01*
X333400000Y-144400000D01*
X333250000Y-144650000D01*
X333100000Y-144850000D01*
X332950000Y-145000000D01*
X332750000Y-145150000D01*
X332600000Y-145250000D01*
X332400000Y-145350000D01*
X332100000Y-145450000D01*
X331800000Y-145500000D01*
X331600000Y-145500000D01*
X327250000Y-145500000D01*
X327550000Y-145050000D01*
X327700000Y-144650000D01*
X327750000Y-144400000D01*
X327750000Y-144050000D01*
X327750000Y-143750000D01*
X327650000Y-143350000D01*
X327500000Y-143000000D01*
X327350000Y-142750000D01*
X327050000Y-142400000D01*
X326800000Y-142200000D01*
X326350000Y-141950000D01*
X328400000Y-141950000D01*
X328900000Y-141900000D01*
X329250000Y-141800000D01*
X329500000Y-141600000D01*
X329550000Y-142050000D01*
G37*
%TO.C,S20*%
X248800000Y-142050000D02*
X249000000Y-142600000D01*
X249400000Y-143150000D01*
X249700000Y-143400000D01*
X250200000Y-143700000D01*
X250800000Y-143850000D01*
X251300000Y-143850000D01*
X251750000Y-143750000D01*
X252000000Y-143650000D01*
X252450000Y-143400000D01*
X252600000Y-143500000D01*
X252750000Y-143600000D01*
X252750000Y-144000000D01*
X252650000Y-144400000D01*
X252500000Y-144650000D01*
X252350000Y-144850000D01*
X252200000Y-145000000D01*
X252000000Y-145150000D01*
X251850000Y-145250000D01*
X251650000Y-145350000D01*
X251350000Y-145450000D01*
X251050000Y-145500000D01*
X250850000Y-145500000D01*
X246500000Y-145500000D01*
X246800000Y-145050000D01*
X246950000Y-144650000D01*
X247000000Y-144400000D01*
X247000000Y-144050000D01*
X247000000Y-143750000D01*
X246900000Y-143350000D01*
X246750000Y-143000000D01*
X246600000Y-142750000D01*
X246300000Y-142400000D01*
X246050000Y-142200000D01*
X245600000Y-141950000D01*
X247650000Y-141950000D01*
X248150000Y-141900000D01*
X248500000Y-141800000D01*
X248750000Y-141600000D01*
X248800000Y-142050000D01*
G36*
X248800000Y-142050000D02*
G01*
X249000000Y-142600000D01*
X249400000Y-143150000D01*
X249700000Y-143400000D01*
X250200000Y-143700000D01*
X250800000Y-143850000D01*
X251300000Y-143850000D01*
X251750000Y-143750000D01*
X252000000Y-143650000D01*
X252450000Y-143400000D01*
X252600000Y-143500000D01*
X252750000Y-143600000D01*
X252750000Y-144000000D01*
X252650000Y-144400000D01*
X252500000Y-144650000D01*
X252350000Y-144850000D01*
X252200000Y-145000000D01*
X252000000Y-145150000D01*
X251850000Y-145250000D01*
X251650000Y-145350000D01*
X251350000Y-145450000D01*
X251050000Y-145500000D01*
X250850000Y-145500000D01*
X246500000Y-145500000D01*
X246800000Y-145050000D01*
X246950000Y-144650000D01*
X247000000Y-144400000D01*
X247000000Y-144050000D01*
X247000000Y-143750000D01*
X246900000Y-143350000D01*
X246750000Y-143000000D01*
X246600000Y-142750000D01*
X246300000Y-142400000D01*
X246050000Y-142200000D01*
X245600000Y-141950000D01*
X247650000Y-141950000D01*
X248150000Y-141900000D01*
X248500000Y-141800000D01*
X248750000Y-141600000D01*
X248800000Y-142050000D01*
G37*
%TO.C,S41*%
X246425000Y-180050000D02*
X246625000Y-180600000D01*
X247025000Y-181150000D01*
X247325000Y-181400000D01*
X247825000Y-181700000D01*
X248425000Y-181850000D01*
X248925000Y-181850000D01*
X249375000Y-181750000D01*
X249625000Y-181650000D01*
X250075000Y-181400000D01*
X250225000Y-181500000D01*
X250375000Y-181600000D01*
X250375000Y-182000000D01*
X250275000Y-182400000D01*
X250125000Y-182650000D01*
X249975000Y-182850000D01*
X249825000Y-183000000D01*
X249625000Y-183150000D01*
X249475000Y-183250000D01*
X249275000Y-183350000D01*
X248975000Y-183450000D01*
X248675000Y-183500000D01*
X248475000Y-183500000D01*
X244125000Y-183500000D01*
X244425000Y-183050000D01*
X244575000Y-182650000D01*
X244625000Y-182400000D01*
X244625000Y-182050000D01*
X244625000Y-181750000D01*
X244525000Y-181350000D01*
X244375000Y-181000000D01*
X244225000Y-180750000D01*
X243925000Y-180400000D01*
X243675000Y-180200000D01*
X243225000Y-179950000D01*
X245275000Y-179950000D01*
X245775000Y-179900000D01*
X246125000Y-179800000D01*
X246375000Y-179600000D01*
X246425000Y-180050000D01*
G36*
X246425000Y-180050000D02*
G01*
X246625000Y-180600000D01*
X247025000Y-181150000D01*
X247325000Y-181400000D01*
X247825000Y-181700000D01*
X248425000Y-181850000D01*
X248925000Y-181850000D01*
X249375000Y-181750000D01*
X249625000Y-181650000D01*
X250075000Y-181400000D01*
X250225000Y-181500000D01*
X250375000Y-181600000D01*
X250375000Y-182000000D01*
X250275000Y-182400000D01*
X250125000Y-182650000D01*
X249975000Y-182850000D01*
X249825000Y-183000000D01*
X249625000Y-183150000D01*
X249475000Y-183250000D01*
X249275000Y-183350000D01*
X248975000Y-183450000D01*
X248675000Y-183500000D01*
X248475000Y-183500000D01*
X244125000Y-183500000D01*
X244425000Y-183050000D01*
X244575000Y-182650000D01*
X244625000Y-182400000D01*
X244625000Y-182050000D01*
X244625000Y-181750000D01*
X244525000Y-181350000D01*
X244375000Y-181000000D01*
X244225000Y-180750000D01*
X243925000Y-180400000D01*
X243675000Y-180200000D01*
X243225000Y-179950000D01*
X245275000Y-179950000D01*
X245775000Y-179900000D01*
X246125000Y-179800000D01*
X246375000Y-179600000D01*
X246425000Y-180050000D01*
G37*
%TO.C,S40*%
X198925000Y-180050000D02*
X199125000Y-180600000D01*
X199525000Y-181150000D01*
X199825000Y-181400000D01*
X200325000Y-181700000D01*
X200925000Y-181850000D01*
X201425000Y-181850000D01*
X201875000Y-181750000D01*
X202125000Y-181650000D01*
X202575000Y-181400000D01*
X202725000Y-181500000D01*
X202875000Y-181600000D01*
X202875000Y-182000000D01*
X202775000Y-182400000D01*
X202625000Y-182650000D01*
X202475000Y-182850000D01*
X202325000Y-183000000D01*
X202125000Y-183150000D01*
X201975000Y-183250000D01*
X201775000Y-183350000D01*
X201475000Y-183450000D01*
X201175000Y-183500000D01*
X200975000Y-183500000D01*
X196625000Y-183500000D01*
X196925000Y-183050000D01*
X197075000Y-182650000D01*
X197125000Y-182400000D01*
X197125000Y-182050000D01*
X197125000Y-181750000D01*
X197025000Y-181350000D01*
X196875000Y-181000000D01*
X196725000Y-180750000D01*
X196425000Y-180400000D01*
X196175000Y-180200000D01*
X195725000Y-179950000D01*
X197775000Y-179950000D01*
X198275000Y-179900000D01*
X198625000Y-179800000D01*
X198875000Y-179600000D01*
X198925000Y-180050000D01*
G36*
X198925000Y-180050000D02*
G01*
X199125000Y-180600000D01*
X199525000Y-181150000D01*
X199825000Y-181400000D01*
X200325000Y-181700000D01*
X200925000Y-181850000D01*
X201425000Y-181850000D01*
X201875000Y-181750000D01*
X202125000Y-181650000D01*
X202575000Y-181400000D01*
X202725000Y-181500000D01*
X202875000Y-181600000D01*
X202875000Y-182000000D01*
X202775000Y-182400000D01*
X202625000Y-182650000D01*
X202475000Y-182850000D01*
X202325000Y-183000000D01*
X202125000Y-183150000D01*
X201975000Y-183250000D01*
X201775000Y-183350000D01*
X201475000Y-183450000D01*
X201175000Y-183500000D01*
X200975000Y-183500000D01*
X196625000Y-183500000D01*
X196925000Y-183050000D01*
X197075000Y-182650000D01*
X197125000Y-182400000D01*
X197125000Y-182050000D01*
X197125000Y-181750000D01*
X197025000Y-181350000D01*
X196875000Y-181000000D01*
X196725000Y-180750000D01*
X196425000Y-180400000D01*
X196175000Y-180200000D01*
X195725000Y-179950000D01*
X197775000Y-179950000D01*
X198275000Y-179900000D01*
X198625000Y-179800000D01*
X198875000Y-179600000D01*
X198925000Y-180050000D01*
G37*
%TO.C,S13*%
X113425000Y-142050000D02*
X113625000Y-142600000D01*
X114025000Y-143150000D01*
X114325000Y-143400000D01*
X114825000Y-143700000D01*
X115425000Y-143850000D01*
X115925000Y-143850000D01*
X116375000Y-143750000D01*
X116625000Y-143650000D01*
X117075000Y-143400000D01*
X117225000Y-143500000D01*
X117375000Y-143600000D01*
X117375000Y-144000000D01*
X117275000Y-144400000D01*
X117125000Y-144650000D01*
X116975000Y-144850000D01*
X116825000Y-145000000D01*
X116625000Y-145150000D01*
X116475000Y-145250000D01*
X116275000Y-145350000D01*
X115975000Y-145450000D01*
X115675000Y-145500000D01*
X115475000Y-145500000D01*
X111125000Y-145500000D01*
X111425000Y-145050000D01*
X111575000Y-144650000D01*
X111625000Y-144400000D01*
X111625000Y-144050000D01*
X111625000Y-143750000D01*
X111525000Y-143350000D01*
X111375000Y-143000000D01*
X111225000Y-142750000D01*
X110925000Y-142400000D01*
X110675000Y-142200000D01*
X110225000Y-141950000D01*
X112275000Y-141950000D01*
X112775000Y-141900000D01*
X113125000Y-141800000D01*
X113375000Y-141600000D01*
X113425000Y-142050000D01*
G36*
X113425000Y-142050000D02*
G01*
X113625000Y-142600000D01*
X114025000Y-143150000D01*
X114325000Y-143400000D01*
X114825000Y-143700000D01*
X115425000Y-143850000D01*
X115925000Y-143850000D01*
X116375000Y-143750000D01*
X116625000Y-143650000D01*
X117075000Y-143400000D01*
X117225000Y-143500000D01*
X117375000Y-143600000D01*
X117375000Y-144000000D01*
X117275000Y-144400000D01*
X117125000Y-144650000D01*
X116975000Y-144850000D01*
X116825000Y-145000000D01*
X116625000Y-145150000D01*
X116475000Y-145250000D01*
X116275000Y-145350000D01*
X115975000Y-145450000D01*
X115675000Y-145500000D01*
X115475000Y-145500000D01*
X111125000Y-145500000D01*
X111425000Y-145050000D01*
X111575000Y-144650000D01*
X111625000Y-144400000D01*
X111625000Y-144050000D01*
X111625000Y-143750000D01*
X111525000Y-143350000D01*
X111375000Y-143000000D01*
X111225000Y-142750000D01*
X110925000Y-142400000D01*
X110675000Y-142200000D01*
X110225000Y-141950000D01*
X112275000Y-141950000D01*
X112775000Y-141900000D01*
X113125000Y-141800000D01*
X113375000Y-141600000D01*
X113425000Y-142050000D01*
G37*
%TO.C,S8*%
X244050000Y-123050000D02*
X244250000Y-123600000D01*
X244650000Y-124150000D01*
X244950000Y-124400000D01*
X245450000Y-124700000D01*
X246050000Y-124850000D01*
X246550000Y-124850000D01*
X247000000Y-124750000D01*
X247250000Y-124650000D01*
X247700000Y-124400000D01*
X247850000Y-124500000D01*
X248000000Y-124600000D01*
X248000000Y-125000000D01*
X247900000Y-125400000D01*
X247750000Y-125650000D01*
X247600000Y-125850000D01*
X247450000Y-126000000D01*
X247250000Y-126150000D01*
X247100000Y-126250000D01*
X246900000Y-126350000D01*
X246600000Y-126450000D01*
X246300000Y-126500000D01*
X246100000Y-126500000D01*
X241750000Y-126500000D01*
X242050000Y-126050000D01*
X242200000Y-125650000D01*
X242250000Y-125400000D01*
X242250000Y-125050000D01*
X242250000Y-124750000D01*
X242150000Y-124350000D01*
X242000000Y-124000000D01*
X241850000Y-123750000D01*
X241550000Y-123400000D01*
X241300000Y-123200000D01*
X240850000Y-122950000D01*
X242900000Y-122950000D01*
X243400000Y-122900000D01*
X243750000Y-122800000D01*
X244000000Y-122600000D01*
X244050000Y-123050000D01*
G36*
X244050000Y-123050000D02*
G01*
X244250000Y-123600000D01*
X244650000Y-124150000D01*
X244950000Y-124400000D01*
X245450000Y-124700000D01*
X246050000Y-124850000D01*
X246550000Y-124850000D01*
X247000000Y-124750000D01*
X247250000Y-124650000D01*
X247700000Y-124400000D01*
X247850000Y-124500000D01*
X248000000Y-124600000D01*
X248000000Y-125000000D01*
X247900000Y-125400000D01*
X247750000Y-125650000D01*
X247600000Y-125850000D01*
X247450000Y-126000000D01*
X247250000Y-126150000D01*
X247100000Y-126250000D01*
X246900000Y-126350000D01*
X246600000Y-126450000D01*
X246300000Y-126500000D01*
X246100000Y-126500000D01*
X241750000Y-126500000D01*
X242050000Y-126050000D01*
X242200000Y-125650000D01*
X242250000Y-125400000D01*
X242250000Y-125050000D01*
X242250000Y-124750000D01*
X242150000Y-124350000D01*
X242000000Y-124000000D01*
X241850000Y-123750000D01*
X241550000Y-123400000D01*
X241300000Y-123200000D01*
X240850000Y-122950000D01*
X242900000Y-122950000D01*
X243400000Y-122900000D01*
X243750000Y-122800000D01*
X244000000Y-122600000D01*
X244050000Y-123050000D01*
G37*
%TO.C,S36*%
X334300000Y-161050000D02*
X334500000Y-161600000D01*
X334900000Y-162150000D01*
X335200000Y-162400000D01*
X335700000Y-162700000D01*
X336300000Y-162850000D01*
X336800000Y-162850000D01*
X337250000Y-162750000D01*
X337500000Y-162650000D01*
X337950000Y-162400000D01*
X338100000Y-162500000D01*
X338250000Y-162600000D01*
X338250000Y-163000000D01*
X338150000Y-163400000D01*
X338000000Y-163650000D01*
X337850000Y-163850000D01*
X337700000Y-164000000D01*
X337500000Y-164150000D01*
X337350000Y-164250000D01*
X337150000Y-164350000D01*
X336850000Y-164450000D01*
X336550000Y-164500000D01*
X336350000Y-164500000D01*
X332000000Y-164500000D01*
X332300000Y-164050000D01*
X332450000Y-163650000D01*
X332500000Y-163400000D01*
X332500000Y-163050000D01*
X332500000Y-162750000D01*
X332400000Y-162350000D01*
X332250000Y-162000000D01*
X332100000Y-161750000D01*
X331800000Y-161400000D01*
X331550000Y-161200000D01*
X331100000Y-160950000D01*
X333150000Y-160950000D01*
X333650000Y-160900000D01*
X334000000Y-160800000D01*
X334250000Y-160600000D01*
X334300000Y-161050000D01*
G36*
X334300000Y-161050000D02*
G01*
X334500000Y-161600000D01*
X334900000Y-162150000D01*
X335200000Y-162400000D01*
X335700000Y-162700000D01*
X336300000Y-162850000D01*
X336800000Y-162850000D01*
X337250000Y-162750000D01*
X337500000Y-162650000D01*
X337950000Y-162400000D01*
X338100000Y-162500000D01*
X338250000Y-162600000D01*
X338250000Y-163000000D01*
X338150000Y-163400000D01*
X338000000Y-163650000D01*
X337850000Y-163850000D01*
X337700000Y-164000000D01*
X337500000Y-164150000D01*
X337350000Y-164250000D01*
X337150000Y-164350000D01*
X336850000Y-164450000D01*
X336550000Y-164500000D01*
X336350000Y-164500000D01*
X332000000Y-164500000D01*
X332300000Y-164050000D01*
X332450000Y-163650000D01*
X332500000Y-163400000D01*
X332500000Y-163050000D01*
X332500000Y-162750000D01*
X332400000Y-162350000D01*
X332250000Y-162000000D01*
X332100000Y-161750000D01*
X331800000Y-161400000D01*
X331550000Y-161200000D01*
X331100000Y-160950000D01*
X333150000Y-160950000D01*
X333650000Y-160900000D01*
X334000000Y-160800000D01*
X334250000Y-160600000D01*
X334300000Y-161050000D01*
G37*
%TO.C,S2*%
X130050000Y-123050000D02*
X130250000Y-123600000D01*
X130650000Y-124150000D01*
X130950000Y-124400000D01*
X131450000Y-124700000D01*
X132050000Y-124850000D01*
X132550000Y-124850000D01*
X133000000Y-124750000D01*
X133250000Y-124650000D01*
X133700000Y-124400000D01*
X133850000Y-124500000D01*
X134000000Y-124600000D01*
X134000000Y-125000000D01*
X133900000Y-125400000D01*
X133750000Y-125650000D01*
X133600000Y-125850000D01*
X133450000Y-126000000D01*
X133250000Y-126150000D01*
X133100000Y-126250000D01*
X132900000Y-126350000D01*
X132600000Y-126450000D01*
X132300000Y-126500000D01*
X132100000Y-126500000D01*
X127750000Y-126500000D01*
X128050000Y-126050000D01*
X128200000Y-125650000D01*
X128250000Y-125400000D01*
X128250000Y-125050000D01*
X128250000Y-124750000D01*
X128150000Y-124350000D01*
X128000000Y-124000000D01*
X127850000Y-123750000D01*
X127550000Y-123400000D01*
X127300000Y-123200000D01*
X126850000Y-122950000D01*
X128900000Y-122950000D01*
X129400000Y-122900000D01*
X129750000Y-122800000D01*
X130000000Y-122600000D01*
X130050000Y-123050000D01*
G36*
X130050000Y-123050000D02*
G01*
X130250000Y-123600000D01*
X130650000Y-124150000D01*
X130950000Y-124400000D01*
X131450000Y-124700000D01*
X132050000Y-124850000D01*
X132550000Y-124850000D01*
X133000000Y-124750000D01*
X133250000Y-124650000D01*
X133700000Y-124400000D01*
X133850000Y-124500000D01*
X134000000Y-124600000D01*
X134000000Y-125000000D01*
X133900000Y-125400000D01*
X133750000Y-125650000D01*
X133600000Y-125850000D01*
X133450000Y-126000000D01*
X133250000Y-126150000D01*
X133100000Y-126250000D01*
X132900000Y-126350000D01*
X132600000Y-126450000D01*
X132300000Y-126500000D01*
X132100000Y-126500000D01*
X127750000Y-126500000D01*
X128050000Y-126050000D01*
X128200000Y-125650000D01*
X128250000Y-125400000D01*
X128250000Y-125050000D01*
X128250000Y-124750000D01*
X128150000Y-124350000D01*
X128000000Y-124000000D01*
X127850000Y-123750000D01*
X127550000Y-123400000D01*
X127300000Y-123200000D01*
X126850000Y-122950000D01*
X128900000Y-122950000D01*
X129400000Y-122900000D01*
X129750000Y-122800000D01*
X130000000Y-122600000D01*
X130050000Y-123050000D01*
G37*
%TO.C,S6*%
X206050000Y-123050000D02*
X206250000Y-123600000D01*
X206650000Y-124150000D01*
X206950000Y-124400000D01*
X207450000Y-124700000D01*
X208050000Y-124850000D01*
X208550000Y-124850000D01*
X209000000Y-124750000D01*
X209250000Y-124650000D01*
X209700000Y-124400000D01*
X209850000Y-124500000D01*
X210000000Y-124600000D01*
X210000000Y-125000000D01*
X209900000Y-125400000D01*
X209750000Y-125650000D01*
X209600000Y-125850000D01*
X209450000Y-126000000D01*
X209250000Y-126150000D01*
X209100000Y-126250000D01*
X208900000Y-126350000D01*
X208600000Y-126450000D01*
X208300000Y-126500000D01*
X208100000Y-126500000D01*
X203750000Y-126500000D01*
X204050000Y-126050000D01*
X204200000Y-125650000D01*
X204250000Y-125400000D01*
X204250000Y-125050000D01*
X204250000Y-124750000D01*
X204150000Y-124350000D01*
X204000000Y-124000000D01*
X203850000Y-123750000D01*
X203550000Y-123400000D01*
X203300000Y-123200000D01*
X202850000Y-122950000D01*
X204900000Y-122950000D01*
X205400000Y-122900000D01*
X205750000Y-122800000D01*
X206000000Y-122600000D01*
X206050000Y-123050000D01*
G36*
X206050000Y-123050000D02*
G01*
X206250000Y-123600000D01*
X206650000Y-124150000D01*
X206950000Y-124400000D01*
X207450000Y-124700000D01*
X208050000Y-124850000D01*
X208550000Y-124850000D01*
X209000000Y-124750000D01*
X209250000Y-124650000D01*
X209700000Y-124400000D01*
X209850000Y-124500000D01*
X210000000Y-124600000D01*
X210000000Y-125000000D01*
X209900000Y-125400000D01*
X209750000Y-125650000D01*
X209600000Y-125850000D01*
X209450000Y-126000000D01*
X209250000Y-126150000D01*
X209100000Y-126250000D01*
X208900000Y-126350000D01*
X208600000Y-126450000D01*
X208300000Y-126500000D01*
X208100000Y-126500000D01*
X203750000Y-126500000D01*
X204050000Y-126050000D01*
X204200000Y-125650000D01*
X204250000Y-125400000D01*
X204250000Y-125050000D01*
X204250000Y-124750000D01*
X204150000Y-124350000D01*
X204000000Y-124000000D01*
X203850000Y-123750000D01*
X203550000Y-123400000D01*
X203300000Y-123200000D01*
X202850000Y-122950000D01*
X204900000Y-122950000D01*
X205400000Y-122900000D01*
X205750000Y-122800000D01*
X206000000Y-122600000D01*
X206050000Y-123050000D01*
G37*
%TO.C,S10*%
X282050000Y-123050000D02*
X282250000Y-123600000D01*
X282650000Y-124150000D01*
X282950000Y-124400000D01*
X283450000Y-124700000D01*
X284050000Y-124850000D01*
X284550000Y-124850000D01*
X285000000Y-124750000D01*
X285250000Y-124650000D01*
X285700000Y-124400000D01*
X285850000Y-124500000D01*
X286000000Y-124600000D01*
X286000000Y-125000000D01*
X285900000Y-125400000D01*
X285750000Y-125650000D01*
X285600000Y-125850000D01*
X285450000Y-126000000D01*
X285250000Y-126150000D01*
X285100000Y-126250000D01*
X284900000Y-126350000D01*
X284600000Y-126450000D01*
X284300000Y-126500000D01*
X284100000Y-126500000D01*
X279750000Y-126500000D01*
X280050000Y-126050000D01*
X280200000Y-125650000D01*
X280250000Y-125400000D01*
X280250000Y-125050000D01*
X280250000Y-124750000D01*
X280150000Y-124350000D01*
X280000000Y-124000000D01*
X279850000Y-123750000D01*
X279550000Y-123400000D01*
X279300000Y-123200000D01*
X278850000Y-122950000D01*
X280900000Y-122950000D01*
X281400000Y-122900000D01*
X281750000Y-122800000D01*
X282000000Y-122600000D01*
X282050000Y-123050000D01*
G36*
X282050000Y-123050000D02*
G01*
X282250000Y-123600000D01*
X282650000Y-124150000D01*
X282950000Y-124400000D01*
X283450000Y-124700000D01*
X284050000Y-124850000D01*
X284550000Y-124850000D01*
X285000000Y-124750000D01*
X285250000Y-124650000D01*
X285700000Y-124400000D01*
X285850000Y-124500000D01*
X286000000Y-124600000D01*
X286000000Y-125000000D01*
X285900000Y-125400000D01*
X285750000Y-125650000D01*
X285600000Y-125850000D01*
X285450000Y-126000000D01*
X285250000Y-126150000D01*
X285100000Y-126250000D01*
X284900000Y-126350000D01*
X284600000Y-126450000D01*
X284300000Y-126500000D01*
X284100000Y-126500000D01*
X279750000Y-126500000D01*
X280050000Y-126050000D01*
X280200000Y-125650000D01*
X280250000Y-125400000D01*
X280250000Y-125050000D01*
X280250000Y-124750000D01*
X280150000Y-124350000D01*
X280000000Y-124000000D01*
X279850000Y-123750000D01*
X279550000Y-123400000D01*
X279300000Y-123200000D01*
X278850000Y-122950000D01*
X280900000Y-122950000D01*
X281400000Y-122900000D01*
X281750000Y-122800000D01*
X282000000Y-122600000D01*
X282050000Y-123050000D01*
G37*
%TO.C,S23*%
X305800000Y-142050000D02*
X306000000Y-142600000D01*
X306400000Y-143150000D01*
X306700000Y-143400000D01*
X307200000Y-143700000D01*
X307800000Y-143850000D01*
X308300000Y-143850000D01*
X308750000Y-143750000D01*
X309000000Y-143650000D01*
X309450000Y-143400000D01*
X309600000Y-143500000D01*
X309750000Y-143600000D01*
X309750000Y-144000000D01*
X309650000Y-144400000D01*
X309500000Y-144650000D01*
X309350000Y-144850000D01*
X309200000Y-145000000D01*
X309000000Y-145150000D01*
X308850000Y-145250000D01*
X308650000Y-145350000D01*
X308350000Y-145450000D01*
X308050000Y-145500000D01*
X307850000Y-145500000D01*
X303500000Y-145500000D01*
X303800000Y-145050000D01*
X303950000Y-144650000D01*
X304000000Y-144400000D01*
X304000000Y-144050000D01*
X304000000Y-143750000D01*
X303900000Y-143350000D01*
X303750000Y-143000000D01*
X303600000Y-142750000D01*
X303300000Y-142400000D01*
X303050000Y-142200000D01*
X302600000Y-141950000D01*
X304650000Y-141950000D01*
X305150000Y-141900000D01*
X305500000Y-141800000D01*
X305750000Y-141600000D01*
X305800000Y-142050000D01*
G36*
X305800000Y-142050000D02*
G01*
X306000000Y-142600000D01*
X306400000Y-143150000D01*
X306700000Y-143400000D01*
X307200000Y-143700000D01*
X307800000Y-143850000D01*
X308300000Y-143850000D01*
X308750000Y-143750000D01*
X309000000Y-143650000D01*
X309450000Y-143400000D01*
X309600000Y-143500000D01*
X309750000Y-143600000D01*
X309750000Y-144000000D01*
X309650000Y-144400000D01*
X309500000Y-144650000D01*
X309350000Y-144850000D01*
X309200000Y-145000000D01*
X309000000Y-145150000D01*
X308850000Y-145250000D01*
X308650000Y-145350000D01*
X308350000Y-145450000D01*
X308050000Y-145500000D01*
X307850000Y-145500000D01*
X303500000Y-145500000D01*
X303800000Y-145050000D01*
X303950000Y-144650000D01*
X304000000Y-144400000D01*
X304000000Y-144050000D01*
X304000000Y-143750000D01*
X303900000Y-143350000D01*
X303750000Y-143000000D01*
X303600000Y-142750000D01*
X303300000Y-142400000D01*
X303050000Y-142200000D01*
X302600000Y-141950000D01*
X304650000Y-141950000D01*
X305150000Y-141900000D01*
X305500000Y-141800000D01*
X305750000Y-141600000D01*
X305800000Y-142050000D01*
G37*
%TO.C,S30*%
X220300000Y-161050000D02*
X220500000Y-161600000D01*
X220900000Y-162150000D01*
X221200000Y-162400000D01*
X221700000Y-162700000D01*
X222300000Y-162850000D01*
X222800000Y-162850000D01*
X223250000Y-162750000D01*
X223500000Y-162650000D01*
X223950000Y-162400000D01*
X224100000Y-162500000D01*
X224250000Y-162600000D01*
X224250000Y-163000000D01*
X224150000Y-163400000D01*
X224000000Y-163650000D01*
X223850000Y-163850000D01*
X223700000Y-164000000D01*
X223500000Y-164150000D01*
X223350000Y-164250000D01*
X223150000Y-164350000D01*
X222850000Y-164450000D01*
X222550000Y-164500000D01*
X222350000Y-164500000D01*
X218000000Y-164500000D01*
X218300000Y-164050000D01*
X218450000Y-163650000D01*
X218500000Y-163400000D01*
X218500000Y-163050000D01*
X218500000Y-162750000D01*
X218400000Y-162350000D01*
X218250000Y-162000000D01*
X218100000Y-161750000D01*
X217800000Y-161400000D01*
X217550000Y-161200000D01*
X217100000Y-160950000D01*
X219150000Y-160950000D01*
X219650000Y-160900000D01*
X220000000Y-160800000D01*
X220250000Y-160600000D01*
X220300000Y-161050000D01*
G36*
X220300000Y-161050000D02*
G01*
X220500000Y-161600000D01*
X220900000Y-162150000D01*
X221200000Y-162400000D01*
X221700000Y-162700000D01*
X222300000Y-162850000D01*
X222800000Y-162850000D01*
X223250000Y-162750000D01*
X223500000Y-162650000D01*
X223950000Y-162400000D01*
X224100000Y-162500000D01*
X224250000Y-162600000D01*
X224250000Y-163000000D01*
X224150000Y-163400000D01*
X224000000Y-163650000D01*
X223850000Y-163850000D01*
X223700000Y-164000000D01*
X223500000Y-164150000D01*
X223350000Y-164250000D01*
X223150000Y-164350000D01*
X222850000Y-164450000D01*
X222550000Y-164500000D01*
X222350000Y-164500000D01*
X218000000Y-164500000D01*
X218300000Y-164050000D01*
X218450000Y-163650000D01*
X218500000Y-163400000D01*
X218500000Y-163050000D01*
X218500000Y-162750000D01*
X218400000Y-162350000D01*
X218250000Y-162000000D01*
X218100000Y-161750000D01*
X217800000Y-161400000D01*
X217550000Y-161200000D01*
X217100000Y-160950000D01*
X219150000Y-160950000D01*
X219650000Y-160900000D01*
X220000000Y-160800000D01*
X220250000Y-160600000D01*
X220300000Y-161050000D01*
G37*
D13*
%TO.C,PWR1*%
X98380001Y-142125000D02*
X98380000Y-136425001D01*
X99389999Y-135825000D02*
X100179999Y-135825000D01*
X100180000Y-142725001D02*
X99390000Y-142725001D01*
X101230000Y-140875000D02*
X101230000Y-139175000D01*
X101230001Y-137875002D02*
X101229999Y-137675000D01*
D12*
%TO.C,S11*%
X301050000Y-123050000D02*
X301250000Y-123600000D01*
X301650000Y-124150000D01*
X301950000Y-124400000D01*
X302450000Y-124700000D01*
X303050000Y-124850000D01*
X303550000Y-124850000D01*
X304000000Y-124750000D01*
X304250000Y-124650000D01*
X304700000Y-124400000D01*
X304850000Y-124500000D01*
X305000000Y-124600000D01*
X305000000Y-125000000D01*
X304900000Y-125400000D01*
X304750000Y-125650000D01*
X304600000Y-125850000D01*
X304450000Y-126000000D01*
X304250000Y-126150000D01*
X304100000Y-126250000D01*
X303900000Y-126350000D01*
X303600000Y-126450000D01*
X303300000Y-126500000D01*
X303100000Y-126500000D01*
X298750000Y-126500000D01*
X299050000Y-126050000D01*
X299200000Y-125650000D01*
X299250000Y-125400000D01*
X299250000Y-125050000D01*
X299250000Y-124750000D01*
X299150000Y-124350000D01*
X299000000Y-124000000D01*
X298850000Y-123750000D01*
X298550000Y-123400000D01*
X298300000Y-123200000D01*
X297850000Y-122950000D01*
X299900000Y-122950000D01*
X300400000Y-122900000D01*
X300750000Y-122800000D01*
X301000000Y-122600000D01*
X301050000Y-123050000D01*
G36*
X301050000Y-123050000D02*
G01*
X301250000Y-123600000D01*
X301650000Y-124150000D01*
X301950000Y-124400000D01*
X302450000Y-124700000D01*
X303050000Y-124850000D01*
X303550000Y-124850000D01*
X304000000Y-124750000D01*
X304250000Y-124650000D01*
X304700000Y-124400000D01*
X304850000Y-124500000D01*
X305000000Y-124600000D01*
X305000000Y-125000000D01*
X304900000Y-125400000D01*
X304750000Y-125650000D01*
X304600000Y-125850000D01*
X304450000Y-126000000D01*
X304250000Y-126150000D01*
X304100000Y-126250000D01*
X303900000Y-126350000D01*
X303600000Y-126450000D01*
X303300000Y-126500000D01*
X303100000Y-126500000D01*
X298750000Y-126500000D01*
X299050000Y-126050000D01*
X299200000Y-125650000D01*
X299250000Y-125400000D01*
X299250000Y-125050000D01*
X299250000Y-124750000D01*
X299150000Y-124350000D01*
X299000000Y-124000000D01*
X298850000Y-123750000D01*
X298550000Y-123400000D01*
X298300000Y-123200000D01*
X297850000Y-122950000D01*
X299900000Y-122950000D01*
X300400000Y-122900000D01*
X300750000Y-122800000D01*
X301000000Y-122600000D01*
X301050000Y-123050000D01*
G37*
%TO.C,S44*%
X315300000Y-180050000D02*
X315500000Y-180600000D01*
X315900000Y-181150000D01*
X316200000Y-181400000D01*
X316700000Y-181700000D01*
X317300000Y-181850000D01*
X317800000Y-181850000D01*
X318250000Y-181750000D01*
X318500000Y-181650000D01*
X318950000Y-181400000D01*
X319100000Y-181500000D01*
X319250000Y-181600000D01*
X319250000Y-182000000D01*
X319150000Y-182400000D01*
X319000000Y-182650000D01*
X318850000Y-182850000D01*
X318700000Y-183000000D01*
X318500000Y-183150000D01*
X318350000Y-183250000D01*
X318150000Y-183350000D01*
X317850000Y-183450000D01*
X317550000Y-183500000D01*
X317350000Y-183500000D01*
X313000000Y-183500000D01*
X313300000Y-183050000D01*
X313450000Y-182650000D01*
X313500000Y-182400000D01*
X313500000Y-182050000D01*
X313500000Y-181750000D01*
X313400000Y-181350000D01*
X313250000Y-181000000D01*
X313100000Y-180750000D01*
X312800000Y-180400000D01*
X312550000Y-180200000D01*
X312100000Y-179950000D01*
X314150000Y-179950000D01*
X314650000Y-179900000D01*
X315000000Y-179800000D01*
X315250000Y-179600000D01*
X315300000Y-180050000D01*
G36*
X315300000Y-180050000D02*
G01*
X315500000Y-180600000D01*
X315900000Y-181150000D01*
X316200000Y-181400000D01*
X316700000Y-181700000D01*
X317300000Y-181850000D01*
X317800000Y-181850000D01*
X318250000Y-181750000D01*
X318500000Y-181650000D01*
X318950000Y-181400000D01*
X319100000Y-181500000D01*
X319250000Y-181600000D01*
X319250000Y-182000000D01*
X319150000Y-182400000D01*
X319000000Y-182650000D01*
X318850000Y-182850000D01*
X318700000Y-183000000D01*
X318500000Y-183150000D01*
X318350000Y-183250000D01*
X318150000Y-183350000D01*
X317850000Y-183450000D01*
X317550000Y-183500000D01*
X317350000Y-183500000D01*
X313000000Y-183500000D01*
X313300000Y-183050000D01*
X313450000Y-182650000D01*
X313500000Y-182400000D01*
X313500000Y-182050000D01*
X313500000Y-181750000D01*
X313400000Y-181350000D01*
X313250000Y-181000000D01*
X313100000Y-180750000D01*
X312800000Y-180400000D01*
X312550000Y-180200000D01*
X312100000Y-179950000D01*
X314150000Y-179950000D01*
X314650000Y-179900000D01*
X315000000Y-179800000D01*
X315250000Y-179600000D01*
X315300000Y-180050000D01*
G37*
%TO.C,S27*%
X163300000Y-161050000D02*
X163500000Y-161600000D01*
X163900000Y-162150000D01*
X164200000Y-162400000D01*
X164700000Y-162700000D01*
X165300000Y-162850000D01*
X165800000Y-162850000D01*
X166250000Y-162750000D01*
X166500000Y-162650000D01*
X166950000Y-162400000D01*
X167100000Y-162500000D01*
X167250000Y-162600000D01*
X167250000Y-163000000D01*
X167150000Y-163400000D01*
X167000000Y-163650000D01*
X166850000Y-163850000D01*
X166700000Y-164000000D01*
X166500000Y-164150000D01*
X166350000Y-164250000D01*
X166150000Y-164350000D01*
X165850000Y-164450000D01*
X165550000Y-164500000D01*
X165350000Y-164500000D01*
X161000000Y-164500000D01*
X161300000Y-164050000D01*
X161450000Y-163650000D01*
X161500000Y-163400000D01*
X161500000Y-163050000D01*
X161500000Y-162750000D01*
X161400000Y-162350000D01*
X161250000Y-162000000D01*
X161100000Y-161750000D01*
X160800000Y-161400000D01*
X160550000Y-161200000D01*
X160100000Y-160950000D01*
X162150000Y-160950000D01*
X162650000Y-160900000D01*
X163000000Y-160800000D01*
X163250000Y-160600000D01*
X163300000Y-161050000D01*
G36*
X163300000Y-161050000D02*
G01*
X163500000Y-161600000D01*
X163900000Y-162150000D01*
X164200000Y-162400000D01*
X164700000Y-162700000D01*
X165300000Y-162850000D01*
X165800000Y-162850000D01*
X166250000Y-162750000D01*
X166500000Y-162650000D01*
X166950000Y-162400000D01*
X167100000Y-162500000D01*
X167250000Y-162600000D01*
X167250000Y-163000000D01*
X167150000Y-163400000D01*
X167000000Y-163650000D01*
X166850000Y-163850000D01*
X166700000Y-164000000D01*
X166500000Y-164150000D01*
X166350000Y-164250000D01*
X166150000Y-164350000D01*
X165850000Y-164450000D01*
X165550000Y-164500000D01*
X165350000Y-164500000D01*
X161000000Y-164500000D01*
X161300000Y-164050000D01*
X161450000Y-163650000D01*
X161500000Y-163400000D01*
X161500000Y-163050000D01*
X161500000Y-162750000D01*
X161400000Y-162350000D01*
X161250000Y-162000000D01*
X161100000Y-161750000D01*
X160800000Y-161400000D01*
X160550000Y-161200000D01*
X160100000Y-160950000D01*
X162150000Y-160950000D01*
X162650000Y-160900000D01*
X163000000Y-160800000D01*
X163250000Y-160600000D01*
X163300000Y-161050000D01*
G37*
D11*
%TO.C,RST1*%
X97949999Y-146300001D02*
X97950001Y-146050001D01*
X97950000Y-150500001D02*
X97950001Y-150750001D01*
X98200000Y-146049999D02*
X97950001Y-146050001D01*
X98200001Y-150749999D02*
X97950001Y-150750001D01*
X101199999Y-146050001D02*
X101449999Y-146049999D01*
X101200000Y-150750001D02*
X101449999Y-150749999D01*
X101450000Y-146299999D02*
X101449999Y-146049999D01*
X101450001Y-150499999D02*
X101449999Y-150749999D01*
D12*
%TO.C,S12*%
X327270000Y-123050000D02*
X327470000Y-123600000D01*
X327870000Y-124150000D01*
X328170000Y-124400000D01*
X328670000Y-124700000D01*
X329270000Y-124850000D01*
X329770000Y-124850000D01*
X330220000Y-124750000D01*
X330470000Y-124650000D01*
X330920000Y-124400000D01*
X331070000Y-124500000D01*
X331220000Y-124600000D01*
X331220000Y-125000000D01*
X331120000Y-125400000D01*
X330970000Y-125650000D01*
X330820000Y-125850000D01*
X330670000Y-126000000D01*
X330470000Y-126150000D01*
X330320000Y-126250000D01*
X330120000Y-126350000D01*
X329820000Y-126450000D01*
X329520000Y-126500000D01*
X329320000Y-126500000D01*
X324970000Y-126500000D01*
X325270000Y-126050000D01*
X325420000Y-125650000D01*
X325470000Y-125400000D01*
X325470000Y-125050000D01*
X325470000Y-124750000D01*
X325370000Y-124350000D01*
X325220000Y-124000000D01*
X325070000Y-123750000D01*
X324770000Y-123400000D01*
X324520000Y-123200000D01*
X324070000Y-122950000D01*
X326120000Y-122950000D01*
X326620000Y-122900000D01*
X326970000Y-122800000D01*
X327220000Y-122600000D01*
X327270000Y-123050000D01*
G36*
X327270000Y-123050000D02*
G01*
X327470000Y-123600000D01*
X327870000Y-124150000D01*
X328170000Y-124400000D01*
X328670000Y-124700000D01*
X329270000Y-124850000D01*
X329770000Y-124850000D01*
X330220000Y-124750000D01*
X330470000Y-124650000D01*
X330920000Y-124400000D01*
X331070000Y-124500000D01*
X331220000Y-124600000D01*
X331220000Y-125000000D01*
X331120000Y-125400000D01*
X330970000Y-125650000D01*
X330820000Y-125850000D01*
X330670000Y-126000000D01*
X330470000Y-126150000D01*
X330320000Y-126250000D01*
X330120000Y-126350000D01*
X329820000Y-126450000D01*
X329520000Y-126500000D01*
X329320000Y-126500000D01*
X324970000Y-126500000D01*
X325270000Y-126050000D01*
X325420000Y-125650000D01*
X325470000Y-125400000D01*
X325470000Y-125050000D01*
X325470000Y-124750000D01*
X325370000Y-124350000D01*
X325220000Y-124000000D01*
X325070000Y-123750000D01*
X324770000Y-123400000D01*
X324520000Y-123200000D01*
X324070000Y-122950000D01*
X326120000Y-122950000D01*
X326620000Y-122900000D01*
X326970000Y-122800000D01*
X327220000Y-122600000D01*
X327270000Y-123050000D01*
G37*
%TO.C,S3*%
X149050000Y-123050000D02*
X149250000Y-123600000D01*
X149650000Y-124150000D01*
X149950000Y-124400000D01*
X150450000Y-124700000D01*
X151050000Y-124850000D01*
X151550000Y-124850000D01*
X152000000Y-124750000D01*
X152250000Y-124650000D01*
X152700000Y-124400000D01*
X152850000Y-124500000D01*
X153000000Y-124600000D01*
X153000000Y-125000000D01*
X152900000Y-125400000D01*
X152750000Y-125650000D01*
X152600000Y-125850000D01*
X152450000Y-126000000D01*
X152250000Y-126150000D01*
X152100000Y-126250000D01*
X151900000Y-126350000D01*
X151600000Y-126450000D01*
X151300000Y-126500000D01*
X151100000Y-126500000D01*
X146750000Y-126500000D01*
X147050000Y-126050000D01*
X147200000Y-125650000D01*
X147250000Y-125400000D01*
X147250000Y-125050000D01*
X147250000Y-124750000D01*
X147150000Y-124350000D01*
X147000000Y-124000000D01*
X146850000Y-123750000D01*
X146550000Y-123400000D01*
X146300000Y-123200000D01*
X145850000Y-122950000D01*
X147900000Y-122950000D01*
X148400000Y-122900000D01*
X148750000Y-122800000D01*
X149000000Y-122600000D01*
X149050000Y-123050000D01*
G36*
X149050000Y-123050000D02*
G01*
X149250000Y-123600000D01*
X149650000Y-124150000D01*
X149950000Y-124400000D01*
X150450000Y-124700000D01*
X151050000Y-124850000D01*
X151550000Y-124850000D01*
X152000000Y-124750000D01*
X152250000Y-124650000D01*
X152700000Y-124400000D01*
X152850000Y-124500000D01*
X153000000Y-124600000D01*
X153000000Y-125000000D01*
X152900000Y-125400000D01*
X152750000Y-125650000D01*
X152600000Y-125850000D01*
X152450000Y-126000000D01*
X152250000Y-126150000D01*
X152100000Y-126250000D01*
X151900000Y-126350000D01*
X151600000Y-126450000D01*
X151300000Y-126500000D01*
X151100000Y-126500000D01*
X146750000Y-126500000D01*
X147050000Y-126050000D01*
X147200000Y-125650000D01*
X147250000Y-125400000D01*
X147250000Y-125050000D01*
X147250000Y-124750000D01*
X147150000Y-124350000D01*
X147000000Y-124000000D01*
X146850000Y-123750000D01*
X146550000Y-123400000D01*
X146300000Y-123200000D01*
X145850000Y-122950000D01*
X147900000Y-122950000D01*
X148400000Y-122900000D01*
X148750000Y-122800000D01*
X149000000Y-122600000D01*
X149050000Y-123050000D01*
G37*
D13*
%TO.C,MCU1*%
X100220000Y-113900000D02*
X100220000Y-116560000D01*
X100220000Y-113900000D02*
X130820000Y-113900000D01*
X100220000Y-116560000D02*
X130820000Y-116560000D01*
X100220000Y-129140000D02*
X100220000Y-131800000D01*
X100220000Y-129140000D02*
X130820000Y-129140000D01*
X100220000Y-131800000D02*
X130820000Y-131800000D01*
X102820000Y-131800000D02*
X102820000Y-129140000D01*
X130820000Y-113900000D02*
X130820000Y-116560000D01*
X130820000Y-129140000D02*
X130820000Y-131800000D01*
D12*
%TO.C,S31*%
X239300000Y-161050000D02*
X239500000Y-161600000D01*
X239900000Y-162150000D01*
X240200000Y-162400000D01*
X240700000Y-162700000D01*
X241300000Y-162850000D01*
X241800000Y-162850000D01*
X242250000Y-162750000D01*
X242500000Y-162650000D01*
X242950000Y-162400000D01*
X243100000Y-162500000D01*
X243250000Y-162600000D01*
X243250000Y-163000000D01*
X243150000Y-163400000D01*
X243000000Y-163650000D01*
X242850000Y-163850000D01*
X242700000Y-164000000D01*
X242500000Y-164150000D01*
X242350000Y-164250000D01*
X242150000Y-164350000D01*
X241850000Y-164450000D01*
X241550000Y-164500000D01*
X241350000Y-164500000D01*
X237000000Y-164500000D01*
X237300000Y-164050000D01*
X237450000Y-163650000D01*
X237500000Y-163400000D01*
X237500000Y-163050000D01*
X237500000Y-162750000D01*
X237400000Y-162350000D01*
X237250000Y-162000000D01*
X237100000Y-161750000D01*
X236800000Y-161400000D01*
X236550000Y-161200000D01*
X236100000Y-160950000D01*
X238150000Y-160950000D01*
X238650000Y-160900000D01*
X239000000Y-160800000D01*
X239250000Y-160600000D01*
X239300000Y-161050000D01*
G36*
X239300000Y-161050000D02*
G01*
X239500000Y-161600000D01*
X239900000Y-162150000D01*
X240200000Y-162400000D01*
X240700000Y-162700000D01*
X241300000Y-162850000D01*
X241800000Y-162850000D01*
X242250000Y-162750000D01*
X242500000Y-162650000D01*
X242950000Y-162400000D01*
X243100000Y-162500000D01*
X243250000Y-162600000D01*
X243250000Y-163000000D01*
X243150000Y-163400000D01*
X243000000Y-163650000D01*
X242850000Y-163850000D01*
X242700000Y-164000000D01*
X242500000Y-164150000D01*
X242350000Y-164250000D01*
X242150000Y-164350000D01*
X241850000Y-164450000D01*
X241550000Y-164500000D01*
X241350000Y-164500000D01*
X237000000Y-164500000D01*
X237300000Y-164050000D01*
X237450000Y-163650000D01*
X237500000Y-163400000D01*
X237500000Y-163050000D01*
X237500000Y-162750000D01*
X237400000Y-162350000D01*
X237250000Y-162000000D01*
X237100000Y-161750000D01*
X236800000Y-161400000D01*
X236550000Y-161200000D01*
X236100000Y-160950000D01*
X238150000Y-160950000D01*
X238650000Y-160900000D01*
X239000000Y-160800000D01*
X239250000Y-160600000D01*
X239300000Y-161050000D01*
G37*
%TO.C,S35*%
X315300000Y-161050000D02*
X315500000Y-161600000D01*
X315900000Y-162150000D01*
X316200000Y-162400000D01*
X316700000Y-162700000D01*
X317300000Y-162850000D01*
X317800000Y-162850000D01*
X318250000Y-162750000D01*
X318500000Y-162650000D01*
X318950000Y-162400000D01*
X319100000Y-162500000D01*
X319250000Y-162600000D01*
X319250000Y-163000000D01*
X319150000Y-163400000D01*
X319000000Y-163650000D01*
X318850000Y-163850000D01*
X318700000Y-164000000D01*
X318500000Y-164150000D01*
X318350000Y-164250000D01*
X318150000Y-164350000D01*
X317850000Y-164450000D01*
X317550000Y-164500000D01*
X317350000Y-164500000D01*
X313000000Y-164500000D01*
X313300000Y-164050000D01*
X313450000Y-163650000D01*
X313500000Y-163400000D01*
X313500000Y-163050000D01*
X313500000Y-162750000D01*
X313400000Y-162350000D01*
X313250000Y-162000000D01*
X313100000Y-161750000D01*
X312800000Y-161400000D01*
X312550000Y-161200000D01*
X312100000Y-160950000D01*
X314150000Y-160950000D01*
X314650000Y-160900000D01*
X315000000Y-160800000D01*
X315250000Y-160600000D01*
X315300000Y-161050000D01*
G36*
X315300000Y-161050000D02*
G01*
X315500000Y-161600000D01*
X315900000Y-162150000D01*
X316200000Y-162400000D01*
X316700000Y-162700000D01*
X317300000Y-162850000D01*
X317800000Y-162850000D01*
X318250000Y-162750000D01*
X318500000Y-162650000D01*
X318950000Y-162400000D01*
X319100000Y-162500000D01*
X319250000Y-162600000D01*
X319250000Y-163000000D01*
X319150000Y-163400000D01*
X319000000Y-163650000D01*
X318850000Y-163850000D01*
X318700000Y-164000000D01*
X318500000Y-164150000D01*
X318350000Y-164250000D01*
X318150000Y-164350000D01*
X317850000Y-164450000D01*
X317550000Y-164500000D01*
X317350000Y-164500000D01*
X313000000Y-164500000D01*
X313300000Y-164050000D01*
X313450000Y-163650000D01*
X313500000Y-163400000D01*
X313500000Y-163050000D01*
X313500000Y-162750000D01*
X313400000Y-162350000D01*
X313250000Y-162000000D01*
X313100000Y-161750000D01*
X312800000Y-161400000D01*
X312550000Y-161200000D01*
X312100000Y-160950000D01*
X314150000Y-160950000D01*
X314650000Y-160900000D01*
X315000000Y-160800000D01*
X315250000Y-160600000D01*
X315300000Y-161050000D01*
G37*
%TO.C,S21*%
X267800000Y-142050000D02*
X268000000Y-142600000D01*
X268400000Y-143150000D01*
X268700000Y-143400000D01*
X269200000Y-143700000D01*
X269800000Y-143850000D01*
X270300000Y-143850000D01*
X270750000Y-143750000D01*
X271000000Y-143650000D01*
X271450000Y-143400000D01*
X271600000Y-143500000D01*
X271750000Y-143600000D01*
X271750000Y-144000000D01*
X271650000Y-144400000D01*
X271500000Y-144650000D01*
X271350000Y-144850000D01*
X271200000Y-145000000D01*
X271000000Y-145150000D01*
X270850000Y-145250000D01*
X270650000Y-145350000D01*
X270350000Y-145450000D01*
X270050000Y-145500000D01*
X269850000Y-145500000D01*
X265500000Y-145500000D01*
X265800000Y-145050000D01*
X265950000Y-144650000D01*
X266000000Y-144400000D01*
X266000000Y-144050000D01*
X266000000Y-143750000D01*
X265900000Y-143350000D01*
X265750000Y-143000000D01*
X265600000Y-142750000D01*
X265300000Y-142400000D01*
X265050000Y-142200000D01*
X264600000Y-141950000D01*
X266650000Y-141950000D01*
X267150000Y-141900000D01*
X267500000Y-141800000D01*
X267750000Y-141600000D01*
X267800000Y-142050000D01*
G36*
X267800000Y-142050000D02*
G01*
X268000000Y-142600000D01*
X268400000Y-143150000D01*
X268700000Y-143400000D01*
X269200000Y-143700000D01*
X269800000Y-143850000D01*
X270300000Y-143850000D01*
X270750000Y-143750000D01*
X271000000Y-143650000D01*
X271450000Y-143400000D01*
X271600000Y-143500000D01*
X271750000Y-143600000D01*
X271750000Y-144000000D01*
X271650000Y-144400000D01*
X271500000Y-144650000D01*
X271350000Y-144850000D01*
X271200000Y-145000000D01*
X271000000Y-145150000D01*
X270850000Y-145250000D01*
X270650000Y-145350000D01*
X270350000Y-145450000D01*
X270050000Y-145500000D01*
X269850000Y-145500000D01*
X265500000Y-145500000D01*
X265800000Y-145050000D01*
X265950000Y-144650000D01*
X266000000Y-144400000D01*
X266000000Y-144050000D01*
X266000000Y-143750000D01*
X265900000Y-143350000D01*
X265750000Y-143000000D01*
X265600000Y-142750000D01*
X265300000Y-142400000D01*
X265050000Y-142200000D01*
X264600000Y-141950000D01*
X266650000Y-141950000D01*
X267150000Y-141900000D01*
X267500000Y-141800000D01*
X267750000Y-141600000D01*
X267800000Y-142050000D01*
G37*
%TO.C,S42*%
X277300000Y-180050000D02*
X277500000Y-180600000D01*
X277900000Y-181150000D01*
X278200000Y-181400000D01*
X278700000Y-181700000D01*
X279300000Y-181850000D01*
X279800000Y-181850000D01*
X280250000Y-181750000D01*
X280500000Y-181650000D01*
X280950000Y-181400000D01*
X281100000Y-181500000D01*
X281250000Y-181600000D01*
X281250000Y-182000000D01*
X281150000Y-182400000D01*
X281000000Y-182650000D01*
X280850000Y-182850000D01*
X280700000Y-183000000D01*
X280500000Y-183150000D01*
X280350000Y-183250000D01*
X280150000Y-183350000D01*
X279850000Y-183450000D01*
X279550000Y-183500000D01*
X279350000Y-183500000D01*
X275000000Y-183500000D01*
X275300000Y-183050000D01*
X275450000Y-182650000D01*
X275500000Y-182400000D01*
X275500000Y-182050000D01*
X275500000Y-181750000D01*
X275400000Y-181350000D01*
X275250000Y-181000000D01*
X275100000Y-180750000D01*
X274800000Y-180400000D01*
X274550000Y-180200000D01*
X274100000Y-179950000D01*
X276150000Y-179950000D01*
X276650000Y-179900000D01*
X277000000Y-179800000D01*
X277250000Y-179600000D01*
X277300000Y-180050000D01*
G36*
X277300000Y-180050000D02*
G01*
X277500000Y-180600000D01*
X277900000Y-181150000D01*
X278200000Y-181400000D01*
X278700000Y-181700000D01*
X279300000Y-181850000D01*
X279800000Y-181850000D01*
X280250000Y-181750000D01*
X280500000Y-181650000D01*
X280950000Y-181400000D01*
X281100000Y-181500000D01*
X281250000Y-181600000D01*
X281250000Y-182000000D01*
X281150000Y-182400000D01*
X281000000Y-182650000D01*
X280850000Y-182850000D01*
X280700000Y-183000000D01*
X280500000Y-183150000D01*
X280350000Y-183250000D01*
X280150000Y-183350000D01*
X279850000Y-183450000D01*
X279550000Y-183500000D01*
X279350000Y-183500000D01*
X275000000Y-183500000D01*
X275300000Y-183050000D01*
X275450000Y-182650000D01*
X275500000Y-182400000D01*
X275500000Y-182050000D01*
X275500000Y-181750000D01*
X275400000Y-181350000D01*
X275250000Y-181000000D01*
X275100000Y-180750000D01*
X274800000Y-180400000D01*
X274550000Y-180200000D01*
X274100000Y-179950000D01*
X276150000Y-179950000D01*
X276650000Y-179900000D01*
X277000000Y-179800000D01*
X277250000Y-179600000D01*
X277300000Y-180050000D01*
G37*
%TO.C,S16*%
X172800000Y-142050000D02*
X173000000Y-142600000D01*
X173400000Y-143150000D01*
X173700000Y-143400000D01*
X174200000Y-143700000D01*
X174800000Y-143850000D01*
X175300000Y-143850000D01*
X175750000Y-143750000D01*
X176000000Y-143650000D01*
X176450000Y-143400000D01*
X176600000Y-143500000D01*
X176750000Y-143600000D01*
X176750000Y-144000000D01*
X176650000Y-144400000D01*
X176500000Y-144650000D01*
X176350000Y-144850000D01*
X176200000Y-145000000D01*
X176000000Y-145150000D01*
X175850000Y-145250000D01*
X175650000Y-145350000D01*
X175350000Y-145450000D01*
X175050000Y-145500000D01*
X174850000Y-145500000D01*
X170500000Y-145500000D01*
X170800000Y-145050000D01*
X170950000Y-144650000D01*
X171000000Y-144400000D01*
X171000000Y-144050000D01*
X171000000Y-143750000D01*
X170900000Y-143350000D01*
X170750000Y-143000000D01*
X170600000Y-142750000D01*
X170300000Y-142400000D01*
X170050000Y-142200000D01*
X169600000Y-141950000D01*
X171650000Y-141950000D01*
X172150000Y-141900000D01*
X172500000Y-141800000D01*
X172750000Y-141600000D01*
X172800000Y-142050000D01*
G36*
X172800000Y-142050000D02*
G01*
X173000000Y-142600000D01*
X173400000Y-143150000D01*
X173700000Y-143400000D01*
X174200000Y-143700000D01*
X174800000Y-143850000D01*
X175300000Y-143850000D01*
X175750000Y-143750000D01*
X176000000Y-143650000D01*
X176450000Y-143400000D01*
X176600000Y-143500000D01*
X176750000Y-143600000D01*
X176750000Y-144000000D01*
X176650000Y-144400000D01*
X176500000Y-144650000D01*
X176350000Y-144850000D01*
X176200000Y-145000000D01*
X176000000Y-145150000D01*
X175850000Y-145250000D01*
X175650000Y-145350000D01*
X175350000Y-145450000D01*
X175050000Y-145500000D01*
X174850000Y-145500000D01*
X170500000Y-145500000D01*
X170800000Y-145050000D01*
X170950000Y-144650000D01*
X171000000Y-144400000D01*
X171000000Y-144050000D01*
X171000000Y-143750000D01*
X170900000Y-143350000D01*
X170750000Y-143000000D01*
X170600000Y-142750000D01*
X170300000Y-142400000D01*
X170050000Y-142200000D01*
X169600000Y-141950000D01*
X171650000Y-141950000D01*
X172150000Y-141900000D01*
X172500000Y-141800000D01*
X172750000Y-141600000D01*
X172800000Y-142050000D01*
G37*
%TO.C,S15*%
X153800000Y-142050000D02*
X154000000Y-142600000D01*
X154400000Y-143150000D01*
X154700000Y-143400000D01*
X155200000Y-143700000D01*
X155800000Y-143850000D01*
X156300000Y-143850000D01*
X156750000Y-143750000D01*
X157000000Y-143650000D01*
X157450000Y-143400000D01*
X157600000Y-143500000D01*
X157750000Y-143600000D01*
X157750000Y-144000000D01*
X157650000Y-144400000D01*
X157500000Y-144650000D01*
X157350000Y-144850000D01*
X157200000Y-145000000D01*
X157000000Y-145150000D01*
X156850000Y-145250000D01*
X156650000Y-145350000D01*
X156350000Y-145450000D01*
X156050000Y-145500000D01*
X155850000Y-145500000D01*
X151500000Y-145500000D01*
X151800000Y-145050000D01*
X151950000Y-144650000D01*
X152000000Y-144400000D01*
X152000000Y-144050000D01*
X152000000Y-143750000D01*
X151900000Y-143350000D01*
X151750000Y-143000000D01*
X151600000Y-142750000D01*
X151300000Y-142400000D01*
X151050000Y-142200000D01*
X150600000Y-141950000D01*
X152650000Y-141950000D01*
X153150000Y-141900000D01*
X153500000Y-141800000D01*
X153750000Y-141600000D01*
X153800000Y-142050000D01*
G36*
X153800000Y-142050000D02*
G01*
X154000000Y-142600000D01*
X154400000Y-143150000D01*
X154700000Y-143400000D01*
X155200000Y-143700000D01*
X155800000Y-143850000D01*
X156300000Y-143850000D01*
X156750000Y-143750000D01*
X157000000Y-143650000D01*
X157450000Y-143400000D01*
X157600000Y-143500000D01*
X157750000Y-143600000D01*
X157750000Y-144000000D01*
X157650000Y-144400000D01*
X157500000Y-144650000D01*
X157350000Y-144850000D01*
X157200000Y-145000000D01*
X157000000Y-145150000D01*
X156850000Y-145250000D01*
X156650000Y-145350000D01*
X156350000Y-145450000D01*
X156050000Y-145500000D01*
X155850000Y-145500000D01*
X151500000Y-145500000D01*
X151800000Y-145050000D01*
X151950000Y-144650000D01*
X152000000Y-144400000D01*
X152000000Y-144050000D01*
X152000000Y-143750000D01*
X151900000Y-143350000D01*
X151750000Y-143000000D01*
X151600000Y-142750000D01*
X151300000Y-142400000D01*
X151050000Y-142200000D01*
X150600000Y-141950000D01*
X152650000Y-141950000D01*
X153150000Y-141900000D01*
X153500000Y-141800000D01*
X153750000Y-141600000D01*
X153800000Y-142050000D01*
G37*
%TO.C,S14*%
X134800000Y-142050000D02*
X135000000Y-142600000D01*
X135400000Y-143150000D01*
X135700000Y-143400000D01*
X136200000Y-143700000D01*
X136800000Y-143850000D01*
X137300000Y-143850000D01*
X137750000Y-143750000D01*
X138000000Y-143650000D01*
X138450000Y-143400000D01*
X138600000Y-143500000D01*
X138750000Y-143600000D01*
X138750000Y-144000000D01*
X138650000Y-144400000D01*
X138500000Y-144650000D01*
X138350000Y-144850000D01*
X138200000Y-145000000D01*
X138000000Y-145150000D01*
X137850000Y-145250000D01*
X137650000Y-145350000D01*
X137350000Y-145450000D01*
X137050000Y-145500000D01*
X136850000Y-145500000D01*
X132500000Y-145500000D01*
X132800000Y-145050000D01*
X132950000Y-144650000D01*
X133000000Y-144400000D01*
X133000000Y-144050000D01*
X133000000Y-143750000D01*
X132900000Y-143350000D01*
X132750000Y-143000000D01*
X132600000Y-142750000D01*
X132300000Y-142400000D01*
X132050000Y-142200000D01*
X131600000Y-141950000D01*
X133650000Y-141950000D01*
X134150000Y-141900000D01*
X134500000Y-141800000D01*
X134750000Y-141600000D01*
X134800000Y-142050000D01*
G36*
X134800000Y-142050000D02*
G01*
X135000000Y-142600000D01*
X135400000Y-143150000D01*
X135700000Y-143400000D01*
X136200000Y-143700000D01*
X136800000Y-143850000D01*
X137300000Y-143850000D01*
X137750000Y-143750000D01*
X138000000Y-143650000D01*
X138450000Y-143400000D01*
X138600000Y-143500000D01*
X138750000Y-143600000D01*
X138750000Y-144000000D01*
X138650000Y-144400000D01*
X138500000Y-144650000D01*
X138350000Y-144850000D01*
X138200000Y-145000000D01*
X138000000Y-145150000D01*
X137850000Y-145250000D01*
X137650000Y-145350000D01*
X137350000Y-145450000D01*
X137050000Y-145500000D01*
X136850000Y-145500000D01*
X132500000Y-145500000D01*
X132800000Y-145050000D01*
X132950000Y-144650000D01*
X133000000Y-144400000D01*
X133000000Y-144050000D01*
X133000000Y-143750000D01*
X132900000Y-143350000D01*
X132750000Y-143000000D01*
X132600000Y-142750000D01*
X132300000Y-142400000D01*
X132050000Y-142200000D01*
X131600000Y-141950000D01*
X133650000Y-141950000D01*
X134150000Y-141900000D01*
X134500000Y-141800000D01*
X134750000Y-141600000D01*
X134800000Y-142050000D01*
G37*
%TO.C,S29*%
X201300000Y-161050000D02*
X201500000Y-161600000D01*
X201900000Y-162150000D01*
X202200000Y-162400000D01*
X202700000Y-162700000D01*
X203300000Y-162850000D01*
X203800000Y-162850000D01*
X204250000Y-162750000D01*
X204500000Y-162650000D01*
X204950000Y-162400000D01*
X205100000Y-162500000D01*
X205250000Y-162600000D01*
X205250000Y-163000000D01*
X205150000Y-163400000D01*
X205000000Y-163650000D01*
X204850000Y-163850000D01*
X204700000Y-164000000D01*
X204500000Y-164150000D01*
X204350000Y-164250000D01*
X204150000Y-164350000D01*
X203850000Y-164450000D01*
X203550000Y-164500000D01*
X203350000Y-164500000D01*
X199000000Y-164500000D01*
X199300000Y-164050000D01*
X199450000Y-163650000D01*
X199500000Y-163400000D01*
X199500000Y-163050000D01*
X199500000Y-162750000D01*
X199400000Y-162350000D01*
X199250000Y-162000000D01*
X199100000Y-161750000D01*
X198800000Y-161400000D01*
X198550000Y-161200000D01*
X198100000Y-160950000D01*
X200150000Y-160950000D01*
X200650000Y-160900000D01*
X201000000Y-160800000D01*
X201250000Y-160600000D01*
X201300000Y-161050000D01*
G36*
X201300000Y-161050000D02*
G01*
X201500000Y-161600000D01*
X201900000Y-162150000D01*
X202200000Y-162400000D01*
X202700000Y-162700000D01*
X203300000Y-162850000D01*
X203800000Y-162850000D01*
X204250000Y-162750000D01*
X204500000Y-162650000D01*
X204950000Y-162400000D01*
X205100000Y-162500000D01*
X205250000Y-162600000D01*
X205250000Y-163000000D01*
X205150000Y-163400000D01*
X205000000Y-163650000D01*
X204850000Y-163850000D01*
X204700000Y-164000000D01*
X204500000Y-164150000D01*
X204350000Y-164250000D01*
X204150000Y-164350000D01*
X203850000Y-164450000D01*
X203550000Y-164500000D01*
X203350000Y-164500000D01*
X199000000Y-164500000D01*
X199300000Y-164050000D01*
X199450000Y-163650000D01*
X199500000Y-163400000D01*
X199500000Y-163050000D01*
X199500000Y-162750000D01*
X199400000Y-162350000D01*
X199250000Y-162000000D01*
X199100000Y-161750000D01*
X198800000Y-161400000D01*
X198550000Y-161200000D01*
X198100000Y-160950000D01*
X200150000Y-160950000D01*
X200650000Y-160900000D01*
X201000000Y-160800000D01*
X201250000Y-160600000D01*
X201300000Y-161050000D01*
G37*
%TO.C,S32*%
X258300000Y-161050000D02*
X258500000Y-161600000D01*
X258900000Y-162150000D01*
X259200000Y-162400000D01*
X259700000Y-162700000D01*
X260300000Y-162850000D01*
X260800000Y-162850000D01*
X261250000Y-162750000D01*
X261500000Y-162650000D01*
X261950000Y-162400000D01*
X262100000Y-162500000D01*
X262250000Y-162600000D01*
X262250000Y-163000000D01*
X262150000Y-163400000D01*
X262000000Y-163650000D01*
X261850000Y-163850000D01*
X261700000Y-164000000D01*
X261500000Y-164150000D01*
X261350000Y-164250000D01*
X261150000Y-164350000D01*
X260850000Y-164450000D01*
X260550000Y-164500000D01*
X260350000Y-164500000D01*
X256000000Y-164500000D01*
X256300000Y-164050000D01*
X256450000Y-163650000D01*
X256500000Y-163400000D01*
X256500000Y-163050000D01*
X256500000Y-162750000D01*
X256400000Y-162350000D01*
X256250000Y-162000000D01*
X256100000Y-161750000D01*
X255800000Y-161400000D01*
X255550000Y-161200000D01*
X255100000Y-160950000D01*
X257150000Y-160950000D01*
X257650000Y-160900000D01*
X258000000Y-160800000D01*
X258250000Y-160600000D01*
X258300000Y-161050000D01*
G36*
X258300000Y-161050000D02*
G01*
X258500000Y-161600000D01*
X258900000Y-162150000D01*
X259200000Y-162400000D01*
X259700000Y-162700000D01*
X260300000Y-162850000D01*
X260800000Y-162850000D01*
X261250000Y-162750000D01*
X261500000Y-162650000D01*
X261950000Y-162400000D01*
X262100000Y-162500000D01*
X262250000Y-162600000D01*
X262250000Y-163000000D01*
X262150000Y-163400000D01*
X262000000Y-163650000D01*
X261850000Y-163850000D01*
X261700000Y-164000000D01*
X261500000Y-164150000D01*
X261350000Y-164250000D01*
X261150000Y-164350000D01*
X260850000Y-164450000D01*
X260550000Y-164500000D01*
X260350000Y-164500000D01*
X256000000Y-164500000D01*
X256300000Y-164050000D01*
X256450000Y-163650000D01*
X256500000Y-163400000D01*
X256500000Y-163050000D01*
X256500000Y-162750000D01*
X256400000Y-162350000D01*
X256250000Y-162000000D01*
X256100000Y-161750000D01*
X255800000Y-161400000D01*
X255550000Y-161200000D01*
X255100000Y-160950000D01*
X257150000Y-160950000D01*
X257650000Y-160900000D01*
X258000000Y-160800000D01*
X258250000Y-160600000D01*
X258300000Y-161050000D01*
G37*
%TO.C,S9*%
X263050000Y-123050000D02*
X263250000Y-123600000D01*
X263650000Y-124150000D01*
X263950000Y-124400000D01*
X264450000Y-124700000D01*
X265050000Y-124850000D01*
X265550000Y-124850000D01*
X266000000Y-124750000D01*
X266250000Y-124650000D01*
X266700000Y-124400000D01*
X266850000Y-124500000D01*
X267000000Y-124600000D01*
X267000000Y-125000000D01*
X266900000Y-125400000D01*
X266750000Y-125650000D01*
X266600000Y-125850000D01*
X266450000Y-126000000D01*
X266250000Y-126150000D01*
X266100000Y-126250000D01*
X265900000Y-126350000D01*
X265600000Y-126450000D01*
X265300000Y-126500000D01*
X265100000Y-126500000D01*
X260750000Y-126500000D01*
X261050000Y-126050000D01*
X261200000Y-125650000D01*
X261250000Y-125400000D01*
X261250000Y-125050000D01*
X261250000Y-124750000D01*
X261150000Y-124350000D01*
X261000000Y-124000000D01*
X260850000Y-123750000D01*
X260550000Y-123400000D01*
X260300000Y-123200000D01*
X259850000Y-122950000D01*
X261900000Y-122950000D01*
X262400000Y-122900000D01*
X262750000Y-122800000D01*
X263000000Y-122600000D01*
X263050000Y-123050000D01*
G36*
X263050000Y-123050000D02*
G01*
X263250000Y-123600000D01*
X263650000Y-124150000D01*
X263950000Y-124400000D01*
X264450000Y-124700000D01*
X265050000Y-124850000D01*
X265550000Y-124850000D01*
X266000000Y-124750000D01*
X266250000Y-124650000D01*
X266700000Y-124400000D01*
X266850000Y-124500000D01*
X267000000Y-124600000D01*
X267000000Y-125000000D01*
X266900000Y-125400000D01*
X266750000Y-125650000D01*
X266600000Y-125850000D01*
X266450000Y-126000000D01*
X266250000Y-126150000D01*
X266100000Y-126250000D01*
X265900000Y-126350000D01*
X265600000Y-126450000D01*
X265300000Y-126500000D01*
X265100000Y-126500000D01*
X260750000Y-126500000D01*
X261050000Y-126050000D01*
X261200000Y-125650000D01*
X261250000Y-125400000D01*
X261250000Y-125050000D01*
X261250000Y-124750000D01*
X261150000Y-124350000D01*
X261000000Y-124000000D01*
X260850000Y-123750000D01*
X260550000Y-123400000D01*
X260300000Y-123200000D01*
X259850000Y-122950000D01*
X261900000Y-122950000D01*
X262400000Y-122900000D01*
X262750000Y-122800000D01*
X263000000Y-122600000D01*
X263050000Y-123050000D01*
G37*
%TO.C,S43*%
X296300000Y-180050000D02*
X296500000Y-180600000D01*
X296900000Y-181150000D01*
X297200000Y-181400000D01*
X297700000Y-181700000D01*
X298300000Y-181850000D01*
X298800000Y-181850000D01*
X299250000Y-181750000D01*
X299500000Y-181650000D01*
X299950000Y-181400000D01*
X300100000Y-181500000D01*
X300250000Y-181600000D01*
X300250000Y-182000000D01*
X300150000Y-182400000D01*
X300000000Y-182650000D01*
X299850000Y-182850000D01*
X299700000Y-183000000D01*
X299500000Y-183150000D01*
X299350000Y-183250000D01*
X299150000Y-183350000D01*
X298850000Y-183450000D01*
X298550000Y-183500000D01*
X298350000Y-183500000D01*
X294000000Y-183500000D01*
X294300000Y-183050000D01*
X294450000Y-182650000D01*
X294500000Y-182400000D01*
X294500000Y-182050000D01*
X294500000Y-181750000D01*
X294400000Y-181350000D01*
X294250000Y-181000000D01*
X294100000Y-180750000D01*
X293800000Y-180400000D01*
X293550000Y-180200000D01*
X293100000Y-179950000D01*
X295150000Y-179950000D01*
X295650000Y-179900000D01*
X296000000Y-179800000D01*
X296250000Y-179600000D01*
X296300000Y-180050000D01*
G36*
X296300000Y-180050000D02*
G01*
X296500000Y-180600000D01*
X296900000Y-181150000D01*
X297200000Y-181400000D01*
X297700000Y-181700000D01*
X298300000Y-181850000D01*
X298800000Y-181850000D01*
X299250000Y-181750000D01*
X299500000Y-181650000D01*
X299950000Y-181400000D01*
X300100000Y-181500000D01*
X300250000Y-181600000D01*
X300250000Y-182000000D01*
X300150000Y-182400000D01*
X300000000Y-182650000D01*
X299850000Y-182850000D01*
X299700000Y-183000000D01*
X299500000Y-183150000D01*
X299350000Y-183250000D01*
X299150000Y-183350000D01*
X298850000Y-183450000D01*
X298550000Y-183500000D01*
X298350000Y-183500000D01*
X294000000Y-183500000D01*
X294300000Y-183050000D01*
X294450000Y-182650000D01*
X294500000Y-182400000D01*
X294500000Y-182050000D01*
X294500000Y-181750000D01*
X294400000Y-181350000D01*
X294250000Y-181000000D01*
X294100000Y-180750000D01*
X293800000Y-180400000D01*
X293550000Y-180200000D01*
X293100000Y-179950000D01*
X295150000Y-179950000D01*
X295650000Y-179900000D01*
X296000000Y-179800000D01*
X296250000Y-179600000D01*
X296300000Y-180050000D01*
G37*
%TO.C,S4*%
X168050000Y-123050000D02*
X168250000Y-123600000D01*
X168650000Y-124150000D01*
X168950000Y-124400000D01*
X169450000Y-124700000D01*
X170050000Y-124850000D01*
X170550000Y-124850000D01*
X171000000Y-124750000D01*
X171250000Y-124650000D01*
X171700000Y-124400000D01*
X171850000Y-124500000D01*
X172000000Y-124600000D01*
X172000000Y-125000000D01*
X171900000Y-125400000D01*
X171750000Y-125650000D01*
X171600000Y-125850000D01*
X171450000Y-126000000D01*
X171250000Y-126150000D01*
X171100000Y-126250000D01*
X170900000Y-126350000D01*
X170600000Y-126450000D01*
X170300000Y-126500000D01*
X170100000Y-126500000D01*
X165750000Y-126500000D01*
X166050000Y-126050000D01*
X166200000Y-125650000D01*
X166250000Y-125400000D01*
X166250000Y-125050000D01*
X166250000Y-124750000D01*
X166150000Y-124350000D01*
X166000000Y-124000000D01*
X165850000Y-123750000D01*
X165550000Y-123400000D01*
X165300000Y-123200000D01*
X164850000Y-122950000D01*
X166900000Y-122950000D01*
X167400000Y-122900000D01*
X167750000Y-122800000D01*
X168000000Y-122600000D01*
X168050000Y-123050000D01*
G36*
X168050000Y-123050000D02*
G01*
X168250000Y-123600000D01*
X168650000Y-124150000D01*
X168950000Y-124400000D01*
X169450000Y-124700000D01*
X170050000Y-124850000D01*
X170550000Y-124850000D01*
X171000000Y-124750000D01*
X171250000Y-124650000D01*
X171700000Y-124400000D01*
X171850000Y-124500000D01*
X172000000Y-124600000D01*
X172000000Y-125000000D01*
X171900000Y-125400000D01*
X171750000Y-125650000D01*
X171600000Y-125850000D01*
X171450000Y-126000000D01*
X171250000Y-126150000D01*
X171100000Y-126250000D01*
X170900000Y-126350000D01*
X170600000Y-126450000D01*
X170300000Y-126500000D01*
X170100000Y-126500000D01*
X165750000Y-126500000D01*
X166050000Y-126050000D01*
X166200000Y-125650000D01*
X166250000Y-125400000D01*
X166250000Y-125050000D01*
X166250000Y-124750000D01*
X166150000Y-124350000D01*
X166000000Y-124000000D01*
X165850000Y-123750000D01*
X165550000Y-123400000D01*
X165300000Y-123200000D01*
X164850000Y-122950000D01*
X166900000Y-122950000D01*
X167400000Y-122900000D01*
X167750000Y-122800000D01*
X168000000Y-122600000D01*
X168050000Y-123050000D01*
G37*
%TO.C,S1*%
X111050000Y-123050000D02*
X111250000Y-123600000D01*
X111650000Y-124150000D01*
X111950000Y-124400000D01*
X112450000Y-124700000D01*
X113050000Y-124850000D01*
X113550000Y-124850000D01*
X114000000Y-124750000D01*
X114250000Y-124650000D01*
X114700000Y-124400000D01*
X114850000Y-124500000D01*
X115000000Y-124600000D01*
X115000000Y-125000000D01*
X114900000Y-125400000D01*
X114750000Y-125650000D01*
X114600000Y-125850000D01*
X114450000Y-126000000D01*
X114250000Y-126150000D01*
X114100000Y-126250000D01*
X113900000Y-126350000D01*
X113600000Y-126450000D01*
X113300000Y-126500000D01*
X113100000Y-126500000D01*
X108750000Y-126500000D01*
X109050000Y-126050000D01*
X109200000Y-125650000D01*
X109250000Y-125400000D01*
X109250000Y-125050000D01*
X109250000Y-124750000D01*
X109150000Y-124350000D01*
X109000000Y-124000000D01*
X108850000Y-123750000D01*
X108550000Y-123400000D01*
X108300000Y-123200000D01*
X107850000Y-122950000D01*
X109900000Y-122950000D01*
X110400000Y-122900000D01*
X110750000Y-122800000D01*
X111000000Y-122600000D01*
X111050000Y-123050000D01*
G36*
X111050000Y-123050000D02*
G01*
X111250000Y-123600000D01*
X111650000Y-124150000D01*
X111950000Y-124400000D01*
X112450000Y-124700000D01*
X113050000Y-124850000D01*
X113550000Y-124850000D01*
X114000000Y-124750000D01*
X114250000Y-124650000D01*
X114700000Y-124400000D01*
X114850000Y-124500000D01*
X115000000Y-124600000D01*
X115000000Y-125000000D01*
X114900000Y-125400000D01*
X114750000Y-125650000D01*
X114600000Y-125850000D01*
X114450000Y-126000000D01*
X114250000Y-126150000D01*
X114100000Y-126250000D01*
X113900000Y-126350000D01*
X113600000Y-126450000D01*
X113300000Y-126500000D01*
X113100000Y-126500000D01*
X108750000Y-126500000D01*
X109050000Y-126050000D01*
X109200000Y-125650000D01*
X109250000Y-125400000D01*
X109250000Y-125050000D01*
X109250000Y-124750000D01*
X109150000Y-124350000D01*
X109000000Y-124000000D01*
X108850000Y-123750000D01*
X108550000Y-123400000D01*
X108300000Y-123200000D01*
X107850000Y-122950000D01*
X109900000Y-122950000D01*
X110400000Y-122900000D01*
X110750000Y-122800000D01*
X111000000Y-122600000D01*
X111050000Y-123050000D01*
G37*
%TO.C,S26*%
X144300000Y-161050000D02*
X144500000Y-161600000D01*
X144900000Y-162150000D01*
X145200000Y-162400000D01*
X145700000Y-162700000D01*
X146300000Y-162850000D01*
X146800000Y-162850000D01*
X147250000Y-162750000D01*
X147500000Y-162650000D01*
X147950000Y-162400000D01*
X148100000Y-162500000D01*
X148250000Y-162600000D01*
X148250000Y-163000000D01*
X148150000Y-163400000D01*
X148000000Y-163650000D01*
X147850000Y-163850000D01*
X147700000Y-164000000D01*
X147500000Y-164150000D01*
X147350000Y-164250000D01*
X147150000Y-164350000D01*
X146850000Y-164450000D01*
X146550000Y-164500000D01*
X146350000Y-164500000D01*
X142000000Y-164500000D01*
X142300000Y-164050000D01*
X142450000Y-163650000D01*
X142500000Y-163400000D01*
X142500000Y-163050000D01*
X142500000Y-162750000D01*
X142400000Y-162350000D01*
X142250000Y-162000000D01*
X142100000Y-161750000D01*
X141800000Y-161400000D01*
X141550000Y-161200000D01*
X141100000Y-160950000D01*
X143150000Y-160950000D01*
X143650000Y-160900000D01*
X144000000Y-160800000D01*
X144250000Y-160600000D01*
X144300000Y-161050000D01*
G36*
X144300000Y-161050000D02*
G01*
X144500000Y-161600000D01*
X144900000Y-162150000D01*
X145200000Y-162400000D01*
X145700000Y-162700000D01*
X146300000Y-162850000D01*
X146800000Y-162850000D01*
X147250000Y-162750000D01*
X147500000Y-162650000D01*
X147950000Y-162400000D01*
X148100000Y-162500000D01*
X148250000Y-162600000D01*
X148250000Y-163000000D01*
X148150000Y-163400000D01*
X148000000Y-163650000D01*
X147850000Y-163850000D01*
X147700000Y-164000000D01*
X147500000Y-164150000D01*
X147350000Y-164250000D01*
X147150000Y-164350000D01*
X146850000Y-164450000D01*
X146550000Y-164500000D01*
X146350000Y-164500000D01*
X142000000Y-164500000D01*
X142300000Y-164050000D01*
X142450000Y-163650000D01*
X142500000Y-163400000D01*
X142500000Y-163050000D01*
X142500000Y-162750000D01*
X142400000Y-162350000D01*
X142250000Y-162000000D01*
X142100000Y-161750000D01*
X141800000Y-161400000D01*
X141550000Y-161200000D01*
X141100000Y-160950000D01*
X143150000Y-160950000D01*
X143650000Y-160900000D01*
X144000000Y-160800000D01*
X144250000Y-160600000D01*
X144300000Y-161050000D01*
G37*
%TO.C,S18*%
X210800000Y-142050000D02*
X211000000Y-142600000D01*
X211400000Y-143150000D01*
X211700000Y-143400000D01*
X212200000Y-143700000D01*
X212800000Y-143850000D01*
X213300000Y-143850000D01*
X213750000Y-143750000D01*
X214000000Y-143650000D01*
X214450000Y-143400000D01*
X214600000Y-143500000D01*
X214750000Y-143600000D01*
X214750000Y-144000000D01*
X214650000Y-144400000D01*
X214500000Y-144650000D01*
X214350000Y-144850000D01*
X214200000Y-145000000D01*
X214000000Y-145150000D01*
X213850000Y-145250000D01*
X213650000Y-145350000D01*
X213350000Y-145450000D01*
X213050000Y-145500000D01*
X212850000Y-145500000D01*
X208500000Y-145500000D01*
X208800000Y-145050000D01*
X208950000Y-144650000D01*
X209000000Y-144400000D01*
X209000000Y-144050000D01*
X209000000Y-143750000D01*
X208900000Y-143350000D01*
X208750000Y-143000000D01*
X208600000Y-142750000D01*
X208300000Y-142400000D01*
X208050000Y-142200000D01*
X207600000Y-141950000D01*
X209650000Y-141950000D01*
X210150000Y-141900000D01*
X210500000Y-141800000D01*
X210750000Y-141600000D01*
X210800000Y-142050000D01*
G36*
X210800000Y-142050000D02*
G01*
X211000000Y-142600000D01*
X211400000Y-143150000D01*
X211700000Y-143400000D01*
X212200000Y-143700000D01*
X212800000Y-143850000D01*
X213300000Y-143850000D01*
X213750000Y-143750000D01*
X214000000Y-143650000D01*
X214450000Y-143400000D01*
X214600000Y-143500000D01*
X214750000Y-143600000D01*
X214750000Y-144000000D01*
X214650000Y-144400000D01*
X214500000Y-144650000D01*
X214350000Y-144850000D01*
X214200000Y-145000000D01*
X214000000Y-145150000D01*
X213850000Y-145250000D01*
X213650000Y-145350000D01*
X213350000Y-145450000D01*
X213050000Y-145500000D01*
X212850000Y-145500000D01*
X208500000Y-145500000D01*
X208800000Y-145050000D01*
X208950000Y-144650000D01*
X209000000Y-144400000D01*
X209000000Y-144050000D01*
X209000000Y-143750000D01*
X208900000Y-143350000D01*
X208750000Y-143000000D01*
X208600000Y-142750000D01*
X208300000Y-142400000D01*
X208050000Y-142200000D01*
X207600000Y-141950000D01*
X209650000Y-141950000D01*
X210150000Y-141900000D01*
X210500000Y-141800000D01*
X210750000Y-141600000D01*
X210800000Y-142050000D01*
G37*
%TO.C,S33*%
X277300000Y-161050000D02*
X277500000Y-161600000D01*
X277900000Y-162150000D01*
X278200000Y-162400000D01*
X278700000Y-162700000D01*
X279300000Y-162850000D01*
X279800000Y-162850000D01*
X280250000Y-162750000D01*
X280500000Y-162650000D01*
X280950000Y-162400000D01*
X281100000Y-162500000D01*
X281250000Y-162600000D01*
X281250000Y-163000000D01*
X281150000Y-163400000D01*
X281000000Y-163650000D01*
X280850000Y-163850000D01*
X280700000Y-164000000D01*
X280500000Y-164150000D01*
X280350000Y-164250000D01*
X280150000Y-164350000D01*
X279850000Y-164450000D01*
X279550000Y-164500000D01*
X279350000Y-164500000D01*
X275000000Y-164500000D01*
X275300000Y-164050000D01*
X275450000Y-163650000D01*
X275500000Y-163400000D01*
X275500000Y-163050000D01*
X275500000Y-162750000D01*
X275400000Y-162350000D01*
X275250000Y-162000000D01*
X275100000Y-161750000D01*
X274800000Y-161400000D01*
X274550000Y-161200000D01*
X274100000Y-160950000D01*
X276150000Y-160950000D01*
X276650000Y-160900000D01*
X277000000Y-160800000D01*
X277250000Y-160600000D01*
X277300000Y-161050000D01*
G36*
X277300000Y-161050000D02*
G01*
X277500000Y-161600000D01*
X277900000Y-162150000D01*
X278200000Y-162400000D01*
X278700000Y-162700000D01*
X279300000Y-162850000D01*
X279800000Y-162850000D01*
X280250000Y-162750000D01*
X280500000Y-162650000D01*
X280950000Y-162400000D01*
X281100000Y-162500000D01*
X281250000Y-162600000D01*
X281250000Y-163000000D01*
X281150000Y-163400000D01*
X281000000Y-163650000D01*
X280850000Y-163850000D01*
X280700000Y-164000000D01*
X280500000Y-164150000D01*
X280350000Y-164250000D01*
X280150000Y-164350000D01*
X279850000Y-164450000D01*
X279550000Y-164500000D01*
X279350000Y-164500000D01*
X275000000Y-164500000D01*
X275300000Y-164050000D01*
X275450000Y-163650000D01*
X275500000Y-163400000D01*
X275500000Y-163050000D01*
X275500000Y-162750000D01*
X275400000Y-162350000D01*
X275250000Y-162000000D01*
X275100000Y-161750000D01*
X274800000Y-161400000D01*
X274550000Y-161200000D01*
X274100000Y-160950000D01*
X276150000Y-160950000D01*
X276650000Y-160900000D01*
X277000000Y-160800000D01*
X277250000Y-160600000D01*
X277300000Y-161050000D01*
G37*
%TO.C,S28*%
X182300000Y-161050000D02*
X182500000Y-161600000D01*
X182900000Y-162150000D01*
X183200000Y-162400000D01*
X183700000Y-162700000D01*
X184300000Y-162850000D01*
X184800000Y-162850000D01*
X185250000Y-162750000D01*
X185500000Y-162650000D01*
X185950000Y-162400000D01*
X186100000Y-162500000D01*
X186250000Y-162600000D01*
X186250000Y-163000000D01*
X186150000Y-163400000D01*
X186000000Y-163650000D01*
X185850000Y-163850000D01*
X185700000Y-164000000D01*
X185500000Y-164150000D01*
X185350000Y-164250000D01*
X185150000Y-164350000D01*
X184850000Y-164450000D01*
X184550000Y-164500000D01*
X184350000Y-164500000D01*
X180000000Y-164500000D01*
X180300000Y-164050000D01*
X180450000Y-163650000D01*
X180500000Y-163400000D01*
X180500000Y-163050000D01*
X180500000Y-162750000D01*
X180400000Y-162350000D01*
X180250000Y-162000000D01*
X180100000Y-161750000D01*
X179800000Y-161400000D01*
X179550000Y-161200000D01*
X179100000Y-160950000D01*
X181150000Y-160950000D01*
X181650000Y-160900000D01*
X182000000Y-160800000D01*
X182250000Y-160600000D01*
X182300000Y-161050000D01*
G36*
X182300000Y-161050000D02*
G01*
X182500000Y-161600000D01*
X182900000Y-162150000D01*
X183200000Y-162400000D01*
X183700000Y-162700000D01*
X184300000Y-162850000D01*
X184800000Y-162850000D01*
X185250000Y-162750000D01*
X185500000Y-162650000D01*
X185950000Y-162400000D01*
X186100000Y-162500000D01*
X186250000Y-162600000D01*
X186250000Y-163000000D01*
X186150000Y-163400000D01*
X186000000Y-163650000D01*
X185850000Y-163850000D01*
X185700000Y-164000000D01*
X185500000Y-164150000D01*
X185350000Y-164250000D01*
X185150000Y-164350000D01*
X184850000Y-164450000D01*
X184550000Y-164500000D01*
X184350000Y-164500000D01*
X180000000Y-164500000D01*
X180300000Y-164050000D01*
X180450000Y-163650000D01*
X180500000Y-163400000D01*
X180500000Y-163050000D01*
X180500000Y-162750000D01*
X180400000Y-162350000D01*
X180250000Y-162000000D01*
X180100000Y-161750000D01*
X179800000Y-161400000D01*
X179550000Y-161200000D01*
X179100000Y-160950000D01*
X181150000Y-160950000D01*
X181650000Y-160900000D01*
X182000000Y-160800000D01*
X182250000Y-160600000D01*
X182300000Y-161050000D01*
G37*
%TO.C,S22*%
X286800000Y-142050000D02*
X287000000Y-142600000D01*
X287400000Y-143150000D01*
X287700000Y-143400000D01*
X288200000Y-143700000D01*
X288800000Y-143850000D01*
X289300000Y-143850000D01*
X289750000Y-143750000D01*
X290000000Y-143650000D01*
X290450000Y-143400000D01*
X290600000Y-143500000D01*
X290750000Y-143600000D01*
X290750000Y-144000000D01*
X290650000Y-144400000D01*
X290500000Y-144650000D01*
X290350000Y-144850000D01*
X290200000Y-145000000D01*
X290000000Y-145150000D01*
X289850000Y-145250000D01*
X289650000Y-145350000D01*
X289350000Y-145450000D01*
X289050000Y-145500000D01*
X288850000Y-145500000D01*
X284500000Y-145500000D01*
X284800000Y-145050000D01*
X284950000Y-144650000D01*
X285000000Y-144400000D01*
X285000000Y-144050000D01*
X285000000Y-143750000D01*
X284900000Y-143350000D01*
X284750000Y-143000000D01*
X284600000Y-142750000D01*
X284300000Y-142400000D01*
X284050000Y-142200000D01*
X283600000Y-141950000D01*
X285650000Y-141950000D01*
X286150000Y-141900000D01*
X286500000Y-141800000D01*
X286750000Y-141600000D01*
X286800000Y-142050000D01*
G36*
X286800000Y-142050000D02*
G01*
X287000000Y-142600000D01*
X287400000Y-143150000D01*
X287700000Y-143400000D01*
X288200000Y-143700000D01*
X288800000Y-143850000D01*
X289300000Y-143850000D01*
X289750000Y-143750000D01*
X290000000Y-143650000D01*
X290450000Y-143400000D01*
X290600000Y-143500000D01*
X290750000Y-143600000D01*
X290750000Y-144000000D01*
X290650000Y-144400000D01*
X290500000Y-144650000D01*
X290350000Y-144850000D01*
X290200000Y-145000000D01*
X290000000Y-145150000D01*
X289850000Y-145250000D01*
X289650000Y-145350000D01*
X289350000Y-145450000D01*
X289050000Y-145500000D01*
X288850000Y-145500000D01*
X284500000Y-145500000D01*
X284800000Y-145050000D01*
X284950000Y-144650000D01*
X285000000Y-144400000D01*
X285000000Y-144050000D01*
X285000000Y-143750000D01*
X284900000Y-143350000D01*
X284750000Y-143000000D01*
X284600000Y-142750000D01*
X284300000Y-142400000D01*
X284050000Y-142200000D01*
X283600000Y-141950000D01*
X285650000Y-141950000D01*
X286150000Y-141900000D01*
X286500000Y-141800000D01*
X286750000Y-141600000D01*
X286800000Y-142050000D01*
G37*
%TO.C,S45*%
X334300000Y-180050000D02*
X334500000Y-180600000D01*
X334900000Y-181150000D01*
X335200000Y-181400000D01*
X335700000Y-181700000D01*
X336300000Y-181850000D01*
X336800000Y-181850000D01*
X337250000Y-181750000D01*
X337500000Y-181650000D01*
X337950000Y-181400000D01*
X338100000Y-181500000D01*
X338250000Y-181600000D01*
X338250000Y-182000000D01*
X338150000Y-182400000D01*
X338000000Y-182650000D01*
X337850000Y-182850000D01*
X337700000Y-183000000D01*
X337500000Y-183150000D01*
X337350000Y-183250000D01*
X337150000Y-183350000D01*
X336850000Y-183450000D01*
X336550000Y-183500000D01*
X336350000Y-183500000D01*
X332000000Y-183500000D01*
X332300000Y-183050000D01*
X332450000Y-182650000D01*
X332500000Y-182400000D01*
X332500000Y-182050000D01*
X332500000Y-181750000D01*
X332400000Y-181350000D01*
X332250000Y-181000000D01*
X332100000Y-180750000D01*
X331800000Y-180400000D01*
X331550000Y-180200000D01*
X331100000Y-179950000D01*
X333150000Y-179950000D01*
X333650000Y-179900000D01*
X334000000Y-179800000D01*
X334250000Y-179600000D01*
X334300000Y-180050000D01*
G36*
X334300000Y-180050000D02*
G01*
X334500000Y-180600000D01*
X334900000Y-181150000D01*
X335200000Y-181400000D01*
X335700000Y-181700000D01*
X336300000Y-181850000D01*
X336800000Y-181850000D01*
X337250000Y-181750000D01*
X337500000Y-181650000D01*
X337950000Y-181400000D01*
X338100000Y-181500000D01*
X338250000Y-181600000D01*
X338250000Y-182000000D01*
X338150000Y-182400000D01*
X338000000Y-182650000D01*
X337850000Y-182850000D01*
X337700000Y-183000000D01*
X337500000Y-183150000D01*
X337350000Y-183250000D01*
X337150000Y-183350000D01*
X336850000Y-183450000D01*
X336550000Y-183500000D01*
X336350000Y-183500000D01*
X332000000Y-183500000D01*
X332300000Y-183050000D01*
X332450000Y-182650000D01*
X332500000Y-182400000D01*
X332500000Y-182050000D01*
X332500000Y-181750000D01*
X332400000Y-181350000D01*
X332250000Y-181000000D01*
X332100000Y-180750000D01*
X331800000Y-180400000D01*
X331550000Y-180200000D01*
X331100000Y-179950000D01*
X333150000Y-179950000D01*
X333650000Y-179900000D01*
X334000000Y-179800000D01*
X334250000Y-179600000D01*
X334300000Y-180050000D01*
G37*
%TO.C,S7*%
X225050000Y-123050000D02*
X225250000Y-123600000D01*
X225650000Y-124150000D01*
X225950000Y-124400000D01*
X226450000Y-124700000D01*
X227050000Y-124850000D01*
X227550000Y-124850000D01*
X228000000Y-124750000D01*
X228250000Y-124650000D01*
X228700000Y-124400000D01*
X228850000Y-124500000D01*
X229000000Y-124600000D01*
X229000000Y-125000000D01*
X228900000Y-125400000D01*
X228750000Y-125650000D01*
X228600000Y-125850000D01*
X228450000Y-126000000D01*
X228250000Y-126150000D01*
X228100000Y-126250000D01*
X227900000Y-126350000D01*
X227600000Y-126450000D01*
X227300000Y-126500000D01*
X227100000Y-126500000D01*
X222750000Y-126500000D01*
X223050000Y-126050000D01*
X223200000Y-125650000D01*
X223250000Y-125400000D01*
X223250000Y-125050000D01*
X223250000Y-124750000D01*
X223150000Y-124350000D01*
X223000000Y-124000000D01*
X222850000Y-123750000D01*
X222550000Y-123400000D01*
X222300000Y-123200000D01*
X221850000Y-122950000D01*
X223900000Y-122950000D01*
X224400000Y-122900000D01*
X224750000Y-122800000D01*
X225000000Y-122600000D01*
X225050000Y-123050000D01*
G36*
X225050000Y-123050000D02*
G01*
X225250000Y-123600000D01*
X225650000Y-124150000D01*
X225950000Y-124400000D01*
X226450000Y-124700000D01*
X227050000Y-124850000D01*
X227550000Y-124850000D01*
X228000000Y-124750000D01*
X228250000Y-124650000D01*
X228700000Y-124400000D01*
X228850000Y-124500000D01*
X229000000Y-124600000D01*
X229000000Y-125000000D01*
X228900000Y-125400000D01*
X228750000Y-125650000D01*
X228600000Y-125850000D01*
X228450000Y-126000000D01*
X228250000Y-126150000D01*
X228100000Y-126250000D01*
X227900000Y-126350000D01*
X227600000Y-126450000D01*
X227300000Y-126500000D01*
X227100000Y-126500000D01*
X222750000Y-126500000D01*
X223050000Y-126050000D01*
X223200000Y-125650000D01*
X223250000Y-125400000D01*
X223250000Y-125050000D01*
X223250000Y-124750000D01*
X223150000Y-124350000D01*
X223000000Y-124000000D01*
X222850000Y-123750000D01*
X222550000Y-123400000D01*
X222300000Y-123200000D01*
X221850000Y-122950000D01*
X223900000Y-122950000D01*
X224400000Y-122900000D01*
X224750000Y-122800000D01*
X225000000Y-122600000D01*
X225050000Y-123050000D01*
G37*
%TO.C,S39*%
X160925000Y-180050000D02*
X161125000Y-180600000D01*
X161525000Y-181150000D01*
X161825000Y-181400000D01*
X162325000Y-181700000D01*
X162925000Y-181850000D01*
X163425000Y-181850000D01*
X163875000Y-181750000D01*
X164125000Y-181650000D01*
X164575000Y-181400000D01*
X164725000Y-181500000D01*
X164875000Y-181600000D01*
X164875000Y-182000000D01*
X164775000Y-182400000D01*
X164625000Y-182650000D01*
X164475000Y-182850000D01*
X164325000Y-183000000D01*
X164125000Y-183150000D01*
X163975000Y-183250000D01*
X163775000Y-183350000D01*
X163475000Y-183450000D01*
X163175000Y-183500000D01*
X162975000Y-183500000D01*
X158625000Y-183500000D01*
X158925000Y-183050000D01*
X159075000Y-182650000D01*
X159125000Y-182400000D01*
X159125000Y-182050000D01*
X159125000Y-181750000D01*
X159025000Y-181350000D01*
X158875000Y-181000000D01*
X158725000Y-180750000D01*
X158425000Y-180400000D01*
X158175000Y-180200000D01*
X157725000Y-179950000D01*
X159775000Y-179950000D01*
X160275000Y-179900000D01*
X160625000Y-179800000D01*
X160875000Y-179600000D01*
X160925000Y-180050000D01*
G36*
X160925000Y-180050000D02*
G01*
X161125000Y-180600000D01*
X161525000Y-181150000D01*
X161825000Y-181400000D01*
X162325000Y-181700000D01*
X162925000Y-181850000D01*
X163425000Y-181850000D01*
X163875000Y-181750000D01*
X164125000Y-181650000D01*
X164575000Y-181400000D01*
X164725000Y-181500000D01*
X164875000Y-181600000D01*
X164875000Y-182000000D01*
X164775000Y-182400000D01*
X164625000Y-182650000D01*
X164475000Y-182850000D01*
X164325000Y-183000000D01*
X164125000Y-183150000D01*
X163975000Y-183250000D01*
X163775000Y-183350000D01*
X163475000Y-183450000D01*
X163175000Y-183500000D01*
X162975000Y-183500000D01*
X158625000Y-183500000D01*
X158925000Y-183050000D01*
X159075000Y-182650000D01*
X159125000Y-182400000D01*
X159125000Y-182050000D01*
X159125000Y-181750000D01*
X159025000Y-181350000D01*
X158875000Y-181000000D01*
X158725000Y-180750000D01*
X158425000Y-180400000D01*
X158175000Y-180200000D01*
X157725000Y-179950000D01*
X159775000Y-179950000D01*
X160275000Y-179900000D01*
X160625000Y-179800000D01*
X160875000Y-179600000D01*
X160925000Y-180050000D01*
G37*
%TO.C,S34*%
X296300000Y-161050000D02*
X296500000Y-161600000D01*
X296900000Y-162150000D01*
X297200000Y-162400000D01*
X297700000Y-162700000D01*
X298300000Y-162850000D01*
X298800000Y-162850000D01*
X299250000Y-162750000D01*
X299500000Y-162650000D01*
X299950000Y-162400000D01*
X300100000Y-162500000D01*
X300250000Y-162600000D01*
X300250000Y-163000000D01*
X300150000Y-163400000D01*
X300000000Y-163650000D01*
X299850000Y-163850000D01*
X299700000Y-164000000D01*
X299500000Y-164150000D01*
X299350000Y-164250000D01*
X299150000Y-164350000D01*
X298850000Y-164450000D01*
X298550000Y-164500000D01*
X298350000Y-164500000D01*
X294000000Y-164500000D01*
X294300000Y-164050000D01*
X294450000Y-163650000D01*
X294500000Y-163400000D01*
X294500000Y-163050000D01*
X294500000Y-162750000D01*
X294400000Y-162350000D01*
X294250000Y-162000000D01*
X294100000Y-161750000D01*
X293800000Y-161400000D01*
X293550000Y-161200000D01*
X293100000Y-160950000D01*
X295150000Y-160950000D01*
X295650000Y-160900000D01*
X296000000Y-160800000D01*
X296250000Y-160600000D01*
X296300000Y-161050000D01*
G36*
X296300000Y-161050000D02*
G01*
X296500000Y-161600000D01*
X296900000Y-162150000D01*
X297200000Y-162400000D01*
X297700000Y-162700000D01*
X298300000Y-162850000D01*
X298800000Y-162850000D01*
X299250000Y-162750000D01*
X299500000Y-162650000D01*
X299950000Y-162400000D01*
X300100000Y-162500000D01*
X300250000Y-162600000D01*
X300250000Y-163000000D01*
X300150000Y-163400000D01*
X300000000Y-163650000D01*
X299850000Y-163850000D01*
X299700000Y-164000000D01*
X299500000Y-164150000D01*
X299350000Y-164250000D01*
X299150000Y-164350000D01*
X298850000Y-164450000D01*
X298550000Y-164500000D01*
X298350000Y-164500000D01*
X294000000Y-164500000D01*
X294300000Y-164050000D01*
X294450000Y-163650000D01*
X294500000Y-163400000D01*
X294500000Y-163050000D01*
X294500000Y-162750000D01*
X294400000Y-162350000D01*
X294250000Y-162000000D01*
X294100000Y-161750000D01*
X293800000Y-161400000D01*
X293550000Y-161200000D01*
X293100000Y-160950000D01*
X295150000Y-160950000D01*
X295650000Y-160900000D01*
X296000000Y-160800000D01*
X296250000Y-160600000D01*
X296300000Y-161050000D01*
G37*
%TO.C,S5*%
X187050000Y-123050000D02*
X187250000Y-123600000D01*
X187650000Y-124150000D01*
X187950000Y-124400000D01*
X188450000Y-124700000D01*
X189050000Y-124850000D01*
X189550000Y-124850000D01*
X190000000Y-124750000D01*
X190250000Y-124650000D01*
X190700000Y-124400000D01*
X190850000Y-124500000D01*
X191000000Y-124600000D01*
X191000000Y-125000000D01*
X190900000Y-125400000D01*
X190750000Y-125650000D01*
X190600000Y-125850000D01*
X190450000Y-126000000D01*
X190250000Y-126150000D01*
X190100000Y-126250000D01*
X189900000Y-126350000D01*
X189600000Y-126450000D01*
X189300000Y-126500000D01*
X189100000Y-126500000D01*
X184750000Y-126500000D01*
X185050000Y-126050000D01*
X185200000Y-125650000D01*
X185250000Y-125400000D01*
X185250000Y-125050000D01*
X185250000Y-124750000D01*
X185150000Y-124350000D01*
X185000000Y-124000000D01*
X184850000Y-123750000D01*
X184550000Y-123400000D01*
X184300000Y-123200000D01*
X183850000Y-122950000D01*
X185900000Y-122950000D01*
X186400000Y-122900000D01*
X186750000Y-122800000D01*
X187000000Y-122600000D01*
X187050000Y-123050000D01*
G36*
X187050000Y-123050000D02*
G01*
X187250000Y-123600000D01*
X187650000Y-124150000D01*
X187950000Y-124400000D01*
X188450000Y-124700000D01*
X189050000Y-124850000D01*
X189550000Y-124850000D01*
X190000000Y-124750000D01*
X190250000Y-124650000D01*
X190700000Y-124400000D01*
X190850000Y-124500000D01*
X191000000Y-124600000D01*
X191000000Y-125000000D01*
X190900000Y-125400000D01*
X190750000Y-125650000D01*
X190600000Y-125850000D01*
X190450000Y-126000000D01*
X190250000Y-126150000D01*
X190100000Y-126250000D01*
X189900000Y-126350000D01*
X189600000Y-126450000D01*
X189300000Y-126500000D01*
X189100000Y-126500000D01*
X184750000Y-126500000D01*
X185050000Y-126050000D01*
X185200000Y-125650000D01*
X185250000Y-125400000D01*
X185250000Y-125050000D01*
X185250000Y-124750000D01*
X185150000Y-124350000D01*
X185000000Y-124000000D01*
X184850000Y-123750000D01*
X184550000Y-123400000D01*
X184300000Y-123200000D01*
X183850000Y-122950000D01*
X185900000Y-122950000D01*
X186400000Y-122900000D01*
X186750000Y-122800000D01*
X187000000Y-122600000D01*
X187050000Y-123050000D01*
G37*
%TD*%
M02*
