%TF.GenerationSoftware,KiCad,Pcbnew,8.0.9-rc1*%
%TF.CreationDate,2026-08-24T22:03:20-06:00*%
%TF.ProjectId,40\u0025v2,34302576-322e-46b6-9963-61645f706362,v1.0.0*%
%TF.SameCoordinates,Original*%
%TF.FileFunction,Paste,Bot*%
%TF.FilePolarity,Positive*%
%FSLAX46Y46*%
G04 Gerber Fmt 4.6, Leading zero omitted, Abs format (unit mm)*
G04 Created by KiCad (PCBNEW 8.0.9-rc1) date 2026-08-24 22:03:20*
%MOMM*%
%LPD*%
G01*
G04 APERTURE LIST*
%ADD10R,0.900000X1.200000*%
%ADD11R,1.200000X0.900000*%
%ADD12R,2.550000X2.500000*%
%ADD13R,0.800000X1.000000*%
%ADD14R,1.500000X0.700000*%
%ADD15R,1.000000X1.550000*%
G04 APERTURE END LIST*
D10*
%TO.C,D5*%
X183850000Y-129000000D03*
X187150000Y-129000000D03*
%TD*%
%TO.C,D28*%
X179100000Y-167000000D03*
X182400000Y-167000000D03*
%TD*%
%TO.C,D16*%
X169600000Y-148000000D03*
X172900000Y-148000000D03*
%TD*%
%TO.C,D42*%
X274100000Y-186000000D03*
X277400000Y-186000000D03*
%TD*%
%TO.C,D4*%
X164850000Y-129000000D03*
X168150000Y-129000000D03*
%TD*%
%TO.C,D10*%
X278850000Y-129000000D03*
X282150000Y-129000000D03*
%TD*%
%TO.C,D29*%
X198100000Y-167000000D03*
X201400000Y-167000000D03*
%TD*%
%TO.C,D22*%
X283600000Y-148000000D03*
X286900000Y-148000000D03*
%TD*%
%TO.C,D9*%
X259850000Y-129000000D03*
X263150000Y-129000000D03*
%TD*%
D11*
%TO.C,D2*%
X120050000Y-121150002D03*
X120050000Y-124449998D03*
%TD*%
D10*
%TO.C,D44*%
X312100000Y-186000000D03*
X315400000Y-186000000D03*
%TD*%
%TO.C,D40*%
X195725000Y-186000000D03*
X199025000Y-186000000D03*
%TD*%
%TO.C,D30*%
X217100000Y-167000000D03*
X220400000Y-167000000D03*
%TD*%
%TO.C,D27*%
X160100000Y-167000000D03*
X163400000Y-167000000D03*
%TD*%
D11*
%TO.C,D1*%
X100875000Y-120825002D03*
X100875000Y-124124998D03*
%TD*%
D10*
%TO.C,D31*%
X236100000Y-167000000D03*
X239400000Y-167000000D03*
%TD*%
%TO.C,D41*%
X243225000Y-186000000D03*
X246525000Y-186000000D03*
%TD*%
%TO.C,D17*%
X188600000Y-148000000D03*
X191900000Y-148000000D03*
%TD*%
%TO.C,D38*%
X133975000Y-186000000D03*
X137275000Y-186000000D03*
%TD*%
%TO.C,D36*%
X331100000Y-167000000D03*
X334400000Y-167000000D03*
%TD*%
%TO.C,D15*%
X150600000Y-148000000D03*
X153900000Y-148000000D03*
%TD*%
%TO.C,D43*%
X293100000Y-186000000D03*
X296400000Y-186000000D03*
%TD*%
%TO.C,D25*%
X114975000Y-167000000D03*
X118275000Y-167000000D03*
%TD*%
%TO.C,D11*%
X297850000Y-129000000D03*
X301150000Y-129000000D03*
%TD*%
%TO.C,D7*%
X221850000Y-129000000D03*
X225150000Y-129000000D03*
%TD*%
%TO.C,D37*%
X110225000Y-186000000D03*
X113525000Y-186000000D03*
%TD*%
%TO.C,D3*%
X145850000Y-129000000D03*
X149150000Y-129000000D03*
%TD*%
%TO.C,D6*%
X202850000Y-129000000D03*
X206150000Y-129000000D03*
%TD*%
%TO.C,D32*%
X255100000Y-167000000D03*
X258400000Y-167000000D03*
%TD*%
%TO.C,D13*%
X110225000Y-148000000D03*
X113525000Y-148000000D03*
%TD*%
%TO.C,D26*%
X141100000Y-167000000D03*
X144400000Y-167000000D03*
%TD*%
%TO.C,D14*%
X131600000Y-148000000D03*
X134900000Y-148000000D03*
%TD*%
%TO.C,D34*%
X293100000Y-167000000D03*
X296400000Y-167000000D03*
%TD*%
%TO.C,D24*%
X326350000Y-148000000D03*
X329650000Y-148000000D03*
%TD*%
%TO.C,D39*%
X157725000Y-186000000D03*
X161025000Y-186000000D03*
%TD*%
%TO.C,D12*%
X324070000Y-129000000D03*
X327370000Y-129000000D03*
%TD*%
%TO.C,D19*%
X226600000Y-148000000D03*
X229900000Y-148000000D03*
%TD*%
%TO.C,D35*%
X312100000Y-167000000D03*
X315400000Y-167000000D03*
%TD*%
%TO.C,D21*%
X264600000Y-148000000D03*
X267900000Y-148000000D03*
%TD*%
%TO.C,D45*%
X331100000Y-186000000D03*
X334400000Y-186000000D03*
%TD*%
%TO.C,D18*%
X207600000Y-148000000D03*
X210900000Y-148000000D03*
%TD*%
%TO.C,D8*%
X240850000Y-129000000D03*
X244150000Y-129000000D03*
%TD*%
%TO.C,D33*%
X274100000Y-167000000D03*
X277400000Y-167000000D03*
%TD*%
%TO.C,D20*%
X245600000Y-148000000D03*
X248900000Y-148000000D03*
%TD*%
%TO.C,D23*%
X302600000Y-148000000D03*
X305900000Y-148000000D03*
%TD*%
D12*
%TO.C,S17*%
X197335000Y-141540000D03*
X184408000Y-144080000D03*
%TD*%
%TO.C,S25*%
X123710000Y-160540000D03*
X110783000Y-163080000D03*
%TD*%
%TO.C,S37*%
X118960000Y-179540000D03*
X106033000Y-182080000D03*
%TD*%
%TO.C,S19*%
X235335000Y-141540000D03*
X222408000Y-144080000D03*
%TD*%
%TO.C,S38*%
X142710000Y-179540000D03*
X129783000Y-182080000D03*
%TD*%
%TO.C,S24*%
X335085000Y-141540000D03*
X322158000Y-144080000D03*
%TD*%
%TO.C,S20*%
X254335000Y-141540000D03*
X241408000Y-144080000D03*
%TD*%
%TO.C,S41*%
X251960000Y-179540000D03*
X239033000Y-182080000D03*
%TD*%
%TO.C,S40*%
X204460000Y-179540000D03*
X191533000Y-182080000D03*
%TD*%
%TO.C,S13*%
X118960000Y-141540000D03*
X106033000Y-144080000D03*
%TD*%
%TO.C,S8*%
X249585000Y-122540000D03*
X236658000Y-125080000D03*
%TD*%
%TO.C,S36*%
X339835000Y-160540000D03*
X326908000Y-163080000D03*
%TD*%
%TO.C,S2*%
X135585000Y-122540000D03*
X122658000Y-125080000D03*
%TD*%
%TO.C,S6*%
X211585000Y-122540000D03*
X198658000Y-125080000D03*
%TD*%
%TO.C,S10*%
X287585000Y-122540000D03*
X274658000Y-125080000D03*
%TD*%
%TO.C,S23*%
X311335000Y-141540000D03*
X298408000Y-144080000D03*
%TD*%
%TO.C,S30*%
X225835000Y-160540000D03*
X212908000Y-163080000D03*
%TD*%
D13*
%TO.C,PWR1*%
X100890001Y-142925000D03*
X100890000Y-135625000D03*
X98680000Y-142925000D03*
X98680000Y-135625000D03*
D14*
X101540000Y-141525000D03*
X101540000Y-138525000D03*
X101540000Y-137025000D03*
%TD*%
D12*
%TO.C,S11*%
X306585000Y-122540000D03*
X293658000Y-125080000D03*
%TD*%
%TO.C,S44*%
X320835000Y-179540000D03*
X307908000Y-182080000D03*
%TD*%
%TO.C,S27*%
X168835000Y-160540000D03*
X155908000Y-163080000D03*
%TD*%
D15*
%TO.C,RST1*%
X98849999Y-151025000D03*
X100550000Y-151025001D03*
X98850000Y-145774999D03*
X100550001Y-145775000D03*
%TD*%
D12*
%TO.C,S12*%
X332805000Y-122540000D03*
X319878000Y-125080000D03*
%TD*%
%TO.C,S3*%
X154585000Y-122540000D03*
X141658000Y-125080000D03*
%TD*%
%TO.C,S31*%
X244835000Y-160540000D03*
X231908000Y-163080000D03*
%TD*%
%TO.C,S35*%
X320835000Y-160540000D03*
X307908000Y-163080000D03*
%TD*%
%TO.C,S21*%
X273335000Y-141540000D03*
X260408000Y-144080000D03*
%TD*%
%TO.C,S42*%
X282835000Y-179540000D03*
X269908000Y-182080000D03*
%TD*%
%TO.C,S16*%
X178335000Y-141540000D03*
X165408000Y-144080000D03*
%TD*%
%TO.C,S15*%
X159335000Y-141540000D03*
X146408000Y-144080000D03*
%TD*%
%TO.C,S14*%
X140335000Y-141540000D03*
X127408000Y-144080000D03*
%TD*%
%TO.C,S29*%
X206835000Y-160540000D03*
X193908000Y-163080000D03*
%TD*%
%TO.C,S32*%
X263835000Y-160540000D03*
X250908000Y-163080000D03*
%TD*%
%TO.C,S9*%
X268585000Y-122540000D03*
X255658000Y-125080000D03*
%TD*%
%TO.C,S43*%
X301835000Y-179540000D03*
X288908000Y-182080000D03*
%TD*%
%TO.C,S4*%
X173585000Y-122540000D03*
X160658000Y-125080000D03*
%TD*%
%TO.C,S1*%
X116585000Y-122540000D03*
X103658000Y-125080000D03*
%TD*%
%TO.C,S26*%
X149835000Y-160540000D03*
X136908000Y-163080000D03*
%TD*%
%TO.C,S18*%
X216335000Y-141540000D03*
X203408000Y-144080000D03*
%TD*%
%TO.C,S33*%
X282835000Y-160540000D03*
X269908000Y-163080000D03*
%TD*%
%TO.C,S28*%
X187835000Y-160540000D03*
X174908000Y-163080000D03*
%TD*%
%TO.C,S22*%
X292335000Y-141540000D03*
X279408000Y-144080000D03*
%TD*%
%TO.C,S45*%
X339835000Y-179540000D03*
X326908000Y-182080000D03*
%TD*%
%TO.C,S7*%
X230585000Y-122540000D03*
X217658000Y-125080000D03*
%TD*%
%TO.C,S39*%
X166460000Y-179540000D03*
X153533000Y-182080000D03*
%TD*%
%TO.C,S34*%
X301835000Y-160540000D03*
X288908000Y-163080000D03*
%TD*%
%TO.C,S5*%
X192585000Y-122540000D03*
X179658000Y-125080000D03*
%TD*%
M02*
