M48
; DRILL file {KiCad 8.0.9-rc1} date 2026-08-24T22:03:22-0600
; FORMAT={-:-/ absolute / inch / decimal}
; #@! TF.CreationDate,2026-08-24T22:03:22-06:00
; #@! TF.GenerationSoftware,Kicad,Pcbnew,8.0.9-rc1
; #@! TF.FileFunction,Plated,1,2,PTH
FMAT,2
INCH
; #@! TA.AperFunction,Plated,PTH,ViaDrill
T1C0.0118
; #@! TA.AperFunction,Plated,PTH,ComponentDrill
T2C0.0118
; #@! TA.AperFunction,Plated,PTH,ComponentDrill
T3C0.0295
; #@! TA.AperFunction,Plated,PTH,ComponentDrill
T4C0.0394
; #@! TA.AperFunction,Plated,PTH,ComponentDrill
T5C0.0866
%
G90
G05
T1
X3.8917Y-5.9459
X3.8937Y-5.7392
X3.9976Y-5.3947
X4.123Y-5.0404
X4.6433Y-5.0591
X5.4085Y-5.2705
X5.4508Y-4.5354
X6.273Y-5.2547
X7.0211Y-5.239
X7.7691Y-5.2232
X8.5171Y-5.2075
X9.2652Y-5.1917
X10.0132Y-5.176
X10.7612Y-5.1602
X11.5093Y-5.1378
X12.0708Y-4.8249
X13.1046Y-4.8265
T2
X3.9715Y-4.7569
X3.9715Y-4.8868
X4.3396Y-5.8268
X4.3396Y-7.3228
X4.4695Y-5.8268
X4.4695Y-7.3228
X4.5266Y-6.5748
X4.6565Y-6.5748
X4.7264Y-4.7697
X4.7264Y-4.8996
X5.1811Y-5.8268
X5.2746Y-7.3228
X5.311Y-5.8268
X5.4045Y-7.3228
X5.5551Y-6.5748
X5.685Y-6.5748
X5.7421Y-5.0787
X5.872Y-5.0787
X5.9291Y-5.8268
X6.0591Y-5.8268
X6.2096Y-7.3228
X6.3031Y-6.5748
X6.3396Y-7.3228
X6.4331Y-6.5748
X6.4902Y-5.0787
X6.6201Y-5.0787
X6.6772Y-5.8268
X6.8071Y-5.8268
X7.0512Y-6.5748
X7.1811Y-6.5748
X7.2382Y-5.0787
X7.3681Y-5.0787
X7.4252Y-5.8268
X7.5551Y-5.8268
X7.7057Y-7.3228
X7.7992Y-6.5748
X7.8356Y-7.3228
X7.9291Y-6.5748
X7.9862Y-5.0787
X8.1161Y-5.0787
X8.1732Y-5.8268
X8.3031Y-5.8268
X8.5472Y-6.5748
X8.6772Y-6.5748
X8.7343Y-5.0787
X8.8642Y-5.0787
X8.9213Y-5.8268
X9.0512Y-5.8268
X9.2953Y-6.5748
X9.4252Y-6.5748
X9.4823Y-5.0787
X9.5758Y-7.3228
X9.6122Y-5.0787
X9.6693Y-5.8268
X9.7057Y-7.3228
X9.7992Y-5.8268
X10.0433Y-6.5748
X10.1732Y-6.5748
X10.2303Y-5.0787
X10.3602Y-5.0787
X10.4173Y-5.8268
X10.5472Y-5.8268
X10.7913Y-6.5748
X10.7913Y-7.3228
X10.9213Y-6.5748
X10.9213Y-7.3228
X10.9783Y-5.0787
X11.1083Y-5.0787
X11.1654Y-5.8268
X11.2953Y-5.8268
X11.5394Y-6.5748
X11.5394Y-7.3228
X11.6693Y-6.5748
X11.6693Y-7.3228
X11.7264Y-5.0787
X11.8563Y-5.0787
X11.9134Y-5.8268
X12.0433Y-5.8268
X12.2874Y-6.5748
X12.2874Y-7.3228
X12.4173Y-6.5748
X12.4173Y-7.3228
X12.7587Y-5.0787
X12.8484Y-5.8268
X12.8886Y-5.0787
X12.9783Y-5.8268
X13.0354Y-6.5748
X13.0354Y-7.3228
X13.1654Y-6.5748
X13.1654Y-7.3228
T3
X5.063Y-6.0758
X5.1417Y-6.0758
T4
X3.998Y-4.5366
X3.998Y-5.1366
X4.098Y-4.5366
X4.098Y-5.1366
X4.198Y-4.5366
X4.198Y-5.1366
X4.298Y-4.5366
X4.298Y-5.1366
X4.398Y-4.5366
X4.398Y-5.1366
X4.498Y-4.5366
X4.498Y-5.1366
X4.598Y-4.5366
X4.598Y-5.1366
X4.698Y-4.5366
X4.698Y-5.1366
X4.798Y-4.5366
X4.798Y-5.1366
X4.898Y-4.5366
X4.898Y-5.1366
X4.998Y-4.5366
X4.998Y-5.1366
X5.098Y-4.5366
X5.098Y-5.1366
T5
X4.4045Y-6.7441
X5.8071Y-4.5
X8.6122Y-5.9961
X12.8236Y-4.5
X13.1004Y-6.7441
M30
