M48
; DRILL file {KiCad 8.0.9-rc1} date 2026-07-19T00:27:16-0600
; FORMAT={-:-/ absolute / inch / decimal}
; #@! TF.CreationDate,2026-07-19T00:27:16-06:00
; #@! TF.GenerationSoftware,Kicad,Pcbnew,8.0.9-rc1
; #@! TF.FileFunction,Plated,1,2,PTH
FMAT,2
INCH
; #@! TA.AperFunction,Plated,PTH,ViaDrill
T1C0.0118
; #@! TA.AperFunction,Plated,PTH,ComponentDrill
T2C0.0394
%
G90
G05
T1
X5.1181Y-4.1355
X5.1181Y-4.176
X5.1181Y-4.8835
X5.1181Y-4.924
X5.1181Y-5.6315
X5.1181Y-5.672
X5.8661Y-4.1355
X5.8661Y-4.176
X5.8661Y-4.8835
X5.8661Y-4.924
X5.8661Y-5.6315
X5.8661Y-5.672
X6.6142Y-4.1355
X6.6142Y-4.176
X6.6142Y-4.8835
X6.6142Y-4.924
X6.6142Y-5.6315
X6.6142Y-5.672
X7.3622Y-4.1355
X7.3622Y-4.176
X7.3622Y-4.8835
X7.3622Y-4.924
X7.3622Y-5.6315
X7.3622Y-5.672
X7.3622Y-6.3796
X7.3622Y-6.4201
X8.1102Y-4.1355
X8.1102Y-4.176
X8.1102Y-4.8835
X8.1102Y-4.924
X8.1102Y-5.6315
X8.1102Y-5.672
X8.1102Y-6.3796
X8.1102Y-6.4201
X8.8583Y-6.3796
X8.8583Y-6.4201
T2
X4.9921Y-6.3535
X4.9921Y-6.9535
X5.0921Y-6.3535
X5.0921Y-6.9535
X5.1921Y-6.3535
X5.1921Y-6.9535
X5.2921Y-6.3535
X5.2921Y-6.9535
X5.3921Y-6.3535
X5.3921Y-6.9535
X5.4921Y-6.3535
X5.4921Y-6.9535
X5.5921Y-6.3535
X5.5921Y-6.9535
X5.6921Y-6.3535
X5.6921Y-6.9535
X5.7921Y-6.3535
X5.7921Y-6.9535
X5.8921Y-6.3535
X5.8921Y-6.9535
X5.9921Y-6.3535
X5.9921Y-6.9535
X6.0921Y-6.3535
X6.0921Y-6.9535
M30
