%TF.GenerationSoftware,KiCad,Pcbnew,8.0.9-rc1*%
%TF.CreationDate,2026-07-19T00:24:35-06:00*%
%TF.ProjectId,test,74657374-2e6b-4696-9361-645f70636258,v1.0.0*%
%TF.SameCoordinates,Original*%
%TF.FileFunction,Legend,Top*%
%TF.FilePolarity,Positive*%
%FSLAX46Y46*%
G04 Gerber Fmt 4.6, Leading zero omitted, Abs format (unit mm)*
G04 Created by KiCad (PCBNEW 8.0.9-rc1) date 2026-07-19 00:24:35*
%MOMM*%
%LPD*%
G01*
G04 APERTURE LIST*
%ADD10C,0.150000*%
%ADD11C,0.100000*%
%ADD12C,0.120000*%
G04 APERTURE END LIST*
D10*
X221691905Y-109254819D02*
X221691905Y-108254819D01*
X221691905Y-108254819D02*
X222072857Y-108254819D01*
X222072857Y-108254819D02*
X222168095Y-108302438D01*
X222168095Y-108302438D02*
X222215714Y-108350057D01*
X222215714Y-108350057D02*
X222263333Y-108445295D01*
X222263333Y-108445295D02*
X222263333Y-108588152D01*
X222263333Y-108588152D02*
X222215714Y-108683390D01*
X222215714Y-108683390D02*
X222168095Y-108731009D01*
X222168095Y-108731009D02*
X222072857Y-108778628D01*
X222072857Y-108778628D02*
X221691905Y-108778628D01*
X223215714Y-109254819D02*
X222644286Y-109254819D01*
X222930000Y-109254819D02*
X222930000Y-108254819D01*
X222930000Y-108254819D02*
X222834762Y-108397676D01*
X222834762Y-108397676D02*
X222739524Y-108492914D01*
X222739524Y-108492914D02*
X222644286Y-108540533D01*
X230679523Y-109254819D02*
X230346190Y-108778628D01*
X230108095Y-109254819D02*
X230108095Y-108254819D01*
X230108095Y-108254819D02*
X230489047Y-108254819D01*
X230489047Y-108254819D02*
X230584285Y-108302438D01*
X230584285Y-108302438D02*
X230631904Y-108350057D01*
X230631904Y-108350057D02*
X230679523Y-108445295D01*
X230679523Y-108445295D02*
X230679523Y-108588152D01*
X230679523Y-108588152D02*
X230631904Y-108683390D01*
X230631904Y-108683390D02*
X230584285Y-108731009D01*
X230584285Y-108731009D02*
X230489047Y-108778628D01*
X230489047Y-108778628D02*
X230108095Y-108778628D01*
X231060476Y-108969104D02*
X231536666Y-108969104D01*
X230965238Y-109254819D02*
X231298571Y-108254819D01*
X231298571Y-108254819D02*
X231631904Y-109254819D01*
X231870000Y-108254819D02*
X232108095Y-109254819D01*
X232108095Y-109254819D02*
X232298571Y-108540533D01*
X232298571Y-108540533D02*
X232489047Y-109254819D01*
X232489047Y-109254819D02*
X232727143Y-108254819D01*
X221691905Y-111794819D02*
X221691905Y-110794819D01*
X221691905Y-110794819D02*
X222072857Y-110794819D01*
X222072857Y-110794819D02*
X222168095Y-110842438D01*
X222168095Y-110842438D02*
X222215714Y-110890057D01*
X222215714Y-110890057D02*
X222263333Y-110985295D01*
X222263333Y-110985295D02*
X222263333Y-111128152D01*
X222263333Y-111128152D02*
X222215714Y-111223390D01*
X222215714Y-111223390D02*
X222168095Y-111271009D01*
X222168095Y-111271009D02*
X222072857Y-111318628D01*
X222072857Y-111318628D02*
X221691905Y-111318628D01*
X222882381Y-110794819D02*
X222977619Y-110794819D01*
X222977619Y-110794819D02*
X223072857Y-110842438D01*
X223072857Y-110842438D02*
X223120476Y-110890057D01*
X223120476Y-110890057D02*
X223168095Y-110985295D01*
X223168095Y-110985295D02*
X223215714Y-111175771D01*
X223215714Y-111175771D02*
X223215714Y-111413866D01*
X223215714Y-111413866D02*
X223168095Y-111604342D01*
X223168095Y-111604342D02*
X223120476Y-111699580D01*
X223120476Y-111699580D02*
X223072857Y-111747200D01*
X223072857Y-111747200D02*
X222977619Y-111794819D01*
X222977619Y-111794819D02*
X222882381Y-111794819D01*
X222882381Y-111794819D02*
X222787143Y-111747200D01*
X222787143Y-111747200D02*
X222739524Y-111699580D01*
X222739524Y-111699580D02*
X222691905Y-111604342D01*
X222691905Y-111604342D02*
X222644286Y-111413866D01*
X222644286Y-111413866D02*
X222644286Y-111175771D01*
X222644286Y-111175771D02*
X222691905Y-110985295D01*
X222691905Y-110985295D02*
X222739524Y-110890057D01*
X222739524Y-110890057D02*
X222787143Y-110842438D01*
X222787143Y-110842438D02*
X222882381Y-110794819D01*
X230608095Y-110842438D02*
X230512857Y-110794819D01*
X230512857Y-110794819D02*
X230370000Y-110794819D01*
X230370000Y-110794819D02*
X230227143Y-110842438D01*
X230227143Y-110842438D02*
X230131905Y-110937676D01*
X230131905Y-110937676D02*
X230084286Y-111032914D01*
X230084286Y-111032914D02*
X230036667Y-111223390D01*
X230036667Y-111223390D02*
X230036667Y-111366247D01*
X230036667Y-111366247D02*
X230084286Y-111556723D01*
X230084286Y-111556723D02*
X230131905Y-111651961D01*
X230131905Y-111651961D02*
X230227143Y-111747200D01*
X230227143Y-111747200D02*
X230370000Y-111794819D01*
X230370000Y-111794819D02*
X230465238Y-111794819D01*
X230465238Y-111794819D02*
X230608095Y-111747200D01*
X230608095Y-111747200D02*
X230655714Y-111699580D01*
X230655714Y-111699580D02*
X230655714Y-111366247D01*
X230655714Y-111366247D02*
X230465238Y-111366247D01*
X231084286Y-111794819D02*
X231084286Y-110794819D01*
X231084286Y-110794819D02*
X231655714Y-111794819D01*
X231655714Y-111794819D02*
X231655714Y-110794819D01*
X232131905Y-111794819D02*
X232131905Y-110794819D01*
X232131905Y-110794819D02*
X232370000Y-110794819D01*
X232370000Y-110794819D02*
X232512857Y-110842438D01*
X232512857Y-110842438D02*
X232608095Y-110937676D01*
X232608095Y-110937676D02*
X232655714Y-111032914D01*
X232655714Y-111032914D02*
X232703333Y-111223390D01*
X232703333Y-111223390D02*
X232703333Y-111366247D01*
X232703333Y-111366247D02*
X232655714Y-111556723D01*
X232655714Y-111556723D02*
X232608095Y-111651961D01*
X232608095Y-111651961D02*
X232512857Y-111747200D01*
X232512857Y-111747200D02*
X232370000Y-111794819D01*
X232370000Y-111794819D02*
X232131905Y-111794819D01*
X221668095Y-113382438D02*
X221572857Y-113334819D01*
X221572857Y-113334819D02*
X221430000Y-113334819D01*
X221430000Y-113334819D02*
X221287143Y-113382438D01*
X221287143Y-113382438D02*
X221191905Y-113477676D01*
X221191905Y-113477676D02*
X221144286Y-113572914D01*
X221144286Y-113572914D02*
X221096667Y-113763390D01*
X221096667Y-113763390D02*
X221096667Y-113906247D01*
X221096667Y-113906247D02*
X221144286Y-114096723D01*
X221144286Y-114096723D02*
X221191905Y-114191961D01*
X221191905Y-114191961D02*
X221287143Y-114287200D01*
X221287143Y-114287200D02*
X221430000Y-114334819D01*
X221430000Y-114334819D02*
X221525238Y-114334819D01*
X221525238Y-114334819D02*
X221668095Y-114287200D01*
X221668095Y-114287200D02*
X221715714Y-114239580D01*
X221715714Y-114239580D02*
X221715714Y-113906247D01*
X221715714Y-113906247D02*
X221525238Y-113906247D01*
X222144286Y-114334819D02*
X222144286Y-113334819D01*
X222144286Y-113334819D02*
X222715714Y-114334819D01*
X222715714Y-114334819D02*
X222715714Y-113334819D01*
X223191905Y-114334819D02*
X223191905Y-113334819D01*
X223191905Y-113334819D02*
X223430000Y-113334819D01*
X223430000Y-113334819D02*
X223572857Y-113382438D01*
X223572857Y-113382438D02*
X223668095Y-113477676D01*
X223668095Y-113477676D02*
X223715714Y-113572914D01*
X223715714Y-113572914D02*
X223763333Y-113763390D01*
X223763333Y-113763390D02*
X223763333Y-113906247D01*
X223763333Y-113906247D02*
X223715714Y-114096723D01*
X223715714Y-114096723D02*
X223668095Y-114191961D01*
X223668095Y-114191961D02*
X223572857Y-114287200D01*
X223572857Y-114287200D02*
X223430000Y-114334819D01*
X223430000Y-114334819D02*
X223191905Y-114334819D01*
X230822380Y-114334819D02*
X230489047Y-113858628D01*
X230250952Y-114334819D02*
X230250952Y-113334819D01*
X230250952Y-113334819D02*
X230631904Y-113334819D01*
X230631904Y-113334819D02*
X230727142Y-113382438D01*
X230727142Y-113382438D02*
X230774761Y-113430057D01*
X230774761Y-113430057D02*
X230822380Y-113525295D01*
X230822380Y-113525295D02*
X230822380Y-113668152D01*
X230822380Y-113668152D02*
X230774761Y-113763390D01*
X230774761Y-113763390D02*
X230727142Y-113811009D01*
X230727142Y-113811009D02*
X230631904Y-113858628D01*
X230631904Y-113858628D02*
X230250952Y-113858628D01*
X231203333Y-114287200D02*
X231346190Y-114334819D01*
X231346190Y-114334819D02*
X231584285Y-114334819D01*
X231584285Y-114334819D02*
X231679523Y-114287200D01*
X231679523Y-114287200D02*
X231727142Y-114239580D01*
X231727142Y-114239580D02*
X231774761Y-114144342D01*
X231774761Y-114144342D02*
X231774761Y-114049104D01*
X231774761Y-114049104D02*
X231727142Y-113953866D01*
X231727142Y-113953866D02*
X231679523Y-113906247D01*
X231679523Y-113906247D02*
X231584285Y-113858628D01*
X231584285Y-113858628D02*
X231393809Y-113811009D01*
X231393809Y-113811009D02*
X231298571Y-113763390D01*
X231298571Y-113763390D02*
X231250952Y-113715771D01*
X231250952Y-113715771D02*
X231203333Y-113620533D01*
X231203333Y-113620533D02*
X231203333Y-113525295D01*
X231203333Y-113525295D02*
X231250952Y-113430057D01*
X231250952Y-113430057D02*
X231298571Y-113382438D01*
X231298571Y-113382438D02*
X231393809Y-113334819D01*
X231393809Y-113334819D02*
X231631904Y-113334819D01*
X231631904Y-113334819D02*
X231774761Y-113382438D01*
X232060476Y-113334819D02*
X232631904Y-113334819D01*
X232346190Y-114334819D02*
X232346190Y-113334819D01*
X221668095Y-115922438D02*
X221572857Y-115874819D01*
X221572857Y-115874819D02*
X221430000Y-115874819D01*
X221430000Y-115874819D02*
X221287143Y-115922438D01*
X221287143Y-115922438D02*
X221191905Y-116017676D01*
X221191905Y-116017676D02*
X221144286Y-116112914D01*
X221144286Y-116112914D02*
X221096667Y-116303390D01*
X221096667Y-116303390D02*
X221096667Y-116446247D01*
X221096667Y-116446247D02*
X221144286Y-116636723D01*
X221144286Y-116636723D02*
X221191905Y-116731961D01*
X221191905Y-116731961D02*
X221287143Y-116827200D01*
X221287143Y-116827200D02*
X221430000Y-116874819D01*
X221430000Y-116874819D02*
X221525238Y-116874819D01*
X221525238Y-116874819D02*
X221668095Y-116827200D01*
X221668095Y-116827200D02*
X221715714Y-116779580D01*
X221715714Y-116779580D02*
X221715714Y-116446247D01*
X221715714Y-116446247D02*
X221525238Y-116446247D01*
X222144286Y-116874819D02*
X222144286Y-115874819D01*
X222144286Y-115874819D02*
X222715714Y-116874819D01*
X222715714Y-116874819D02*
X222715714Y-115874819D01*
X223191905Y-116874819D02*
X223191905Y-115874819D01*
X223191905Y-115874819D02*
X223430000Y-115874819D01*
X223430000Y-115874819D02*
X223572857Y-115922438D01*
X223572857Y-115922438D02*
X223668095Y-116017676D01*
X223668095Y-116017676D02*
X223715714Y-116112914D01*
X223715714Y-116112914D02*
X223763333Y-116303390D01*
X223763333Y-116303390D02*
X223763333Y-116446247D01*
X223763333Y-116446247D02*
X223715714Y-116636723D01*
X223715714Y-116636723D02*
X223668095Y-116731961D01*
X223668095Y-116731961D02*
X223572857Y-116827200D01*
X223572857Y-116827200D02*
X223430000Y-116874819D01*
X223430000Y-116874819D02*
X223191905Y-116874819D01*
X230036667Y-115874819D02*
X230370000Y-116874819D01*
X230370000Y-116874819D02*
X230703333Y-115874819D01*
X231608095Y-116779580D02*
X231560476Y-116827200D01*
X231560476Y-116827200D02*
X231417619Y-116874819D01*
X231417619Y-116874819D02*
X231322381Y-116874819D01*
X231322381Y-116874819D02*
X231179524Y-116827200D01*
X231179524Y-116827200D02*
X231084286Y-116731961D01*
X231084286Y-116731961D02*
X231036667Y-116636723D01*
X231036667Y-116636723D02*
X230989048Y-116446247D01*
X230989048Y-116446247D02*
X230989048Y-116303390D01*
X230989048Y-116303390D02*
X231036667Y-116112914D01*
X231036667Y-116112914D02*
X231084286Y-116017676D01*
X231084286Y-116017676D02*
X231179524Y-115922438D01*
X231179524Y-115922438D02*
X231322381Y-115874819D01*
X231322381Y-115874819D02*
X231417619Y-115874819D01*
X231417619Y-115874819D02*
X231560476Y-115922438D01*
X231560476Y-115922438D02*
X231608095Y-115970057D01*
X232608095Y-116779580D02*
X232560476Y-116827200D01*
X232560476Y-116827200D02*
X232417619Y-116874819D01*
X232417619Y-116874819D02*
X232322381Y-116874819D01*
X232322381Y-116874819D02*
X232179524Y-116827200D01*
X232179524Y-116827200D02*
X232084286Y-116731961D01*
X232084286Y-116731961D02*
X232036667Y-116636723D01*
X232036667Y-116636723D02*
X231989048Y-116446247D01*
X231989048Y-116446247D02*
X231989048Y-116303390D01*
X231989048Y-116303390D02*
X232036667Y-116112914D01*
X232036667Y-116112914D02*
X232084286Y-116017676D01*
X232084286Y-116017676D02*
X232179524Y-115922438D01*
X232179524Y-115922438D02*
X232322381Y-115874819D01*
X232322381Y-115874819D02*
X232417619Y-115874819D01*
X232417619Y-115874819D02*
X232560476Y-115922438D01*
X232560476Y-115922438D02*
X232608095Y-115970057D01*
X221691905Y-119414819D02*
X221691905Y-118414819D01*
X221691905Y-118414819D02*
X222072857Y-118414819D01*
X222072857Y-118414819D02*
X222168095Y-118462438D01*
X222168095Y-118462438D02*
X222215714Y-118510057D01*
X222215714Y-118510057D02*
X222263333Y-118605295D01*
X222263333Y-118605295D02*
X222263333Y-118748152D01*
X222263333Y-118748152D02*
X222215714Y-118843390D01*
X222215714Y-118843390D02*
X222168095Y-118891009D01*
X222168095Y-118891009D02*
X222072857Y-118938628D01*
X222072857Y-118938628D02*
X221691905Y-118938628D01*
X222644286Y-118510057D02*
X222691905Y-118462438D01*
X222691905Y-118462438D02*
X222787143Y-118414819D01*
X222787143Y-118414819D02*
X223025238Y-118414819D01*
X223025238Y-118414819D02*
X223120476Y-118462438D01*
X223120476Y-118462438D02*
X223168095Y-118510057D01*
X223168095Y-118510057D02*
X223215714Y-118605295D01*
X223215714Y-118605295D02*
X223215714Y-118700533D01*
X223215714Y-118700533D02*
X223168095Y-118843390D01*
X223168095Y-118843390D02*
X222596667Y-119414819D01*
X222596667Y-119414819D02*
X223215714Y-119414819D01*
X230155714Y-119414819D02*
X230155714Y-118414819D01*
X230155714Y-118414819D02*
X230536666Y-118414819D01*
X230536666Y-118414819D02*
X230631904Y-118462438D01*
X230631904Y-118462438D02*
X230679523Y-118510057D01*
X230679523Y-118510057D02*
X230727142Y-118605295D01*
X230727142Y-118605295D02*
X230727142Y-118748152D01*
X230727142Y-118748152D02*
X230679523Y-118843390D01*
X230679523Y-118843390D02*
X230631904Y-118891009D01*
X230631904Y-118891009D02*
X230536666Y-118938628D01*
X230536666Y-118938628D02*
X230155714Y-118938628D01*
X231108095Y-118510057D02*
X231155714Y-118462438D01*
X231155714Y-118462438D02*
X231250952Y-118414819D01*
X231250952Y-118414819D02*
X231489047Y-118414819D01*
X231489047Y-118414819D02*
X231584285Y-118462438D01*
X231584285Y-118462438D02*
X231631904Y-118510057D01*
X231631904Y-118510057D02*
X231679523Y-118605295D01*
X231679523Y-118605295D02*
X231679523Y-118700533D01*
X231679523Y-118700533D02*
X231631904Y-118843390D01*
X231631904Y-118843390D02*
X231060476Y-119414819D01*
X231060476Y-119414819D02*
X231679523Y-119414819D01*
X232631904Y-119414819D02*
X232060476Y-119414819D01*
X232346190Y-119414819D02*
X232346190Y-118414819D01*
X232346190Y-118414819D02*
X232250952Y-118557676D01*
X232250952Y-118557676D02*
X232155714Y-118652914D01*
X232155714Y-118652914D02*
X232060476Y-118700533D01*
X221691905Y-121954819D02*
X221691905Y-120954819D01*
X221691905Y-120954819D02*
X222072857Y-120954819D01*
X222072857Y-120954819D02*
X222168095Y-121002438D01*
X222168095Y-121002438D02*
X222215714Y-121050057D01*
X222215714Y-121050057D02*
X222263333Y-121145295D01*
X222263333Y-121145295D02*
X222263333Y-121288152D01*
X222263333Y-121288152D02*
X222215714Y-121383390D01*
X222215714Y-121383390D02*
X222168095Y-121431009D01*
X222168095Y-121431009D02*
X222072857Y-121478628D01*
X222072857Y-121478628D02*
X221691905Y-121478628D01*
X222596667Y-120954819D02*
X223215714Y-120954819D01*
X223215714Y-120954819D02*
X222882381Y-121335771D01*
X222882381Y-121335771D02*
X223025238Y-121335771D01*
X223025238Y-121335771D02*
X223120476Y-121383390D01*
X223120476Y-121383390D02*
X223168095Y-121431009D01*
X223168095Y-121431009D02*
X223215714Y-121526247D01*
X223215714Y-121526247D02*
X223215714Y-121764342D01*
X223215714Y-121764342D02*
X223168095Y-121859580D01*
X223168095Y-121859580D02*
X223120476Y-121907200D01*
X223120476Y-121907200D02*
X223025238Y-121954819D01*
X223025238Y-121954819D02*
X222739524Y-121954819D01*
X222739524Y-121954819D02*
X222644286Y-121907200D01*
X222644286Y-121907200D02*
X222596667Y-121859580D01*
X230155714Y-121954819D02*
X230155714Y-120954819D01*
X230155714Y-120954819D02*
X230536666Y-120954819D01*
X230536666Y-120954819D02*
X230631904Y-121002438D01*
X230631904Y-121002438D02*
X230679523Y-121050057D01*
X230679523Y-121050057D02*
X230727142Y-121145295D01*
X230727142Y-121145295D02*
X230727142Y-121288152D01*
X230727142Y-121288152D02*
X230679523Y-121383390D01*
X230679523Y-121383390D02*
X230631904Y-121431009D01*
X230631904Y-121431009D02*
X230536666Y-121478628D01*
X230536666Y-121478628D02*
X230155714Y-121478628D01*
X231108095Y-121050057D02*
X231155714Y-121002438D01*
X231155714Y-121002438D02*
X231250952Y-120954819D01*
X231250952Y-120954819D02*
X231489047Y-120954819D01*
X231489047Y-120954819D02*
X231584285Y-121002438D01*
X231584285Y-121002438D02*
X231631904Y-121050057D01*
X231631904Y-121050057D02*
X231679523Y-121145295D01*
X231679523Y-121145295D02*
X231679523Y-121240533D01*
X231679523Y-121240533D02*
X231631904Y-121383390D01*
X231631904Y-121383390D02*
X231060476Y-121954819D01*
X231060476Y-121954819D02*
X231679523Y-121954819D01*
X232298571Y-120954819D02*
X232393809Y-120954819D01*
X232393809Y-120954819D02*
X232489047Y-121002438D01*
X232489047Y-121002438D02*
X232536666Y-121050057D01*
X232536666Y-121050057D02*
X232584285Y-121145295D01*
X232584285Y-121145295D02*
X232631904Y-121335771D01*
X232631904Y-121335771D02*
X232631904Y-121573866D01*
X232631904Y-121573866D02*
X232584285Y-121764342D01*
X232584285Y-121764342D02*
X232536666Y-121859580D01*
X232536666Y-121859580D02*
X232489047Y-121907200D01*
X232489047Y-121907200D02*
X232393809Y-121954819D01*
X232393809Y-121954819D02*
X232298571Y-121954819D01*
X232298571Y-121954819D02*
X232203333Y-121907200D01*
X232203333Y-121907200D02*
X232155714Y-121859580D01*
X232155714Y-121859580D02*
X232108095Y-121764342D01*
X232108095Y-121764342D02*
X232060476Y-121573866D01*
X232060476Y-121573866D02*
X232060476Y-121335771D01*
X232060476Y-121335771D02*
X232108095Y-121145295D01*
X232108095Y-121145295D02*
X232155714Y-121050057D01*
X232155714Y-121050057D02*
X232203333Y-121002438D01*
X232203333Y-121002438D02*
X232298571Y-120954819D01*
X221691905Y-124494819D02*
X221691905Y-123494819D01*
X221691905Y-123494819D02*
X222072857Y-123494819D01*
X222072857Y-123494819D02*
X222168095Y-123542438D01*
X222168095Y-123542438D02*
X222215714Y-123590057D01*
X222215714Y-123590057D02*
X222263333Y-123685295D01*
X222263333Y-123685295D02*
X222263333Y-123828152D01*
X222263333Y-123828152D02*
X222215714Y-123923390D01*
X222215714Y-123923390D02*
X222168095Y-123971009D01*
X222168095Y-123971009D02*
X222072857Y-124018628D01*
X222072857Y-124018628D02*
X221691905Y-124018628D01*
X223120476Y-123828152D02*
X223120476Y-124494819D01*
X222882381Y-123447200D02*
X222644286Y-124161485D01*
X222644286Y-124161485D02*
X223263333Y-124161485D01*
X230155714Y-124494819D02*
X230155714Y-123494819D01*
X230155714Y-123494819D02*
X230536666Y-123494819D01*
X230536666Y-123494819D02*
X230631904Y-123542438D01*
X230631904Y-123542438D02*
X230679523Y-123590057D01*
X230679523Y-123590057D02*
X230727142Y-123685295D01*
X230727142Y-123685295D02*
X230727142Y-123828152D01*
X230727142Y-123828152D02*
X230679523Y-123923390D01*
X230679523Y-123923390D02*
X230631904Y-123971009D01*
X230631904Y-123971009D02*
X230536666Y-124018628D01*
X230536666Y-124018628D02*
X230155714Y-124018628D01*
X231679523Y-124494819D02*
X231108095Y-124494819D01*
X231393809Y-124494819D02*
X231393809Y-123494819D01*
X231393809Y-123494819D02*
X231298571Y-123637676D01*
X231298571Y-123637676D02*
X231203333Y-123732914D01*
X231203333Y-123732914D02*
X231108095Y-123780533D01*
X232155714Y-124494819D02*
X232346190Y-124494819D01*
X232346190Y-124494819D02*
X232441428Y-124447200D01*
X232441428Y-124447200D02*
X232489047Y-124399580D01*
X232489047Y-124399580D02*
X232584285Y-124256723D01*
X232584285Y-124256723D02*
X232631904Y-124066247D01*
X232631904Y-124066247D02*
X232631904Y-123685295D01*
X232631904Y-123685295D02*
X232584285Y-123590057D01*
X232584285Y-123590057D02*
X232536666Y-123542438D01*
X232536666Y-123542438D02*
X232441428Y-123494819D01*
X232441428Y-123494819D02*
X232250952Y-123494819D01*
X232250952Y-123494819D02*
X232155714Y-123542438D01*
X232155714Y-123542438D02*
X232108095Y-123590057D01*
X232108095Y-123590057D02*
X232060476Y-123685295D01*
X232060476Y-123685295D02*
X232060476Y-123923390D01*
X232060476Y-123923390D02*
X232108095Y-124018628D01*
X232108095Y-124018628D02*
X232155714Y-124066247D01*
X232155714Y-124066247D02*
X232250952Y-124113866D01*
X232250952Y-124113866D02*
X232441428Y-124113866D01*
X232441428Y-124113866D02*
X232536666Y-124066247D01*
X232536666Y-124066247D02*
X232584285Y-124018628D01*
X232584285Y-124018628D02*
X232631904Y-123923390D01*
X221691905Y-127034819D02*
X221691905Y-126034819D01*
X221691905Y-126034819D02*
X222072857Y-126034819D01*
X222072857Y-126034819D02*
X222168095Y-126082438D01*
X222168095Y-126082438D02*
X222215714Y-126130057D01*
X222215714Y-126130057D02*
X222263333Y-126225295D01*
X222263333Y-126225295D02*
X222263333Y-126368152D01*
X222263333Y-126368152D02*
X222215714Y-126463390D01*
X222215714Y-126463390D02*
X222168095Y-126511009D01*
X222168095Y-126511009D02*
X222072857Y-126558628D01*
X222072857Y-126558628D02*
X221691905Y-126558628D01*
X223168095Y-126034819D02*
X222691905Y-126034819D01*
X222691905Y-126034819D02*
X222644286Y-126511009D01*
X222644286Y-126511009D02*
X222691905Y-126463390D01*
X222691905Y-126463390D02*
X222787143Y-126415771D01*
X222787143Y-126415771D02*
X223025238Y-126415771D01*
X223025238Y-126415771D02*
X223120476Y-126463390D01*
X223120476Y-126463390D02*
X223168095Y-126511009D01*
X223168095Y-126511009D02*
X223215714Y-126606247D01*
X223215714Y-126606247D02*
X223215714Y-126844342D01*
X223215714Y-126844342D02*
X223168095Y-126939580D01*
X223168095Y-126939580D02*
X223120476Y-126987200D01*
X223120476Y-126987200D02*
X223025238Y-127034819D01*
X223025238Y-127034819D02*
X222787143Y-127034819D01*
X222787143Y-127034819D02*
X222691905Y-126987200D01*
X222691905Y-126987200D02*
X222644286Y-126939580D01*
X230155714Y-127034819D02*
X230155714Y-126034819D01*
X230155714Y-126034819D02*
X230536666Y-126034819D01*
X230536666Y-126034819D02*
X230631904Y-126082438D01*
X230631904Y-126082438D02*
X230679523Y-126130057D01*
X230679523Y-126130057D02*
X230727142Y-126225295D01*
X230727142Y-126225295D02*
X230727142Y-126368152D01*
X230727142Y-126368152D02*
X230679523Y-126463390D01*
X230679523Y-126463390D02*
X230631904Y-126511009D01*
X230631904Y-126511009D02*
X230536666Y-126558628D01*
X230536666Y-126558628D02*
X230155714Y-126558628D01*
X231679523Y-127034819D02*
X231108095Y-127034819D01*
X231393809Y-127034819D02*
X231393809Y-126034819D01*
X231393809Y-126034819D02*
X231298571Y-126177676D01*
X231298571Y-126177676D02*
X231203333Y-126272914D01*
X231203333Y-126272914D02*
X231108095Y-126320533D01*
X232250952Y-126463390D02*
X232155714Y-126415771D01*
X232155714Y-126415771D02*
X232108095Y-126368152D01*
X232108095Y-126368152D02*
X232060476Y-126272914D01*
X232060476Y-126272914D02*
X232060476Y-126225295D01*
X232060476Y-126225295D02*
X232108095Y-126130057D01*
X232108095Y-126130057D02*
X232155714Y-126082438D01*
X232155714Y-126082438D02*
X232250952Y-126034819D01*
X232250952Y-126034819D02*
X232441428Y-126034819D01*
X232441428Y-126034819D02*
X232536666Y-126082438D01*
X232536666Y-126082438D02*
X232584285Y-126130057D01*
X232584285Y-126130057D02*
X232631904Y-126225295D01*
X232631904Y-126225295D02*
X232631904Y-126272914D01*
X232631904Y-126272914D02*
X232584285Y-126368152D01*
X232584285Y-126368152D02*
X232536666Y-126415771D01*
X232536666Y-126415771D02*
X232441428Y-126463390D01*
X232441428Y-126463390D02*
X232250952Y-126463390D01*
X232250952Y-126463390D02*
X232155714Y-126511009D01*
X232155714Y-126511009D02*
X232108095Y-126558628D01*
X232108095Y-126558628D02*
X232060476Y-126653866D01*
X232060476Y-126653866D02*
X232060476Y-126844342D01*
X232060476Y-126844342D02*
X232108095Y-126939580D01*
X232108095Y-126939580D02*
X232155714Y-126987200D01*
X232155714Y-126987200D02*
X232250952Y-127034819D01*
X232250952Y-127034819D02*
X232441428Y-127034819D01*
X232441428Y-127034819D02*
X232536666Y-126987200D01*
X232536666Y-126987200D02*
X232584285Y-126939580D01*
X232584285Y-126939580D02*
X232631904Y-126844342D01*
X232631904Y-126844342D02*
X232631904Y-126653866D01*
X232631904Y-126653866D02*
X232584285Y-126558628D01*
X232584285Y-126558628D02*
X232536666Y-126511009D01*
X232536666Y-126511009D02*
X232441428Y-126463390D01*
X221691905Y-129574819D02*
X221691905Y-128574819D01*
X221691905Y-128574819D02*
X222072857Y-128574819D01*
X222072857Y-128574819D02*
X222168095Y-128622438D01*
X222168095Y-128622438D02*
X222215714Y-128670057D01*
X222215714Y-128670057D02*
X222263333Y-128765295D01*
X222263333Y-128765295D02*
X222263333Y-128908152D01*
X222263333Y-128908152D02*
X222215714Y-129003390D01*
X222215714Y-129003390D02*
X222168095Y-129051009D01*
X222168095Y-129051009D02*
X222072857Y-129098628D01*
X222072857Y-129098628D02*
X221691905Y-129098628D01*
X223120476Y-128574819D02*
X222930000Y-128574819D01*
X222930000Y-128574819D02*
X222834762Y-128622438D01*
X222834762Y-128622438D02*
X222787143Y-128670057D01*
X222787143Y-128670057D02*
X222691905Y-128812914D01*
X222691905Y-128812914D02*
X222644286Y-129003390D01*
X222644286Y-129003390D02*
X222644286Y-129384342D01*
X222644286Y-129384342D02*
X222691905Y-129479580D01*
X222691905Y-129479580D02*
X222739524Y-129527200D01*
X222739524Y-129527200D02*
X222834762Y-129574819D01*
X222834762Y-129574819D02*
X223025238Y-129574819D01*
X223025238Y-129574819D02*
X223120476Y-129527200D01*
X223120476Y-129527200D02*
X223168095Y-129479580D01*
X223168095Y-129479580D02*
X223215714Y-129384342D01*
X223215714Y-129384342D02*
X223215714Y-129146247D01*
X223215714Y-129146247D02*
X223168095Y-129051009D01*
X223168095Y-129051009D02*
X223120476Y-129003390D01*
X223120476Y-129003390D02*
X223025238Y-128955771D01*
X223025238Y-128955771D02*
X222834762Y-128955771D01*
X222834762Y-128955771D02*
X222739524Y-129003390D01*
X222739524Y-129003390D02*
X222691905Y-129051009D01*
X222691905Y-129051009D02*
X222644286Y-129146247D01*
X230155714Y-129574819D02*
X230155714Y-128574819D01*
X230155714Y-128574819D02*
X230536666Y-128574819D01*
X230536666Y-128574819D02*
X230631904Y-128622438D01*
X230631904Y-128622438D02*
X230679523Y-128670057D01*
X230679523Y-128670057D02*
X230727142Y-128765295D01*
X230727142Y-128765295D02*
X230727142Y-128908152D01*
X230727142Y-128908152D02*
X230679523Y-129003390D01*
X230679523Y-129003390D02*
X230631904Y-129051009D01*
X230631904Y-129051009D02*
X230536666Y-129098628D01*
X230536666Y-129098628D02*
X230155714Y-129098628D01*
X231679523Y-129574819D02*
X231108095Y-129574819D01*
X231393809Y-129574819D02*
X231393809Y-128574819D01*
X231393809Y-128574819D02*
X231298571Y-128717676D01*
X231298571Y-128717676D02*
X231203333Y-128812914D01*
X231203333Y-128812914D02*
X231108095Y-128860533D01*
X232584285Y-128574819D02*
X232108095Y-128574819D01*
X232108095Y-128574819D02*
X232060476Y-129051009D01*
X232060476Y-129051009D02*
X232108095Y-129003390D01*
X232108095Y-129003390D02*
X232203333Y-128955771D01*
X232203333Y-128955771D02*
X232441428Y-128955771D01*
X232441428Y-128955771D02*
X232536666Y-129003390D01*
X232536666Y-129003390D02*
X232584285Y-129051009D01*
X232584285Y-129051009D02*
X232631904Y-129146247D01*
X232631904Y-129146247D02*
X232631904Y-129384342D01*
X232631904Y-129384342D02*
X232584285Y-129479580D01*
X232584285Y-129479580D02*
X232536666Y-129527200D01*
X232536666Y-129527200D02*
X232441428Y-129574819D01*
X232441428Y-129574819D02*
X232203333Y-129574819D01*
X232203333Y-129574819D02*
X232108095Y-129527200D01*
X232108095Y-129527200D02*
X232060476Y-129479580D01*
X221691905Y-132114819D02*
X221691905Y-131114819D01*
X221691905Y-131114819D02*
X222072857Y-131114819D01*
X222072857Y-131114819D02*
X222168095Y-131162438D01*
X222168095Y-131162438D02*
X222215714Y-131210057D01*
X222215714Y-131210057D02*
X222263333Y-131305295D01*
X222263333Y-131305295D02*
X222263333Y-131448152D01*
X222263333Y-131448152D02*
X222215714Y-131543390D01*
X222215714Y-131543390D02*
X222168095Y-131591009D01*
X222168095Y-131591009D02*
X222072857Y-131638628D01*
X222072857Y-131638628D02*
X221691905Y-131638628D01*
X222596667Y-131114819D02*
X223263333Y-131114819D01*
X223263333Y-131114819D02*
X222834762Y-132114819D01*
X230155714Y-132114819D02*
X230155714Y-131114819D01*
X230155714Y-131114819D02*
X230536666Y-131114819D01*
X230536666Y-131114819D02*
X230631904Y-131162438D01*
X230631904Y-131162438D02*
X230679523Y-131210057D01*
X230679523Y-131210057D02*
X230727142Y-131305295D01*
X230727142Y-131305295D02*
X230727142Y-131448152D01*
X230727142Y-131448152D02*
X230679523Y-131543390D01*
X230679523Y-131543390D02*
X230631904Y-131591009D01*
X230631904Y-131591009D02*
X230536666Y-131638628D01*
X230536666Y-131638628D02*
X230155714Y-131638628D01*
X231679523Y-132114819D02*
X231108095Y-132114819D01*
X231393809Y-132114819D02*
X231393809Y-131114819D01*
X231393809Y-131114819D02*
X231298571Y-131257676D01*
X231298571Y-131257676D02*
X231203333Y-131352914D01*
X231203333Y-131352914D02*
X231108095Y-131400533D01*
X232536666Y-131448152D02*
X232536666Y-132114819D01*
X232298571Y-131067200D02*
X232060476Y-131781485D01*
X232060476Y-131781485D02*
X232679523Y-131781485D01*
X221691905Y-134654819D02*
X221691905Y-133654819D01*
X221691905Y-133654819D02*
X222072857Y-133654819D01*
X222072857Y-133654819D02*
X222168095Y-133702438D01*
X222168095Y-133702438D02*
X222215714Y-133750057D01*
X222215714Y-133750057D02*
X222263333Y-133845295D01*
X222263333Y-133845295D02*
X222263333Y-133988152D01*
X222263333Y-133988152D02*
X222215714Y-134083390D01*
X222215714Y-134083390D02*
X222168095Y-134131009D01*
X222168095Y-134131009D02*
X222072857Y-134178628D01*
X222072857Y-134178628D02*
X221691905Y-134178628D01*
X222834762Y-134083390D02*
X222739524Y-134035771D01*
X222739524Y-134035771D02*
X222691905Y-133988152D01*
X222691905Y-133988152D02*
X222644286Y-133892914D01*
X222644286Y-133892914D02*
X222644286Y-133845295D01*
X222644286Y-133845295D02*
X222691905Y-133750057D01*
X222691905Y-133750057D02*
X222739524Y-133702438D01*
X222739524Y-133702438D02*
X222834762Y-133654819D01*
X222834762Y-133654819D02*
X223025238Y-133654819D01*
X223025238Y-133654819D02*
X223120476Y-133702438D01*
X223120476Y-133702438D02*
X223168095Y-133750057D01*
X223168095Y-133750057D02*
X223215714Y-133845295D01*
X223215714Y-133845295D02*
X223215714Y-133892914D01*
X223215714Y-133892914D02*
X223168095Y-133988152D01*
X223168095Y-133988152D02*
X223120476Y-134035771D01*
X223120476Y-134035771D02*
X223025238Y-134083390D01*
X223025238Y-134083390D02*
X222834762Y-134083390D01*
X222834762Y-134083390D02*
X222739524Y-134131009D01*
X222739524Y-134131009D02*
X222691905Y-134178628D01*
X222691905Y-134178628D02*
X222644286Y-134273866D01*
X222644286Y-134273866D02*
X222644286Y-134464342D01*
X222644286Y-134464342D02*
X222691905Y-134559580D01*
X222691905Y-134559580D02*
X222739524Y-134607200D01*
X222739524Y-134607200D02*
X222834762Y-134654819D01*
X222834762Y-134654819D02*
X223025238Y-134654819D01*
X223025238Y-134654819D02*
X223120476Y-134607200D01*
X223120476Y-134607200D02*
X223168095Y-134559580D01*
X223168095Y-134559580D02*
X223215714Y-134464342D01*
X223215714Y-134464342D02*
X223215714Y-134273866D01*
X223215714Y-134273866D02*
X223168095Y-134178628D01*
X223168095Y-134178628D02*
X223120476Y-134131009D01*
X223120476Y-134131009D02*
X223025238Y-134083390D01*
X230155714Y-134654819D02*
X230155714Y-133654819D01*
X230155714Y-133654819D02*
X230536666Y-133654819D01*
X230536666Y-133654819D02*
X230631904Y-133702438D01*
X230631904Y-133702438D02*
X230679523Y-133750057D01*
X230679523Y-133750057D02*
X230727142Y-133845295D01*
X230727142Y-133845295D02*
X230727142Y-133988152D01*
X230727142Y-133988152D02*
X230679523Y-134083390D01*
X230679523Y-134083390D02*
X230631904Y-134131009D01*
X230631904Y-134131009D02*
X230536666Y-134178628D01*
X230536666Y-134178628D02*
X230155714Y-134178628D01*
X231679523Y-134654819D02*
X231108095Y-134654819D01*
X231393809Y-134654819D02*
X231393809Y-133654819D01*
X231393809Y-133654819D02*
X231298571Y-133797676D01*
X231298571Y-133797676D02*
X231203333Y-133892914D01*
X231203333Y-133892914D02*
X231108095Y-133940533D01*
X232536666Y-133654819D02*
X232346190Y-133654819D01*
X232346190Y-133654819D02*
X232250952Y-133702438D01*
X232250952Y-133702438D02*
X232203333Y-133750057D01*
X232203333Y-133750057D02*
X232108095Y-133892914D01*
X232108095Y-133892914D02*
X232060476Y-134083390D01*
X232060476Y-134083390D02*
X232060476Y-134464342D01*
X232060476Y-134464342D02*
X232108095Y-134559580D01*
X232108095Y-134559580D02*
X232155714Y-134607200D01*
X232155714Y-134607200D02*
X232250952Y-134654819D01*
X232250952Y-134654819D02*
X232441428Y-134654819D01*
X232441428Y-134654819D02*
X232536666Y-134607200D01*
X232536666Y-134607200D02*
X232584285Y-134559580D01*
X232584285Y-134559580D02*
X232631904Y-134464342D01*
X232631904Y-134464342D02*
X232631904Y-134226247D01*
X232631904Y-134226247D02*
X232584285Y-134131009D01*
X232584285Y-134131009D02*
X232536666Y-134083390D01*
X232536666Y-134083390D02*
X232441428Y-134035771D01*
X232441428Y-134035771D02*
X232250952Y-134035771D01*
X232250952Y-134035771D02*
X232155714Y-134083390D01*
X232155714Y-134083390D02*
X232108095Y-134131009D01*
X232108095Y-134131009D02*
X232060476Y-134226247D01*
X221691905Y-137194819D02*
X221691905Y-136194819D01*
X221691905Y-136194819D02*
X222072857Y-136194819D01*
X222072857Y-136194819D02*
X222168095Y-136242438D01*
X222168095Y-136242438D02*
X222215714Y-136290057D01*
X222215714Y-136290057D02*
X222263333Y-136385295D01*
X222263333Y-136385295D02*
X222263333Y-136528152D01*
X222263333Y-136528152D02*
X222215714Y-136623390D01*
X222215714Y-136623390D02*
X222168095Y-136671009D01*
X222168095Y-136671009D02*
X222072857Y-136718628D01*
X222072857Y-136718628D02*
X221691905Y-136718628D01*
X222739524Y-137194819D02*
X222930000Y-137194819D01*
X222930000Y-137194819D02*
X223025238Y-137147200D01*
X223025238Y-137147200D02*
X223072857Y-137099580D01*
X223072857Y-137099580D02*
X223168095Y-136956723D01*
X223168095Y-136956723D02*
X223215714Y-136766247D01*
X223215714Y-136766247D02*
X223215714Y-136385295D01*
X223215714Y-136385295D02*
X223168095Y-136290057D01*
X223168095Y-136290057D02*
X223120476Y-136242438D01*
X223120476Y-136242438D02*
X223025238Y-136194819D01*
X223025238Y-136194819D02*
X222834762Y-136194819D01*
X222834762Y-136194819D02*
X222739524Y-136242438D01*
X222739524Y-136242438D02*
X222691905Y-136290057D01*
X222691905Y-136290057D02*
X222644286Y-136385295D01*
X222644286Y-136385295D02*
X222644286Y-136623390D01*
X222644286Y-136623390D02*
X222691905Y-136718628D01*
X222691905Y-136718628D02*
X222739524Y-136766247D01*
X222739524Y-136766247D02*
X222834762Y-136813866D01*
X222834762Y-136813866D02*
X223025238Y-136813866D01*
X223025238Y-136813866D02*
X223120476Y-136766247D01*
X223120476Y-136766247D02*
X223168095Y-136718628D01*
X223168095Y-136718628D02*
X223215714Y-136623390D01*
X230155714Y-137194819D02*
X230155714Y-136194819D01*
X230155714Y-136194819D02*
X230536666Y-136194819D01*
X230536666Y-136194819D02*
X230631904Y-136242438D01*
X230631904Y-136242438D02*
X230679523Y-136290057D01*
X230679523Y-136290057D02*
X230727142Y-136385295D01*
X230727142Y-136385295D02*
X230727142Y-136528152D01*
X230727142Y-136528152D02*
X230679523Y-136623390D01*
X230679523Y-136623390D02*
X230631904Y-136671009D01*
X230631904Y-136671009D02*
X230536666Y-136718628D01*
X230536666Y-136718628D02*
X230155714Y-136718628D01*
X231679523Y-137194819D02*
X231108095Y-137194819D01*
X231393809Y-137194819D02*
X231393809Y-136194819D01*
X231393809Y-136194819D02*
X231298571Y-136337676D01*
X231298571Y-136337676D02*
X231203333Y-136432914D01*
X231203333Y-136432914D02*
X231108095Y-136480533D01*
X232298571Y-136194819D02*
X232393809Y-136194819D01*
X232393809Y-136194819D02*
X232489047Y-136242438D01*
X232489047Y-136242438D02*
X232536666Y-136290057D01*
X232536666Y-136290057D02*
X232584285Y-136385295D01*
X232584285Y-136385295D02*
X232631904Y-136575771D01*
X232631904Y-136575771D02*
X232631904Y-136813866D01*
X232631904Y-136813866D02*
X232584285Y-137004342D01*
X232584285Y-137004342D02*
X232536666Y-137099580D01*
X232536666Y-137099580D02*
X232489047Y-137147200D01*
X232489047Y-137147200D02*
X232393809Y-137194819D01*
X232393809Y-137194819D02*
X232298571Y-137194819D01*
X232298571Y-137194819D02*
X232203333Y-137147200D01*
X232203333Y-137147200D02*
X232155714Y-137099580D01*
X232155714Y-137099580D02*
X232108095Y-137004342D01*
X232108095Y-137004342D02*
X232060476Y-136813866D01*
X232060476Y-136813866D02*
X232060476Y-136575771D01*
X232060476Y-136575771D02*
X232108095Y-136385295D01*
X232108095Y-136385295D02*
X232155714Y-136290057D01*
X232155714Y-136290057D02*
X232203333Y-136242438D01*
X232203333Y-136242438D02*
X232298571Y-136194819D01*
D11*
%TO.C,S1*%
X128780000Y-146230000D02*
X130000000Y-147480000D01*
X130000000Y-147480000D02*
X131880000Y-147480000D01*
%TO.C,S2*%
X128780000Y-127230000D02*
X130000000Y-128480000D01*
X130000000Y-128480000D02*
X131880000Y-128480000D01*
%TO.C,S3*%
X128780000Y-108230000D02*
X130000000Y-109480000D01*
X130000000Y-109480000D02*
X131880000Y-109480000D01*
%TO.C,S4*%
X147780000Y-146230000D02*
X149000000Y-147480000D01*
X149000000Y-147480000D02*
X150880000Y-147480000D01*
%TO.C,S5*%
X147780000Y-127230000D02*
X149000000Y-128480000D01*
X149000000Y-128480000D02*
X150880000Y-128480000D01*
%TO.C,S6*%
X147780000Y-108230000D02*
X149000000Y-109480000D01*
X149000000Y-109480000D02*
X150880000Y-109480000D01*
%TO.C,S7*%
X166780000Y-146230000D02*
X168000000Y-147480000D01*
X168000000Y-147480000D02*
X169880000Y-147480000D01*
%TO.C,S8*%
X166780000Y-127230000D02*
X168000000Y-128480000D01*
X168000000Y-128480000D02*
X169880000Y-128480000D01*
%TO.C,S9*%
X166780000Y-108230000D02*
X168000000Y-109480000D01*
X168000000Y-109480000D02*
X169880000Y-109480000D01*
%TO.C,S10*%
X185780000Y-146230000D02*
X187000000Y-147480000D01*
X187000000Y-147480000D02*
X188880000Y-147480000D01*
%TO.C,S11*%
X185780000Y-127230000D02*
X187000000Y-128480000D01*
X187000000Y-128480000D02*
X188880000Y-128480000D01*
%TO.C,S12*%
X185780000Y-108230000D02*
X187000000Y-109480000D01*
X187000000Y-109480000D02*
X188880000Y-109480000D01*
%TO.C,S13*%
X204780000Y-146230000D02*
X206000000Y-147480000D01*
X206000000Y-147480000D02*
X207880000Y-147480000D01*
%TO.C,S14*%
X204780000Y-127230000D02*
X206000000Y-128480000D01*
X206000000Y-128480000D02*
X207880000Y-128480000D01*
%TO.C,S15*%
X204780000Y-108230000D02*
X206000000Y-109480000D01*
X206000000Y-109480000D02*
X207880000Y-109480000D01*
%TO.C,S16*%
X185780000Y-165230000D02*
X187000000Y-166480000D01*
X187000000Y-166480000D02*
X188880000Y-166480000D01*
%TO.C,S17*%
X204780000Y-165230000D02*
X206000000Y-166480000D01*
X206000000Y-166480000D02*
X207880000Y-166480000D01*
%TO.C,S18*%
X223780000Y-165230000D02*
X225000000Y-166480000D01*
X225000000Y-166480000D02*
X226880000Y-166480000D01*
%TO.C,D1*%
X130250000Y-159000000D02*
X130750000Y-159000000D01*
X130250000Y-159400000D02*
X129650000Y-159000000D01*
X130250000Y-158600000D02*
X130250000Y-159400000D01*
X129650000Y-159000000D02*
X130250000Y-158600000D01*
X129650000Y-159000000D02*
X129650000Y-159550000D01*
X129650000Y-159000000D02*
X129650000Y-158450000D01*
X129250000Y-159000000D02*
X129650000Y-159000000D01*
%TO.C,D2*%
X130250000Y-140000000D02*
X130750000Y-140000000D01*
X130250000Y-140400000D02*
X129650000Y-140000000D01*
X130250000Y-139600000D02*
X130250000Y-140400000D01*
X129650000Y-140000000D02*
X130250000Y-139600000D01*
X129650000Y-140000000D02*
X129650000Y-140550000D01*
X129650000Y-140000000D02*
X129650000Y-139450000D01*
X129250000Y-140000000D02*
X129650000Y-140000000D01*
%TO.C,D3*%
X130250000Y-121000000D02*
X130750000Y-121000000D01*
X130250000Y-121400000D02*
X129650000Y-121000000D01*
X130250000Y-120600000D02*
X130250000Y-121400000D01*
X129650000Y-121000000D02*
X130250000Y-120600000D01*
X129650000Y-121000000D02*
X129650000Y-121550000D01*
X129650000Y-121000000D02*
X129650000Y-120450000D01*
X129250000Y-121000000D02*
X129650000Y-121000000D01*
%TO.C,D4*%
X149250000Y-159000000D02*
X149750000Y-159000000D01*
X149250000Y-159400000D02*
X148650000Y-159000000D01*
X149250000Y-158600000D02*
X149250000Y-159400000D01*
X148650000Y-159000000D02*
X149250000Y-158600000D01*
X148650000Y-159000000D02*
X148650000Y-159550000D01*
X148650000Y-159000000D02*
X148650000Y-158450000D01*
X148250000Y-159000000D02*
X148650000Y-159000000D01*
%TO.C,D5*%
X149250000Y-140000000D02*
X149750000Y-140000000D01*
X149250000Y-140400000D02*
X148650000Y-140000000D01*
X149250000Y-139600000D02*
X149250000Y-140400000D01*
X148650000Y-140000000D02*
X149250000Y-139600000D01*
X148650000Y-140000000D02*
X148650000Y-140550000D01*
X148650000Y-140000000D02*
X148650000Y-139450000D01*
X148250000Y-140000000D02*
X148650000Y-140000000D01*
%TO.C,D6*%
X149250000Y-121000000D02*
X149750000Y-121000000D01*
X149250000Y-121400000D02*
X148650000Y-121000000D01*
X149250000Y-120600000D02*
X149250000Y-121400000D01*
X148650000Y-121000000D02*
X149250000Y-120600000D01*
X148650000Y-121000000D02*
X148650000Y-121550000D01*
X148650000Y-121000000D02*
X148650000Y-120450000D01*
X148250000Y-121000000D02*
X148650000Y-121000000D01*
%TO.C,D7*%
X168250000Y-159000000D02*
X168750000Y-159000000D01*
X168250000Y-159400000D02*
X167650000Y-159000000D01*
X168250000Y-158600000D02*
X168250000Y-159400000D01*
X167650000Y-159000000D02*
X168250000Y-158600000D01*
X167650000Y-159000000D02*
X167650000Y-159550000D01*
X167650000Y-159000000D02*
X167650000Y-158450000D01*
X167250000Y-159000000D02*
X167650000Y-159000000D01*
%TO.C,D8*%
X168250000Y-140000000D02*
X168750000Y-140000000D01*
X168250000Y-140400000D02*
X167650000Y-140000000D01*
X168250000Y-139600000D02*
X168250000Y-140400000D01*
X167650000Y-140000000D02*
X168250000Y-139600000D01*
X167650000Y-140000000D02*
X167650000Y-140550000D01*
X167650000Y-140000000D02*
X167650000Y-139450000D01*
X167250000Y-140000000D02*
X167650000Y-140000000D01*
%TO.C,D9*%
X168250000Y-121000000D02*
X168750000Y-121000000D01*
X168250000Y-121400000D02*
X167650000Y-121000000D01*
X168250000Y-120600000D02*
X168250000Y-121400000D01*
X167650000Y-121000000D02*
X168250000Y-120600000D01*
X167650000Y-121000000D02*
X167650000Y-121550000D01*
X167650000Y-121000000D02*
X167650000Y-120450000D01*
X167250000Y-121000000D02*
X167650000Y-121000000D01*
%TO.C,D10*%
X187250000Y-159000000D02*
X187750000Y-159000000D01*
X187250000Y-159400000D02*
X186650000Y-159000000D01*
X187250000Y-158600000D02*
X187250000Y-159400000D01*
X186650000Y-159000000D02*
X187250000Y-158600000D01*
X186650000Y-159000000D02*
X186650000Y-159550000D01*
X186650000Y-159000000D02*
X186650000Y-158450000D01*
X186250000Y-159000000D02*
X186650000Y-159000000D01*
%TO.C,D11*%
X187250000Y-140000000D02*
X187750000Y-140000000D01*
X187250000Y-140400000D02*
X186650000Y-140000000D01*
X187250000Y-139600000D02*
X187250000Y-140400000D01*
X186650000Y-140000000D02*
X187250000Y-139600000D01*
X186650000Y-140000000D02*
X186650000Y-140550000D01*
X186650000Y-140000000D02*
X186650000Y-139450000D01*
X186250000Y-140000000D02*
X186650000Y-140000000D01*
%TO.C,D12*%
X187250000Y-121000000D02*
X187750000Y-121000000D01*
X187250000Y-121400000D02*
X186650000Y-121000000D01*
X187250000Y-120600000D02*
X187250000Y-121400000D01*
X186650000Y-121000000D02*
X187250000Y-120600000D01*
X186650000Y-121000000D02*
X186650000Y-121550000D01*
X186650000Y-121000000D02*
X186650000Y-120450000D01*
X186250000Y-121000000D02*
X186650000Y-121000000D01*
%TO.C,D13*%
X206250000Y-159000000D02*
X206750000Y-159000000D01*
X206250000Y-159400000D02*
X205650000Y-159000000D01*
X206250000Y-158600000D02*
X206250000Y-159400000D01*
X205650000Y-159000000D02*
X206250000Y-158600000D01*
X205650000Y-159000000D02*
X205650000Y-159550000D01*
X205650000Y-159000000D02*
X205650000Y-158450000D01*
X205250000Y-159000000D02*
X205650000Y-159000000D01*
%TO.C,D14*%
X206250000Y-140000000D02*
X206750000Y-140000000D01*
X206250000Y-140400000D02*
X205650000Y-140000000D01*
X206250000Y-139600000D02*
X206250000Y-140400000D01*
X205650000Y-140000000D02*
X206250000Y-139600000D01*
X205650000Y-140000000D02*
X205650000Y-140550000D01*
X205650000Y-140000000D02*
X205650000Y-139450000D01*
X205250000Y-140000000D02*
X205650000Y-140000000D01*
%TO.C,D15*%
X206250000Y-121000000D02*
X206750000Y-121000000D01*
X206250000Y-121400000D02*
X205650000Y-121000000D01*
X206250000Y-120600000D02*
X206250000Y-121400000D01*
X205650000Y-121000000D02*
X206250000Y-120600000D01*
X205650000Y-121000000D02*
X205650000Y-121550000D01*
X205650000Y-121000000D02*
X205650000Y-120450000D01*
X205250000Y-121000000D02*
X205650000Y-121000000D01*
%TO.C,D16*%
X187250000Y-178000000D02*
X187750000Y-178000000D01*
X187250000Y-178400000D02*
X186650000Y-178000000D01*
X187250000Y-177600000D02*
X187250000Y-178400000D01*
X186650000Y-178000000D02*
X187250000Y-177600000D01*
X186650000Y-178000000D02*
X186650000Y-178550000D01*
X186650000Y-178000000D02*
X186650000Y-177450000D01*
X186250000Y-178000000D02*
X186650000Y-178000000D01*
%TO.C,D17*%
X206250000Y-178000000D02*
X206750000Y-178000000D01*
X206250000Y-178400000D02*
X205650000Y-178000000D01*
X206250000Y-177600000D02*
X206250000Y-178400000D01*
X205650000Y-178000000D02*
X206250000Y-177600000D01*
X205650000Y-178000000D02*
X205650000Y-178550000D01*
X205650000Y-178000000D02*
X205650000Y-177450000D01*
X205250000Y-178000000D02*
X205650000Y-178000000D01*
%TO.C,D18*%
X225250000Y-178000000D02*
X225750000Y-178000000D01*
X225250000Y-178400000D02*
X224650000Y-178000000D01*
X225250000Y-177600000D02*
X225250000Y-178400000D01*
X224650000Y-178000000D02*
X225250000Y-177600000D01*
X224650000Y-178000000D02*
X224650000Y-178550000D01*
X224650000Y-178000000D02*
X224650000Y-177450000D01*
X224250000Y-178000000D02*
X224650000Y-178000000D01*
D12*
%TO.C,MCU1*%
X233190000Y-107470000D02*
X235850000Y-107470000D01*
X233190000Y-107470000D02*
X233190000Y-138070000D01*
X233190000Y-138070000D02*
X235850000Y-138070000D01*
X220610000Y-107470000D02*
X220610000Y-138070000D01*
X235850000Y-107470000D02*
X235850000Y-138070000D01*
X217950000Y-107470000D02*
X220610000Y-107470000D01*
X217950000Y-107470000D02*
X217950000Y-138070000D01*
X217950000Y-138070000D02*
X220610000Y-138070000D01*
X220610000Y-110070000D02*
X217950000Y-110070000D01*
%TD*%
M02*
