M48
; DRILL file {KiCad 8.0.9-rc1} date 2026-07-19T00:24:33-0600
; FORMAT={-:-/ absolute / inch / decimal}
; #@! TF.CreationDate,2026-07-19T00:24:33-06:00
; #@! TF.GenerationSoftware,Kicad,Pcbnew,8.0.9-rc1
; #@! TF.FileFunction,NonPlated,1,2,NPTH
FMAT,2
INCH
; #@! TA.AperFunction,NonPlated,NPTH,ComponentDrill
T1C0.0748
; #@! TA.AperFunction,NonPlated,NPTH,ComponentDrill
T2C0.1181
; #@! TA.AperFunction,NonPlated,NPTH,ComponentDrill
T3C0.1614
%
G90
G05
T1
X4.9181Y-4.4094
X4.9181Y-5.1575
X4.9181Y-5.9055
X5.3181Y-4.4094
X5.3181Y-5.1575
X5.3181Y-5.9055
X5.6661Y-4.4094
X5.6661Y-5.1575
X5.6661Y-5.9055
X6.0661Y-4.4094
X6.0661Y-5.1575
X6.0661Y-5.9055
X6.4142Y-4.4094
X6.4142Y-5.1575
X6.4142Y-5.9055
X6.8142Y-4.4094
X6.8142Y-5.1575
X6.8142Y-5.9055
X7.1622Y-4.4094
X7.1622Y-5.1575
X7.1622Y-5.9055
X7.1622Y-6.6535
X7.5622Y-4.4094
X7.5622Y-5.1575
X7.5622Y-5.9055
X7.5622Y-6.6535
X7.9102Y-4.4094
X7.9102Y-5.1575
X7.9102Y-5.9055
X7.9102Y-6.6535
X8.3102Y-4.4094
X8.3102Y-5.1575
X8.3102Y-5.9055
X8.3102Y-6.6535
X8.6583Y-6.6535
X9.0583Y-6.6535
T2
X4.9681Y-4.3094
X4.9681Y-5.0575
X4.9681Y-5.8055
X5.0181Y-4.2094
X5.0181Y-4.9575
X5.0181Y-5.7055
X5.2181Y-4.2094
X5.2181Y-4.9575
X5.2181Y-5.7055
X5.2681Y-4.3094
X5.2681Y-5.0575
X5.2681Y-5.8055
X5.7161Y-4.3094
X5.7161Y-5.0575
X5.7161Y-5.8055
X5.7661Y-4.2094
X5.7661Y-4.9575
X5.7661Y-5.7055
X5.9661Y-4.2094
X5.9661Y-4.9575
X5.9661Y-5.7055
X6.0161Y-4.3094
X6.0161Y-5.0575
X6.0161Y-5.8055
X6.4642Y-4.3094
X6.4642Y-5.0575
X6.4642Y-5.8055
X6.5142Y-4.2094
X6.5142Y-4.9575
X6.5142Y-5.7055
X6.7142Y-4.2094
X6.7142Y-4.9575
X6.7142Y-5.7055
X6.7642Y-4.3094
X6.7642Y-5.0575
X6.7642Y-5.8055
X7.2122Y-4.3094
X7.2122Y-5.0575
X7.2122Y-5.8055
X7.2122Y-6.5535
X7.2622Y-4.2094
X7.2622Y-4.9575
X7.2622Y-5.7055
X7.2622Y-6.4535
X7.4622Y-4.2094
X7.4622Y-4.9575
X7.4622Y-5.7055
X7.4622Y-6.4535
X7.5122Y-4.3094
X7.5122Y-5.0575
X7.5122Y-5.8055
X7.5122Y-6.5535
X7.9602Y-4.3094
X7.9602Y-5.0575
X7.9602Y-5.8055
X7.9602Y-6.5535
X8.0102Y-4.2094
X8.0102Y-4.9575
X8.0102Y-5.7055
X8.0102Y-6.4535
X8.2102Y-4.2094
X8.2102Y-4.9575
X8.2102Y-5.7055
X8.2102Y-6.4535
X8.2602Y-4.3094
X8.2602Y-5.0575
X8.2602Y-5.8055
X8.2602Y-6.5535
X8.7083Y-6.5535
X8.7583Y-6.4535
X8.9583Y-6.4535
X9.0083Y-6.5535
T3
X5.1181Y-4.4094
X5.1181Y-5.1575
X5.1181Y-5.9055
X5.8661Y-4.4094
X5.8661Y-5.1575
X5.8661Y-5.9055
X6.6142Y-4.4094
X6.6142Y-5.1575
X6.6142Y-5.9055
X7.3622Y-4.4094
X7.3622Y-5.1575
X7.3622Y-5.9055
X7.3622Y-6.6535
X8.1102Y-4.4094
X8.1102Y-5.1575
X8.1102Y-5.9055
X8.1102Y-6.6535
X8.8583Y-6.6535
M30
