%TF.GenerationSoftware,KiCad,Pcbnew,8.0.9-rc1*%
%TF.CreationDate,2026-07-19T00:27:18-06:00*%
%TF.ProjectId,test (1),74657374-2028-4312-992e-6b696361645f,v1.0.0*%
%TF.SameCoordinates,Original*%
%TF.FileFunction,Soldermask,Bot*%
%TF.FilePolarity,Negative*%
%FSLAX46Y46*%
G04 Gerber Fmt 4.6, Leading zero omitted, Abs format (unit mm)*
G04 Created by KiCad (PCBNEW 8.0.9-rc1) date 2026-07-19 00:27:18*
%MOMM*%
%LPD*%
G01*
G04 APERTURE LIST*
G04 Aperture macros list*
%AMRoundRect*
0 Rectangle with rounded corners*
0 $1 Rounding radius*
0 $2 $3 $4 $5 $6 $7 $8 $9 X,Y pos of 4 corners*
0 Add a 4 corners polygon primitive as box body*
4,1,4,$2,$3,$4,$5,$6,$7,$8,$9,$2,$3,0*
0 Add four circle primitives for the rounded corners*
1,1,$1+$1,$2,$3*
1,1,$1+$1,$4,$5*
1,1,$1+$1,$6,$7*
1,1,$1+$1,$8,$9*
0 Add four rect primitives between the rounded corners*
20,1,$1+$1,$2,$3,$4,$5,0*
20,1,$1+$1,$4,$5,$6,$7,0*
20,1,$1+$1,$6,$7,$8,$9,0*
20,1,$1+$1,$8,$9,$2,$3,0*%
%AMFreePoly0*
4,1,14,1.310355,1.285355,1.325000,1.250000,1.325000,-1.250000,1.310355,-1.285355,1.275000,-1.300000,-0.775000,-1.300000,-0.810355,-1.285355,-1.310355,-0.785355,-1.325000,-0.750000,-1.325000,1.250000,-1.310355,1.285355,-1.275000,1.300000,1.275000,1.300000,1.310355,1.285355,1.310355,1.285355,$1*%
G04 Aperture macros list end*
%ADD10C,4.200000*%
%ADD11C,2.000000*%
%ADD12C,3.100000*%
%ADD13RoundRect,0.050000X-1.275000X-1.250000X1.275000X-1.250000X1.275000X1.250000X-1.275000X1.250000X0*%
%ADD14FreePoly0,0.000000*%
%ADD15RoundRect,0.050000X-0.450000X-0.600000X0.450000X-0.600000X0.450000X0.600000X-0.450000X0.600000X0*%
%ADD16C,1.800000*%
G04 APERTURE END LIST*
D10*
%TO.C,S1*%
X130000000Y-150000000D03*
D11*
X135080000Y-150000000D03*
X124920000Y-150000000D03*
D12*
X127460000Y-144920000D03*
X133810000Y-147460000D03*
X132540000Y-144920000D03*
X126190000Y-147460000D03*
D13*
X122915000Y-147460000D03*
D14*
X135842000Y-144920000D03*
%TD*%
D10*
%TO.C,S2*%
X130000000Y-131000000D03*
D11*
X135080000Y-131000000D03*
X124920000Y-131000000D03*
D12*
X127460000Y-125920000D03*
X133810000Y-128460000D03*
X132540000Y-125920000D03*
X126190000Y-128460000D03*
D13*
X122915000Y-128460000D03*
D14*
X135842000Y-125920000D03*
%TD*%
D10*
%TO.C,S3*%
X130000000Y-112000000D03*
D11*
X135080000Y-112000000D03*
X124920000Y-112000000D03*
D12*
X127460000Y-106920000D03*
X133810000Y-109460000D03*
X132540000Y-106920000D03*
X126190000Y-109460000D03*
D13*
X122915000Y-109460000D03*
D14*
X135842000Y-106920000D03*
%TD*%
D10*
%TO.C,S4*%
X149000000Y-150000000D03*
D11*
X154080000Y-150000000D03*
X143920000Y-150000000D03*
D12*
X146460000Y-144920000D03*
X152810000Y-147460000D03*
X151540000Y-144920000D03*
X145190000Y-147460000D03*
D13*
X141915000Y-147460000D03*
D14*
X154842000Y-144920000D03*
%TD*%
D10*
%TO.C,S5*%
X149000000Y-131000000D03*
D11*
X154080000Y-131000000D03*
X143920000Y-131000000D03*
D12*
X146460000Y-125920000D03*
X152810000Y-128460000D03*
X151540000Y-125920000D03*
X145190000Y-128460000D03*
D13*
X141915000Y-128460000D03*
D14*
X154842000Y-125920000D03*
%TD*%
D10*
%TO.C,S6*%
X149000000Y-112000000D03*
D11*
X154080000Y-112000000D03*
X143920000Y-112000000D03*
D12*
X146460000Y-106920000D03*
X152810000Y-109460000D03*
X151540000Y-106920000D03*
X145190000Y-109460000D03*
D13*
X141915000Y-109460000D03*
D14*
X154842000Y-106920000D03*
%TD*%
D10*
%TO.C,S7*%
X168000000Y-150000000D03*
D11*
X173080000Y-150000000D03*
X162920000Y-150000000D03*
D12*
X165460000Y-144920000D03*
X171810000Y-147460000D03*
X170540000Y-144920000D03*
X164190000Y-147460000D03*
D13*
X160915000Y-147460000D03*
D14*
X173842000Y-144920000D03*
%TD*%
D10*
%TO.C,S8*%
X168000000Y-131000000D03*
D11*
X173080000Y-131000000D03*
X162920000Y-131000000D03*
D12*
X165460000Y-125920000D03*
X171810000Y-128460000D03*
X170540000Y-125920000D03*
X164190000Y-128460000D03*
D13*
X160915000Y-128460000D03*
D14*
X173842000Y-125920000D03*
%TD*%
D10*
%TO.C,S9*%
X168000000Y-112000000D03*
D11*
X173080000Y-112000000D03*
X162920000Y-112000000D03*
D12*
X165460000Y-106920000D03*
X171810000Y-109460000D03*
X170540000Y-106920000D03*
X164190000Y-109460000D03*
D13*
X160915000Y-109460000D03*
D14*
X173842000Y-106920000D03*
%TD*%
D10*
%TO.C,S10*%
X187000000Y-150000000D03*
D11*
X192080000Y-150000000D03*
X181920000Y-150000000D03*
D12*
X184460000Y-144920000D03*
X190810000Y-147460000D03*
X189540000Y-144920000D03*
X183190000Y-147460000D03*
D13*
X179915000Y-147460000D03*
D14*
X192842000Y-144920000D03*
%TD*%
D10*
%TO.C,S11*%
X187000000Y-131000000D03*
D11*
X192080000Y-131000000D03*
X181920000Y-131000000D03*
D12*
X184460000Y-125920000D03*
X190810000Y-128460000D03*
X189540000Y-125920000D03*
X183190000Y-128460000D03*
D13*
X179915000Y-128460000D03*
D14*
X192842000Y-125920000D03*
%TD*%
D10*
%TO.C,S12*%
X187000000Y-112000000D03*
D11*
X192080000Y-112000000D03*
X181920000Y-112000000D03*
D12*
X184460000Y-106920000D03*
X190810000Y-109460000D03*
X189540000Y-106920000D03*
X183190000Y-109460000D03*
D13*
X179915000Y-109460000D03*
D14*
X192842000Y-106920000D03*
%TD*%
D10*
%TO.C,S13*%
X206000000Y-150000000D03*
D11*
X211080000Y-150000000D03*
X200920000Y-150000000D03*
D12*
X203460000Y-144920000D03*
X209810000Y-147460000D03*
X208540000Y-144920000D03*
X202190000Y-147460000D03*
D13*
X198915000Y-147460000D03*
D14*
X211842000Y-144920000D03*
%TD*%
D10*
%TO.C,S14*%
X206000000Y-131000000D03*
D11*
X211080000Y-131000000D03*
X200920000Y-131000000D03*
D12*
X203460000Y-125920000D03*
X209810000Y-128460000D03*
X208540000Y-125920000D03*
X202190000Y-128460000D03*
D13*
X198915000Y-128460000D03*
D14*
X211842000Y-125920000D03*
%TD*%
D10*
%TO.C,S15*%
X206000000Y-112000000D03*
D11*
X211080000Y-112000000D03*
X200920000Y-112000000D03*
D12*
X203460000Y-106920000D03*
X209810000Y-109460000D03*
X208540000Y-106920000D03*
X202190000Y-109460000D03*
D13*
X198915000Y-109460000D03*
D14*
X211842000Y-106920000D03*
%TD*%
D10*
%TO.C,S16*%
X187000000Y-169000000D03*
D11*
X192080000Y-169000000D03*
X181920000Y-169000000D03*
D12*
X184460000Y-163920000D03*
X190810000Y-166460000D03*
X189540000Y-163920000D03*
X183190000Y-166460000D03*
D13*
X179915000Y-166460000D03*
D14*
X192842000Y-163920000D03*
%TD*%
D10*
%TO.C,S17*%
X206000000Y-169000000D03*
D11*
X211080000Y-169000000D03*
X200920000Y-169000000D03*
D12*
X203460000Y-163920000D03*
X209810000Y-166460000D03*
X208540000Y-163920000D03*
X202190000Y-166460000D03*
D13*
X198915000Y-166460000D03*
D14*
X211842000Y-163920000D03*
%TD*%
D10*
%TO.C,S18*%
X225000000Y-169000000D03*
D11*
X230080000Y-169000000D03*
X219920000Y-169000000D03*
D12*
X222460000Y-163920000D03*
X228810000Y-166460000D03*
X227540000Y-163920000D03*
X221190000Y-166460000D03*
D13*
X217915000Y-166460000D03*
D14*
X230842000Y-163920000D03*
%TD*%
D15*
%TO.C,D1*%
X128350000Y-159000000D03*
X131650000Y-159000000D03*
%TD*%
%TO.C,D2*%
X128350000Y-140000000D03*
X131650000Y-140000000D03*
%TD*%
%TO.C,D3*%
X128350000Y-121000000D03*
X131650000Y-121000000D03*
%TD*%
%TO.C,D4*%
X147350000Y-159000000D03*
X150650000Y-159000000D03*
%TD*%
%TO.C,D5*%
X147350000Y-140000000D03*
X150650000Y-140000000D03*
%TD*%
%TO.C,D6*%
X147350000Y-121000000D03*
X150650000Y-121000000D03*
%TD*%
%TO.C,D7*%
X166350000Y-159000000D03*
X169650000Y-159000000D03*
%TD*%
%TO.C,D8*%
X166350000Y-140000000D03*
X169650000Y-140000000D03*
%TD*%
%TO.C,D9*%
X166350000Y-121000000D03*
X169650000Y-121000000D03*
%TD*%
%TO.C,D10*%
X185350000Y-159000000D03*
X188650000Y-159000000D03*
%TD*%
%TO.C,D11*%
X185350000Y-140000000D03*
X188650000Y-140000000D03*
%TD*%
%TO.C,D12*%
X185350000Y-121000000D03*
X188650000Y-121000000D03*
%TD*%
%TO.C,D13*%
X204350000Y-159000000D03*
X207650000Y-159000000D03*
%TD*%
%TO.C,D14*%
X204350000Y-140000000D03*
X207650000Y-140000000D03*
%TD*%
%TO.C,D15*%
X204350000Y-121000000D03*
X207650000Y-121000000D03*
%TD*%
%TO.C,D16*%
X185350000Y-178000000D03*
X188650000Y-178000000D03*
%TD*%
%TO.C,D17*%
X204350000Y-178000000D03*
X207650000Y-178000000D03*
%TD*%
%TO.C,D18*%
X223350000Y-178000000D03*
X226650000Y-178000000D03*
%TD*%
D16*
%TO.C,MCU1*%
X126800000Y-176620000D03*
X126800000Y-161380000D03*
X129340000Y-176620000D03*
X129340000Y-161380000D03*
X131880000Y-176620000D03*
X131880000Y-161380000D03*
X134420000Y-176620000D03*
X134420000Y-161380000D03*
X136960000Y-176620000D03*
X136960000Y-161380000D03*
X139500000Y-176620000D03*
X139500000Y-161380000D03*
X142040000Y-176620000D03*
X142040000Y-161380000D03*
X144580000Y-176620000D03*
X144580000Y-161380000D03*
X147120000Y-176620000D03*
X147120000Y-161380000D03*
X149660000Y-176620000D03*
X149660000Y-161380000D03*
X152200000Y-176620000D03*
X152200000Y-161380000D03*
X154740000Y-176620000D03*
X154740000Y-161380000D03*
%TD*%
M02*
