%TF.GenerationSoftware,KiCad,Pcbnew,8.0.9-rc1*%
%TF.CreationDate,2026-07-19T00:27:18-06:00*%
%TF.ProjectId,test (1),74657374-2028-4312-992e-6b696361645f,v1.0.0*%
%TF.SameCoordinates,Original*%
%TF.FileFunction,Legend,Top*%
%TF.FilePolarity,Positive*%
%FSLAX46Y46*%
G04 Gerber Fmt 4.6, Leading zero omitted, Abs format (unit mm)*
G04 Created by KiCad (PCBNEW 8.0.9-rc1) date 2026-07-19 00:27:18*
%MOMM*%
%LPD*%
G01*
G04 APERTURE LIST*
%ADD10C,0.150000*%
%ADD11C,0.100000*%
%ADD12C,0.120000*%
G04 APERTURE END LIST*
D10*
X127254819Y-174208094D02*
X126254819Y-174208094D01*
X126254819Y-174208094D02*
X126254819Y-173827142D01*
X126254819Y-173827142D02*
X126302438Y-173731904D01*
X126302438Y-173731904D02*
X126350057Y-173684285D01*
X126350057Y-173684285D02*
X126445295Y-173636666D01*
X126445295Y-173636666D02*
X126588152Y-173636666D01*
X126588152Y-173636666D02*
X126683390Y-173684285D01*
X126683390Y-173684285D02*
X126731009Y-173731904D01*
X126731009Y-173731904D02*
X126778628Y-173827142D01*
X126778628Y-173827142D02*
X126778628Y-174208094D01*
X127254819Y-172684285D02*
X127254819Y-173255713D01*
X127254819Y-172969999D02*
X126254819Y-172969999D01*
X126254819Y-172969999D02*
X126397676Y-173065237D01*
X126397676Y-173065237D02*
X126492914Y-173160475D01*
X126492914Y-173160475D02*
X126540533Y-173255713D01*
X127254819Y-165220476D02*
X126778628Y-165553809D01*
X127254819Y-165791904D02*
X126254819Y-165791904D01*
X126254819Y-165791904D02*
X126254819Y-165410952D01*
X126254819Y-165410952D02*
X126302438Y-165315714D01*
X126302438Y-165315714D02*
X126350057Y-165268095D01*
X126350057Y-165268095D02*
X126445295Y-165220476D01*
X126445295Y-165220476D02*
X126588152Y-165220476D01*
X126588152Y-165220476D02*
X126683390Y-165268095D01*
X126683390Y-165268095D02*
X126731009Y-165315714D01*
X126731009Y-165315714D02*
X126778628Y-165410952D01*
X126778628Y-165410952D02*
X126778628Y-165791904D01*
X126969104Y-164839523D02*
X126969104Y-164363333D01*
X127254819Y-164934761D02*
X126254819Y-164601428D01*
X126254819Y-164601428D02*
X127254819Y-164268095D01*
X126254819Y-164029999D02*
X127254819Y-163791904D01*
X127254819Y-163791904D02*
X126540533Y-163601428D01*
X126540533Y-163601428D02*
X127254819Y-163410952D01*
X127254819Y-163410952D02*
X126254819Y-163172857D01*
X129794819Y-174208094D02*
X128794819Y-174208094D01*
X128794819Y-174208094D02*
X128794819Y-173827142D01*
X128794819Y-173827142D02*
X128842438Y-173731904D01*
X128842438Y-173731904D02*
X128890057Y-173684285D01*
X128890057Y-173684285D02*
X128985295Y-173636666D01*
X128985295Y-173636666D02*
X129128152Y-173636666D01*
X129128152Y-173636666D02*
X129223390Y-173684285D01*
X129223390Y-173684285D02*
X129271009Y-173731904D01*
X129271009Y-173731904D02*
X129318628Y-173827142D01*
X129318628Y-173827142D02*
X129318628Y-174208094D01*
X128794819Y-173017618D02*
X128794819Y-172922380D01*
X128794819Y-172922380D02*
X128842438Y-172827142D01*
X128842438Y-172827142D02*
X128890057Y-172779523D01*
X128890057Y-172779523D02*
X128985295Y-172731904D01*
X128985295Y-172731904D02*
X129175771Y-172684285D01*
X129175771Y-172684285D02*
X129413866Y-172684285D01*
X129413866Y-172684285D02*
X129604342Y-172731904D01*
X129604342Y-172731904D02*
X129699580Y-172779523D01*
X129699580Y-172779523D02*
X129747200Y-172827142D01*
X129747200Y-172827142D02*
X129794819Y-172922380D01*
X129794819Y-172922380D02*
X129794819Y-173017618D01*
X129794819Y-173017618D02*
X129747200Y-173112856D01*
X129747200Y-173112856D02*
X129699580Y-173160475D01*
X129699580Y-173160475D02*
X129604342Y-173208094D01*
X129604342Y-173208094D02*
X129413866Y-173255713D01*
X129413866Y-173255713D02*
X129175771Y-173255713D01*
X129175771Y-173255713D02*
X128985295Y-173208094D01*
X128985295Y-173208094D02*
X128890057Y-173160475D01*
X128890057Y-173160475D02*
X128842438Y-173112856D01*
X128842438Y-173112856D02*
X128794819Y-173017618D01*
X128842438Y-165291904D02*
X128794819Y-165387142D01*
X128794819Y-165387142D02*
X128794819Y-165529999D01*
X128794819Y-165529999D02*
X128842438Y-165672856D01*
X128842438Y-165672856D02*
X128937676Y-165768094D01*
X128937676Y-165768094D02*
X129032914Y-165815713D01*
X129032914Y-165815713D02*
X129223390Y-165863332D01*
X129223390Y-165863332D02*
X129366247Y-165863332D01*
X129366247Y-165863332D02*
X129556723Y-165815713D01*
X129556723Y-165815713D02*
X129651961Y-165768094D01*
X129651961Y-165768094D02*
X129747200Y-165672856D01*
X129747200Y-165672856D02*
X129794819Y-165529999D01*
X129794819Y-165529999D02*
X129794819Y-165434761D01*
X129794819Y-165434761D02*
X129747200Y-165291904D01*
X129747200Y-165291904D02*
X129699580Y-165244285D01*
X129699580Y-165244285D02*
X129366247Y-165244285D01*
X129366247Y-165244285D02*
X129366247Y-165434761D01*
X129794819Y-164815713D02*
X128794819Y-164815713D01*
X128794819Y-164815713D02*
X129794819Y-164244285D01*
X129794819Y-164244285D02*
X128794819Y-164244285D01*
X129794819Y-163768094D02*
X128794819Y-163768094D01*
X128794819Y-163768094D02*
X128794819Y-163529999D01*
X128794819Y-163529999D02*
X128842438Y-163387142D01*
X128842438Y-163387142D02*
X128937676Y-163291904D01*
X128937676Y-163291904D02*
X129032914Y-163244285D01*
X129032914Y-163244285D02*
X129223390Y-163196666D01*
X129223390Y-163196666D02*
X129366247Y-163196666D01*
X129366247Y-163196666D02*
X129556723Y-163244285D01*
X129556723Y-163244285D02*
X129651961Y-163291904D01*
X129651961Y-163291904D02*
X129747200Y-163387142D01*
X129747200Y-163387142D02*
X129794819Y-163529999D01*
X129794819Y-163529999D02*
X129794819Y-163768094D01*
X131382438Y-174231904D02*
X131334819Y-174327142D01*
X131334819Y-174327142D02*
X131334819Y-174469999D01*
X131334819Y-174469999D02*
X131382438Y-174612856D01*
X131382438Y-174612856D02*
X131477676Y-174708094D01*
X131477676Y-174708094D02*
X131572914Y-174755713D01*
X131572914Y-174755713D02*
X131763390Y-174803332D01*
X131763390Y-174803332D02*
X131906247Y-174803332D01*
X131906247Y-174803332D02*
X132096723Y-174755713D01*
X132096723Y-174755713D02*
X132191961Y-174708094D01*
X132191961Y-174708094D02*
X132287200Y-174612856D01*
X132287200Y-174612856D02*
X132334819Y-174469999D01*
X132334819Y-174469999D02*
X132334819Y-174374761D01*
X132334819Y-174374761D02*
X132287200Y-174231904D01*
X132287200Y-174231904D02*
X132239580Y-174184285D01*
X132239580Y-174184285D02*
X131906247Y-174184285D01*
X131906247Y-174184285D02*
X131906247Y-174374761D01*
X132334819Y-173755713D02*
X131334819Y-173755713D01*
X131334819Y-173755713D02*
X132334819Y-173184285D01*
X132334819Y-173184285D02*
X131334819Y-173184285D01*
X132334819Y-172708094D02*
X131334819Y-172708094D01*
X131334819Y-172708094D02*
X131334819Y-172469999D01*
X131334819Y-172469999D02*
X131382438Y-172327142D01*
X131382438Y-172327142D02*
X131477676Y-172231904D01*
X131477676Y-172231904D02*
X131572914Y-172184285D01*
X131572914Y-172184285D02*
X131763390Y-172136666D01*
X131763390Y-172136666D02*
X131906247Y-172136666D01*
X131906247Y-172136666D02*
X132096723Y-172184285D01*
X132096723Y-172184285D02*
X132191961Y-172231904D01*
X132191961Y-172231904D02*
X132287200Y-172327142D01*
X132287200Y-172327142D02*
X132334819Y-172469999D01*
X132334819Y-172469999D02*
X132334819Y-172708094D01*
X132334819Y-165077619D02*
X131858628Y-165410952D01*
X132334819Y-165649047D02*
X131334819Y-165649047D01*
X131334819Y-165649047D02*
X131334819Y-165268095D01*
X131334819Y-165268095D02*
X131382438Y-165172857D01*
X131382438Y-165172857D02*
X131430057Y-165125238D01*
X131430057Y-165125238D02*
X131525295Y-165077619D01*
X131525295Y-165077619D02*
X131668152Y-165077619D01*
X131668152Y-165077619D02*
X131763390Y-165125238D01*
X131763390Y-165125238D02*
X131811009Y-165172857D01*
X131811009Y-165172857D02*
X131858628Y-165268095D01*
X131858628Y-165268095D02*
X131858628Y-165649047D01*
X132287200Y-164696666D02*
X132334819Y-164553809D01*
X132334819Y-164553809D02*
X132334819Y-164315714D01*
X132334819Y-164315714D02*
X132287200Y-164220476D01*
X132287200Y-164220476D02*
X132239580Y-164172857D01*
X132239580Y-164172857D02*
X132144342Y-164125238D01*
X132144342Y-164125238D02*
X132049104Y-164125238D01*
X132049104Y-164125238D02*
X131953866Y-164172857D01*
X131953866Y-164172857D02*
X131906247Y-164220476D01*
X131906247Y-164220476D02*
X131858628Y-164315714D01*
X131858628Y-164315714D02*
X131811009Y-164506190D01*
X131811009Y-164506190D02*
X131763390Y-164601428D01*
X131763390Y-164601428D02*
X131715771Y-164649047D01*
X131715771Y-164649047D02*
X131620533Y-164696666D01*
X131620533Y-164696666D02*
X131525295Y-164696666D01*
X131525295Y-164696666D02*
X131430057Y-164649047D01*
X131430057Y-164649047D02*
X131382438Y-164601428D01*
X131382438Y-164601428D02*
X131334819Y-164506190D01*
X131334819Y-164506190D02*
X131334819Y-164268095D01*
X131334819Y-164268095D02*
X131382438Y-164125238D01*
X131334819Y-163839523D02*
X131334819Y-163268095D01*
X132334819Y-163553809D02*
X131334819Y-163553809D01*
X133922438Y-174231904D02*
X133874819Y-174327142D01*
X133874819Y-174327142D02*
X133874819Y-174469999D01*
X133874819Y-174469999D02*
X133922438Y-174612856D01*
X133922438Y-174612856D02*
X134017676Y-174708094D01*
X134017676Y-174708094D02*
X134112914Y-174755713D01*
X134112914Y-174755713D02*
X134303390Y-174803332D01*
X134303390Y-174803332D02*
X134446247Y-174803332D01*
X134446247Y-174803332D02*
X134636723Y-174755713D01*
X134636723Y-174755713D02*
X134731961Y-174708094D01*
X134731961Y-174708094D02*
X134827200Y-174612856D01*
X134827200Y-174612856D02*
X134874819Y-174469999D01*
X134874819Y-174469999D02*
X134874819Y-174374761D01*
X134874819Y-174374761D02*
X134827200Y-174231904D01*
X134827200Y-174231904D02*
X134779580Y-174184285D01*
X134779580Y-174184285D02*
X134446247Y-174184285D01*
X134446247Y-174184285D02*
X134446247Y-174374761D01*
X134874819Y-173755713D02*
X133874819Y-173755713D01*
X133874819Y-173755713D02*
X134874819Y-173184285D01*
X134874819Y-173184285D02*
X133874819Y-173184285D01*
X134874819Y-172708094D02*
X133874819Y-172708094D01*
X133874819Y-172708094D02*
X133874819Y-172469999D01*
X133874819Y-172469999D02*
X133922438Y-172327142D01*
X133922438Y-172327142D02*
X134017676Y-172231904D01*
X134017676Y-172231904D02*
X134112914Y-172184285D01*
X134112914Y-172184285D02*
X134303390Y-172136666D01*
X134303390Y-172136666D02*
X134446247Y-172136666D01*
X134446247Y-172136666D02*
X134636723Y-172184285D01*
X134636723Y-172184285D02*
X134731961Y-172231904D01*
X134731961Y-172231904D02*
X134827200Y-172327142D01*
X134827200Y-172327142D02*
X134874819Y-172469999D01*
X134874819Y-172469999D02*
X134874819Y-172708094D01*
X133874819Y-165863332D02*
X134874819Y-165529999D01*
X134874819Y-165529999D02*
X133874819Y-165196666D01*
X134779580Y-164291904D02*
X134827200Y-164339523D01*
X134827200Y-164339523D02*
X134874819Y-164482380D01*
X134874819Y-164482380D02*
X134874819Y-164577618D01*
X134874819Y-164577618D02*
X134827200Y-164720475D01*
X134827200Y-164720475D02*
X134731961Y-164815713D01*
X134731961Y-164815713D02*
X134636723Y-164863332D01*
X134636723Y-164863332D02*
X134446247Y-164910951D01*
X134446247Y-164910951D02*
X134303390Y-164910951D01*
X134303390Y-164910951D02*
X134112914Y-164863332D01*
X134112914Y-164863332D02*
X134017676Y-164815713D01*
X134017676Y-164815713D02*
X133922438Y-164720475D01*
X133922438Y-164720475D02*
X133874819Y-164577618D01*
X133874819Y-164577618D02*
X133874819Y-164482380D01*
X133874819Y-164482380D02*
X133922438Y-164339523D01*
X133922438Y-164339523D02*
X133970057Y-164291904D01*
X134779580Y-163291904D02*
X134827200Y-163339523D01*
X134827200Y-163339523D02*
X134874819Y-163482380D01*
X134874819Y-163482380D02*
X134874819Y-163577618D01*
X134874819Y-163577618D02*
X134827200Y-163720475D01*
X134827200Y-163720475D02*
X134731961Y-163815713D01*
X134731961Y-163815713D02*
X134636723Y-163863332D01*
X134636723Y-163863332D02*
X134446247Y-163910951D01*
X134446247Y-163910951D02*
X134303390Y-163910951D01*
X134303390Y-163910951D02*
X134112914Y-163863332D01*
X134112914Y-163863332D02*
X134017676Y-163815713D01*
X134017676Y-163815713D02*
X133922438Y-163720475D01*
X133922438Y-163720475D02*
X133874819Y-163577618D01*
X133874819Y-163577618D02*
X133874819Y-163482380D01*
X133874819Y-163482380D02*
X133922438Y-163339523D01*
X133922438Y-163339523D02*
X133970057Y-163291904D01*
X137414819Y-174208094D02*
X136414819Y-174208094D01*
X136414819Y-174208094D02*
X136414819Y-173827142D01*
X136414819Y-173827142D02*
X136462438Y-173731904D01*
X136462438Y-173731904D02*
X136510057Y-173684285D01*
X136510057Y-173684285D02*
X136605295Y-173636666D01*
X136605295Y-173636666D02*
X136748152Y-173636666D01*
X136748152Y-173636666D02*
X136843390Y-173684285D01*
X136843390Y-173684285D02*
X136891009Y-173731904D01*
X136891009Y-173731904D02*
X136938628Y-173827142D01*
X136938628Y-173827142D02*
X136938628Y-174208094D01*
X136510057Y-173255713D02*
X136462438Y-173208094D01*
X136462438Y-173208094D02*
X136414819Y-173112856D01*
X136414819Y-173112856D02*
X136414819Y-172874761D01*
X136414819Y-172874761D02*
X136462438Y-172779523D01*
X136462438Y-172779523D02*
X136510057Y-172731904D01*
X136510057Y-172731904D02*
X136605295Y-172684285D01*
X136605295Y-172684285D02*
X136700533Y-172684285D01*
X136700533Y-172684285D02*
X136843390Y-172731904D01*
X136843390Y-172731904D02*
X137414819Y-173303332D01*
X137414819Y-173303332D02*
X137414819Y-172684285D01*
X137414819Y-165744285D02*
X136414819Y-165744285D01*
X136414819Y-165744285D02*
X136414819Y-165363333D01*
X136414819Y-165363333D02*
X136462438Y-165268095D01*
X136462438Y-165268095D02*
X136510057Y-165220476D01*
X136510057Y-165220476D02*
X136605295Y-165172857D01*
X136605295Y-165172857D02*
X136748152Y-165172857D01*
X136748152Y-165172857D02*
X136843390Y-165220476D01*
X136843390Y-165220476D02*
X136891009Y-165268095D01*
X136891009Y-165268095D02*
X136938628Y-165363333D01*
X136938628Y-165363333D02*
X136938628Y-165744285D01*
X136510057Y-164791904D02*
X136462438Y-164744285D01*
X136462438Y-164744285D02*
X136414819Y-164649047D01*
X136414819Y-164649047D02*
X136414819Y-164410952D01*
X136414819Y-164410952D02*
X136462438Y-164315714D01*
X136462438Y-164315714D02*
X136510057Y-164268095D01*
X136510057Y-164268095D02*
X136605295Y-164220476D01*
X136605295Y-164220476D02*
X136700533Y-164220476D01*
X136700533Y-164220476D02*
X136843390Y-164268095D01*
X136843390Y-164268095D02*
X137414819Y-164839523D01*
X137414819Y-164839523D02*
X137414819Y-164220476D01*
X137414819Y-163268095D02*
X137414819Y-163839523D01*
X137414819Y-163553809D02*
X136414819Y-163553809D01*
X136414819Y-163553809D02*
X136557676Y-163649047D01*
X136557676Y-163649047D02*
X136652914Y-163744285D01*
X136652914Y-163744285D02*
X136700533Y-163839523D01*
X139954819Y-174208094D02*
X138954819Y-174208094D01*
X138954819Y-174208094D02*
X138954819Y-173827142D01*
X138954819Y-173827142D02*
X139002438Y-173731904D01*
X139002438Y-173731904D02*
X139050057Y-173684285D01*
X139050057Y-173684285D02*
X139145295Y-173636666D01*
X139145295Y-173636666D02*
X139288152Y-173636666D01*
X139288152Y-173636666D02*
X139383390Y-173684285D01*
X139383390Y-173684285D02*
X139431009Y-173731904D01*
X139431009Y-173731904D02*
X139478628Y-173827142D01*
X139478628Y-173827142D02*
X139478628Y-174208094D01*
X138954819Y-173303332D02*
X138954819Y-172684285D01*
X138954819Y-172684285D02*
X139335771Y-173017618D01*
X139335771Y-173017618D02*
X139335771Y-172874761D01*
X139335771Y-172874761D02*
X139383390Y-172779523D01*
X139383390Y-172779523D02*
X139431009Y-172731904D01*
X139431009Y-172731904D02*
X139526247Y-172684285D01*
X139526247Y-172684285D02*
X139764342Y-172684285D01*
X139764342Y-172684285D02*
X139859580Y-172731904D01*
X139859580Y-172731904D02*
X139907200Y-172779523D01*
X139907200Y-172779523D02*
X139954819Y-172874761D01*
X139954819Y-172874761D02*
X139954819Y-173160475D01*
X139954819Y-173160475D02*
X139907200Y-173255713D01*
X139907200Y-173255713D02*
X139859580Y-173303332D01*
X139954819Y-165744285D02*
X138954819Y-165744285D01*
X138954819Y-165744285D02*
X138954819Y-165363333D01*
X138954819Y-165363333D02*
X139002438Y-165268095D01*
X139002438Y-165268095D02*
X139050057Y-165220476D01*
X139050057Y-165220476D02*
X139145295Y-165172857D01*
X139145295Y-165172857D02*
X139288152Y-165172857D01*
X139288152Y-165172857D02*
X139383390Y-165220476D01*
X139383390Y-165220476D02*
X139431009Y-165268095D01*
X139431009Y-165268095D02*
X139478628Y-165363333D01*
X139478628Y-165363333D02*
X139478628Y-165744285D01*
X139050057Y-164791904D02*
X139002438Y-164744285D01*
X139002438Y-164744285D02*
X138954819Y-164649047D01*
X138954819Y-164649047D02*
X138954819Y-164410952D01*
X138954819Y-164410952D02*
X139002438Y-164315714D01*
X139002438Y-164315714D02*
X139050057Y-164268095D01*
X139050057Y-164268095D02*
X139145295Y-164220476D01*
X139145295Y-164220476D02*
X139240533Y-164220476D01*
X139240533Y-164220476D02*
X139383390Y-164268095D01*
X139383390Y-164268095D02*
X139954819Y-164839523D01*
X139954819Y-164839523D02*
X139954819Y-164220476D01*
X138954819Y-163601428D02*
X138954819Y-163506190D01*
X138954819Y-163506190D02*
X139002438Y-163410952D01*
X139002438Y-163410952D02*
X139050057Y-163363333D01*
X139050057Y-163363333D02*
X139145295Y-163315714D01*
X139145295Y-163315714D02*
X139335771Y-163268095D01*
X139335771Y-163268095D02*
X139573866Y-163268095D01*
X139573866Y-163268095D02*
X139764342Y-163315714D01*
X139764342Y-163315714D02*
X139859580Y-163363333D01*
X139859580Y-163363333D02*
X139907200Y-163410952D01*
X139907200Y-163410952D02*
X139954819Y-163506190D01*
X139954819Y-163506190D02*
X139954819Y-163601428D01*
X139954819Y-163601428D02*
X139907200Y-163696666D01*
X139907200Y-163696666D02*
X139859580Y-163744285D01*
X139859580Y-163744285D02*
X139764342Y-163791904D01*
X139764342Y-163791904D02*
X139573866Y-163839523D01*
X139573866Y-163839523D02*
X139335771Y-163839523D01*
X139335771Y-163839523D02*
X139145295Y-163791904D01*
X139145295Y-163791904D02*
X139050057Y-163744285D01*
X139050057Y-163744285D02*
X139002438Y-163696666D01*
X139002438Y-163696666D02*
X138954819Y-163601428D01*
X142494819Y-174208094D02*
X141494819Y-174208094D01*
X141494819Y-174208094D02*
X141494819Y-173827142D01*
X141494819Y-173827142D02*
X141542438Y-173731904D01*
X141542438Y-173731904D02*
X141590057Y-173684285D01*
X141590057Y-173684285D02*
X141685295Y-173636666D01*
X141685295Y-173636666D02*
X141828152Y-173636666D01*
X141828152Y-173636666D02*
X141923390Y-173684285D01*
X141923390Y-173684285D02*
X141971009Y-173731904D01*
X141971009Y-173731904D02*
X142018628Y-173827142D01*
X142018628Y-173827142D02*
X142018628Y-174208094D01*
X141828152Y-172779523D02*
X142494819Y-172779523D01*
X141447200Y-173017618D02*
X142161485Y-173255713D01*
X142161485Y-173255713D02*
X142161485Y-172636666D01*
X142494819Y-165744285D02*
X141494819Y-165744285D01*
X141494819Y-165744285D02*
X141494819Y-165363333D01*
X141494819Y-165363333D02*
X141542438Y-165268095D01*
X141542438Y-165268095D02*
X141590057Y-165220476D01*
X141590057Y-165220476D02*
X141685295Y-165172857D01*
X141685295Y-165172857D02*
X141828152Y-165172857D01*
X141828152Y-165172857D02*
X141923390Y-165220476D01*
X141923390Y-165220476D02*
X141971009Y-165268095D01*
X141971009Y-165268095D02*
X142018628Y-165363333D01*
X142018628Y-165363333D02*
X142018628Y-165744285D01*
X142494819Y-164220476D02*
X142494819Y-164791904D01*
X142494819Y-164506190D02*
X141494819Y-164506190D01*
X141494819Y-164506190D02*
X141637676Y-164601428D01*
X141637676Y-164601428D02*
X141732914Y-164696666D01*
X141732914Y-164696666D02*
X141780533Y-164791904D01*
X142494819Y-163744285D02*
X142494819Y-163553809D01*
X142494819Y-163553809D02*
X142447200Y-163458571D01*
X142447200Y-163458571D02*
X142399580Y-163410952D01*
X142399580Y-163410952D02*
X142256723Y-163315714D01*
X142256723Y-163315714D02*
X142066247Y-163268095D01*
X142066247Y-163268095D02*
X141685295Y-163268095D01*
X141685295Y-163268095D02*
X141590057Y-163315714D01*
X141590057Y-163315714D02*
X141542438Y-163363333D01*
X141542438Y-163363333D02*
X141494819Y-163458571D01*
X141494819Y-163458571D02*
X141494819Y-163649047D01*
X141494819Y-163649047D02*
X141542438Y-163744285D01*
X141542438Y-163744285D02*
X141590057Y-163791904D01*
X141590057Y-163791904D02*
X141685295Y-163839523D01*
X141685295Y-163839523D02*
X141923390Y-163839523D01*
X141923390Y-163839523D02*
X142018628Y-163791904D01*
X142018628Y-163791904D02*
X142066247Y-163744285D01*
X142066247Y-163744285D02*
X142113866Y-163649047D01*
X142113866Y-163649047D02*
X142113866Y-163458571D01*
X142113866Y-163458571D02*
X142066247Y-163363333D01*
X142066247Y-163363333D02*
X142018628Y-163315714D01*
X142018628Y-163315714D02*
X141923390Y-163268095D01*
X145034819Y-174208094D02*
X144034819Y-174208094D01*
X144034819Y-174208094D02*
X144034819Y-173827142D01*
X144034819Y-173827142D02*
X144082438Y-173731904D01*
X144082438Y-173731904D02*
X144130057Y-173684285D01*
X144130057Y-173684285D02*
X144225295Y-173636666D01*
X144225295Y-173636666D02*
X144368152Y-173636666D01*
X144368152Y-173636666D02*
X144463390Y-173684285D01*
X144463390Y-173684285D02*
X144511009Y-173731904D01*
X144511009Y-173731904D02*
X144558628Y-173827142D01*
X144558628Y-173827142D02*
X144558628Y-174208094D01*
X144034819Y-172731904D02*
X144034819Y-173208094D01*
X144034819Y-173208094D02*
X144511009Y-173255713D01*
X144511009Y-173255713D02*
X144463390Y-173208094D01*
X144463390Y-173208094D02*
X144415771Y-173112856D01*
X144415771Y-173112856D02*
X144415771Y-172874761D01*
X144415771Y-172874761D02*
X144463390Y-172779523D01*
X144463390Y-172779523D02*
X144511009Y-172731904D01*
X144511009Y-172731904D02*
X144606247Y-172684285D01*
X144606247Y-172684285D02*
X144844342Y-172684285D01*
X144844342Y-172684285D02*
X144939580Y-172731904D01*
X144939580Y-172731904D02*
X144987200Y-172779523D01*
X144987200Y-172779523D02*
X145034819Y-172874761D01*
X145034819Y-172874761D02*
X145034819Y-173112856D01*
X145034819Y-173112856D02*
X144987200Y-173208094D01*
X144987200Y-173208094D02*
X144939580Y-173255713D01*
X145034819Y-165744285D02*
X144034819Y-165744285D01*
X144034819Y-165744285D02*
X144034819Y-165363333D01*
X144034819Y-165363333D02*
X144082438Y-165268095D01*
X144082438Y-165268095D02*
X144130057Y-165220476D01*
X144130057Y-165220476D02*
X144225295Y-165172857D01*
X144225295Y-165172857D02*
X144368152Y-165172857D01*
X144368152Y-165172857D02*
X144463390Y-165220476D01*
X144463390Y-165220476D02*
X144511009Y-165268095D01*
X144511009Y-165268095D02*
X144558628Y-165363333D01*
X144558628Y-165363333D02*
X144558628Y-165744285D01*
X145034819Y-164220476D02*
X145034819Y-164791904D01*
X145034819Y-164506190D02*
X144034819Y-164506190D01*
X144034819Y-164506190D02*
X144177676Y-164601428D01*
X144177676Y-164601428D02*
X144272914Y-164696666D01*
X144272914Y-164696666D02*
X144320533Y-164791904D01*
X144463390Y-163649047D02*
X144415771Y-163744285D01*
X144415771Y-163744285D02*
X144368152Y-163791904D01*
X144368152Y-163791904D02*
X144272914Y-163839523D01*
X144272914Y-163839523D02*
X144225295Y-163839523D01*
X144225295Y-163839523D02*
X144130057Y-163791904D01*
X144130057Y-163791904D02*
X144082438Y-163744285D01*
X144082438Y-163744285D02*
X144034819Y-163649047D01*
X144034819Y-163649047D02*
X144034819Y-163458571D01*
X144034819Y-163458571D02*
X144082438Y-163363333D01*
X144082438Y-163363333D02*
X144130057Y-163315714D01*
X144130057Y-163315714D02*
X144225295Y-163268095D01*
X144225295Y-163268095D02*
X144272914Y-163268095D01*
X144272914Y-163268095D02*
X144368152Y-163315714D01*
X144368152Y-163315714D02*
X144415771Y-163363333D01*
X144415771Y-163363333D02*
X144463390Y-163458571D01*
X144463390Y-163458571D02*
X144463390Y-163649047D01*
X144463390Y-163649047D02*
X144511009Y-163744285D01*
X144511009Y-163744285D02*
X144558628Y-163791904D01*
X144558628Y-163791904D02*
X144653866Y-163839523D01*
X144653866Y-163839523D02*
X144844342Y-163839523D01*
X144844342Y-163839523D02*
X144939580Y-163791904D01*
X144939580Y-163791904D02*
X144987200Y-163744285D01*
X144987200Y-163744285D02*
X145034819Y-163649047D01*
X145034819Y-163649047D02*
X145034819Y-163458571D01*
X145034819Y-163458571D02*
X144987200Y-163363333D01*
X144987200Y-163363333D02*
X144939580Y-163315714D01*
X144939580Y-163315714D02*
X144844342Y-163268095D01*
X144844342Y-163268095D02*
X144653866Y-163268095D01*
X144653866Y-163268095D02*
X144558628Y-163315714D01*
X144558628Y-163315714D02*
X144511009Y-163363333D01*
X144511009Y-163363333D02*
X144463390Y-163458571D01*
X147574819Y-174208094D02*
X146574819Y-174208094D01*
X146574819Y-174208094D02*
X146574819Y-173827142D01*
X146574819Y-173827142D02*
X146622438Y-173731904D01*
X146622438Y-173731904D02*
X146670057Y-173684285D01*
X146670057Y-173684285D02*
X146765295Y-173636666D01*
X146765295Y-173636666D02*
X146908152Y-173636666D01*
X146908152Y-173636666D02*
X147003390Y-173684285D01*
X147003390Y-173684285D02*
X147051009Y-173731904D01*
X147051009Y-173731904D02*
X147098628Y-173827142D01*
X147098628Y-173827142D02*
X147098628Y-174208094D01*
X146574819Y-172779523D02*
X146574819Y-172969999D01*
X146574819Y-172969999D02*
X146622438Y-173065237D01*
X146622438Y-173065237D02*
X146670057Y-173112856D01*
X146670057Y-173112856D02*
X146812914Y-173208094D01*
X146812914Y-173208094D02*
X147003390Y-173255713D01*
X147003390Y-173255713D02*
X147384342Y-173255713D01*
X147384342Y-173255713D02*
X147479580Y-173208094D01*
X147479580Y-173208094D02*
X147527200Y-173160475D01*
X147527200Y-173160475D02*
X147574819Y-173065237D01*
X147574819Y-173065237D02*
X147574819Y-172874761D01*
X147574819Y-172874761D02*
X147527200Y-172779523D01*
X147527200Y-172779523D02*
X147479580Y-172731904D01*
X147479580Y-172731904D02*
X147384342Y-172684285D01*
X147384342Y-172684285D02*
X147146247Y-172684285D01*
X147146247Y-172684285D02*
X147051009Y-172731904D01*
X147051009Y-172731904D02*
X147003390Y-172779523D01*
X147003390Y-172779523D02*
X146955771Y-172874761D01*
X146955771Y-172874761D02*
X146955771Y-173065237D01*
X146955771Y-173065237D02*
X147003390Y-173160475D01*
X147003390Y-173160475D02*
X147051009Y-173208094D01*
X147051009Y-173208094D02*
X147146247Y-173255713D01*
X147574819Y-165744285D02*
X146574819Y-165744285D01*
X146574819Y-165744285D02*
X146574819Y-165363333D01*
X146574819Y-165363333D02*
X146622438Y-165268095D01*
X146622438Y-165268095D02*
X146670057Y-165220476D01*
X146670057Y-165220476D02*
X146765295Y-165172857D01*
X146765295Y-165172857D02*
X146908152Y-165172857D01*
X146908152Y-165172857D02*
X147003390Y-165220476D01*
X147003390Y-165220476D02*
X147051009Y-165268095D01*
X147051009Y-165268095D02*
X147098628Y-165363333D01*
X147098628Y-165363333D02*
X147098628Y-165744285D01*
X147574819Y-164220476D02*
X147574819Y-164791904D01*
X147574819Y-164506190D02*
X146574819Y-164506190D01*
X146574819Y-164506190D02*
X146717676Y-164601428D01*
X146717676Y-164601428D02*
X146812914Y-164696666D01*
X146812914Y-164696666D02*
X146860533Y-164791904D01*
X146574819Y-163315714D02*
X146574819Y-163791904D01*
X146574819Y-163791904D02*
X147051009Y-163839523D01*
X147051009Y-163839523D02*
X147003390Y-163791904D01*
X147003390Y-163791904D02*
X146955771Y-163696666D01*
X146955771Y-163696666D02*
X146955771Y-163458571D01*
X146955771Y-163458571D02*
X147003390Y-163363333D01*
X147003390Y-163363333D02*
X147051009Y-163315714D01*
X147051009Y-163315714D02*
X147146247Y-163268095D01*
X147146247Y-163268095D02*
X147384342Y-163268095D01*
X147384342Y-163268095D02*
X147479580Y-163315714D01*
X147479580Y-163315714D02*
X147527200Y-163363333D01*
X147527200Y-163363333D02*
X147574819Y-163458571D01*
X147574819Y-163458571D02*
X147574819Y-163696666D01*
X147574819Y-163696666D02*
X147527200Y-163791904D01*
X147527200Y-163791904D02*
X147479580Y-163839523D01*
X150114819Y-174208094D02*
X149114819Y-174208094D01*
X149114819Y-174208094D02*
X149114819Y-173827142D01*
X149114819Y-173827142D02*
X149162438Y-173731904D01*
X149162438Y-173731904D02*
X149210057Y-173684285D01*
X149210057Y-173684285D02*
X149305295Y-173636666D01*
X149305295Y-173636666D02*
X149448152Y-173636666D01*
X149448152Y-173636666D02*
X149543390Y-173684285D01*
X149543390Y-173684285D02*
X149591009Y-173731904D01*
X149591009Y-173731904D02*
X149638628Y-173827142D01*
X149638628Y-173827142D02*
X149638628Y-174208094D01*
X149114819Y-173303332D02*
X149114819Y-172636666D01*
X149114819Y-172636666D02*
X150114819Y-173065237D01*
X150114819Y-165744285D02*
X149114819Y-165744285D01*
X149114819Y-165744285D02*
X149114819Y-165363333D01*
X149114819Y-165363333D02*
X149162438Y-165268095D01*
X149162438Y-165268095D02*
X149210057Y-165220476D01*
X149210057Y-165220476D02*
X149305295Y-165172857D01*
X149305295Y-165172857D02*
X149448152Y-165172857D01*
X149448152Y-165172857D02*
X149543390Y-165220476D01*
X149543390Y-165220476D02*
X149591009Y-165268095D01*
X149591009Y-165268095D02*
X149638628Y-165363333D01*
X149638628Y-165363333D02*
X149638628Y-165744285D01*
X150114819Y-164220476D02*
X150114819Y-164791904D01*
X150114819Y-164506190D02*
X149114819Y-164506190D01*
X149114819Y-164506190D02*
X149257676Y-164601428D01*
X149257676Y-164601428D02*
X149352914Y-164696666D01*
X149352914Y-164696666D02*
X149400533Y-164791904D01*
X149448152Y-163363333D02*
X150114819Y-163363333D01*
X149067200Y-163601428D02*
X149781485Y-163839523D01*
X149781485Y-163839523D02*
X149781485Y-163220476D01*
X152654819Y-174208094D02*
X151654819Y-174208094D01*
X151654819Y-174208094D02*
X151654819Y-173827142D01*
X151654819Y-173827142D02*
X151702438Y-173731904D01*
X151702438Y-173731904D02*
X151750057Y-173684285D01*
X151750057Y-173684285D02*
X151845295Y-173636666D01*
X151845295Y-173636666D02*
X151988152Y-173636666D01*
X151988152Y-173636666D02*
X152083390Y-173684285D01*
X152083390Y-173684285D02*
X152131009Y-173731904D01*
X152131009Y-173731904D02*
X152178628Y-173827142D01*
X152178628Y-173827142D02*
X152178628Y-174208094D01*
X152083390Y-173065237D02*
X152035771Y-173160475D01*
X152035771Y-173160475D02*
X151988152Y-173208094D01*
X151988152Y-173208094D02*
X151892914Y-173255713D01*
X151892914Y-173255713D02*
X151845295Y-173255713D01*
X151845295Y-173255713D02*
X151750057Y-173208094D01*
X151750057Y-173208094D02*
X151702438Y-173160475D01*
X151702438Y-173160475D02*
X151654819Y-173065237D01*
X151654819Y-173065237D02*
X151654819Y-172874761D01*
X151654819Y-172874761D02*
X151702438Y-172779523D01*
X151702438Y-172779523D02*
X151750057Y-172731904D01*
X151750057Y-172731904D02*
X151845295Y-172684285D01*
X151845295Y-172684285D02*
X151892914Y-172684285D01*
X151892914Y-172684285D02*
X151988152Y-172731904D01*
X151988152Y-172731904D02*
X152035771Y-172779523D01*
X152035771Y-172779523D02*
X152083390Y-172874761D01*
X152083390Y-172874761D02*
X152083390Y-173065237D01*
X152083390Y-173065237D02*
X152131009Y-173160475D01*
X152131009Y-173160475D02*
X152178628Y-173208094D01*
X152178628Y-173208094D02*
X152273866Y-173255713D01*
X152273866Y-173255713D02*
X152464342Y-173255713D01*
X152464342Y-173255713D02*
X152559580Y-173208094D01*
X152559580Y-173208094D02*
X152607200Y-173160475D01*
X152607200Y-173160475D02*
X152654819Y-173065237D01*
X152654819Y-173065237D02*
X152654819Y-172874761D01*
X152654819Y-172874761D02*
X152607200Y-172779523D01*
X152607200Y-172779523D02*
X152559580Y-172731904D01*
X152559580Y-172731904D02*
X152464342Y-172684285D01*
X152464342Y-172684285D02*
X152273866Y-172684285D01*
X152273866Y-172684285D02*
X152178628Y-172731904D01*
X152178628Y-172731904D02*
X152131009Y-172779523D01*
X152131009Y-172779523D02*
X152083390Y-172874761D01*
X152654819Y-165744285D02*
X151654819Y-165744285D01*
X151654819Y-165744285D02*
X151654819Y-165363333D01*
X151654819Y-165363333D02*
X151702438Y-165268095D01*
X151702438Y-165268095D02*
X151750057Y-165220476D01*
X151750057Y-165220476D02*
X151845295Y-165172857D01*
X151845295Y-165172857D02*
X151988152Y-165172857D01*
X151988152Y-165172857D02*
X152083390Y-165220476D01*
X152083390Y-165220476D02*
X152131009Y-165268095D01*
X152131009Y-165268095D02*
X152178628Y-165363333D01*
X152178628Y-165363333D02*
X152178628Y-165744285D01*
X152654819Y-164220476D02*
X152654819Y-164791904D01*
X152654819Y-164506190D02*
X151654819Y-164506190D01*
X151654819Y-164506190D02*
X151797676Y-164601428D01*
X151797676Y-164601428D02*
X151892914Y-164696666D01*
X151892914Y-164696666D02*
X151940533Y-164791904D01*
X151654819Y-163363333D02*
X151654819Y-163553809D01*
X151654819Y-163553809D02*
X151702438Y-163649047D01*
X151702438Y-163649047D02*
X151750057Y-163696666D01*
X151750057Y-163696666D02*
X151892914Y-163791904D01*
X151892914Y-163791904D02*
X152083390Y-163839523D01*
X152083390Y-163839523D02*
X152464342Y-163839523D01*
X152464342Y-163839523D02*
X152559580Y-163791904D01*
X152559580Y-163791904D02*
X152607200Y-163744285D01*
X152607200Y-163744285D02*
X152654819Y-163649047D01*
X152654819Y-163649047D02*
X152654819Y-163458571D01*
X152654819Y-163458571D02*
X152607200Y-163363333D01*
X152607200Y-163363333D02*
X152559580Y-163315714D01*
X152559580Y-163315714D02*
X152464342Y-163268095D01*
X152464342Y-163268095D02*
X152226247Y-163268095D01*
X152226247Y-163268095D02*
X152131009Y-163315714D01*
X152131009Y-163315714D02*
X152083390Y-163363333D01*
X152083390Y-163363333D02*
X152035771Y-163458571D01*
X152035771Y-163458571D02*
X152035771Y-163649047D01*
X152035771Y-163649047D02*
X152083390Y-163744285D01*
X152083390Y-163744285D02*
X152131009Y-163791904D01*
X152131009Y-163791904D02*
X152226247Y-163839523D01*
X155194819Y-174208094D02*
X154194819Y-174208094D01*
X154194819Y-174208094D02*
X154194819Y-173827142D01*
X154194819Y-173827142D02*
X154242438Y-173731904D01*
X154242438Y-173731904D02*
X154290057Y-173684285D01*
X154290057Y-173684285D02*
X154385295Y-173636666D01*
X154385295Y-173636666D02*
X154528152Y-173636666D01*
X154528152Y-173636666D02*
X154623390Y-173684285D01*
X154623390Y-173684285D02*
X154671009Y-173731904D01*
X154671009Y-173731904D02*
X154718628Y-173827142D01*
X154718628Y-173827142D02*
X154718628Y-174208094D01*
X155194819Y-173160475D02*
X155194819Y-172969999D01*
X155194819Y-172969999D02*
X155147200Y-172874761D01*
X155147200Y-172874761D02*
X155099580Y-172827142D01*
X155099580Y-172827142D02*
X154956723Y-172731904D01*
X154956723Y-172731904D02*
X154766247Y-172684285D01*
X154766247Y-172684285D02*
X154385295Y-172684285D01*
X154385295Y-172684285D02*
X154290057Y-172731904D01*
X154290057Y-172731904D02*
X154242438Y-172779523D01*
X154242438Y-172779523D02*
X154194819Y-172874761D01*
X154194819Y-172874761D02*
X154194819Y-173065237D01*
X154194819Y-173065237D02*
X154242438Y-173160475D01*
X154242438Y-173160475D02*
X154290057Y-173208094D01*
X154290057Y-173208094D02*
X154385295Y-173255713D01*
X154385295Y-173255713D02*
X154623390Y-173255713D01*
X154623390Y-173255713D02*
X154718628Y-173208094D01*
X154718628Y-173208094D02*
X154766247Y-173160475D01*
X154766247Y-173160475D02*
X154813866Y-173065237D01*
X154813866Y-173065237D02*
X154813866Y-172874761D01*
X154813866Y-172874761D02*
X154766247Y-172779523D01*
X154766247Y-172779523D02*
X154718628Y-172731904D01*
X154718628Y-172731904D02*
X154623390Y-172684285D01*
X155194819Y-165744285D02*
X154194819Y-165744285D01*
X154194819Y-165744285D02*
X154194819Y-165363333D01*
X154194819Y-165363333D02*
X154242438Y-165268095D01*
X154242438Y-165268095D02*
X154290057Y-165220476D01*
X154290057Y-165220476D02*
X154385295Y-165172857D01*
X154385295Y-165172857D02*
X154528152Y-165172857D01*
X154528152Y-165172857D02*
X154623390Y-165220476D01*
X154623390Y-165220476D02*
X154671009Y-165268095D01*
X154671009Y-165268095D02*
X154718628Y-165363333D01*
X154718628Y-165363333D02*
X154718628Y-165744285D01*
X155194819Y-164220476D02*
X155194819Y-164791904D01*
X155194819Y-164506190D02*
X154194819Y-164506190D01*
X154194819Y-164506190D02*
X154337676Y-164601428D01*
X154337676Y-164601428D02*
X154432914Y-164696666D01*
X154432914Y-164696666D02*
X154480533Y-164791904D01*
X154194819Y-163601428D02*
X154194819Y-163506190D01*
X154194819Y-163506190D02*
X154242438Y-163410952D01*
X154242438Y-163410952D02*
X154290057Y-163363333D01*
X154290057Y-163363333D02*
X154385295Y-163315714D01*
X154385295Y-163315714D02*
X154575771Y-163268095D01*
X154575771Y-163268095D02*
X154813866Y-163268095D01*
X154813866Y-163268095D02*
X155004342Y-163315714D01*
X155004342Y-163315714D02*
X155099580Y-163363333D01*
X155099580Y-163363333D02*
X155147200Y-163410952D01*
X155147200Y-163410952D02*
X155194819Y-163506190D01*
X155194819Y-163506190D02*
X155194819Y-163601428D01*
X155194819Y-163601428D02*
X155147200Y-163696666D01*
X155147200Y-163696666D02*
X155099580Y-163744285D01*
X155099580Y-163744285D02*
X155004342Y-163791904D01*
X155004342Y-163791904D02*
X154813866Y-163839523D01*
X154813866Y-163839523D02*
X154575771Y-163839523D01*
X154575771Y-163839523D02*
X154385295Y-163791904D01*
X154385295Y-163791904D02*
X154290057Y-163744285D01*
X154290057Y-163744285D02*
X154242438Y-163696666D01*
X154242438Y-163696666D02*
X154194819Y-163601428D01*
D11*
%TO.C,S1*%
X128780000Y-146230000D02*
X130000000Y-147480000D01*
X130000000Y-147480000D02*
X131880000Y-147480000D01*
%TO.C,S2*%
X128780000Y-127230000D02*
X130000000Y-128480000D01*
X130000000Y-128480000D02*
X131880000Y-128480000D01*
%TO.C,S3*%
X128780000Y-108230000D02*
X130000000Y-109480000D01*
X130000000Y-109480000D02*
X131880000Y-109480000D01*
%TO.C,S4*%
X147780000Y-146230000D02*
X149000000Y-147480000D01*
X149000000Y-147480000D02*
X150880000Y-147480000D01*
%TO.C,S5*%
X147780000Y-127230000D02*
X149000000Y-128480000D01*
X149000000Y-128480000D02*
X150880000Y-128480000D01*
%TO.C,S6*%
X147780000Y-108230000D02*
X149000000Y-109480000D01*
X149000000Y-109480000D02*
X150880000Y-109480000D01*
%TO.C,S7*%
X166780000Y-146230000D02*
X168000000Y-147480000D01*
X168000000Y-147480000D02*
X169880000Y-147480000D01*
%TO.C,S8*%
X166780000Y-127230000D02*
X168000000Y-128480000D01*
X168000000Y-128480000D02*
X169880000Y-128480000D01*
%TO.C,S9*%
X166780000Y-108230000D02*
X168000000Y-109480000D01*
X168000000Y-109480000D02*
X169880000Y-109480000D01*
%TO.C,S10*%
X185780000Y-146230000D02*
X187000000Y-147480000D01*
X187000000Y-147480000D02*
X188880000Y-147480000D01*
%TO.C,S11*%
X185780000Y-127230000D02*
X187000000Y-128480000D01*
X187000000Y-128480000D02*
X188880000Y-128480000D01*
%TO.C,S12*%
X185780000Y-108230000D02*
X187000000Y-109480000D01*
X187000000Y-109480000D02*
X188880000Y-109480000D01*
%TO.C,S13*%
X204780000Y-146230000D02*
X206000000Y-147480000D01*
X206000000Y-147480000D02*
X207880000Y-147480000D01*
%TO.C,S14*%
X204780000Y-127230000D02*
X206000000Y-128480000D01*
X206000000Y-128480000D02*
X207880000Y-128480000D01*
%TO.C,S15*%
X204780000Y-108230000D02*
X206000000Y-109480000D01*
X206000000Y-109480000D02*
X207880000Y-109480000D01*
%TO.C,S16*%
X185780000Y-165230000D02*
X187000000Y-166480000D01*
X187000000Y-166480000D02*
X188880000Y-166480000D01*
%TO.C,S17*%
X204780000Y-165230000D02*
X206000000Y-166480000D01*
X206000000Y-166480000D02*
X207880000Y-166480000D01*
%TO.C,S18*%
X223780000Y-165230000D02*
X225000000Y-166480000D01*
X225000000Y-166480000D02*
X226880000Y-166480000D01*
%TO.C,D1*%
X130250000Y-159000000D02*
X130750000Y-159000000D01*
X130250000Y-159400000D02*
X129650000Y-159000000D01*
X130250000Y-158600000D02*
X130250000Y-159400000D01*
X129650000Y-159000000D02*
X130250000Y-158600000D01*
X129650000Y-159000000D02*
X129650000Y-159550000D01*
X129650000Y-159000000D02*
X129650000Y-158450000D01*
X129250000Y-159000000D02*
X129650000Y-159000000D01*
%TO.C,D2*%
X130250000Y-140000000D02*
X130750000Y-140000000D01*
X130250000Y-140400000D02*
X129650000Y-140000000D01*
X130250000Y-139600000D02*
X130250000Y-140400000D01*
X129650000Y-140000000D02*
X130250000Y-139600000D01*
X129650000Y-140000000D02*
X129650000Y-140550000D01*
X129650000Y-140000000D02*
X129650000Y-139450000D01*
X129250000Y-140000000D02*
X129650000Y-140000000D01*
%TO.C,D3*%
X130250000Y-121000000D02*
X130750000Y-121000000D01*
X130250000Y-121400000D02*
X129650000Y-121000000D01*
X130250000Y-120600000D02*
X130250000Y-121400000D01*
X129650000Y-121000000D02*
X130250000Y-120600000D01*
X129650000Y-121000000D02*
X129650000Y-121550000D01*
X129650000Y-121000000D02*
X129650000Y-120450000D01*
X129250000Y-121000000D02*
X129650000Y-121000000D01*
%TO.C,D4*%
X149250000Y-159000000D02*
X149750000Y-159000000D01*
X149250000Y-159400000D02*
X148650000Y-159000000D01*
X149250000Y-158600000D02*
X149250000Y-159400000D01*
X148650000Y-159000000D02*
X149250000Y-158600000D01*
X148650000Y-159000000D02*
X148650000Y-159550000D01*
X148650000Y-159000000D02*
X148650000Y-158450000D01*
X148250000Y-159000000D02*
X148650000Y-159000000D01*
%TO.C,D5*%
X149250000Y-140000000D02*
X149750000Y-140000000D01*
X149250000Y-140400000D02*
X148650000Y-140000000D01*
X149250000Y-139600000D02*
X149250000Y-140400000D01*
X148650000Y-140000000D02*
X149250000Y-139600000D01*
X148650000Y-140000000D02*
X148650000Y-140550000D01*
X148650000Y-140000000D02*
X148650000Y-139450000D01*
X148250000Y-140000000D02*
X148650000Y-140000000D01*
%TO.C,D6*%
X149250000Y-121000000D02*
X149750000Y-121000000D01*
X149250000Y-121400000D02*
X148650000Y-121000000D01*
X149250000Y-120600000D02*
X149250000Y-121400000D01*
X148650000Y-121000000D02*
X149250000Y-120600000D01*
X148650000Y-121000000D02*
X148650000Y-121550000D01*
X148650000Y-121000000D02*
X148650000Y-120450000D01*
X148250000Y-121000000D02*
X148650000Y-121000000D01*
%TO.C,D7*%
X168250000Y-159000000D02*
X168750000Y-159000000D01*
X168250000Y-159400000D02*
X167650000Y-159000000D01*
X168250000Y-158600000D02*
X168250000Y-159400000D01*
X167650000Y-159000000D02*
X168250000Y-158600000D01*
X167650000Y-159000000D02*
X167650000Y-159550000D01*
X167650000Y-159000000D02*
X167650000Y-158450000D01*
X167250000Y-159000000D02*
X167650000Y-159000000D01*
%TO.C,D8*%
X168250000Y-140000000D02*
X168750000Y-140000000D01*
X168250000Y-140400000D02*
X167650000Y-140000000D01*
X168250000Y-139600000D02*
X168250000Y-140400000D01*
X167650000Y-140000000D02*
X168250000Y-139600000D01*
X167650000Y-140000000D02*
X167650000Y-140550000D01*
X167650000Y-140000000D02*
X167650000Y-139450000D01*
X167250000Y-140000000D02*
X167650000Y-140000000D01*
%TO.C,D9*%
X168250000Y-121000000D02*
X168750000Y-121000000D01*
X168250000Y-121400000D02*
X167650000Y-121000000D01*
X168250000Y-120600000D02*
X168250000Y-121400000D01*
X167650000Y-121000000D02*
X168250000Y-120600000D01*
X167650000Y-121000000D02*
X167650000Y-121550000D01*
X167650000Y-121000000D02*
X167650000Y-120450000D01*
X167250000Y-121000000D02*
X167650000Y-121000000D01*
%TO.C,D10*%
X187250000Y-159000000D02*
X187750000Y-159000000D01*
X187250000Y-159400000D02*
X186650000Y-159000000D01*
X187250000Y-158600000D02*
X187250000Y-159400000D01*
X186650000Y-159000000D02*
X187250000Y-158600000D01*
X186650000Y-159000000D02*
X186650000Y-159550000D01*
X186650000Y-159000000D02*
X186650000Y-158450000D01*
X186250000Y-159000000D02*
X186650000Y-159000000D01*
%TO.C,D11*%
X187250000Y-140000000D02*
X187750000Y-140000000D01*
X187250000Y-140400000D02*
X186650000Y-140000000D01*
X187250000Y-139600000D02*
X187250000Y-140400000D01*
X186650000Y-140000000D02*
X187250000Y-139600000D01*
X186650000Y-140000000D02*
X186650000Y-140550000D01*
X186650000Y-140000000D02*
X186650000Y-139450000D01*
X186250000Y-140000000D02*
X186650000Y-140000000D01*
%TO.C,D12*%
X187250000Y-121000000D02*
X187750000Y-121000000D01*
X187250000Y-121400000D02*
X186650000Y-121000000D01*
X187250000Y-120600000D02*
X187250000Y-121400000D01*
X186650000Y-121000000D02*
X187250000Y-120600000D01*
X186650000Y-121000000D02*
X186650000Y-121550000D01*
X186650000Y-121000000D02*
X186650000Y-120450000D01*
X186250000Y-121000000D02*
X186650000Y-121000000D01*
%TO.C,D13*%
X206250000Y-159000000D02*
X206750000Y-159000000D01*
X206250000Y-159400000D02*
X205650000Y-159000000D01*
X206250000Y-158600000D02*
X206250000Y-159400000D01*
X205650000Y-159000000D02*
X206250000Y-158600000D01*
X205650000Y-159000000D02*
X205650000Y-159550000D01*
X205650000Y-159000000D02*
X205650000Y-158450000D01*
X205250000Y-159000000D02*
X205650000Y-159000000D01*
%TO.C,D14*%
X206250000Y-140000000D02*
X206750000Y-140000000D01*
X206250000Y-140400000D02*
X205650000Y-140000000D01*
X206250000Y-139600000D02*
X206250000Y-140400000D01*
X205650000Y-140000000D02*
X206250000Y-139600000D01*
X205650000Y-140000000D02*
X205650000Y-140550000D01*
X205650000Y-140000000D02*
X205650000Y-139450000D01*
X205250000Y-140000000D02*
X205650000Y-140000000D01*
%TO.C,D15*%
X206250000Y-121000000D02*
X206750000Y-121000000D01*
X206250000Y-121400000D02*
X205650000Y-121000000D01*
X206250000Y-120600000D02*
X206250000Y-121400000D01*
X205650000Y-121000000D02*
X206250000Y-120600000D01*
X205650000Y-121000000D02*
X205650000Y-121550000D01*
X205650000Y-121000000D02*
X205650000Y-120450000D01*
X205250000Y-121000000D02*
X205650000Y-121000000D01*
%TO.C,D16*%
X187250000Y-178000000D02*
X187750000Y-178000000D01*
X187250000Y-178400000D02*
X186650000Y-178000000D01*
X187250000Y-177600000D02*
X187250000Y-178400000D01*
X186650000Y-178000000D02*
X187250000Y-177600000D01*
X186650000Y-178000000D02*
X186650000Y-178550000D01*
X186650000Y-178000000D02*
X186650000Y-177450000D01*
X186250000Y-178000000D02*
X186650000Y-178000000D01*
%TO.C,D17*%
X206250000Y-178000000D02*
X206750000Y-178000000D01*
X206250000Y-178400000D02*
X205650000Y-178000000D01*
X206250000Y-177600000D02*
X206250000Y-178400000D01*
X205650000Y-178000000D02*
X206250000Y-177600000D01*
X205650000Y-178000000D02*
X205650000Y-178550000D01*
X205650000Y-178000000D02*
X205650000Y-177450000D01*
X205250000Y-178000000D02*
X205650000Y-178000000D01*
%TO.C,D18*%
X225250000Y-178000000D02*
X225750000Y-178000000D01*
X225250000Y-178400000D02*
X224650000Y-178000000D01*
X225250000Y-177600000D02*
X225250000Y-178400000D01*
X224650000Y-178000000D02*
X225250000Y-177600000D01*
X224650000Y-178000000D02*
X224650000Y-178550000D01*
X224650000Y-178000000D02*
X224650000Y-177450000D01*
X224250000Y-178000000D02*
X224650000Y-178000000D01*
D12*
%TO.C,MCU1*%
X125470000Y-162710000D02*
X125470000Y-160050000D01*
X125470000Y-162710000D02*
X156070000Y-162710000D01*
X156070000Y-162710000D02*
X156070000Y-160050000D01*
X125470000Y-175290000D02*
X156070000Y-175290000D01*
X125470000Y-160050000D02*
X156070000Y-160050000D01*
X125470000Y-177950000D02*
X125470000Y-175290000D01*
X125470000Y-177950000D02*
X156070000Y-177950000D01*
X156070000Y-177950000D02*
X156070000Y-175290000D01*
X128070000Y-175290000D02*
X128070000Y-177950000D01*
%TD*%
M02*
