%TF.GenerationSoftware,KiCad,Pcbnew,8.0.9-rc1*%
%TF.CreationDate,2026-07-19T00:27:18-06:00*%
%TF.ProjectId,test (1),74657374-2028-4312-992e-6b696361645f,v1.0.0*%
%TF.SameCoordinates,Original*%
%TF.FileFunction,Legend,Bot*%
%TF.FilePolarity,Positive*%
%FSLAX46Y46*%
G04 Gerber Fmt 4.6, Leading zero omitted, Abs format (unit mm)*
G04 Created by KiCad (PCBNEW 8.0.9-rc1) date 2026-07-19 00:27:18*
%MOMM*%
%LPD*%
G01*
G04 APERTURE LIST*
%ADD10C,0.100000*%
G04 APERTURE END LIST*
D10*
%TO.C,S1*%
X131220000Y-146230000D02*
X130000000Y-147480000D01*
X130000000Y-147480000D02*
X128120000Y-147480000D01*
%TO.C,S2*%
X131220000Y-127230000D02*
X130000000Y-128480000D01*
X130000000Y-128480000D02*
X128120000Y-128480000D01*
%TO.C,S3*%
X131220000Y-108230000D02*
X130000000Y-109480000D01*
X130000000Y-109480000D02*
X128120000Y-109480000D01*
%TO.C,S4*%
X150220000Y-146230000D02*
X149000000Y-147480000D01*
X149000000Y-147480000D02*
X147120000Y-147480000D01*
%TO.C,S5*%
X150220000Y-127230000D02*
X149000000Y-128480000D01*
X149000000Y-128480000D02*
X147120000Y-128480000D01*
%TO.C,S6*%
X150220000Y-108230000D02*
X149000000Y-109480000D01*
X149000000Y-109480000D02*
X147120000Y-109480000D01*
%TO.C,S7*%
X169220000Y-146230000D02*
X168000000Y-147480000D01*
X168000000Y-147480000D02*
X166120000Y-147480000D01*
%TO.C,S8*%
X169220000Y-127230000D02*
X168000000Y-128480000D01*
X168000000Y-128480000D02*
X166120000Y-128480000D01*
%TO.C,S9*%
X169220000Y-108230000D02*
X168000000Y-109480000D01*
X168000000Y-109480000D02*
X166120000Y-109480000D01*
%TO.C,S10*%
X188220000Y-146230000D02*
X187000000Y-147480000D01*
X187000000Y-147480000D02*
X185120000Y-147480000D01*
%TO.C,S11*%
X188220000Y-127230000D02*
X187000000Y-128480000D01*
X187000000Y-128480000D02*
X185120000Y-128480000D01*
%TO.C,S12*%
X188220000Y-108230000D02*
X187000000Y-109480000D01*
X187000000Y-109480000D02*
X185120000Y-109480000D01*
%TO.C,S13*%
X207220000Y-146230000D02*
X206000000Y-147480000D01*
X206000000Y-147480000D02*
X204120000Y-147480000D01*
%TO.C,S14*%
X207220000Y-127230000D02*
X206000000Y-128480000D01*
X206000000Y-128480000D02*
X204120000Y-128480000D01*
%TO.C,S15*%
X207220000Y-108230000D02*
X206000000Y-109480000D01*
X206000000Y-109480000D02*
X204120000Y-109480000D01*
%TO.C,S16*%
X188220000Y-165230000D02*
X187000000Y-166480000D01*
X187000000Y-166480000D02*
X185120000Y-166480000D01*
%TO.C,S17*%
X207220000Y-165230000D02*
X206000000Y-166480000D01*
X206000000Y-166480000D02*
X204120000Y-166480000D01*
%TO.C,S18*%
X226220000Y-165230000D02*
X225000000Y-166480000D01*
X225000000Y-166480000D02*
X223120000Y-166480000D01*
%TO.C,D1*%
X130250000Y-159000000D02*
X130750000Y-159000000D01*
X130250000Y-159400000D02*
X129650000Y-159000000D01*
X130250000Y-158600000D02*
X130250000Y-159400000D01*
X129650000Y-159000000D02*
X130250000Y-158600000D01*
X129650000Y-159000000D02*
X129650000Y-159550000D01*
X129650000Y-159000000D02*
X129650000Y-158450000D01*
X129250000Y-159000000D02*
X129650000Y-159000000D01*
%TO.C,D2*%
X130250000Y-140000000D02*
X130750000Y-140000000D01*
X130250000Y-140400000D02*
X129650000Y-140000000D01*
X130250000Y-139600000D02*
X130250000Y-140400000D01*
X129650000Y-140000000D02*
X130250000Y-139600000D01*
X129650000Y-140000000D02*
X129650000Y-140550000D01*
X129650000Y-140000000D02*
X129650000Y-139450000D01*
X129250000Y-140000000D02*
X129650000Y-140000000D01*
%TO.C,D3*%
X130250000Y-121000000D02*
X130750000Y-121000000D01*
X130250000Y-121400000D02*
X129650000Y-121000000D01*
X130250000Y-120600000D02*
X130250000Y-121400000D01*
X129650000Y-121000000D02*
X130250000Y-120600000D01*
X129650000Y-121000000D02*
X129650000Y-121550000D01*
X129650000Y-121000000D02*
X129650000Y-120450000D01*
X129250000Y-121000000D02*
X129650000Y-121000000D01*
%TO.C,D4*%
X149250000Y-159000000D02*
X149750000Y-159000000D01*
X149250000Y-159400000D02*
X148650000Y-159000000D01*
X149250000Y-158600000D02*
X149250000Y-159400000D01*
X148650000Y-159000000D02*
X149250000Y-158600000D01*
X148650000Y-159000000D02*
X148650000Y-159550000D01*
X148650000Y-159000000D02*
X148650000Y-158450000D01*
X148250000Y-159000000D02*
X148650000Y-159000000D01*
%TO.C,D5*%
X149250000Y-140000000D02*
X149750000Y-140000000D01*
X149250000Y-140400000D02*
X148650000Y-140000000D01*
X149250000Y-139600000D02*
X149250000Y-140400000D01*
X148650000Y-140000000D02*
X149250000Y-139600000D01*
X148650000Y-140000000D02*
X148650000Y-140550000D01*
X148650000Y-140000000D02*
X148650000Y-139450000D01*
X148250000Y-140000000D02*
X148650000Y-140000000D01*
%TO.C,D6*%
X149250000Y-121000000D02*
X149750000Y-121000000D01*
X149250000Y-121400000D02*
X148650000Y-121000000D01*
X149250000Y-120600000D02*
X149250000Y-121400000D01*
X148650000Y-121000000D02*
X149250000Y-120600000D01*
X148650000Y-121000000D02*
X148650000Y-121550000D01*
X148650000Y-121000000D02*
X148650000Y-120450000D01*
X148250000Y-121000000D02*
X148650000Y-121000000D01*
%TO.C,D7*%
X168250000Y-159000000D02*
X168750000Y-159000000D01*
X168250000Y-159400000D02*
X167650000Y-159000000D01*
X168250000Y-158600000D02*
X168250000Y-159400000D01*
X167650000Y-159000000D02*
X168250000Y-158600000D01*
X167650000Y-159000000D02*
X167650000Y-159550000D01*
X167650000Y-159000000D02*
X167650000Y-158450000D01*
X167250000Y-159000000D02*
X167650000Y-159000000D01*
%TO.C,D8*%
X168250000Y-140000000D02*
X168750000Y-140000000D01*
X168250000Y-140400000D02*
X167650000Y-140000000D01*
X168250000Y-139600000D02*
X168250000Y-140400000D01*
X167650000Y-140000000D02*
X168250000Y-139600000D01*
X167650000Y-140000000D02*
X167650000Y-140550000D01*
X167650000Y-140000000D02*
X167650000Y-139450000D01*
X167250000Y-140000000D02*
X167650000Y-140000000D01*
%TO.C,D9*%
X168250000Y-121000000D02*
X168750000Y-121000000D01*
X168250000Y-121400000D02*
X167650000Y-121000000D01*
X168250000Y-120600000D02*
X168250000Y-121400000D01*
X167650000Y-121000000D02*
X168250000Y-120600000D01*
X167650000Y-121000000D02*
X167650000Y-121550000D01*
X167650000Y-121000000D02*
X167650000Y-120450000D01*
X167250000Y-121000000D02*
X167650000Y-121000000D01*
%TO.C,D10*%
X187250000Y-159000000D02*
X187750000Y-159000000D01*
X187250000Y-159400000D02*
X186650000Y-159000000D01*
X187250000Y-158600000D02*
X187250000Y-159400000D01*
X186650000Y-159000000D02*
X187250000Y-158600000D01*
X186650000Y-159000000D02*
X186650000Y-159550000D01*
X186650000Y-159000000D02*
X186650000Y-158450000D01*
X186250000Y-159000000D02*
X186650000Y-159000000D01*
%TO.C,D11*%
X187250000Y-140000000D02*
X187750000Y-140000000D01*
X187250000Y-140400000D02*
X186650000Y-140000000D01*
X187250000Y-139600000D02*
X187250000Y-140400000D01*
X186650000Y-140000000D02*
X187250000Y-139600000D01*
X186650000Y-140000000D02*
X186650000Y-140550000D01*
X186650000Y-140000000D02*
X186650000Y-139450000D01*
X186250000Y-140000000D02*
X186650000Y-140000000D01*
%TO.C,D12*%
X187250000Y-121000000D02*
X187750000Y-121000000D01*
X187250000Y-121400000D02*
X186650000Y-121000000D01*
X187250000Y-120600000D02*
X187250000Y-121400000D01*
X186650000Y-121000000D02*
X187250000Y-120600000D01*
X186650000Y-121000000D02*
X186650000Y-121550000D01*
X186650000Y-121000000D02*
X186650000Y-120450000D01*
X186250000Y-121000000D02*
X186650000Y-121000000D01*
%TO.C,D13*%
X206250000Y-159000000D02*
X206750000Y-159000000D01*
X206250000Y-159400000D02*
X205650000Y-159000000D01*
X206250000Y-158600000D02*
X206250000Y-159400000D01*
X205650000Y-159000000D02*
X206250000Y-158600000D01*
X205650000Y-159000000D02*
X205650000Y-159550000D01*
X205650000Y-159000000D02*
X205650000Y-158450000D01*
X205250000Y-159000000D02*
X205650000Y-159000000D01*
%TO.C,D14*%
X206250000Y-140000000D02*
X206750000Y-140000000D01*
X206250000Y-140400000D02*
X205650000Y-140000000D01*
X206250000Y-139600000D02*
X206250000Y-140400000D01*
X205650000Y-140000000D02*
X206250000Y-139600000D01*
X205650000Y-140000000D02*
X205650000Y-140550000D01*
X205650000Y-140000000D02*
X205650000Y-139450000D01*
X205250000Y-140000000D02*
X205650000Y-140000000D01*
%TO.C,D15*%
X206250000Y-121000000D02*
X206750000Y-121000000D01*
X206250000Y-121400000D02*
X205650000Y-121000000D01*
X206250000Y-120600000D02*
X206250000Y-121400000D01*
X205650000Y-121000000D02*
X206250000Y-120600000D01*
X205650000Y-121000000D02*
X205650000Y-121550000D01*
X205650000Y-121000000D02*
X205650000Y-120450000D01*
X205250000Y-121000000D02*
X205650000Y-121000000D01*
%TO.C,D16*%
X187250000Y-178000000D02*
X187750000Y-178000000D01*
X187250000Y-178400000D02*
X186650000Y-178000000D01*
X187250000Y-177600000D02*
X187250000Y-178400000D01*
X186650000Y-178000000D02*
X187250000Y-177600000D01*
X186650000Y-178000000D02*
X186650000Y-178550000D01*
X186650000Y-178000000D02*
X186650000Y-177450000D01*
X186250000Y-178000000D02*
X186650000Y-178000000D01*
%TO.C,D17*%
X206250000Y-178000000D02*
X206750000Y-178000000D01*
X206250000Y-178400000D02*
X205650000Y-178000000D01*
X206250000Y-177600000D02*
X206250000Y-178400000D01*
X205650000Y-178000000D02*
X206250000Y-177600000D01*
X205650000Y-178000000D02*
X205650000Y-178550000D01*
X205650000Y-178000000D02*
X205650000Y-177450000D01*
X205250000Y-178000000D02*
X205650000Y-178000000D01*
%TO.C,D18*%
X225250000Y-178000000D02*
X225750000Y-178000000D01*
X225250000Y-178400000D02*
X224650000Y-178000000D01*
X225250000Y-177600000D02*
X225250000Y-178400000D01*
X224650000Y-178000000D02*
X225250000Y-177600000D01*
X224650000Y-178000000D02*
X224650000Y-178550000D01*
X224650000Y-178000000D02*
X224650000Y-177450000D01*
X224250000Y-178000000D02*
X224650000Y-178000000D01*
%TD*%
M02*
