%TF.GenerationSoftware,KiCad,Pcbnew,8.0.9-rc1*%
%TF.CreationDate,2026-07-19T00:27:18-06:00*%
%TF.ProjectId,test (1),74657374-2028-4312-992e-6b696361645f,v1.0.0*%
%TF.SameCoordinates,Original*%
%TF.FileFunction,Copper,L2,Bot*%
%TF.FilePolarity,Positive*%
%FSLAX46Y46*%
G04 Gerber Fmt 4.6, Leading zero omitted, Abs format (unit mm)*
G04 Created by KiCad (PCBNEW 8.0.9-rc1) date 2026-07-19 00:27:18*
%MOMM*%
%LPD*%
G01*
G04 APERTURE LIST*
G04 Aperture macros list*
%AMOutline5P*
0 Free polygon, 5 corners , with rotation*
0 The origin of the aperture is its center*
0 number of corners: always 5*
0 $1 to $10 corner X, Y*
0 $11 Rotation angle, in degrees counterclockwise*
0 create outline with 5 corners*
4,1,5,$1,$2,$3,$4,$5,$6,$7,$8,$9,$10,$1,$2,$11*%
%AMOutline6P*
0 Free polygon, 6 corners , with rotation*
0 The origin of the aperture is its center*
0 number of corners: always 6*
0 $1 to $12 corner X, Y*
0 $13 Rotation angle, in degrees counterclockwise*
0 create outline with 6 corners*
4,1,6,$1,$2,$3,$4,$5,$6,$7,$8,$9,$10,$11,$12,$1,$2,$13*%
%AMOutline7P*
0 Free polygon, 7 corners , with rotation*
0 The origin of the aperture is its center*
0 number of corners: always 7*
0 $1 to $14 corner X, Y*
0 $15 Rotation angle, in degrees counterclockwise*
0 create outline with 7 corners*
4,1,7,$1,$2,$3,$4,$5,$6,$7,$8,$9,$10,$11,$12,$13,$14,$1,$2,$15*%
%AMOutline8P*
0 Free polygon, 8 corners , with rotation*
0 The origin of the aperture is its center*
0 number of corners: always 8*
0 $1 to $16 corner X, Y*
0 $17 Rotation angle, in degrees counterclockwise*
0 create outline with 8 corners*
4,1,8,$1,$2,$3,$4,$5,$6,$7,$8,$9,$10,$11,$12,$13,$14,$15,$16,$1,$2,$17*%
G04 Aperture macros list end*
%TA.AperFunction,SMDPad,CuDef*%
%ADD10R,2.550000X2.500000*%
%TD*%
%TA.AperFunction,SMDPad,CuDef*%
%ADD11Outline5P,-1.275000X1.250000X1.275000X1.250000X1.275000X-1.250000X-0.775000X-1.250000X-1.275000X-0.750000X0.000000*%
%TD*%
%TA.AperFunction,SMDPad,CuDef*%
%ADD12R,0.900000X1.200000*%
%TD*%
%TA.AperFunction,ComponentPad*%
%ADD13C,1.700000*%
%TD*%
%TA.AperFunction,ViaPad*%
%ADD14C,0.600000*%
%TD*%
%TA.AperFunction,Conductor*%
%ADD15C,0.200000*%
%TD*%
G04 APERTURE END LIST*
D10*
%TO.P,S1,1*%
%TO.N,N/C*%
X122915000Y-147460000D03*
D11*
%TO.P,S1,2*%
%TO.N,pinky_bottom*%
X135842000Y-144920000D03*
%TD*%
D10*
%TO.P,S2,1*%
%TO.N,N/C*%
X122915000Y-128460000D03*
D11*
%TO.P,S2,2*%
%TO.N,pinky_middle*%
X135842000Y-125920000D03*
%TD*%
D10*
%TO.P,S3,1*%
%TO.N,N/C*%
X122915000Y-109460000D03*
D11*
%TO.P,S3,2*%
%TO.N,pinky_top*%
X135842000Y-106920000D03*
%TD*%
D10*
%TO.P,S4,1*%
%TO.N,N/C*%
X141915000Y-147460000D03*
D11*
%TO.P,S4,2*%
%TO.N,ring_bottom*%
X154842000Y-144920000D03*
%TD*%
D10*
%TO.P,S5,1*%
%TO.N,N/C*%
X141915000Y-128460000D03*
D11*
%TO.P,S5,2*%
%TO.N,ring_middle*%
X154842000Y-125920000D03*
%TD*%
D10*
%TO.P,S6,1*%
%TO.N,N/C*%
X141915000Y-109460000D03*
D11*
%TO.P,S6,2*%
%TO.N,ring_top*%
X154842000Y-106920000D03*
%TD*%
D10*
%TO.P,S7,1*%
%TO.N,N/C*%
X160915000Y-147460000D03*
D11*
%TO.P,S7,2*%
%TO.N,middle_bottom*%
X173842000Y-144920000D03*
%TD*%
D10*
%TO.P,S8,1*%
%TO.N,N/C*%
X160915000Y-128460000D03*
D11*
%TO.P,S8,2*%
%TO.N,middle_middle*%
X173842000Y-125920000D03*
%TD*%
D10*
%TO.P,S9,1*%
%TO.N,N/C*%
X160915000Y-109460000D03*
D11*
%TO.P,S9,2*%
%TO.N,middle_top*%
X173842000Y-106920000D03*
%TD*%
D10*
%TO.P,S10,1*%
%TO.N,N/C*%
X179915000Y-147460000D03*
D11*
%TO.P,S10,2*%
%TO.N,index_bottom*%
X192842000Y-144920000D03*
%TD*%
D10*
%TO.P,S11,1*%
%TO.N,N/C*%
X179915000Y-128460000D03*
D11*
%TO.P,S11,2*%
%TO.N,index_middle*%
X192842000Y-125920000D03*
%TD*%
D10*
%TO.P,S12,1*%
%TO.N,N/C*%
X179915000Y-109460000D03*
D11*
%TO.P,S12,2*%
%TO.N,index_top*%
X192842000Y-106920000D03*
%TD*%
D10*
%TO.P,S13,1*%
%TO.N,N/C*%
X198915000Y-147460000D03*
D11*
%TO.P,S13,2*%
%TO.N,inner_bottom*%
X211842000Y-144920000D03*
%TD*%
D10*
%TO.P,S14,1*%
%TO.N,N/C*%
X198915000Y-128460000D03*
D11*
%TO.P,S14,2*%
%TO.N,inner_middle*%
X211842000Y-125920000D03*
%TD*%
D10*
%TO.P,S15,1*%
%TO.N,N/C*%
X198915000Y-109460000D03*
D11*
%TO.P,S15,2*%
%TO.N,inner_top*%
X211842000Y-106920000D03*
%TD*%
D10*
%TO.P,S16,1*%
%TO.N,N/C*%
X179915000Y-166460000D03*
D11*
%TO.P,S16,2*%
%TO.N,tuck_thumb*%
X192842000Y-163920000D03*
%TD*%
D10*
%TO.P,S17,1*%
%TO.N,N/C*%
X198915000Y-166460000D03*
D11*
%TO.P,S17,2*%
%TO.N,middle_thumb*%
X211842000Y-163920000D03*
%TD*%
D10*
%TO.P,S18,1*%
%TO.N,N/C*%
X217915000Y-166460000D03*
D11*
%TO.P,S18,2*%
%TO.N,outer_thumb*%
X230842000Y-163920000D03*
%TD*%
D12*
%TO.P,D1,1*%
%TO.N,N/C*%
X128350000Y-159000000D03*
%TO.P,D1,2*%
%TO.N,pinky_bottom*%
X131650000Y-159000000D03*
%TD*%
%TO.P,D2,1*%
%TO.N,N/C*%
X128350000Y-140000000D03*
%TO.P,D2,2*%
%TO.N,pinky_middle*%
X131650000Y-140000000D03*
%TD*%
%TO.P,D3,1*%
%TO.N,N/C*%
X128350000Y-121000000D03*
%TO.P,D3,2*%
%TO.N,pinky_top*%
X131650000Y-121000000D03*
%TD*%
%TO.P,D4,1*%
%TO.N,N/C*%
X147350000Y-159000000D03*
%TO.P,D4,2*%
%TO.N,ring_bottom*%
X150650000Y-159000000D03*
%TD*%
%TO.P,D5,1*%
%TO.N,N/C*%
X147350000Y-140000000D03*
%TO.P,D5,2*%
%TO.N,ring_middle*%
X150650000Y-140000000D03*
%TD*%
%TO.P,D6,1*%
%TO.N,N/C*%
X147350000Y-121000000D03*
%TO.P,D6,2*%
%TO.N,ring_top*%
X150650000Y-121000000D03*
%TD*%
%TO.P,D7,1*%
%TO.N,N/C*%
X166350000Y-159000000D03*
%TO.P,D7,2*%
%TO.N,middle_bottom*%
X169650000Y-159000000D03*
%TD*%
%TO.P,D8,1*%
%TO.N,N/C*%
X166350000Y-140000000D03*
%TO.P,D8,2*%
%TO.N,middle_middle*%
X169650000Y-140000000D03*
%TD*%
%TO.P,D9,1*%
%TO.N,N/C*%
X166350000Y-121000000D03*
%TO.P,D9,2*%
%TO.N,middle_top*%
X169650000Y-121000000D03*
%TD*%
%TO.P,D10,1*%
%TO.N,N/C*%
X185350000Y-159000000D03*
%TO.P,D10,2*%
%TO.N,index_bottom*%
X188650000Y-159000000D03*
%TD*%
%TO.P,D11,1*%
%TO.N,N/C*%
X185350000Y-140000000D03*
%TO.P,D11,2*%
%TO.N,index_middle*%
X188650000Y-140000000D03*
%TD*%
%TO.P,D12,1*%
%TO.N,N/C*%
X185350000Y-121000000D03*
%TO.P,D12,2*%
%TO.N,index_top*%
X188650000Y-121000000D03*
%TD*%
%TO.P,D13,1*%
%TO.N,N/C*%
X204350000Y-159000000D03*
%TO.P,D13,2*%
%TO.N,inner_bottom*%
X207650000Y-159000000D03*
%TD*%
%TO.P,D14,1*%
%TO.N,N/C*%
X204350000Y-140000000D03*
%TO.P,D14,2*%
%TO.N,inner_middle*%
X207650000Y-140000000D03*
%TD*%
%TO.P,D15,1*%
%TO.N,N/C*%
X204350000Y-121000000D03*
%TO.P,D15,2*%
%TO.N,inner_top*%
X207650000Y-121000000D03*
%TD*%
%TO.P,D16,1*%
%TO.N,N/C*%
X185350000Y-178000000D03*
%TO.P,D16,2*%
%TO.N,tuck_thumb*%
X188650000Y-178000000D03*
%TD*%
%TO.P,D17,1*%
%TO.N,N/C*%
X204350000Y-178000000D03*
%TO.P,D17,2*%
%TO.N,middle_thumb*%
X207650000Y-178000000D03*
%TD*%
%TO.P,D18,1*%
%TO.N,N/C*%
X223350000Y-178000000D03*
%TO.P,D18,2*%
%TO.N,outer_thumb*%
X226650000Y-178000000D03*
%TD*%
D13*
%TO.P,MCU1,24*%
%TO.N,P1*%
X126800000Y-176620000D03*
%TO.P,MCU1,1*%
%TO.N,RAW*%
X126800000Y-161380000D03*
%TO.P,MCU1,23*%
%TO.N,P0*%
X129340000Y-176620000D03*
%TO.P,MCU1,2*%
%TO.N,GND*%
X129340000Y-161380000D03*
%TO.P,MCU1,22*%
X131880000Y-176620000D03*
%TO.P,MCU1,3*%
%TO.N,RST*%
X131880000Y-161380000D03*
%TO.P,MCU1,21*%
%TO.N,GND*%
X134420000Y-176620000D03*
%TO.P,MCU1,4*%
%TO.N,VCC*%
X134420000Y-161380000D03*
%TO.P,MCU1,20*%
%TO.N,P2*%
X136960000Y-176620000D03*
%TO.P,MCU1,5*%
%TO.N,P21*%
X136960000Y-161380000D03*
%TO.P,MCU1,19*%
%TO.N,P3*%
X139500000Y-176620000D03*
%TO.P,MCU1,6*%
%TO.N,P20*%
X139500000Y-161380000D03*
%TO.P,MCU1,18*%
%TO.N,P4*%
X142040000Y-176620000D03*
%TO.P,MCU1,7*%
%TO.N,P19*%
X142040000Y-161380000D03*
%TO.P,MCU1,17*%
%TO.N,P5*%
X144580000Y-176620000D03*
%TO.P,MCU1,8*%
%TO.N,P18*%
X144580000Y-161380000D03*
%TO.P,MCU1,16*%
%TO.N,P6*%
X147120000Y-176620000D03*
%TO.P,MCU1,9*%
%TO.N,P15*%
X147120000Y-161380000D03*
%TO.P,MCU1,15*%
%TO.N,P7*%
X149660000Y-176620000D03*
%TO.P,MCU1,10*%
%TO.N,P14*%
X149660000Y-161380000D03*
%TO.P,MCU1,14*%
%TO.N,P8*%
X152200000Y-176620000D03*
%TO.P,MCU1,11*%
%TO.N,P16*%
X152200000Y-161380000D03*
%TO.P,MCU1,13*%
%TO.N,P9*%
X154740000Y-176620000D03*
%TO.P,MCU1,12*%
%TO.N,P10*%
X154740000Y-161380000D03*
%TD*%
D14*
%TO.N,pinky_bottom*%
X130000000Y-143041000D03*
X130000000Y-144070000D03*
%TO.N,pinky_middle*%
X130000000Y-124041000D03*
X130000000Y-125070000D03*
%TO.N,pinky_top*%
X130000000Y-105041000D03*
X130000000Y-106070000D03*
%TO.N,ring_bottom*%
X149000000Y-143041000D03*
X149000000Y-144070000D03*
%TO.N,ring_middle*%
X149000000Y-124041000D03*
X149000000Y-125070000D03*
%TO.N,ring_top*%
X149000000Y-105041000D03*
X149000000Y-106070000D03*
%TO.N,middle_bottom*%
X168000000Y-143041000D03*
X168000000Y-144070000D03*
%TO.N,middle_middle*%
X168000000Y-124041000D03*
X168000000Y-125070000D03*
%TO.N,middle_top*%
X168000000Y-105041000D03*
X168000000Y-106070000D03*
%TO.N,index_bottom*%
X187000000Y-143041000D03*
X187000000Y-144070000D03*
%TO.N,index_middle*%
X187000000Y-124041000D03*
X187000000Y-125070000D03*
%TO.N,index_top*%
X187000000Y-105041000D03*
X187000000Y-106070000D03*
%TO.N,inner_bottom*%
X206000000Y-143041000D03*
X206000000Y-144070000D03*
%TO.N,inner_middle*%
X206000000Y-124041000D03*
X206000000Y-125070000D03*
%TO.N,inner_top*%
X206000000Y-105041000D03*
X206000000Y-106070000D03*
%TO.N,tuck_thumb*%
X187000000Y-162041000D03*
X187000000Y-163070000D03*
%TO.N,middle_thumb*%
X206000000Y-162041000D03*
X206000000Y-163070000D03*
%TO.N,outer_thumb*%
X225000000Y-162041000D03*
X225000000Y-163070000D03*
%TD*%
D15*
%TO.N,pinky_bottom*%
X130000000Y-143041000D02*
X133963000Y-143040500D01*
X133963000Y-143041000D02*
X135842000Y-144920000D01*
X125834000Y-143041000D02*
X128971000Y-143041000D01*
X122915000Y-147460000D02*
X122915000Y-145960000D01*
X122915000Y-145960000D02*
X125834000Y-143041000D01*
X128971000Y-143041000D02*
X130000000Y-144070000D01*
%TO.N,pinky_middle*%
X130000000Y-124041000D02*
X133963000Y-124040500D01*
X133963000Y-124041000D02*
X135842000Y-125920000D01*
X125834000Y-124041000D02*
X128971000Y-124041000D01*
X122915000Y-128460000D02*
X122915000Y-126960000D01*
X122915000Y-126960000D02*
X125834000Y-124041000D01*
X128971000Y-124041000D02*
X130000000Y-125070000D01*
%TO.N,pinky_top*%
X130000000Y-105041000D02*
X133963000Y-105040500D01*
X133963000Y-105041000D02*
X135842000Y-106920000D01*
X125834000Y-105041000D02*
X128971000Y-105041000D01*
X122915000Y-109460000D02*
X122915000Y-107960000D01*
X122915000Y-107960000D02*
X125834000Y-105041000D01*
X128971000Y-105041000D02*
X130000000Y-106070000D01*
%TO.N,ring_bottom*%
X149000000Y-143041000D02*
X152963000Y-143040500D01*
X152963000Y-143041000D02*
X154842000Y-144920000D01*
X144834000Y-143041000D02*
X147971000Y-143041000D01*
X141915000Y-147460000D02*
X141915000Y-145960000D01*
X141915000Y-145960000D02*
X144834000Y-143041000D01*
X147971000Y-143041000D02*
X149000000Y-144070000D01*
%TO.N,ring_middle*%
X149000000Y-124041000D02*
X152963000Y-124040500D01*
X152963000Y-124041000D02*
X154842000Y-125920000D01*
X144834000Y-124041000D02*
X147971000Y-124041000D01*
X141915000Y-128460000D02*
X141915000Y-126960000D01*
X141915000Y-126960000D02*
X144834000Y-124041000D01*
X147971000Y-124041000D02*
X149000000Y-125070000D01*
%TO.N,ring_top*%
X149000000Y-105041000D02*
X152963000Y-105040500D01*
X152963000Y-105041000D02*
X154842000Y-106920000D01*
X144834000Y-105041000D02*
X147971000Y-105041000D01*
X141915000Y-109460000D02*
X141915000Y-107960000D01*
X141915000Y-107960000D02*
X144834000Y-105041000D01*
X147971000Y-105041000D02*
X149000000Y-106070000D01*
%TO.N,middle_bottom*%
X168000000Y-143041000D02*
X171963000Y-143040500D01*
X171963000Y-143041000D02*
X173842000Y-144920000D01*
X163834000Y-143041000D02*
X166971000Y-143041000D01*
X160915000Y-147460000D02*
X160915000Y-145960000D01*
X160915000Y-145960000D02*
X163834000Y-143041000D01*
X166971000Y-143041000D02*
X168000000Y-144070000D01*
%TO.N,middle_middle*%
X168000000Y-124041000D02*
X171963000Y-124040500D01*
X171963000Y-124041000D02*
X173842000Y-125920000D01*
X163834000Y-124041000D02*
X166971000Y-124041000D01*
X160915000Y-128460000D02*
X160915000Y-126960000D01*
X160915000Y-126960000D02*
X163834000Y-124041000D01*
X166971000Y-124041000D02*
X168000000Y-125070000D01*
%TO.N,middle_top*%
X168000000Y-105041000D02*
X171963000Y-105040500D01*
X171963000Y-105041000D02*
X173842000Y-106920000D01*
X163834000Y-105041000D02*
X166971000Y-105041000D01*
X160915000Y-109460000D02*
X160915000Y-107960000D01*
X160915000Y-107960000D02*
X163834000Y-105041000D01*
X166971000Y-105041000D02*
X168000000Y-106070000D01*
%TO.N,index_bottom*%
X187000000Y-143041000D02*
X190963000Y-143040500D01*
X190963000Y-143041000D02*
X192842000Y-144920000D01*
X182834000Y-143041000D02*
X185971000Y-143041000D01*
X179915000Y-147460000D02*
X179915000Y-145960000D01*
X179915000Y-145960000D02*
X182834000Y-143041000D01*
X185971000Y-143041000D02*
X187000000Y-144070000D01*
%TO.N,index_middle*%
X187000000Y-124041000D02*
X190963000Y-124040500D01*
X190963000Y-124041000D02*
X192842000Y-125920000D01*
X182834000Y-124041000D02*
X185971000Y-124041000D01*
X179915000Y-128460000D02*
X179915000Y-126960000D01*
X179915000Y-126960000D02*
X182834000Y-124041000D01*
X185971000Y-124041000D02*
X187000000Y-125070000D01*
%TO.N,index_top*%
X187000000Y-105041000D02*
X190963000Y-105040500D01*
X190963000Y-105041000D02*
X192842000Y-106920000D01*
X182834000Y-105041000D02*
X185971000Y-105041000D01*
X179915000Y-109460000D02*
X179915000Y-107960000D01*
X179915000Y-107960000D02*
X182834000Y-105041000D01*
X185971000Y-105041000D02*
X187000000Y-106070000D01*
%TO.N,inner_bottom*%
X206000000Y-143041000D02*
X209963000Y-143040500D01*
X209963000Y-143041000D02*
X211842000Y-144920000D01*
X201834000Y-143041000D02*
X204971000Y-143041000D01*
X198915000Y-147460000D02*
X198915000Y-145960000D01*
X198915000Y-145960000D02*
X201834000Y-143041000D01*
X204971000Y-143041000D02*
X206000000Y-144070000D01*
%TO.N,inner_middle*%
X206000000Y-124041000D02*
X209963000Y-124040500D01*
X209963000Y-124041000D02*
X211842000Y-125920000D01*
X201834000Y-124041000D02*
X204971000Y-124041000D01*
X198915000Y-128460000D02*
X198915000Y-126960000D01*
X198915000Y-126960000D02*
X201834000Y-124041000D01*
X204971000Y-124041000D02*
X206000000Y-125070000D01*
%TO.N,inner_top*%
X206000000Y-105041000D02*
X209963000Y-105040500D01*
X209963000Y-105041000D02*
X211842000Y-106920000D01*
X201834000Y-105041000D02*
X204971000Y-105041000D01*
X198915000Y-109460000D02*
X198915000Y-107960000D01*
X198915000Y-107960000D02*
X201834000Y-105041000D01*
X204971000Y-105041000D02*
X206000000Y-106070000D01*
%TO.N,tuck_thumb*%
X187000000Y-162041000D02*
X190963000Y-162040500D01*
X190963000Y-162041000D02*
X192842000Y-163920000D01*
X182834000Y-162041000D02*
X185971000Y-162041000D01*
X179915000Y-166460000D02*
X179915000Y-164960000D01*
X179915000Y-164960000D02*
X182834000Y-162041000D01*
X185971000Y-162041000D02*
X187000000Y-163070000D01*
%TO.N,middle_thumb*%
X206000000Y-162041000D02*
X209963000Y-162040500D01*
X209963000Y-162041000D02*
X211842000Y-163920000D01*
X201834000Y-162041000D02*
X204971000Y-162041000D01*
X198915000Y-166460000D02*
X198915000Y-164960000D01*
X198915000Y-164960000D02*
X201834000Y-162041000D01*
X204971000Y-162041000D02*
X206000000Y-163070000D01*
%TO.N,outer_thumb*%
X225000000Y-162041000D02*
X228963000Y-162040500D01*
X228963000Y-162041000D02*
X230842000Y-163920000D01*
X220834000Y-162041000D02*
X223971000Y-162041000D01*
X217915000Y-166460000D02*
X217915000Y-164960000D01*
X217915000Y-164960000D02*
X220834000Y-162041000D01*
X223971000Y-162041000D02*
X225000000Y-163070000D01*
%TD*%
M02*
