M48
; DRILL file {KiCad 8.0.9-rc1} date 2026-07-12T22:51:46-0600
; FORMAT={-:-/ absolute / inch / decimal}
; #@! TF.CreationDate,2026-07-12T22:51:46-06:00
; #@! TF.GenerationSoftware,Kicad,Pcbnew,8.0.9-rc1
; #@! TF.FileFunction,NonPlated,1,2,NPTH
FMAT,2
INCH
; #@! TA.AperFunction,NonPlated,NPTH,ComponentDrill
T1C0.0354
; #@! TA.AperFunction,NonPlated,NPTH,ComponentDrill
T2C0.0748
; #@! TA.AperFunction,NonPlated,NPTH,ComponentDrill
T3C0.1181
; #@! TA.AperFunction,NonPlated,NPTH,ComponentDrill
T4C0.1614
%
G90
G05
T1
X5.0Y-4.3494
X5.1181Y-4.3494
T2
X4.111Y-4.7244
X4.2045Y-5.4724
X4.2045Y-6.9685
X4.3915Y-6.2205
X4.511Y-4.7244
X4.6045Y-5.4724
X4.6045Y-6.9685
X4.7915Y-6.2205
X4.8591Y-4.7244
X5.0461Y-5.4724
X5.2331Y-6.9685
X5.2591Y-4.7244
X5.4201Y-6.2205
X5.4461Y-5.4724
X5.6071Y-4.7244
X5.6331Y-6.9685
X5.7941Y-5.4724
X5.8201Y-6.2205
X6.0071Y-4.7244
X6.1681Y-6.2205
X6.1941Y-5.4724
X6.2579Y-6.9685
X6.3551Y-4.7244
X6.5421Y-5.4724
X6.5681Y-6.2205
X6.6579Y-6.9685
X6.7551Y-4.7244
X6.9161Y-6.2205
X6.9421Y-5.4724
X7.1031Y-4.7244
X7.2902Y-5.4724
X7.3161Y-6.2205
X7.5031Y-4.7244
X7.5669Y-6.9685
X7.6642Y-6.2205
X7.6902Y-5.4724
X7.8512Y-4.7244
X7.9669Y-6.9685
X8.0382Y-5.4724
X8.0642Y-6.2205
X8.2512Y-4.7244
X8.4122Y-6.2205
X8.4382Y-5.4724
X8.5992Y-4.7244
X8.7862Y-5.4724
X8.8122Y-6.2205
X8.9992Y-4.7244
X9.1602Y-6.2205
X9.1602Y-6.9685
X9.1862Y-5.4724
X9.3472Y-4.7244
X9.5343Y-5.4724
X9.5602Y-6.2205
X9.5602Y-6.9685
X9.7472Y-4.7244
X9.9083Y-6.2205
X9.9343Y-5.4724
X10.0953Y-4.7244
X10.2823Y-5.4724
X10.3083Y-6.2205
X10.4693Y-6.9685
X10.4953Y-4.7244
X10.6563Y-6.2205
X10.6823Y-5.4724
X10.8433Y-4.7244
X10.8693Y-6.9685
X11.0303Y-5.4724
X11.0563Y-6.2205
X11.2433Y-4.7244
X11.4043Y-6.2205
X11.4043Y-6.9685
X11.4303Y-5.4724
X11.5913Y-4.7244
X11.7783Y-5.4724
X11.8043Y-6.2205
X11.8043Y-6.9685
X11.9913Y-4.7244
X12.1524Y-6.2205
X12.1524Y-6.9685
X12.1783Y-5.4724
X12.5524Y-6.2205
X12.5524Y-6.9685
X12.6236Y-4.7244
X12.7134Y-5.4724
X12.9004Y-6.2205
X12.9004Y-6.9685
X13.0236Y-4.7244
X13.1134Y-5.4724
X13.3004Y-6.2205
X13.3004Y-6.9685
T3
X4.211Y-4.9244
X4.3045Y-5.6724
X4.3045Y-7.1685
X4.461Y-4.8244
X4.4915Y-6.4205
X4.5545Y-5.5724
X4.5545Y-7.0685
X4.7415Y-6.3205
X4.9591Y-4.9244
X5.1461Y-5.6724
X5.2091Y-4.8244
X5.3331Y-7.1685
X5.3961Y-5.5724
X5.5201Y-6.4205
X5.5831Y-7.0685
X5.7071Y-4.9244
X5.7701Y-6.3205
X5.8941Y-5.6724
X5.9571Y-4.8244
X6.1441Y-5.5724
X6.2681Y-6.4205
X6.3579Y-7.1685
X6.4551Y-4.9244
X6.5181Y-6.3205
X6.6079Y-7.0685
X6.6421Y-5.6724
X6.7051Y-4.8244
X6.8921Y-5.5724
X7.0161Y-6.4205
X7.2031Y-4.9244
X7.2661Y-6.3205
X7.3902Y-5.6724
X7.4531Y-4.8244
X7.6402Y-5.5724
X7.6669Y-7.1685
X7.7642Y-6.4205
X7.9169Y-7.0685
X7.9512Y-4.9244
X8.0142Y-6.3205
X8.1382Y-5.6724
X8.2012Y-4.8244
X8.3882Y-5.5724
X8.5122Y-6.4205
X8.6992Y-4.9244
X8.7622Y-6.3205
X8.8862Y-5.6724
X8.9492Y-4.8244
X9.1362Y-5.5724
X9.2602Y-6.4205
X9.2602Y-7.1685
X9.4472Y-4.9244
X9.5102Y-6.3205
X9.5102Y-7.0685
X9.6343Y-5.6724
X9.6972Y-4.8244
X9.8843Y-5.5724
X10.0083Y-6.4205
X10.1953Y-4.9244
X10.2583Y-6.3205
X10.3823Y-5.6724
X10.4453Y-4.8244
X10.5693Y-7.1685
X10.6323Y-5.5724
X10.7563Y-6.4205
X10.8193Y-7.0685
X10.9433Y-4.9244
X11.0063Y-6.3205
X11.1303Y-5.6724
X11.1933Y-4.8244
X11.3803Y-5.5724
X11.5043Y-6.4205
X11.5043Y-7.1685
X11.6913Y-4.9244
X11.7543Y-6.3205
X11.7543Y-7.0685
X11.8783Y-5.6724
X11.9413Y-4.8244
X12.1283Y-5.5724
X12.2524Y-6.4205
X12.2524Y-7.1685
X12.5024Y-6.3205
X12.5024Y-7.0685
X12.7236Y-4.9244
X12.8134Y-5.6724
X12.9736Y-4.8244
X13.0004Y-6.4205
X13.0004Y-7.1685
X13.0634Y-5.5724
X13.2504Y-6.3205
X13.2504Y-7.0685
T4
X4.311Y-4.7244
X4.4045Y-5.4724
X4.4045Y-6.9685
X4.5915Y-6.2205
X5.0591Y-4.7244
X5.2461Y-5.4724
X5.4331Y-6.9685
X5.6201Y-6.2205
X5.8071Y-4.7244
X5.9941Y-5.4724
X6.3681Y-6.2205
X6.4579Y-6.9685
X6.5551Y-4.7244
X6.7421Y-5.4724
X7.1161Y-6.2205
X7.3031Y-4.7244
X7.4902Y-5.4724
X7.7669Y-6.9685
X7.8642Y-6.2205
X8.0512Y-4.7244
X8.2382Y-5.4724
X8.6122Y-6.2205
X8.7992Y-4.7244
X8.9862Y-5.4724
X9.3602Y-6.2205
X9.3602Y-6.9685
X9.5472Y-4.7244
X9.7343Y-5.4724
X10.1083Y-6.2205
X10.2953Y-4.7244
X10.4823Y-5.4724
X10.6693Y-6.9685
X10.8563Y-6.2205
X11.0433Y-4.7244
X11.2303Y-5.4724
X11.6043Y-6.2205
X11.6043Y-6.9685
X11.7913Y-4.7244
X11.9783Y-5.4724
X12.3524Y-6.2205
X12.3524Y-6.9685
X12.8236Y-4.7244
X12.9134Y-5.4724
X13.1004Y-6.2205
X13.1004Y-6.9685
M30
