%TF.GenerationSoftware,KiCad,Pcbnew,8.0.9-rc1*%
%TF.CreationDate,2026-07-12T22:51:52-06:00*%
%TF.ProjectId,40\u0025,3430252e-6b69-4636-9164-5f7063625858,v1.0.0*%
%TF.SameCoordinates,Original*%
%TF.FileFunction,Copper,L2,Bot*%
%TF.FilePolarity,Positive*%
%FSLAX46Y46*%
G04 Gerber Fmt 4.6, Leading zero omitted, Abs format (unit mm)*
G04 Created by KiCad (PCBNEW 8.0.9-rc1) date 2026-07-12 22:51:52*
%MOMM*%
%LPD*%
G01*
G04 APERTURE LIST*
G04 Aperture macros list*
%AMRoundRect*
0 Rectangle with rounded corners*
0 $1 Rounding radius*
0 $2 $3 $4 $5 $6 $7 $8 $9 X,Y pos of 4 corners*
0 Add a 4 corners polygon primitive as box body*
4,1,4,$2,$3,$4,$5,$6,$7,$8,$9,$2,$3,0*
0 Add four circle primitives for the rounded corners*
1,1,$1+$1,$2,$3*
1,1,$1+$1,$4,$5*
1,1,$1+$1,$6,$7*
1,1,$1+$1,$8,$9*
0 Add four rect primitives between the rounded corners*
20,1,$1+$1,$2,$3,$4,$5,0*
20,1,$1+$1,$4,$5,$6,$7,0*
20,1,$1+$1,$6,$7,$8,$9,0*
20,1,$1+$1,$8,$9,$2,$3,0*%
G04 Aperture macros list end*
%TA.AperFunction,SMDPad,CuDef*%
%ADD10R,2.550000X2.500000*%
%TD*%
%TA.AperFunction,SMDPad,CuDef*%
%ADD11R,0.900000X1.200000*%
%TD*%
%TA.AperFunction,ComponentPad*%
%ADD12C,0.600000*%
%TD*%
%TA.AperFunction,SMDPad,CuDef*%
%ADD13R,1.200000X0.900000*%
%TD*%
%TA.AperFunction,ComponentPad*%
%ADD14C,1.700000*%
%TD*%
%TA.AperFunction,ComponentPad*%
%ADD15RoundRect,0.240000X-0.360000X-0.635000X0.360000X-0.635000X0.360000X0.635000X-0.360000X0.635000X0*%
%TD*%
%TA.AperFunction,ComponentPad*%
%ADD16O,1.200000X1.750000*%
%TD*%
%TA.AperFunction,SMDPad,CuDef*%
%ADD17R,1.000000X0.800000*%
%TD*%
%TA.AperFunction,SMDPad,CuDef*%
%ADD18R,0.700000X1.500000*%
%TD*%
%TA.AperFunction,SMDPad,CuDef*%
%ADD19R,1.550000X1.000000*%
%TD*%
%TA.AperFunction,ComponentPad*%
%ADD20C,3.800000*%
%TD*%
%TA.AperFunction,ViaPad*%
%ADD21C,0.600000*%
%TD*%
%TA.AperFunction,Conductor*%
%ADD22C,0.200000*%
%TD*%
%TA.AperFunction,Conductor*%
%ADD23C,0.250000*%
%TD*%
G04 APERTURE END LIST*
D10*
%TO.P,S1,1*%
%TO.N,P0*%
X116585000Y-122540000D03*
%TO.P,S1,2*%
%TO.N,esc_default*%
X103658000Y-125080000D03*
%TD*%
%TO.P,S2,1*%
%TO.N,P1*%
X135585000Y-122540000D03*
%TO.P,S2,2*%
%TO.N,q_default*%
X122658000Y-125080000D03*
%TD*%
%TO.P,S3,1*%
%TO.N,P2*%
X154585000Y-122540000D03*
%TO.P,S3,2*%
%TO.N,w_default*%
X141658000Y-125080000D03*
%TD*%
%TO.P,S4,1*%
%TO.N,P3*%
X173585000Y-122540000D03*
%TO.P,S4,2*%
%TO.N,e_default*%
X160658000Y-125080000D03*
%TD*%
%TO.P,S5,1*%
%TO.N,P4*%
X192585000Y-122540000D03*
%TO.P,S5,2*%
%TO.N,r_default*%
X179658000Y-125080000D03*
%TD*%
%TO.P,S6,1*%
%TO.N,P5*%
X211585000Y-122540000D03*
%TO.P,S6,2*%
%TO.N,t_default*%
X198658000Y-125080000D03*
%TD*%
%TO.P,S7,1*%
%TO.N,P6*%
X230585000Y-122540000D03*
%TO.P,S7,2*%
%TO.N,y_default*%
X217658000Y-125080000D03*
%TD*%
%TO.P,S8,1*%
%TO.N,P7*%
X249585000Y-122540000D03*
%TO.P,S8,2*%
%TO.N,u_default*%
X236658000Y-125080000D03*
%TD*%
%TO.P,S9,1*%
%TO.N,P8*%
X268585000Y-122540000D03*
%TO.P,S9,2*%
%TO.N,i_default*%
X255658000Y-125080000D03*
%TD*%
%TO.P,S10,1*%
%TO.N,P9*%
X287585000Y-122540000D03*
%TO.P,S10,2*%
%TO.N,o_default*%
X274658000Y-125080000D03*
%TD*%
%TO.P,S11,1*%
%TO.N,P10*%
X306585000Y-122540000D03*
%TO.P,S11,2*%
%TO.N,p_default*%
X293658000Y-125080000D03*
%TD*%
%TO.P,S12,1*%
%TO.N,P14*%
X332805000Y-122540000D03*
%TO.P,S12,2*%
%TO.N,backspace_default*%
X319878000Y-125080000D03*
%TD*%
%TO.P,S13,1*%
%TO.N,P0*%
X118960000Y-141540000D03*
%TO.P,S13,2*%
%TO.N,tab_default*%
X106033000Y-144080000D03*
%TD*%
%TO.P,S14,1*%
%TO.N,P1*%
X140335000Y-141540000D03*
%TO.P,S14,2*%
%TO.N,a_default*%
X127408000Y-144080000D03*
%TD*%
%TO.P,S15,1*%
%TO.N,P2*%
X159335000Y-141540000D03*
%TO.P,S15,2*%
%TO.N,s_default*%
X146408000Y-144080000D03*
%TD*%
%TO.P,S16,1*%
%TO.N,P3*%
X178335000Y-141540000D03*
%TO.P,S16,2*%
%TO.N,d_default*%
X165408000Y-144080000D03*
%TD*%
%TO.P,S17,1*%
%TO.N,P4*%
X197335000Y-141540000D03*
%TO.P,S17,2*%
%TO.N,f_default*%
X184408000Y-144080000D03*
%TD*%
%TO.P,S18,1*%
%TO.N,P5*%
X216335000Y-141540000D03*
%TO.P,S18,2*%
%TO.N,g_default*%
X203408000Y-144080000D03*
%TD*%
%TO.P,S19,1*%
%TO.N,P6*%
X235335000Y-141540000D03*
%TO.P,S19,2*%
%TO.N,h_default*%
X222408000Y-144080000D03*
%TD*%
%TO.P,S20,1*%
%TO.N,P7*%
X254335000Y-141540000D03*
%TO.P,S20,2*%
%TO.N,j_default*%
X241408000Y-144080000D03*
%TD*%
%TO.P,S21,1*%
%TO.N,P8*%
X273335000Y-141540000D03*
%TO.P,S21,2*%
%TO.N,k_default*%
X260408000Y-144080000D03*
%TD*%
%TO.P,S22,1*%
%TO.N,P9*%
X292335000Y-141540000D03*
%TO.P,S22,2*%
%TO.N,l_default*%
X279408000Y-144080000D03*
%TD*%
%TO.P,S23,1*%
%TO.N,P10*%
X311335000Y-141540000D03*
%TO.P,S23,2*%
%TO.N,semicolon_default*%
X298408000Y-144080000D03*
%TD*%
%TO.P,S24,1*%
%TO.N,P14*%
X335085000Y-141540000D03*
%TO.P,S24,2*%
%TO.N,quotes_default*%
X322158000Y-144080000D03*
%TD*%
%TO.P,S25,1*%
%TO.N,P0*%
X123710000Y-160540000D03*
%TO.P,S25,2*%
%TO.N,shift_default*%
X110783000Y-163080000D03*
%TD*%
%TO.P,S26,1*%
%TO.N,P1*%
X149835000Y-160540000D03*
%TO.P,S26,2*%
%TO.N,z_default*%
X136908000Y-163080000D03*
%TD*%
%TO.P,S27,1*%
%TO.N,P2*%
X168835000Y-160540000D03*
%TO.P,S27,2*%
%TO.N,x_default*%
X155908000Y-163080000D03*
%TD*%
%TO.P,S28,1*%
%TO.N,P3*%
X187835000Y-160540000D03*
%TO.P,S28,2*%
%TO.N,c_default*%
X174908000Y-163080000D03*
%TD*%
%TO.P,S29,1*%
%TO.N,P4*%
X206835000Y-160540000D03*
%TO.P,S29,2*%
%TO.N,v_default*%
X193908000Y-163080000D03*
%TD*%
%TO.P,S30,1*%
%TO.N,P5*%
X225835000Y-160540000D03*
%TO.P,S30,2*%
%TO.N,b_default*%
X212908000Y-163080000D03*
%TD*%
%TO.P,S31,1*%
%TO.N,P6*%
X244835000Y-160540000D03*
%TO.P,S31,2*%
%TO.N,n_default*%
X231908000Y-163080000D03*
%TD*%
%TO.P,S32,1*%
%TO.N,P7*%
X263835000Y-160540000D03*
%TO.P,S32,2*%
%TO.N,m_default*%
X250908000Y-163080000D03*
%TD*%
%TO.P,S33,1*%
%TO.N,P8*%
X282835000Y-160540000D03*
%TO.P,S33,2*%
%TO.N,comma_default*%
X269908000Y-163080000D03*
%TD*%
%TO.P,S34,1*%
%TO.N,P9*%
X301835000Y-160540000D03*
%TO.P,S34,2*%
%TO.N,period_default*%
X288908000Y-163080000D03*
%TD*%
%TO.P,S35,1*%
%TO.N,P10*%
X320835000Y-160540000D03*
%TO.P,S35,2*%
%TO.N,questionmark_default*%
X307908000Y-163080000D03*
%TD*%
%TO.P,S36,1*%
%TO.N,P14*%
X339835000Y-160540000D03*
%TO.P,S36,2*%
%TO.N,something_default*%
X326908000Y-163080000D03*
%TD*%
%TO.P,S37,1*%
%TO.N,P0*%
X118960000Y-179540000D03*
%TO.P,S37,2*%
%TO.N,ctrl_default*%
X106033000Y-182080000D03*
%TD*%
%TO.P,S38,1*%
%TO.N,P1*%
X145085000Y-179540000D03*
%TO.P,S38,2*%
%TO.N,2nd_default*%
X132158000Y-182080000D03*
%TD*%
%TO.P,S39,1*%
%TO.N,P2*%
X171115000Y-179540000D03*
%TO.P,S39,2*%
%TO.N,alt_default*%
X158188000Y-182080000D03*
%TD*%
%TO.P,S40,1*%
%TO.N,P3*%
X204365000Y-179540000D03*
%TO.P,S40,2*%
%TO.N,space1_default*%
X191438000Y-182080000D03*
%TD*%
%TO.P,S41,1*%
%TO.N,P5*%
X244835000Y-179540000D03*
%TO.P,S41,2*%
%TO.N,space2_default*%
X231908000Y-182080000D03*
%TD*%
%TO.P,S42,1*%
%TO.N,P7*%
X278085000Y-179540000D03*
%TO.P,S42,2*%
%TO.N,fn_default*%
X265158000Y-182080000D03*
%TD*%
%TO.P,S43,1*%
%TO.N,P9*%
X301835000Y-179540000D03*
%TO.P,S43,2*%
%TO.N,arrow1_default*%
X288908000Y-182080000D03*
%TD*%
%TO.P,S44,1*%
%TO.N,P10*%
X320835000Y-179540000D03*
%TO.P,S44,2*%
%TO.N,arrow2_default*%
X307908000Y-182080000D03*
%TD*%
%TO.P,S45,1*%
%TO.N,P14*%
X339835000Y-179540000D03*
%TO.P,S45,2*%
%TO.N,arrow3_default*%
X326908000Y-182080000D03*
%TD*%
D11*
%TO.P,D1,2*%
%TO.N,esc_default*%
X102650000Y-128000000D03*
%TO.P,D1,1*%
%TO.N,P15*%
X99350000Y-128000000D03*
D12*
X99350000Y-128000000D03*
%TO.N,esc_default*%
X102650000Y-128000000D03*
%TD*%
D13*
%TO.P,D2,2*%
%TO.N,q_default*%
X119500000Y-125650000D03*
%TO.P,D2,1*%
%TO.N,P15*%
X119500000Y-122350000D03*
D12*
X119500000Y-122350000D03*
%TO.N,q_default*%
X119500000Y-125650000D03*
%TD*%
D11*
%TO.P,D3,2*%
%TO.N,w_default*%
X149150000Y-129000000D03*
%TO.P,D3,1*%
%TO.N,P15*%
X145850000Y-129000000D03*
D12*
X145850000Y-129000000D03*
%TO.N,w_default*%
X149150000Y-129000000D03*
%TD*%
D11*
%TO.P,D4,2*%
%TO.N,e_default*%
X168150000Y-129000000D03*
%TO.P,D4,1*%
%TO.N,P15*%
X164850000Y-129000000D03*
D12*
X164850000Y-129000000D03*
%TO.N,e_default*%
X168150000Y-129000000D03*
%TD*%
D11*
%TO.P,D5,2*%
%TO.N,r_default*%
X187150000Y-129000000D03*
%TO.P,D5,1*%
%TO.N,P15*%
X183850000Y-129000000D03*
D12*
X183850000Y-129000000D03*
%TO.N,r_default*%
X187150000Y-129000000D03*
%TD*%
D11*
%TO.P,D6,2*%
%TO.N,t_default*%
X206150000Y-129000000D03*
%TO.P,D6,1*%
%TO.N,P15*%
X202850000Y-129000000D03*
D12*
X202850000Y-129000000D03*
%TO.N,t_default*%
X206150000Y-129000000D03*
%TD*%
D11*
%TO.P,D7,2*%
%TO.N,y_default*%
X225150000Y-129000000D03*
%TO.P,D7,1*%
%TO.N,P15*%
X221850000Y-129000000D03*
D12*
X221850000Y-129000000D03*
%TO.N,y_default*%
X225150000Y-129000000D03*
%TD*%
D11*
%TO.P,D8,2*%
%TO.N,u_default*%
X244150000Y-129000000D03*
%TO.P,D8,1*%
%TO.N,P15*%
X240850000Y-129000000D03*
D12*
X240850000Y-129000000D03*
%TO.N,u_default*%
X244150000Y-129000000D03*
%TD*%
D11*
%TO.P,D9,2*%
%TO.N,i_default*%
X263150000Y-129000000D03*
%TO.P,D9,1*%
%TO.N,P15*%
X259850000Y-129000000D03*
D12*
X259850000Y-129000000D03*
%TO.N,i_default*%
X263150000Y-129000000D03*
%TD*%
D11*
%TO.P,D10,2*%
%TO.N,o_default*%
X282150000Y-129000000D03*
%TO.P,D10,1*%
%TO.N,P15*%
X278850000Y-129000000D03*
D12*
X278850000Y-129000000D03*
%TO.N,o_default*%
X282150000Y-129000000D03*
%TD*%
D11*
%TO.P,D11,2*%
%TO.N,p_default*%
X301150000Y-129000000D03*
%TO.P,D11,1*%
%TO.N,P15*%
X297850000Y-129000000D03*
D12*
X297850000Y-129000000D03*
%TO.N,p_default*%
X301150000Y-129000000D03*
%TD*%
D11*
%TO.P,D12,2*%
%TO.N,backspace_default*%
X327370000Y-129000000D03*
%TO.P,D12,1*%
%TO.N,P15*%
X324070000Y-129000000D03*
D12*
X324070000Y-129000000D03*
%TO.N,backspace_default*%
X327370000Y-129000000D03*
%TD*%
D11*
%TO.P,D13,2*%
%TO.N,tab_default*%
X113525000Y-148000000D03*
%TO.P,D13,1*%
%TO.N,P16*%
X110225000Y-148000000D03*
D12*
X110225000Y-148000000D03*
%TO.N,tab_default*%
X113525000Y-148000000D03*
%TD*%
D11*
%TO.P,D14,2*%
%TO.N,a_default*%
X134900000Y-148000000D03*
%TO.P,D14,1*%
%TO.N,P16*%
X131600000Y-148000000D03*
D12*
X131600000Y-148000000D03*
%TO.N,a_default*%
X134900000Y-148000000D03*
%TD*%
D11*
%TO.P,D15,2*%
%TO.N,s_default*%
X153900000Y-148000000D03*
%TO.P,D15,1*%
%TO.N,P16*%
X150600000Y-148000000D03*
D12*
X150600000Y-148000000D03*
%TO.N,s_default*%
X153900000Y-148000000D03*
%TD*%
D11*
%TO.P,D16,2*%
%TO.N,d_default*%
X172900000Y-148000000D03*
%TO.P,D16,1*%
%TO.N,P16*%
X169600000Y-148000000D03*
D12*
X169600000Y-148000000D03*
%TO.N,d_default*%
X172900000Y-148000000D03*
%TD*%
D11*
%TO.P,D17,2*%
%TO.N,f_default*%
X191900000Y-148000000D03*
%TO.P,D17,1*%
%TO.N,P16*%
X188600000Y-148000000D03*
D12*
X188600000Y-148000000D03*
%TO.N,f_default*%
X191900000Y-148000000D03*
%TD*%
D11*
%TO.P,D18,2*%
%TO.N,g_default*%
X210900000Y-148000000D03*
%TO.P,D18,1*%
%TO.N,P16*%
X207600000Y-148000000D03*
D12*
X207600000Y-148000000D03*
%TO.N,g_default*%
X210900000Y-148000000D03*
%TD*%
D11*
%TO.P,D19,2*%
%TO.N,h_default*%
X229900000Y-148000000D03*
%TO.P,D19,1*%
%TO.N,P16*%
X226600000Y-148000000D03*
D12*
X226600000Y-148000000D03*
%TO.N,h_default*%
X229900000Y-148000000D03*
%TD*%
D11*
%TO.P,D20,2*%
%TO.N,j_default*%
X248900000Y-148000000D03*
%TO.P,D20,1*%
%TO.N,P16*%
X245600000Y-148000000D03*
D12*
X245600000Y-148000000D03*
%TO.N,j_default*%
X248900000Y-148000000D03*
%TD*%
D11*
%TO.P,D21,2*%
%TO.N,k_default*%
X267900000Y-148000000D03*
%TO.P,D21,1*%
%TO.N,P16*%
X264600000Y-148000000D03*
D12*
X264600000Y-148000000D03*
%TO.N,k_default*%
X267900000Y-148000000D03*
%TD*%
D11*
%TO.P,D22,2*%
%TO.N,l_default*%
X286900000Y-148000000D03*
%TO.P,D22,1*%
%TO.N,P16*%
X283600000Y-148000000D03*
D12*
X283600000Y-148000000D03*
%TO.N,l_default*%
X286900000Y-148000000D03*
%TD*%
D11*
%TO.P,D23,2*%
%TO.N,semicolon_default*%
X305900000Y-148000000D03*
%TO.P,D23,1*%
%TO.N,P16*%
X302600000Y-148000000D03*
D12*
X302600000Y-148000000D03*
%TO.N,semicolon_default*%
X305900000Y-148000000D03*
%TD*%
D11*
%TO.P,D24,2*%
%TO.N,quotes_default*%
X329650000Y-148000000D03*
%TO.P,D24,1*%
%TO.N,P16*%
X326350000Y-148000000D03*
D12*
X326350000Y-148000000D03*
%TO.N,quotes_default*%
X329650000Y-148000000D03*
%TD*%
D11*
%TO.P,D25,2*%
%TO.N,shift_default*%
X118275000Y-167000000D03*
%TO.P,D25,1*%
%TO.N,P19*%
X114975000Y-167000000D03*
D12*
X114975000Y-167000000D03*
%TO.N,shift_default*%
X118275000Y-167000000D03*
%TD*%
D11*
%TO.P,D26,2*%
%TO.N,z_default*%
X144400000Y-167000000D03*
%TO.P,D26,1*%
%TO.N,P19*%
X141100000Y-167000000D03*
D12*
X141100000Y-167000000D03*
%TO.N,z_default*%
X144400000Y-167000000D03*
%TD*%
D11*
%TO.P,D27,2*%
%TO.N,x_default*%
X163400000Y-167000000D03*
%TO.P,D27,1*%
%TO.N,P19*%
X160100000Y-167000000D03*
D12*
X160100000Y-167000000D03*
%TO.N,x_default*%
X163400000Y-167000000D03*
%TD*%
D11*
%TO.P,D28,2*%
%TO.N,c_default*%
X182400000Y-167000000D03*
%TO.P,D28,1*%
%TO.N,P19*%
X179100000Y-167000000D03*
D12*
X179100000Y-167000000D03*
%TO.N,c_default*%
X182400000Y-167000000D03*
%TD*%
D11*
%TO.P,D29,2*%
%TO.N,v_default*%
X201400000Y-167000000D03*
%TO.P,D29,1*%
%TO.N,P19*%
X198100000Y-167000000D03*
D12*
X198100000Y-167000000D03*
%TO.N,v_default*%
X201400000Y-167000000D03*
%TD*%
D11*
%TO.P,D30,2*%
%TO.N,b_default*%
X220400000Y-167000000D03*
%TO.P,D30,1*%
%TO.N,P19*%
X217100000Y-167000000D03*
D12*
X217100000Y-167000000D03*
%TO.N,b_default*%
X220400000Y-167000000D03*
%TD*%
D11*
%TO.P,D31,2*%
%TO.N,n_default*%
X239400000Y-167000000D03*
%TO.P,D31,1*%
%TO.N,P19*%
X236100000Y-167000000D03*
D12*
X236100000Y-167000000D03*
%TO.N,n_default*%
X239400000Y-167000000D03*
%TD*%
D11*
%TO.P,D32,2*%
%TO.N,m_default*%
X258400000Y-167000000D03*
%TO.P,D32,1*%
%TO.N,P19*%
X255100000Y-167000000D03*
D12*
X255100000Y-167000000D03*
%TO.N,m_default*%
X258400000Y-167000000D03*
%TD*%
D11*
%TO.P,D33,2*%
%TO.N,comma_default*%
X277400000Y-167000000D03*
%TO.P,D33,1*%
%TO.N,P19*%
X274100000Y-167000000D03*
D12*
X274100000Y-167000000D03*
%TO.N,comma_default*%
X277400000Y-167000000D03*
%TD*%
D11*
%TO.P,D34,2*%
%TO.N,period_default*%
X296400000Y-167000000D03*
%TO.P,D34,1*%
%TO.N,P19*%
X293100000Y-167000000D03*
D12*
X293100000Y-167000000D03*
%TO.N,period_default*%
X296400000Y-167000000D03*
%TD*%
D11*
%TO.P,D35,2*%
%TO.N,questionmark_default*%
X315400000Y-167000000D03*
%TO.P,D35,1*%
%TO.N,P19*%
X312100000Y-167000000D03*
D12*
X312100000Y-167000000D03*
%TO.N,questionmark_default*%
X315400000Y-167000000D03*
%TD*%
D11*
%TO.P,D36,2*%
%TO.N,something_default*%
X334400000Y-167000000D03*
%TO.P,D36,1*%
%TO.N,P19*%
X331100000Y-167000000D03*
D12*
X331100000Y-167000000D03*
%TO.N,something_default*%
X334400000Y-167000000D03*
%TD*%
D11*
%TO.P,D37,2*%
%TO.N,ctrl_default*%
X113525000Y-186000000D03*
%TO.P,D37,1*%
%TO.N,P18*%
X110225000Y-186000000D03*
D12*
X110225000Y-186000000D03*
%TO.N,ctrl_default*%
X113525000Y-186000000D03*
%TD*%
D11*
%TO.P,D38,2*%
%TO.N,2nd_default*%
X139650000Y-186000000D03*
%TO.P,D38,1*%
%TO.N,P18*%
X136350000Y-186000000D03*
D12*
X136350000Y-186000000D03*
%TO.N,2nd_default*%
X139650000Y-186000000D03*
%TD*%
D11*
%TO.P,D39,2*%
%TO.N,alt_default*%
X165680000Y-186000000D03*
%TO.P,D39,1*%
%TO.N,P18*%
X162380000Y-186000000D03*
D12*
X162380000Y-186000000D03*
%TO.N,alt_default*%
X165680000Y-186000000D03*
%TD*%
D11*
%TO.P,D40,2*%
%TO.N,space1_default*%
X198930000Y-186000000D03*
%TO.P,D40,1*%
%TO.N,P18*%
X195630000Y-186000000D03*
D12*
X195630000Y-186000000D03*
%TO.N,space1_default*%
X198930000Y-186000000D03*
%TD*%
D11*
%TO.P,D41,2*%
%TO.N,space2_default*%
X239400000Y-186000000D03*
%TO.P,D41,1*%
%TO.N,P18*%
X236100000Y-186000000D03*
D12*
X236100000Y-186000000D03*
%TO.N,space2_default*%
X239400000Y-186000000D03*
%TD*%
D11*
%TO.P,D42,2*%
%TO.N,fn_default*%
X272650000Y-186000000D03*
%TO.P,D42,1*%
%TO.N,P18*%
X269350000Y-186000000D03*
D12*
X269350000Y-186000000D03*
%TO.N,fn_default*%
X272650000Y-186000000D03*
%TD*%
D11*
%TO.P,D43,2*%
%TO.N,arrow1_default*%
X296400000Y-186000000D03*
%TO.P,D43,1*%
%TO.N,P18*%
X293100000Y-186000000D03*
D12*
X293100000Y-186000000D03*
%TO.N,arrow1_default*%
X296400000Y-186000000D03*
%TD*%
D11*
%TO.P,D44,2*%
%TO.N,arrow2_default*%
X315400000Y-186000000D03*
%TO.P,D44,1*%
%TO.N,P18*%
X312100000Y-186000000D03*
D12*
X312100000Y-186000000D03*
%TO.N,arrow2_default*%
X315400000Y-186000000D03*
%TD*%
D11*
%TO.P,D45,2*%
%TO.N,arrow3_default*%
X334400000Y-186000000D03*
%TO.P,D45,1*%
%TO.N,P18*%
X331100000Y-186000000D03*
D12*
X331100000Y-186000000D03*
%TO.N,arrow3_default*%
X334400000Y-186000000D03*
%TD*%
D14*
%TO.P,MCU1,24*%
%TO.N,P1*%
X101550000Y-130470000D03*
%TO.P,MCU1,1*%
%TO.N,RAW*%
X101550000Y-115230000D03*
%TO.P,MCU1,23*%
%TO.N,P0*%
X104090000Y-130470000D03*
%TO.P,MCU1,2*%
%TO.N,GND*%
X104090000Y-115230000D03*
%TO.P,MCU1,22*%
X106630000Y-130470000D03*
%TO.P,MCU1,3*%
%TO.N,RST*%
X106630000Y-115230000D03*
%TO.P,MCU1,21*%
%TO.N,GND*%
X109170000Y-130470000D03*
%TO.P,MCU1,4*%
%TO.N,VCC*%
X109170000Y-115230000D03*
%TO.P,MCU1,20*%
%TO.N,P2*%
X111710000Y-130470000D03*
%TO.P,MCU1,5*%
%TO.N,P21*%
X111710000Y-115230000D03*
%TO.P,MCU1,19*%
%TO.N,P3*%
X114250000Y-130470000D03*
%TO.P,MCU1,6*%
%TO.N,P20*%
X114250000Y-115230000D03*
%TO.P,MCU1,18*%
%TO.N,P4*%
X116790000Y-130470000D03*
%TO.P,MCU1,7*%
%TO.N,P19*%
X116790000Y-115230000D03*
%TO.P,MCU1,17*%
%TO.N,P5*%
X119330000Y-130470000D03*
%TO.P,MCU1,8*%
%TO.N,P18*%
X119330000Y-115230000D03*
%TO.P,MCU1,16*%
%TO.N,P6*%
X121870000Y-130470000D03*
%TO.P,MCU1,9*%
%TO.N,P15*%
X121870000Y-115230000D03*
%TO.P,MCU1,15*%
%TO.N,P7*%
X124410000Y-130470000D03*
%TO.P,MCU1,10*%
%TO.N,P14*%
X124410000Y-115230000D03*
%TO.P,MCU1,14*%
%TO.N,P8*%
X126950000Y-130470000D03*
%TO.P,MCU1,11*%
%TO.N,P16*%
X126950000Y-115230000D03*
%TO.P,MCU1,13*%
%TO.N,P9*%
X129490000Y-130470000D03*
%TO.P,MCU1,12*%
%TO.N,P10*%
X129490000Y-115230000D03*
%TD*%
D15*
%TO.P,JST1,1*%
%TO.N,GND*%
X139000000Y-128550000D03*
D16*
%TO.P,JST1,2*%
%TO.N,BAT_P*%
X137000000Y-128550000D03*
%TD*%
D17*
%TO.P,PWR1,*%
%TO.N,*%
X124850000Y-111585000D03*
X124850000Y-109375000D03*
X132150000Y-111585000D03*
X132150000Y-109375000D03*
D18*
%TO.P,PWR1,1*%
%TO.N,N/C*%
X126250000Y-112235000D03*
%TO.P,PWR1,2*%
%TO.N,RAW*%
X129250000Y-112235000D03*
%TO.P,PWR1,3*%
%TO.N,BAT_P*%
X130750000Y-112235000D03*
%TD*%
D19*
%TO.P,RST1,1*%
%TO.N,GND*%
X135375000Y-109650000D03*
%TO.P,RST1,2*%
%TO.N,RST*%
X135375000Y-111350000D03*
%TO.P,RST1,3*%
%TO.N,GND*%
X140625000Y-109650000D03*
%TO.P,RST1,4*%
%TO.N,RST*%
X140625000Y-111350000D03*
%TD*%
D20*
%TO.P,H1,*%
%TO.N,*%
X147500000Y-114300000D03*
%TD*%
%TO.P,H2,*%
%TO.N,*%
X325720000Y-114300000D03*
%TD*%
%TO.P,H3,*%
%TO.N,*%
X111875000Y-171300000D03*
%TD*%
%TO.P,H4,*%
%TO.N,*%
X332750000Y-171300000D03*
%TD*%
%TO.P,H5,*%
%TO.N,*%
X218750000Y-152300000D03*
%TD*%
D21*
%TO.N,GND*%
X119000000Y-134000000D03*
X124500000Y-136000000D03*
X139000000Y-135500000D03*
%TO.N,RAW*%
X129250000Y-112235000D03*
%TO.N,RST*%
X135375000Y-111350000D03*
%TO.N,BAT_P*%
X132000000Y-113500000D03*
X137500000Y-116000000D03*
X137500000Y-118500000D03*
%TO.N,GND*%
X142500000Y-110500000D03*
X138959419Y-116040581D03*
X138959419Y-118486473D03*
%TO.N,P14*%
X321500000Y-117000000D03*
%TO.N,P10*%
X293000000Y-117000000D03*
%TO.N,P9*%
X284500000Y-132000000D03*
%TO.N,P8*%
X255500000Y-132500000D03*
%TO.N,P7*%
X239500000Y-133000000D03*
%TO.N,P6*%
X124000000Y-133500000D03*
X227000000Y-133500000D03*
%TO.N,P5*%
X124500000Y-134500000D03*
X200500000Y-134500000D03*
%TO.N,P1*%
X126000000Y-132500000D03*
%TO.N,P16*%
X123000000Y-128500000D03*
%TD*%
D22*
%TO.N,GND*%
X121000000Y-136000000D02*
X119000000Y-134000000D01*
X124500000Y-136000000D02*
X121000000Y-136000000D01*
X139000000Y-128550000D02*
X139000000Y-135500000D01*
%TO.N,P1*%
X130312500Y-129144022D02*
X130312500Y-127812500D01*
X140335000Y-139166522D02*
X130312500Y-129144022D01*
X140335000Y-141540000D02*
X140335000Y-139166522D01*
X130312500Y-127812500D02*
X128340000Y-129785000D01*
X135585000Y-122540000D02*
X130312500Y-127812500D01*
%TO.N,BAT_P*%
X132000000Y-113485000D02*
X130750000Y-112235000D01*
X132000000Y-113500000D02*
X132000000Y-113485000D01*
X137500000Y-118500000D02*
X137500000Y-116000000D01*
%TO.N,GND*%
X141650000Y-109650000D02*
X140625000Y-109650000D01*
X142500000Y-110500000D02*
X141650000Y-109650000D01*
X138959419Y-118486473D02*
X138959419Y-116040581D01*
%TO.N,P3*%
X113100000Y-131620000D02*
X114250000Y-130470000D01*
X111233654Y-131620000D02*
X113100000Y-131620000D01*
X110560000Y-130946346D02*
X111233654Y-131620000D01*
X110560000Y-124454113D02*
X110560000Y-130946346D01*
X107100000Y-119005887D02*
X107100000Y-120994113D01*
X108505887Y-117600000D02*
X107100000Y-119005887D01*
X115347208Y-117600000D02*
X108505887Y-117600000D01*
X115500000Y-117447208D02*
X115347208Y-117600000D01*
X107100000Y-120994113D02*
X110560000Y-124454113D01*
X115500000Y-114893654D02*
X115500000Y-117447208D01*
X119508654Y-110885000D02*
X115500000Y-114893654D01*
X125458629Y-110885000D02*
X119508654Y-110885000D01*
X127331371Y-109675000D02*
X126668629Y-109675000D01*
X127800000Y-110143629D02*
X127331371Y-109675000D01*
X126668629Y-109675000D02*
X125458629Y-110885000D01*
X127800000Y-112866346D02*
X127800000Y-110143629D01*
X129966346Y-114080000D02*
X129013654Y-114080000D01*
X130886346Y-115000000D02*
X129966346Y-114080000D01*
X145088730Y-115000000D02*
X130886346Y-115000000D01*
X129013654Y-114080000D02*
X127800000Y-112866346D01*
X163500000Y-120500000D02*
X163500000Y-120241522D01*
X158258478Y-115000000D02*
X156758478Y-116500000D01*
X163500000Y-120241522D02*
X158258478Y-115000000D01*
X171735000Y-124390000D02*
X167390000Y-124390000D01*
X146588730Y-116500000D02*
X145088730Y-115000000D01*
X156758478Y-116500000D02*
X146588730Y-116500000D01*
X173585000Y-122540000D02*
X171735000Y-124390000D01*
X167390000Y-124390000D02*
X163500000Y-120500000D01*
%TO.N,P14*%
X329638478Y-117000000D02*
X321500000Y-117000000D01*
X332805000Y-120166522D02*
X329638478Y-117000000D01*
X332805000Y-122540000D02*
X332805000Y-120166522D01*
%TO.N,P10*%
X303418478Y-117000000D02*
X293000000Y-117000000D01*
X306585000Y-120166522D02*
X303418478Y-117000000D01*
X306585000Y-122540000D02*
X306585000Y-120166522D01*
%TO.N,P9*%
X287585000Y-128915000D02*
X284500000Y-132000000D01*
X287585000Y-122540000D02*
X287585000Y-128915000D01*
%TO.N,P8*%
X261300000Y-132500000D02*
X255500000Y-132500000D01*
X268585000Y-125215000D02*
X261300000Y-132500000D01*
X268585000Y-122540000D02*
X268585000Y-125215000D01*
%TO.N,P7*%
X241800000Y-133000000D02*
X239500000Y-133000000D01*
X249585000Y-125215000D02*
X241800000Y-133000000D01*
X249585000Y-122540000D02*
X249585000Y-125215000D01*
%TO.N,P6*%
X121870000Y-131370000D02*
X121870000Y-130470000D01*
X124000000Y-133500000D02*
X121870000Y-131370000D01*
X230585000Y-129915000D02*
X227000000Y-133500000D01*
X230585000Y-122540000D02*
X230585000Y-129915000D01*
%TO.N,P5*%
X124500000Y-134500000D02*
X123360000Y-134500000D01*
X123360000Y-134500000D02*
X119330000Y-130470000D01*
X202300000Y-134500000D02*
X200500000Y-134500000D01*
X211585000Y-125215000D02*
X202300000Y-134500000D01*
X211585000Y-122540000D02*
X211585000Y-125215000D01*
%TO.N,P4*%
X105480000Y-129993654D02*
X105480000Y-130946346D01*
X106553654Y-132020000D02*
X115240000Y-132020000D01*
X101734315Y-129300000D02*
X104786346Y-129300000D01*
X101500000Y-129065685D02*
X101734315Y-129300000D01*
X101500000Y-117146346D02*
X101500000Y-129065685D01*
X104786346Y-129300000D02*
X105480000Y-129993654D01*
X102940000Y-115706346D02*
X101500000Y-117146346D01*
X103613654Y-114080000D02*
X102940000Y-114753654D01*
X105480000Y-130946346D02*
X106553654Y-132020000D01*
X104566346Y-114080000D02*
X103613654Y-114080000D01*
X102940000Y-114753654D02*
X102940000Y-115706346D01*
X105240000Y-114753654D02*
X104566346Y-114080000D01*
X105240000Y-115706346D02*
X105240000Y-114753654D01*
X111606346Y-117200000D02*
X106733654Y-117200000D01*
X117368654Y-110485000D02*
X113100000Y-114753654D01*
X125292943Y-110485000D02*
X117368654Y-110485000D01*
X126502943Y-109275000D02*
X125292943Y-110485000D01*
X113100000Y-115706346D02*
X111606346Y-117200000D01*
X129931371Y-109275000D02*
X126502943Y-109275000D01*
X131541371Y-110885000D02*
X129931371Y-109275000D01*
X113100000Y-114753654D02*
X113100000Y-115706346D01*
X132950000Y-110885000D02*
X131541371Y-110885000D01*
X143315000Y-112285000D02*
X134350000Y-112285000D01*
X134350000Y-112285000D02*
X132950000Y-110885000D01*
X143500000Y-112100000D02*
X143315000Y-112285000D01*
X166100000Y-112100000D02*
X143500000Y-112100000D01*
X106733654Y-117200000D02*
X105240000Y-115706346D01*
X175300000Y-121300000D02*
X166100000Y-112100000D01*
X115240000Y-132020000D02*
X116790000Y-130470000D01*
X182481522Y-121300000D02*
X175300000Y-121300000D01*
X185571522Y-124390000D02*
X182481522Y-121300000D01*
X190735000Y-124390000D02*
X185571522Y-124390000D01*
X192585000Y-122540000D02*
X190735000Y-124390000D01*
%TO.N,P2*%
X111460000Y-130220000D02*
X111710000Y-130470000D01*
X112543705Y-120690000D02*
X111460000Y-121773705D01*
X111460000Y-121773705D02*
X111460000Y-130220000D01*
X112543705Y-120197817D02*
X112543705Y-120690000D01*
X115118478Y-118700000D02*
X114041522Y-118700000D01*
X118180000Y-115638478D02*
X115118478Y-118700000D01*
X114041522Y-118700000D02*
X112543705Y-120197817D01*
X118180000Y-114753654D02*
X118180000Y-115638478D01*
X119253654Y-113680000D02*
X118180000Y-114753654D01*
X127026346Y-113680000D02*
X119253654Y-113680000D01*
X128100000Y-115706346D02*
X128100000Y-114753654D01*
X130900000Y-118506346D02*
X128100000Y-115706346D01*
X135506346Y-118506346D02*
X130900000Y-118506346D01*
X138300000Y-121300000D02*
X135506346Y-118506346D01*
X144800000Y-121300000D02*
X138300000Y-121300000D01*
X147890000Y-124390000D02*
X144800000Y-121300000D01*
X128100000Y-114753654D02*
X127026346Y-113680000D01*
X152735000Y-124390000D02*
X147890000Y-124390000D01*
X154585000Y-122540000D02*
X152735000Y-124390000D01*
%TO.N,P1*%
X126546346Y-132500000D02*
X126000000Y-132500000D01*
X128340000Y-130706346D02*
X126546346Y-132500000D01*
X128340000Y-129785000D02*
X128340000Y-130706346D01*
%TO.N,P18*%
X132850000Y-186000000D02*
X136350000Y-186000000D01*
X130583000Y-183733000D02*
X132850000Y-186000000D01*
X130583000Y-165917000D02*
X130583000Y-183733000D01*
X135650000Y-160850000D02*
X130583000Y-165917000D01*
X130000000Y-140753705D02*
X135650000Y-146403705D01*
X130000000Y-138500000D02*
X130000000Y-140753705D01*
X123260000Y-129993654D02*
X123260000Y-131760000D01*
X122586346Y-129320000D02*
X123260000Y-129993654D01*
X121520000Y-129320000D02*
X122586346Y-129320000D01*
X135650000Y-146403705D02*
X135650000Y-160850000D01*
X118600000Y-126400000D02*
X121520000Y-129320000D01*
X118600000Y-124900000D02*
X118600000Y-126400000D01*
X123260000Y-131760000D02*
X130000000Y-138500000D01*
X122120000Y-121380000D02*
X118600000Y-124900000D01*
X122120000Y-118380000D02*
X122120000Y-121380000D01*
X123020000Y-117480000D02*
X122120000Y-118380000D01*
X123020000Y-114753654D02*
X123020000Y-117480000D01*
X122346346Y-114080000D02*
X123020000Y-114753654D01*
X120480000Y-114080000D02*
X122346346Y-114080000D01*
X119330000Y-115230000D02*
X120480000Y-114080000D01*
%TO.N,P16*%
X126100000Y-116080000D02*
X126950000Y-115230000D01*
X127810000Y-122810000D02*
X126100000Y-121100000D01*
X126100000Y-121100000D02*
X126100000Y-116080000D01*
X126389295Y-127267000D02*
X127810000Y-125846295D01*
X124233000Y-127267000D02*
X126389295Y-127267000D01*
X127810000Y-125846295D02*
X127810000Y-122810000D01*
X123000000Y-128500000D02*
X124233000Y-127267000D01*
%TO.N,P15*%
X119500000Y-117600000D02*
X121870000Y-115230000D01*
X119500000Y-122350000D02*
X119500000Y-117600000D01*
%TO.N,GND*%
X109170000Y-130470000D02*
X106630000Y-130470000D01*
X101900000Y-128900000D02*
X105060000Y-128900000D01*
X101900000Y-123713000D02*
X101900000Y-128900000D01*
X105060000Y-128900000D02*
X106630000Y-130470000D01*
X102083000Y-123530000D02*
X101900000Y-123713000D01*
X102083000Y-117237000D02*
X102083000Y-123530000D01*
X104090000Y-115230000D02*
X102083000Y-117237000D01*
%TO.N,P0*%
X108680000Y-135060000D02*
X104090000Y-130470000D01*
X117940000Y-135060000D02*
X108680000Y-135060000D01*
%TO.N,P4*%
X197335000Y-127290000D02*
X197335000Y-141540000D01*
X192585000Y-122540000D02*
X197335000Y-127290000D01*
X206835000Y-158166522D02*
X197335000Y-148666522D01*
X206835000Y-160540000D02*
X206835000Y-158166522D01*
X197335000Y-148666522D02*
X197335000Y-141540000D01*
%TO.N,P2*%
X171115000Y-162820000D02*
X168835000Y-160540000D01*
X171115000Y-179540000D02*
X171115000Y-162820000D01*
X168835000Y-151040000D02*
X168835000Y-160540000D01*
X159335000Y-141540000D02*
X168835000Y-151040000D01*
%TO.N,P10*%
X320835000Y-151040000D02*
X311335000Y-141540000D01*
X320835000Y-160540000D02*
X320835000Y-151040000D01*
%TO.N,P14*%
X335085000Y-141540000D02*
X339835000Y-146290000D01*
X339835000Y-146290000D02*
X339835000Y-160540000D01*
X335085000Y-124820000D02*
X335085000Y-141540000D01*
X332805000Y-122540000D02*
X335085000Y-124820000D01*
%TO.N,P10*%
X311335000Y-127290000D02*
X311335000Y-141540000D01*
X306585000Y-122540000D02*
X311335000Y-127290000D01*
%TO.N,P9*%
X292335000Y-127290000D02*
X292335000Y-141540000D01*
X287585000Y-122540000D02*
X292335000Y-127290000D01*
X301835000Y-151040000D02*
X292335000Y-141540000D01*
X301835000Y-160540000D02*
X301835000Y-151040000D01*
%TO.N,P14*%
X339835000Y-160540000D02*
X339835000Y-179540000D01*
%TO.N,P10*%
X320835000Y-160540000D02*
X320835000Y-179540000D01*
%TO.N,P9*%
X301835000Y-179540000D02*
X301835000Y-160540000D01*
%TO.N,P8*%
X282835000Y-150632000D02*
X273743000Y-141540000D01*
X282835000Y-160540000D02*
X282835000Y-150632000D01*
X273743000Y-141540000D02*
X273335000Y-141540000D01*
X273335000Y-127290000D02*
X273335000Y-141540000D01*
X268585000Y-122540000D02*
X273335000Y-127290000D01*
%TO.N,P7*%
X254335000Y-127290000D02*
X249585000Y-122540000D01*
X254335000Y-141540000D02*
X254335000Y-127290000D01*
X263835000Y-151040000D02*
X263835000Y-160540000D01*
X254335000Y-141540000D02*
X263835000Y-151040000D01*
X278085000Y-174790000D02*
X263835000Y-160540000D01*
X278085000Y-179540000D02*
X278085000Y-174790000D01*
%TO.N,P6*%
X244835000Y-154835000D02*
X235335000Y-145335000D01*
X235335000Y-145335000D02*
X235335000Y-141540000D01*
X244835000Y-160540000D02*
X244835000Y-154835000D01*
X230585000Y-122540000D02*
X235335000Y-127290000D01*
X235335000Y-127290000D02*
X235335000Y-141540000D01*
%TO.N,P5*%
X216335000Y-127290000D02*
X216335000Y-141540000D01*
X211585000Y-122540000D02*
X216335000Y-127290000D01*
X216335000Y-146773730D02*
X216335000Y-141540000D01*
X225835000Y-156273730D02*
X216335000Y-146773730D01*
X225835000Y-160540000D02*
X225835000Y-156273730D01*
X239795000Y-174500000D02*
X225835000Y-160540000D01*
X244000000Y-174500000D02*
X239795000Y-174500000D01*
X244835000Y-175335000D02*
X244000000Y-174500000D01*
X244835000Y-179540000D02*
X244835000Y-175335000D01*
%TO.N,P3*%
X187835000Y-160540000D02*
X204365000Y-177070000D01*
X204365000Y-177070000D02*
X204365000Y-179540000D01*
X187835000Y-151040000D02*
X187835000Y-160540000D01*
X178335000Y-141540000D02*
X187835000Y-151040000D01*
X178335000Y-127290000D02*
X178335000Y-141540000D01*
X173585000Y-122540000D02*
X178335000Y-127290000D01*
%TO.N,P2*%
X159335000Y-127290000D02*
X154585000Y-122540000D01*
X159335000Y-141540000D02*
X159335000Y-127290000D01*
%TO.N,P1*%
X149835000Y-151040000D02*
X149835000Y-160540000D01*
X140335000Y-141540000D02*
X149835000Y-151040000D01*
X149835000Y-174790000D02*
X149835000Y-160540000D01*
X145085000Y-179540000D02*
X149835000Y-174790000D01*
%TO.N,P0*%
X123710000Y-174790000D02*
X123710000Y-160540000D01*
X118960000Y-179540000D02*
X123710000Y-174790000D01*
X123710000Y-146290000D02*
X123710000Y-160540000D01*
X118960000Y-141540000D02*
X123710000Y-146290000D01*
X117940000Y-135060000D02*
X118960000Y-136080000D01*
X116585000Y-122540000D02*
X117940000Y-123895000D01*
X117940000Y-123895000D02*
X117940000Y-135060000D01*
X118960000Y-136080000D02*
X118960000Y-141540000D01*
%TO.N,GND*%
X135375000Y-109650000D02*
X140625000Y-109650000D01*
%TO.N,RST*%
X135375000Y-111350000D02*
X140625000Y-111350000D01*
%TO.N,q_default*%
X120070000Y-125080000D02*
X119500000Y-125650000D01*
X122658000Y-125080000D02*
X120070000Y-125080000D01*
%TO.N,esc_default*%
X103658000Y-126992000D02*
X102650000Y-128000000D01*
X103658000Y-125080000D02*
X103658000Y-126992000D01*
D23*
%TO.N,w_default*%
X141850000Y-125250000D02*
X143895000Y-127295000D01*
X143895000Y-127295000D02*
X147467000Y-127295000D01*
X147467000Y-127295000D02*
X149342000Y-129170000D01*
%TO.N,e_default*%
X160850000Y-125250000D02*
X162895000Y-127295000D01*
X162895000Y-127295000D02*
X166467000Y-127295000D01*
X166467000Y-127295000D02*
X168342000Y-129170000D01*
%TO.N,r_default*%
X179850000Y-125250000D02*
X181895000Y-127295000D01*
X181895000Y-127295000D02*
X185467000Y-127295000D01*
X185467000Y-127295000D02*
X187342000Y-129170000D01*
%TO.N,t_default*%
X198850000Y-125250000D02*
X200895000Y-127295000D01*
X200895000Y-127295000D02*
X204467000Y-127295000D01*
X204467000Y-127295000D02*
X206342000Y-129170000D01*
%TO.N,y_default*%
X217850000Y-125250000D02*
X219895000Y-127295000D01*
X219895000Y-127295000D02*
X223467000Y-127295000D01*
X223467000Y-127295000D02*
X225342000Y-129170000D01*
%TO.N,u_default*%
X236850000Y-125250000D02*
X238895000Y-127295000D01*
X238895000Y-127295000D02*
X242467000Y-127295000D01*
X242467000Y-127295000D02*
X244342000Y-129170000D01*
%TO.N,i_default*%
X255850000Y-125250000D02*
X257895000Y-127295000D01*
X257895000Y-127295000D02*
X261467000Y-127295000D01*
X261467000Y-127295000D02*
X263342000Y-129170000D01*
%TO.N,o_default*%
X274850000Y-125250000D02*
X276895000Y-127295000D01*
X276895000Y-127295000D02*
X280467000Y-127295000D01*
X280467000Y-127295000D02*
X282342000Y-129170000D01*
%TO.N,p_default*%
X293850000Y-125250000D02*
X295895000Y-127295000D01*
X295895000Y-127295000D02*
X299467000Y-127295000D01*
X299467000Y-127295000D02*
X301342000Y-129170000D01*
%TO.N,backspace_default*%
X320070000Y-125250000D02*
X322115000Y-127295000D01*
X322115000Y-127295000D02*
X325687000Y-127295000D01*
X325687000Y-127295000D02*
X327562000Y-129170000D01*
%TO.N,tab_default*%
X106225000Y-144250000D02*
X108270000Y-146295000D01*
X108270000Y-146295000D02*
X111842000Y-146295000D01*
X111842000Y-146295000D02*
X113717000Y-148170000D01*
%TO.N,a_default*%
X127600000Y-144250000D02*
X129645000Y-146295000D01*
X129645000Y-146295000D02*
X133217000Y-146295000D01*
X133217000Y-146295000D02*
X135092000Y-148170000D01*
%TO.N,s_default*%
X146600000Y-144250000D02*
X148645000Y-146295000D01*
X148645000Y-146295000D02*
X152217000Y-146295000D01*
X152217000Y-146295000D02*
X154092000Y-148170000D01*
%TO.N,d_default*%
X165600000Y-144250000D02*
X167645000Y-146295000D01*
X167645000Y-146295000D02*
X171217000Y-146295000D01*
X171217000Y-146295000D02*
X173092000Y-148170000D01*
%TO.N,f_default*%
X184600000Y-144250000D02*
X186645000Y-146295000D01*
X186645000Y-146295000D02*
X190217000Y-146295000D01*
X190217000Y-146295000D02*
X192092000Y-148170000D01*
%TO.N,g_default*%
X203600000Y-144250000D02*
X205645000Y-146295000D01*
X205645000Y-146295000D02*
X209217000Y-146295000D01*
X209217000Y-146295000D02*
X211092000Y-148170000D01*
%TO.N,h_default*%
X222600000Y-144250000D02*
X224645000Y-146295000D01*
X224645000Y-146295000D02*
X228217000Y-146295000D01*
X228217000Y-146295000D02*
X230092000Y-148170000D01*
%TO.N,j_default*%
X241600000Y-144250000D02*
X243645000Y-146295000D01*
X243645000Y-146295000D02*
X247217000Y-146295000D01*
X247217000Y-146295000D02*
X249092000Y-148170000D01*
%TO.N,k_default*%
X260600000Y-144250000D02*
X262645000Y-146295000D01*
X262645000Y-146295000D02*
X266217000Y-146295000D01*
X266217000Y-146295000D02*
X268092000Y-148170000D01*
%TO.N,l_default*%
X279600000Y-144250000D02*
X281645000Y-146295000D01*
X281645000Y-146295000D02*
X285217000Y-146295000D01*
X285217000Y-146295000D02*
X287092000Y-148170000D01*
%TO.N,semicolon_default*%
X298600000Y-144250000D02*
X300645000Y-146295000D01*
X300645000Y-146295000D02*
X304217000Y-146295000D01*
X304217000Y-146295000D02*
X306092000Y-148170000D01*
%TO.N,quotes_default*%
X322350000Y-144250000D02*
X324395000Y-146295000D01*
X324395000Y-146295000D02*
X327967000Y-146295000D01*
X327967000Y-146295000D02*
X329842000Y-148170000D01*
%TO.N,shift_default*%
X110975000Y-163250000D02*
X113020000Y-165295000D01*
X113020000Y-165295000D02*
X116592000Y-165295000D01*
X116592000Y-165295000D02*
X118467000Y-167170000D01*
%TO.N,z_default*%
X137100000Y-163250000D02*
X139145000Y-165295000D01*
X139145000Y-165295000D02*
X142717000Y-165295000D01*
X142717000Y-165295000D02*
X144592000Y-167170000D01*
%TO.N,x_default*%
X156100000Y-163250000D02*
X158145000Y-165295000D01*
X158145000Y-165295000D02*
X161717000Y-165295000D01*
X161717000Y-165295000D02*
X163592000Y-167170000D01*
%TO.N,c_default*%
X175100000Y-163250000D02*
X177145000Y-165295000D01*
X177145000Y-165295000D02*
X180717000Y-165295000D01*
X180717000Y-165295000D02*
X182592000Y-167170000D01*
%TO.N,v_default*%
X194100000Y-163250000D02*
X196145000Y-165295000D01*
X196145000Y-165295000D02*
X199717000Y-165295000D01*
X199717000Y-165295000D02*
X201592000Y-167170000D01*
%TO.N,b_default*%
X213100000Y-163250000D02*
X215145000Y-165295000D01*
X215145000Y-165295000D02*
X218717000Y-165295000D01*
X218717000Y-165295000D02*
X220592000Y-167170000D01*
%TO.N,n_default*%
X232100000Y-163250000D02*
X234145000Y-165295000D01*
X234145000Y-165295000D02*
X237717000Y-165295000D01*
X237717000Y-165295000D02*
X239592000Y-167170000D01*
%TO.N,m_default*%
X251100000Y-163250000D02*
X253145000Y-165295000D01*
X253145000Y-165295000D02*
X256717000Y-165295000D01*
X256717000Y-165295000D02*
X258592000Y-167170000D01*
%TO.N,comma_default*%
X270100000Y-163250000D02*
X272145000Y-165295000D01*
X272145000Y-165295000D02*
X275717000Y-165295000D01*
X275717000Y-165295000D02*
X277592000Y-167170000D01*
%TO.N,period_default*%
X289100000Y-163250000D02*
X291145000Y-165295000D01*
X291145000Y-165295000D02*
X294717000Y-165295000D01*
X294717000Y-165295000D02*
X296592000Y-167170000D01*
%TO.N,questionmark_default*%
X308100000Y-163250000D02*
X310145000Y-165295000D01*
X310145000Y-165295000D02*
X313717000Y-165295000D01*
X313717000Y-165295000D02*
X315592000Y-167170000D01*
%TO.N,something_default*%
X327100000Y-163250000D02*
X329145000Y-165295000D01*
X329145000Y-165295000D02*
X332717000Y-165295000D01*
X332717000Y-165295000D02*
X334592000Y-167170000D01*
%TO.N,ctrl_default*%
X106225000Y-182250000D02*
X108270000Y-184295000D01*
X108270000Y-184295000D02*
X111842000Y-184295000D01*
X111842000Y-184295000D02*
X113717000Y-186170000D01*
%TO.N,2nd_default*%
X132350000Y-182250000D02*
X134395000Y-184295000D01*
X134395000Y-184295000D02*
X137967000Y-184295000D01*
X137967000Y-184295000D02*
X139842000Y-186170000D01*
%TO.N,alt_default*%
X158380000Y-182250000D02*
X160425000Y-184295000D01*
X160425000Y-184295000D02*
X163997000Y-184295000D01*
X163997000Y-184295000D02*
X165872000Y-186170000D01*
%TO.N,space1_default*%
X191630000Y-182250000D02*
X193675000Y-184295000D01*
X193675000Y-184295000D02*
X197247000Y-184295000D01*
X197247000Y-184295000D02*
X199122000Y-186170000D01*
%TO.N,space2_default*%
X232100000Y-182250000D02*
X234145000Y-184295000D01*
X234145000Y-184295000D02*
X237717000Y-184295000D01*
X237717000Y-184295000D02*
X239592000Y-186170000D01*
%TO.N,fn_default*%
X265350000Y-182250000D02*
X267395000Y-184295000D01*
X267395000Y-184295000D02*
X270967000Y-184295000D01*
X270967000Y-184295000D02*
X272842000Y-186170000D01*
%TO.N,arrow1_default*%
X289100000Y-182250000D02*
X291145000Y-184295000D01*
X291145000Y-184295000D02*
X294717000Y-184295000D01*
X294717000Y-184295000D02*
X296592000Y-186170000D01*
%TO.N,arrow2_default*%
X308100000Y-182250000D02*
X310145000Y-184295000D01*
X310145000Y-184295000D02*
X313717000Y-184295000D01*
X313717000Y-184295000D02*
X315592000Y-186170000D01*
%TO.N,arrow3_default*%
X327100000Y-182250000D02*
X329145000Y-184295000D01*
X329145000Y-184295000D02*
X332717000Y-184295000D01*
X332717000Y-184295000D02*
X334592000Y-186170000D01*
%TD*%
M02*
