%TF.GenerationSoftware,KiCad,Pcbnew,8.0.9-rc1*%
%TF.CreationDate,2026-07-12T22:51:52-06:00*%
%TF.ProjectId,40\u0025,3430252e-6b69-4636-9164-5f7063625858,v1.0.0*%
%TF.SameCoordinates,Original*%
%TF.FileFunction,Paste,Top*%
%TF.FilePolarity,Positive*%
%FSLAX46Y46*%
G04 Gerber Fmt 4.6, Leading zero omitted, Abs format (unit mm)*
G04 Created by KiCad (PCBNEW 8.0.9-rc1) date 2026-07-12 22:51:52*
%MOMM*%
%LPD*%
G01*
G04 APERTURE LIST*
%ADD10R,0.900000X1.200000*%
%ADD11R,1.200000X0.900000*%
G04 APERTURE END LIST*
D10*
%TO.C,D1*%
X99350000Y-128000000D03*
X102650000Y-128000000D03*
%TD*%
D11*
%TO.C,D2*%
X119500000Y-122350000D03*
X119500000Y-125650000D03*
%TD*%
D10*
%TO.C,D3*%
X145850000Y-129000000D03*
X149150000Y-129000000D03*
%TD*%
%TO.C,D4*%
X164850000Y-129000000D03*
X168150000Y-129000000D03*
%TD*%
%TO.C,D5*%
X183850000Y-129000000D03*
X187150000Y-129000000D03*
%TD*%
%TO.C,D6*%
X202850000Y-129000000D03*
X206150000Y-129000000D03*
%TD*%
%TO.C,D7*%
X221850000Y-129000000D03*
X225150000Y-129000000D03*
%TD*%
%TO.C,D8*%
X240850000Y-129000000D03*
X244150000Y-129000000D03*
%TD*%
%TO.C,D9*%
X259850000Y-129000000D03*
X263150000Y-129000000D03*
%TD*%
%TO.C,D10*%
X278850000Y-129000000D03*
X282150000Y-129000000D03*
%TD*%
%TO.C,D11*%
X297850000Y-129000000D03*
X301150000Y-129000000D03*
%TD*%
%TO.C,D12*%
X324070000Y-129000000D03*
X327370000Y-129000000D03*
%TD*%
%TO.C,D13*%
X110225000Y-148000000D03*
X113525000Y-148000000D03*
%TD*%
%TO.C,D14*%
X131600000Y-148000000D03*
X134900000Y-148000000D03*
%TD*%
%TO.C,D15*%
X150600000Y-148000000D03*
X153900000Y-148000000D03*
%TD*%
%TO.C,D16*%
X169600000Y-148000000D03*
X172900000Y-148000000D03*
%TD*%
%TO.C,D17*%
X188600000Y-148000000D03*
X191900000Y-148000000D03*
%TD*%
%TO.C,D18*%
X207600000Y-148000000D03*
X210900000Y-148000000D03*
%TD*%
%TO.C,D19*%
X226600000Y-148000000D03*
X229900000Y-148000000D03*
%TD*%
%TO.C,D20*%
X245600000Y-148000000D03*
X248900000Y-148000000D03*
%TD*%
%TO.C,D21*%
X264600000Y-148000000D03*
X267900000Y-148000000D03*
%TD*%
%TO.C,D22*%
X283600000Y-148000000D03*
X286900000Y-148000000D03*
%TD*%
%TO.C,D23*%
X302600000Y-148000000D03*
X305900000Y-148000000D03*
%TD*%
%TO.C,D24*%
X326350000Y-148000000D03*
X329650000Y-148000000D03*
%TD*%
%TO.C,D25*%
X114975000Y-167000000D03*
X118275000Y-167000000D03*
%TD*%
%TO.C,D26*%
X141100000Y-167000000D03*
X144400000Y-167000000D03*
%TD*%
%TO.C,D27*%
X160100000Y-167000000D03*
X163400000Y-167000000D03*
%TD*%
%TO.C,D28*%
X179100000Y-167000000D03*
X182400000Y-167000000D03*
%TD*%
%TO.C,D29*%
X198100000Y-167000000D03*
X201400000Y-167000000D03*
%TD*%
%TO.C,D30*%
X217100000Y-167000000D03*
X220400000Y-167000000D03*
%TD*%
%TO.C,D31*%
X236100000Y-167000000D03*
X239400000Y-167000000D03*
%TD*%
%TO.C,D32*%
X255100000Y-167000000D03*
X258400000Y-167000000D03*
%TD*%
%TO.C,D33*%
X274100000Y-167000000D03*
X277400000Y-167000000D03*
%TD*%
%TO.C,D34*%
X293100000Y-167000000D03*
X296400000Y-167000000D03*
%TD*%
%TO.C,D35*%
X312100000Y-167000000D03*
X315400000Y-167000000D03*
%TD*%
%TO.C,D36*%
X331100000Y-167000000D03*
X334400000Y-167000000D03*
%TD*%
%TO.C,D37*%
X110225000Y-186000000D03*
X113525000Y-186000000D03*
%TD*%
%TO.C,D38*%
X136350000Y-186000000D03*
X139650000Y-186000000D03*
%TD*%
%TO.C,D39*%
X162380000Y-186000000D03*
X165680000Y-186000000D03*
%TD*%
%TO.C,D40*%
X195630000Y-186000000D03*
X198930000Y-186000000D03*
%TD*%
%TO.C,D41*%
X236100000Y-186000000D03*
X239400000Y-186000000D03*
%TD*%
%TO.C,D42*%
X269350000Y-186000000D03*
X272650000Y-186000000D03*
%TD*%
%TO.C,D43*%
X293100000Y-186000000D03*
X296400000Y-186000000D03*
%TD*%
%TO.C,D44*%
X312100000Y-186000000D03*
X315400000Y-186000000D03*
%TD*%
%TO.C,D45*%
X331100000Y-186000000D03*
X334400000Y-186000000D03*
%TD*%
M02*
