%TF.GenerationSoftware,KiCad,Pcbnew,8.0.9-rc1*%
%TF.CreationDate,2026-07-12T22:51:52-06:00*%
%TF.ProjectId,40\u0025,3430252e-6b69-4636-9164-5f7063625858,v1.0.0*%
%TF.SameCoordinates,Original*%
%TF.FileFunction,Legend,Bot*%
%TF.FilePolarity,Positive*%
%FSLAX46Y46*%
G04 Gerber Fmt 4.6, Leading zero omitted, Abs format (unit mm)*
G04 Created by KiCad (PCBNEW 8.0.9-rc1) date 2026-07-12 22:51:52*
%MOMM*%
%LPD*%
G01*
G04 APERTURE LIST*
%ADD10C,0.150000*%
%ADD11C,0.400000*%
%ADD12C,0.100000*%
%ADD13C,0.120000*%
G04 APERTURE END LIST*
D10*
X102004819Y-117689523D02*
X101528628Y-117356190D01*
X102004819Y-117118095D02*
X101004819Y-117118095D01*
X101004819Y-117118095D02*
X101004819Y-117499047D01*
X101004819Y-117499047D02*
X101052438Y-117594285D01*
X101052438Y-117594285D02*
X101100057Y-117641904D01*
X101100057Y-117641904D02*
X101195295Y-117689523D01*
X101195295Y-117689523D02*
X101338152Y-117689523D01*
X101338152Y-117689523D02*
X101433390Y-117641904D01*
X101433390Y-117641904D02*
X101481009Y-117594285D01*
X101481009Y-117594285D02*
X101528628Y-117499047D01*
X101528628Y-117499047D02*
X101528628Y-117118095D01*
X101719104Y-118070476D02*
X101719104Y-118546666D01*
X102004819Y-117975238D02*
X101004819Y-118308571D01*
X101004819Y-118308571D02*
X102004819Y-118641904D01*
X101004819Y-118880000D02*
X102004819Y-119118095D01*
X102004819Y-119118095D02*
X101290533Y-119308571D01*
X101290533Y-119308571D02*
X102004819Y-119499047D01*
X102004819Y-119499047D02*
X101004819Y-119737143D01*
X102004819Y-126581905D02*
X101004819Y-126581905D01*
X101004819Y-126581905D02*
X101004819Y-126962857D01*
X101004819Y-126962857D02*
X101052438Y-127058095D01*
X101052438Y-127058095D02*
X101100057Y-127105714D01*
X101100057Y-127105714D02*
X101195295Y-127153333D01*
X101195295Y-127153333D02*
X101338152Y-127153333D01*
X101338152Y-127153333D02*
X101433390Y-127105714D01*
X101433390Y-127105714D02*
X101481009Y-127058095D01*
X101481009Y-127058095D02*
X101528628Y-126962857D01*
X101528628Y-126962857D02*
X101528628Y-126581905D01*
X102004819Y-128105714D02*
X102004819Y-127534286D01*
X102004819Y-127820000D02*
X101004819Y-127820000D01*
X101004819Y-127820000D02*
X101147676Y-127724762D01*
X101147676Y-127724762D02*
X101242914Y-127629524D01*
X101242914Y-127629524D02*
X101290533Y-127534286D01*
X103592438Y-117618095D02*
X103544819Y-117522857D01*
X103544819Y-117522857D02*
X103544819Y-117380000D01*
X103544819Y-117380000D02*
X103592438Y-117237143D01*
X103592438Y-117237143D02*
X103687676Y-117141905D01*
X103687676Y-117141905D02*
X103782914Y-117094286D01*
X103782914Y-117094286D02*
X103973390Y-117046667D01*
X103973390Y-117046667D02*
X104116247Y-117046667D01*
X104116247Y-117046667D02*
X104306723Y-117094286D01*
X104306723Y-117094286D02*
X104401961Y-117141905D01*
X104401961Y-117141905D02*
X104497200Y-117237143D01*
X104497200Y-117237143D02*
X104544819Y-117380000D01*
X104544819Y-117380000D02*
X104544819Y-117475238D01*
X104544819Y-117475238D02*
X104497200Y-117618095D01*
X104497200Y-117618095D02*
X104449580Y-117665714D01*
X104449580Y-117665714D02*
X104116247Y-117665714D01*
X104116247Y-117665714D02*
X104116247Y-117475238D01*
X104544819Y-118094286D02*
X103544819Y-118094286D01*
X103544819Y-118094286D02*
X104544819Y-118665714D01*
X104544819Y-118665714D02*
X103544819Y-118665714D01*
X104544819Y-119141905D02*
X103544819Y-119141905D01*
X103544819Y-119141905D02*
X103544819Y-119380000D01*
X103544819Y-119380000D02*
X103592438Y-119522857D01*
X103592438Y-119522857D02*
X103687676Y-119618095D01*
X103687676Y-119618095D02*
X103782914Y-119665714D01*
X103782914Y-119665714D02*
X103973390Y-119713333D01*
X103973390Y-119713333D02*
X104116247Y-119713333D01*
X104116247Y-119713333D02*
X104306723Y-119665714D01*
X104306723Y-119665714D02*
X104401961Y-119618095D01*
X104401961Y-119618095D02*
X104497200Y-119522857D01*
X104497200Y-119522857D02*
X104544819Y-119380000D01*
X104544819Y-119380000D02*
X104544819Y-119141905D01*
X104544819Y-126581905D02*
X103544819Y-126581905D01*
X103544819Y-126581905D02*
X103544819Y-126962857D01*
X103544819Y-126962857D02*
X103592438Y-127058095D01*
X103592438Y-127058095D02*
X103640057Y-127105714D01*
X103640057Y-127105714D02*
X103735295Y-127153333D01*
X103735295Y-127153333D02*
X103878152Y-127153333D01*
X103878152Y-127153333D02*
X103973390Y-127105714D01*
X103973390Y-127105714D02*
X104021009Y-127058095D01*
X104021009Y-127058095D02*
X104068628Y-126962857D01*
X104068628Y-126962857D02*
X104068628Y-126581905D01*
X103544819Y-127772381D02*
X103544819Y-127867619D01*
X103544819Y-127867619D02*
X103592438Y-127962857D01*
X103592438Y-127962857D02*
X103640057Y-128010476D01*
X103640057Y-128010476D02*
X103735295Y-128058095D01*
X103735295Y-128058095D02*
X103925771Y-128105714D01*
X103925771Y-128105714D02*
X104163866Y-128105714D01*
X104163866Y-128105714D02*
X104354342Y-128058095D01*
X104354342Y-128058095D02*
X104449580Y-128010476D01*
X104449580Y-128010476D02*
X104497200Y-127962857D01*
X104497200Y-127962857D02*
X104544819Y-127867619D01*
X104544819Y-127867619D02*
X104544819Y-127772381D01*
X104544819Y-127772381D02*
X104497200Y-127677143D01*
X104497200Y-127677143D02*
X104449580Y-127629524D01*
X104449580Y-127629524D02*
X104354342Y-127581905D01*
X104354342Y-127581905D02*
X104163866Y-127534286D01*
X104163866Y-127534286D02*
X103925771Y-127534286D01*
X103925771Y-127534286D02*
X103735295Y-127581905D01*
X103735295Y-127581905D02*
X103640057Y-127629524D01*
X103640057Y-127629524D02*
X103592438Y-127677143D01*
X103592438Y-127677143D02*
X103544819Y-127772381D01*
X107084819Y-117832380D02*
X106608628Y-117499047D01*
X107084819Y-117260952D02*
X106084819Y-117260952D01*
X106084819Y-117260952D02*
X106084819Y-117641904D01*
X106084819Y-117641904D02*
X106132438Y-117737142D01*
X106132438Y-117737142D02*
X106180057Y-117784761D01*
X106180057Y-117784761D02*
X106275295Y-117832380D01*
X106275295Y-117832380D02*
X106418152Y-117832380D01*
X106418152Y-117832380D02*
X106513390Y-117784761D01*
X106513390Y-117784761D02*
X106561009Y-117737142D01*
X106561009Y-117737142D02*
X106608628Y-117641904D01*
X106608628Y-117641904D02*
X106608628Y-117260952D01*
X107037200Y-118213333D02*
X107084819Y-118356190D01*
X107084819Y-118356190D02*
X107084819Y-118594285D01*
X107084819Y-118594285D02*
X107037200Y-118689523D01*
X107037200Y-118689523D02*
X106989580Y-118737142D01*
X106989580Y-118737142D02*
X106894342Y-118784761D01*
X106894342Y-118784761D02*
X106799104Y-118784761D01*
X106799104Y-118784761D02*
X106703866Y-118737142D01*
X106703866Y-118737142D02*
X106656247Y-118689523D01*
X106656247Y-118689523D02*
X106608628Y-118594285D01*
X106608628Y-118594285D02*
X106561009Y-118403809D01*
X106561009Y-118403809D02*
X106513390Y-118308571D01*
X106513390Y-118308571D02*
X106465771Y-118260952D01*
X106465771Y-118260952D02*
X106370533Y-118213333D01*
X106370533Y-118213333D02*
X106275295Y-118213333D01*
X106275295Y-118213333D02*
X106180057Y-118260952D01*
X106180057Y-118260952D02*
X106132438Y-118308571D01*
X106132438Y-118308571D02*
X106084819Y-118403809D01*
X106084819Y-118403809D02*
X106084819Y-118641904D01*
X106084819Y-118641904D02*
X106132438Y-118784761D01*
X106084819Y-119070476D02*
X106084819Y-119641904D01*
X107084819Y-119356190D02*
X106084819Y-119356190D01*
X106132438Y-126558095D02*
X106084819Y-126462857D01*
X106084819Y-126462857D02*
X106084819Y-126320000D01*
X106084819Y-126320000D02*
X106132438Y-126177143D01*
X106132438Y-126177143D02*
X106227676Y-126081905D01*
X106227676Y-126081905D02*
X106322914Y-126034286D01*
X106322914Y-126034286D02*
X106513390Y-125986667D01*
X106513390Y-125986667D02*
X106656247Y-125986667D01*
X106656247Y-125986667D02*
X106846723Y-126034286D01*
X106846723Y-126034286D02*
X106941961Y-126081905D01*
X106941961Y-126081905D02*
X107037200Y-126177143D01*
X107037200Y-126177143D02*
X107084819Y-126320000D01*
X107084819Y-126320000D02*
X107084819Y-126415238D01*
X107084819Y-126415238D02*
X107037200Y-126558095D01*
X107037200Y-126558095D02*
X106989580Y-126605714D01*
X106989580Y-126605714D02*
X106656247Y-126605714D01*
X106656247Y-126605714D02*
X106656247Y-126415238D01*
X107084819Y-127034286D02*
X106084819Y-127034286D01*
X106084819Y-127034286D02*
X107084819Y-127605714D01*
X107084819Y-127605714D02*
X106084819Y-127605714D01*
X107084819Y-128081905D02*
X106084819Y-128081905D01*
X106084819Y-128081905D02*
X106084819Y-128320000D01*
X106084819Y-128320000D02*
X106132438Y-128462857D01*
X106132438Y-128462857D02*
X106227676Y-128558095D01*
X106227676Y-128558095D02*
X106322914Y-128605714D01*
X106322914Y-128605714D02*
X106513390Y-128653333D01*
X106513390Y-128653333D02*
X106656247Y-128653333D01*
X106656247Y-128653333D02*
X106846723Y-128605714D01*
X106846723Y-128605714D02*
X106941961Y-128558095D01*
X106941961Y-128558095D02*
X107037200Y-128462857D01*
X107037200Y-128462857D02*
X107084819Y-128320000D01*
X107084819Y-128320000D02*
X107084819Y-128081905D01*
X108624819Y-117046667D02*
X109624819Y-117380000D01*
X109624819Y-117380000D02*
X108624819Y-117713333D01*
X109529580Y-118618095D02*
X109577200Y-118570476D01*
X109577200Y-118570476D02*
X109624819Y-118427619D01*
X109624819Y-118427619D02*
X109624819Y-118332381D01*
X109624819Y-118332381D02*
X109577200Y-118189524D01*
X109577200Y-118189524D02*
X109481961Y-118094286D01*
X109481961Y-118094286D02*
X109386723Y-118046667D01*
X109386723Y-118046667D02*
X109196247Y-117999048D01*
X109196247Y-117999048D02*
X109053390Y-117999048D01*
X109053390Y-117999048D02*
X108862914Y-118046667D01*
X108862914Y-118046667D02*
X108767676Y-118094286D01*
X108767676Y-118094286D02*
X108672438Y-118189524D01*
X108672438Y-118189524D02*
X108624819Y-118332381D01*
X108624819Y-118332381D02*
X108624819Y-118427619D01*
X108624819Y-118427619D02*
X108672438Y-118570476D01*
X108672438Y-118570476D02*
X108720057Y-118618095D01*
X109529580Y-119618095D02*
X109577200Y-119570476D01*
X109577200Y-119570476D02*
X109624819Y-119427619D01*
X109624819Y-119427619D02*
X109624819Y-119332381D01*
X109624819Y-119332381D02*
X109577200Y-119189524D01*
X109577200Y-119189524D02*
X109481961Y-119094286D01*
X109481961Y-119094286D02*
X109386723Y-119046667D01*
X109386723Y-119046667D02*
X109196247Y-118999048D01*
X109196247Y-118999048D02*
X109053390Y-118999048D01*
X109053390Y-118999048D02*
X108862914Y-119046667D01*
X108862914Y-119046667D02*
X108767676Y-119094286D01*
X108767676Y-119094286D02*
X108672438Y-119189524D01*
X108672438Y-119189524D02*
X108624819Y-119332381D01*
X108624819Y-119332381D02*
X108624819Y-119427619D01*
X108624819Y-119427619D02*
X108672438Y-119570476D01*
X108672438Y-119570476D02*
X108720057Y-119618095D01*
X108672438Y-126558095D02*
X108624819Y-126462857D01*
X108624819Y-126462857D02*
X108624819Y-126320000D01*
X108624819Y-126320000D02*
X108672438Y-126177143D01*
X108672438Y-126177143D02*
X108767676Y-126081905D01*
X108767676Y-126081905D02*
X108862914Y-126034286D01*
X108862914Y-126034286D02*
X109053390Y-125986667D01*
X109053390Y-125986667D02*
X109196247Y-125986667D01*
X109196247Y-125986667D02*
X109386723Y-126034286D01*
X109386723Y-126034286D02*
X109481961Y-126081905D01*
X109481961Y-126081905D02*
X109577200Y-126177143D01*
X109577200Y-126177143D02*
X109624819Y-126320000D01*
X109624819Y-126320000D02*
X109624819Y-126415238D01*
X109624819Y-126415238D02*
X109577200Y-126558095D01*
X109577200Y-126558095D02*
X109529580Y-126605714D01*
X109529580Y-126605714D02*
X109196247Y-126605714D01*
X109196247Y-126605714D02*
X109196247Y-126415238D01*
X109624819Y-127034286D02*
X108624819Y-127034286D01*
X108624819Y-127034286D02*
X109624819Y-127605714D01*
X109624819Y-127605714D02*
X108624819Y-127605714D01*
X109624819Y-128081905D02*
X108624819Y-128081905D01*
X108624819Y-128081905D02*
X108624819Y-128320000D01*
X108624819Y-128320000D02*
X108672438Y-128462857D01*
X108672438Y-128462857D02*
X108767676Y-128558095D01*
X108767676Y-128558095D02*
X108862914Y-128605714D01*
X108862914Y-128605714D02*
X109053390Y-128653333D01*
X109053390Y-128653333D02*
X109196247Y-128653333D01*
X109196247Y-128653333D02*
X109386723Y-128605714D01*
X109386723Y-128605714D02*
X109481961Y-128558095D01*
X109481961Y-128558095D02*
X109577200Y-128462857D01*
X109577200Y-128462857D02*
X109624819Y-128320000D01*
X109624819Y-128320000D02*
X109624819Y-128081905D01*
X112164819Y-117165714D02*
X111164819Y-117165714D01*
X111164819Y-117165714D02*
X111164819Y-117546666D01*
X111164819Y-117546666D02*
X111212438Y-117641904D01*
X111212438Y-117641904D02*
X111260057Y-117689523D01*
X111260057Y-117689523D02*
X111355295Y-117737142D01*
X111355295Y-117737142D02*
X111498152Y-117737142D01*
X111498152Y-117737142D02*
X111593390Y-117689523D01*
X111593390Y-117689523D02*
X111641009Y-117641904D01*
X111641009Y-117641904D02*
X111688628Y-117546666D01*
X111688628Y-117546666D02*
X111688628Y-117165714D01*
X111260057Y-118118095D02*
X111212438Y-118165714D01*
X111212438Y-118165714D02*
X111164819Y-118260952D01*
X111164819Y-118260952D02*
X111164819Y-118499047D01*
X111164819Y-118499047D02*
X111212438Y-118594285D01*
X111212438Y-118594285D02*
X111260057Y-118641904D01*
X111260057Y-118641904D02*
X111355295Y-118689523D01*
X111355295Y-118689523D02*
X111450533Y-118689523D01*
X111450533Y-118689523D02*
X111593390Y-118641904D01*
X111593390Y-118641904D02*
X112164819Y-118070476D01*
X112164819Y-118070476D02*
X112164819Y-118689523D01*
X112164819Y-119641904D02*
X112164819Y-119070476D01*
X112164819Y-119356190D02*
X111164819Y-119356190D01*
X111164819Y-119356190D02*
X111307676Y-119260952D01*
X111307676Y-119260952D02*
X111402914Y-119165714D01*
X111402914Y-119165714D02*
X111450533Y-119070476D01*
X112164819Y-126581905D02*
X111164819Y-126581905D01*
X111164819Y-126581905D02*
X111164819Y-126962857D01*
X111164819Y-126962857D02*
X111212438Y-127058095D01*
X111212438Y-127058095D02*
X111260057Y-127105714D01*
X111260057Y-127105714D02*
X111355295Y-127153333D01*
X111355295Y-127153333D02*
X111498152Y-127153333D01*
X111498152Y-127153333D02*
X111593390Y-127105714D01*
X111593390Y-127105714D02*
X111641009Y-127058095D01*
X111641009Y-127058095D02*
X111688628Y-126962857D01*
X111688628Y-126962857D02*
X111688628Y-126581905D01*
X111260057Y-127534286D02*
X111212438Y-127581905D01*
X111212438Y-127581905D02*
X111164819Y-127677143D01*
X111164819Y-127677143D02*
X111164819Y-127915238D01*
X111164819Y-127915238D02*
X111212438Y-128010476D01*
X111212438Y-128010476D02*
X111260057Y-128058095D01*
X111260057Y-128058095D02*
X111355295Y-128105714D01*
X111355295Y-128105714D02*
X111450533Y-128105714D01*
X111450533Y-128105714D02*
X111593390Y-128058095D01*
X111593390Y-128058095D02*
X112164819Y-127486667D01*
X112164819Y-127486667D02*
X112164819Y-128105714D01*
X114704819Y-117165714D02*
X113704819Y-117165714D01*
X113704819Y-117165714D02*
X113704819Y-117546666D01*
X113704819Y-117546666D02*
X113752438Y-117641904D01*
X113752438Y-117641904D02*
X113800057Y-117689523D01*
X113800057Y-117689523D02*
X113895295Y-117737142D01*
X113895295Y-117737142D02*
X114038152Y-117737142D01*
X114038152Y-117737142D02*
X114133390Y-117689523D01*
X114133390Y-117689523D02*
X114181009Y-117641904D01*
X114181009Y-117641904D02*
X114228628Y-117546666D01*
X114228628Y-117546666D02*
X114228628Y-117165714D01*
X113800057Y-118118095D02*
X113752438Y-118165714D01*
X113752438Y-118165714D02*
X113704819Y-118260952D01*
X113704819Y-118260952D02*
X113704819Y-118499047D01*
X113704819Y-118499047D02*
X113752438Y-118594285D01*
X113752438Y-118594285D02*
X113800057Y-118641904D01*
X113800057Y-118641904D02*
X113895295Y-118689523D01*
X113895295Y-118689523D02*
X113990533Y-118689523D01*
X113990533Y-118689523D02*
X114133390Y-118641904D01*
X114133390Y-118641904D02*
X114704819Y-118070476D01*
X114704819Y-118070476D02*
X114704819Y-118689523D01*
X113704819Y-119308571D02*
X113704819Y-119403809D01*
X113704819Y-119403809D02*
X113752438Y-119499047D01*
X113752438Y-119499047D02*
X113800057Y-119546666D01*
X113800057Y-119546666D02*
X113895295Y-119594285D01*
X113895295Y-119594285D02*
X114085771Y-119641904D01*
X114085771Y-119641904D02*
X114323866Y-119641904D01*
X114323866Y-119641904D02*
X114514342Y-119594285D01*
X114514342Y-119594285D02*
X114609580Y-119546666D01*
X114609580Y-119546666D02*
X114657200Y-119499047D01*
X114657200Y-119499047D02*
X114704819Y-119403809D01*
X114704819Y-119403809D02*
X114704819Y-119308571D01*
X114704819Y-119308571D02*
X114657200Y-119213333D01*
X114657200Y-119213333D02*
X114609580Y-119165714D01*
X114609580Y-119165714D02*
X114514342Y-119118095D01*
X114514342Y-119118095D02*
X114323866Y-119070476D01*
X114323866Y-119070476D02*
X114085771Y-119070476D01*
X114085771Y-119070476D02*
X113895295Y-119118095D01*
X113895295Y-119118095D02*
X113800057Y-119165714D01*
X113800057Y-119165714D02*
X113752438Y-119213333D01*
X113752438Y-119213333D02*
X113704819Y-119308571D01*
X114704819Y-126581905D02*
X113704819Y-126581905D01*
X113704819Y-126581905D02*
X113704819Y-126962857D01*
X113704819Y-126962857D02*
X113752438Y-127058095D01*
X113752438Y-127058095D02*
X113800057Y-127105714D01*
X113800057Y-127105714D02*
X113895295Y-127153333D01*
X113895295Y-127153333D02*
X114038152Y-127153333D01*
X114038152Y-127153333D02*
X114133390Y-127105714D01*
X114133390Y-127105714D02*
X114181009Y-127058095D01*
X114181009Y-127058095D02*
X114228628Y-126962857D01*
X114228628Y-126962857D02*
X114228628Y-126581905D01*
X113704819Y-127486667D02*
X113704819Y-128105714D01*
X113704819Y-128105714D02*
X114085771Y-127772381D01*
X114085771Y-127772381D02*
X114085771Y-127915238D01*
X114085771Y-127915238D02*
X114133390Y-128010476D01*
X114133390Y-128010476D02*
X114181009Y-128058095D01*
X114181009Y-128058095D02*
X114276247Y-128105714D01*
X114276247Y-128105714D02*
X114514342Y-128105714D01*
X114514342Y-128105714D02*
X114609580Y-128058095D01*
X114609580Y-128058095D02*
X114657200Y-128010476D01*
X114657200Y-128010476D02*
X114704819Y-127915238D01*
X114704819Y-127915238D02*
X114704819Y-127629524D01*
X114704819Y-127629524D02*
X114657200Y-127534286D01*
X114657200Y-127534286D02*
X114609580Y-127486667D01*
X117244819Y-117165714D02*
X116244819Y-117165714D01*
X116244819Y-117165714D02*
X116244819Y-117546666D01*
X116244819Y-117546666D02*
X116292438Y-117641904D01*
X116292438Y-117641904D02*
X116340057Y-117689523D01*
X116340057Y-117689523D02*
X116435295Y-117737142D01*
X116435295Y-117737142D02*
X116578152Y-117737142D01*
X116578152Y-117737142D02*
X116673390Y-117689523D01*
X116673390Y-117689523D02*
X116721009Y-117641904D01*
X116721009Y-117641904D02*
X116768628Y-117546666D01*
X116768628Y-117546666D02*
X116768628Y-117165714D01*
X117244819Y-118689523D02*
X117244819Y-118118095D01*
X117244819Y-118403809D02*
X116244819Y-118403809D01*
X116244819Y-118403809D02*
X116387676Y-118308571D01*
X116387676Y-118308571D02*
X116482914Y-118213333D01*
X116482914Y-118213333D02*
X116530533Y-118118095D01*
X117244819Y-119165714D02*
X117244819Y-119356190D01*
X117244819Y-119356190D02*
X117197200Y-119451428D01*
X117197200Y-119451428D02*
X117149580Y-119499047D01*
X117149580Y-119499047D02*
X117006723Y-119594285D01*
X117006723Y-119594285D02*
X116816247Y-119641904D01*
X116816247Y-119641904D02*
X116435295Y-119641904D01*
X116435295Y-119641904D02*
X116340057Y-119594285D01*
X116340057Y-119594285D02*
X116292438Y-119546666D01*
X116292438Y-119546666D02*
X116244819Y-119451428D01*
X116244819Y-119451428D02*
X116244819Y-119260952D01*
X116244819Y-119260952D02*
X116292438Y-119165714D01*
X116292438Y-119165714D02*
X116340057Y-119118095D01*
X116340057Y-119118095D02*
X116435295Y-119070476D01*
X116435295Y-119070476D02*
X116673390Y-119070476D01*
X116673390Y-119070476D02*
X116768628Y-119118095D01*
X116768628Y-119118095D02*
X116816247Y-119165714D01*
X116816247Y-119165714D02*
X116863866Y-119260952D01*
X116863866Y-119260952D02*
X116863866Y-119451428D01*
X116863866Y-119451428D02*
X116816247Y-119546666D01*
X116816247Y-119546666D02*
X116768628Y-119594285D01*
X116768628Y-119594285D02*
X116673390Y-119641904D01*
X117244819Y-126581905D02*
X116244819Y-126581905D01*
X116244819Y-126581905D02*
X116244819Y-126962857D01*
X116244819Y-126962857D02*
X116292438Y-127058095D01*
X116292438Y-127058095D02*
X116340057Y-127105714D01*
X116340057Y-127105714D02*
X116435295Y-127153333D01*
X116435295Y-127153333D02*
X116578152Y-127153333D01*
X116578152Y-127153333D02*
X116673390Y-127105714D01*
X116673390Y-127105714D02*
X116721009Y-127058095D01*
X116721009Y-127058095D02*
X116768628Y-126962857D01*
X116768628Y-126962857D02*
X116768628Y-126581905D01*
X116578152Y-128010476D02*
X117244819Y-128010476D01*
X116197200Y-127772381D02*
X116911485Y-127534286D01*
X116911485Y-127534286D02*
X116911485Y-128153333D01*
X119784819Y-117165714D02*
X118784819Y-117165714D01*
X118784819Y-117165714D02*
X118784819Y-117546666D01*
X118784819Y-117546666D02*
X118832438Y-117641904D01*
X118832438Y-117641904D02*
X118880057Y-117689523D01*
X118880057Y-117689523D02*
X118975295Y-117737142D01*
X118975295Y-117737142D02*
X119118152Y-117737142D01*
X119118152Y-117737142D02*
X119213390Y-117689523D01*
X119213390Y-117689523D02*
X119261009Y-117641904D01*
X119261009Y-117641904D02*
X119308628Y-117546666D01*
X119308628Y-117546666D02*
X119308628Y-117165714D01*
X119784819Y-118689523D02*
X119784819Y-118118095D01*
X119784819Y-118403809D02*
X118784819Y-118403809D01*
X118784819Y-118403809D02*
X118927676Y-118308571D01*
X118927676Y-118308571D02*
X119022914Y-118213333D01*
X119022914Y-118213333D02*
X119070533Y-118118095D01*
X119213390Y-119260952D02*
X119165771Y-119165714D01*
X119165771Y-119165714D02*
X119118152Y-119118095D01*
X119118152Y-119118095D02*
X119022914Y-119070476D01*
X119022914Y-119070476D02*
X118975295Y-119070476D01*
X118975295Y-119070476D02*
X118880057Y-119118095D01*
X118880057Y-119118095D02*
X118832438Y-119165714D01*
X118832438Y-119165714D02*
X118784819Y-119260952D01*
X118784819Y-119260952D02*
X118784819Y-119451428D01*
X118784819Y-119451428D02*
X118832438Y-119546666D01*
X118832438Y-119546666D02*
X118880057Y-119594285D01*
X118880057Y-119594285D02*
X118975295Y-119641904D01*
X118975295Y-119641904D02*
X119022914Y-119641904D01*
X119022914Y-119641904D02*
X119118152Y-119594285D01*
X119118152Y-119594285D02*
X119165771Y-119546666D01*
X119165771Y-119546666D02*
X119213390Y-119451428D01*
X119213390Y-119451428D02*
X119213390Y-119260952D01*
X119213390Y-119260952D02*
X119261009Y-119165714D01*
X119261009Y-119165714D02*
X119308628Y-119118095D01*
X119308628Y-119118095D02*
X119403866Y-119070476D01*
X119403866Y-119070476D02*
X119594342Y-119070476D01*
X119594342Y-119070476D02*
X119689580Y-119118095D01*
X119689580Y-119118095D02*
X119737200Y-119165714D01*
X119737200Y-119165714D02*
X119784819Y-119260952D01*
X119784819Y-119260952D02*
X119784819Y-119451428D01*
X119784819Y-119451428D02*
X119737200Y-119546666D01*
X119737200Y-119546666D02*
X119689580Y-119594285D01*
X119689580Y-119594285D02*
X119594342Y-119641904D01*
X119594342Y-119641904D02*
X119403866Y-119641904D01*
X119403866Y-119641904D02*
X119308628Y-119594285D01*
X119308628Y-119594285D02*
X119261009Y-119546666D01*
X119261009Y-119546666D02*
X119213390Y-119451428D01*
X119784819Y-126581905D02*
X118784819Y-126581905D01*
X118784819Y-126581905D02*
X118784819Y-126962857D01*
X118784819Y-126962857D02*
X118832438Y-127058095D01*
X118832438Y-127058095D02*
X118880057Y-127105714D01*
X118880057Y-127105714D02*
X118975295Y-127153333D01*
X118975295Y-127153333D02*
X119118152Y-127153333D01*
X119118152Y-127153333D02*
X119213390Y-127105714D01*
X119213390Y-127105714D02*
X119261009Y-127058095D01*
X119261009Y-127058095D02*
X119308628Y-126962857D01*
X119308628Y-126962857D02*
X119308628Y-126581905D01*
X118784819Y-128058095D02*
X118784819Y-127581905D01*
X118784819Y-127581905D02*
X119261009Y-127534286D01*
X119261009Y-127534286D02*
X119213390Y-127581905D01*
X119213390Y-127581905D02*
X119165771Y-127677143D01*
X119165771Y-127677143D02*
X119165771Y-127915238D01*
X119165771Y-127915238D02*
X119213390Y-128010476D01*
X119213390Y-128010476D02*
X119261009Y-128058095D01*
X119261009Y-128058095D02*
X119356247Y-128105714D01*
X119356247Y-128105714D02*
X119594342Y-128105714D01*
X119594342Y-128105714D02*
X119689580Y-128058095D01*
X119689580Y-128058095D02*
X119737200Y-128010476D01*
X119737200Y-128010476D02*
X119784819Y-127915238D01*
X119784819Y-127915238D02*
X119784819Y-127677143D01*
X119784819Y-127677143D02*
X119737200Y-127581905D01*
X119737200Y-127581905D02*
X119689580Y-127534286D01*
X122324819Y-117165714D02*
X121324819Y-117165714D01*
X121324819Y-117165714D02*
X121324819Y-117546666D01*
X121324819Y-117546666D02*
X121372438Y-117641904D01*
X121372438Y-117641904D02*
X121420057Y-117689523D01*
X121420057Y-117689523D02*
X121515295Y-117737142D01*
X121515295Y-117737142D02*
X121658152Y-117737142D01*
X121658152Y-117737142D02*
X121753390Y-117689523D01*
X121753390Y-117689523D02*
X121801009Y-117641904D01*
X121801009Y-117641904D02*
X121848628Y-117546666D01*
X121848628Y-117546666D02*
X121848628Y-117165714D01*
X122324819Y-118689523D02*
X122324819Y-118118095D01*
X122324819Y-118403809D02*
X121324819Y-118403809D01*
X121324819Y-118403809D02*
X121467676Y-118308571D01*
X121467676Y-118308571D02*
X121562914Y-118213333D01*
X121562914Y-118213333D02*
X121610533Y-118118095D01*
X121324819Y-119594285D02*
X121324819Y-119118095D01*
X121324819Y-119118095D02*
X121801009Y-119070476D01*
X121801009Y-119070476D02*
X121753390Y-119118095D01*
X121753390Y-119118095D02*
X121705771Y-119213333D01*
X121705771Y-119213333D02*
X121705771Y-119451428D01*
X121705771Y-119451428D02*
X121753390Y-119546666D01*
X121753390Y-119546666D02*
X121801009Y-119594285D01*
X121801009Y-119594285D02*
X121896247Y-119641904D01*
X121896247Y-119641904D02*
X122134342Y-119641904D01*
X122134342Y-119641904D02*
X122229580Y-119594285D01*
X122229580Y-119594285D02*
X122277200Y-119546666D01*
X122277200Y-119546666D02*
X122324819Y-119451428D01*
X122324819Y-119451428D02*
X122324819Y-119213333D01*
X122324819Y-119213333D02*
X122277200Y-119118095D01*
X122277200Y-119118095D02*
X122229580Y-119070476D01*
X122324819Y-126581905D02*
X121324819Y-126581905D01*
X121324819Y-126581905D02*
X121324819Y-126962857D01*
X121324819Y-126962857D02*
X121372438Y-127058095D01*
X121372438Y-127058095D02*
X121420057Y-127105714D01*
X121420057Y-127105714D02*
X121515295Y-127153333D01*
X121515295Y-127153333D02*
X121658152Y-127153333D01*
X121658152Y-127153333D02*
X121753390Y-127105714D01*
X121753390Y-127105714D02*
X121801009Y-127058095D01*
X121801009Y-127058095D02*
X121848628Y-126962857D01*
X121848628Y-126962857D02*
X121848628Y-126581905D01*
X121324819Y-128010476D02*
X121324819Y-127820000D01*
X121324819Y-127820000D02*
X121372438Y-127724762D01*
X121372438Y-127724762D02*
X121420057Y-127677143D01*
X121420057Y-127677143D02*
X121562914Y-127581905D01*
X121562914Y-127581905D02*
X121753390Y-127534286D01*
X121753390Y-127534286D02*
X122134342Y-127534286D01*
X122134342Y-127534286D02*
X122229580Y-127581905D01*
X122229580Y-127581905D02*
X122277200Y-127629524D01*
X122277200Y-127629524D02*
X122324819Y-127724762D01*
X122324819Y-127724762D02*
X122324819Y-127915238D01*
X122324819Y-127915238D02*
X122277200Y-128010476D01*
X122277200Y-128010476D02*
X122229580Y-128058095D01*
X122229580Y-128058095D02*
X122134342Y-128105714D01*
X122134342Y-128105714D02*
X121896247Y-128105714D01*
X121896247Y-128105714D02*
X121801009Y-128058095D01*
X121801009Y-128058095D02*
X121753390Y-128010476D01*
X121753390Y-128010476D02*
X121705771Y-127915238D01*
X121705771Y-127915238D02*
X121705771Y-127724762D01*
X121705771Y-127724762D02*
X121753390Y-127629524D01*
X121753390Y-127629524D02*
X121801009Y-127581905D01*
X121801009Y-127581905D02*
X121896247Y-127534286D01*
X124864819Y-117165714D02*
X123864819Y-117165714D01*
X123864819Y-117165714D02*
X123864819Y-117546666D01*
X123864819Y-117546666D02*
X123912438Y-117641904D01*
X123912438Y-117641904D02*
X123960057Y-117689523D01*
X123960057Y-117689523D02*
X124055295Y-117737142D01*
X124055295Y-117737142D02*
X124198152Y-117737142D01*
X124198152Y-117737142D02*
X124293390Y-117689523D01*
X124293390Y-117689523D02*
X124341009Y-117641904D01*
X124341009Y-117641904D02*
X124388628Y-117546666D01*
X124388628Y-117546666D02*
X124388628Y-117165714D01*
X124864819Y-118689523D02*
X124864819Y-118118095D01*
X124864819Y-118403809D02*
X123864819Y-118403809D01*
X123864819Y-118403809D02*
X124007676Y-118308571D01*
X124007676Y-118308571D02*
X124102914Y-118213333D01*
X124102914Y-118213333D02*
X124150533Y-118118095D01*
X124198152Y-119546666D02*
X124864819Y-119546666D01*
X123817200Y-119308571D02*
X124531485Y-119070476D01*
X124531485Y-119070476D02*
X124531485Y-119689523D01*
X124864819Y-126581905D02*
X123864819Y-126581905D01*
X123864819Y-126581905D02*
X123864819Y-126962857D01*
X123864819Y-126962857D02*
X123912438Y-127058095D01*
X123912438Y-127058095D02*
X123960057Y-127105714D01*
X123960057Y-127105714D02*
X124055295Y-127153333D01*
X124055295Y-127153333D02*
X124198152Y-127153333D01*
X124198152Y-127153333D02*
X124293390Y-127105714D01*
X124293390Y-127105714D02*
X124341009Y-127058095D01*
X124341009Y-127058095D02*
X124388628Y-126962857D01*
X124388628Y-126962857D02*
X124388628Y-126581905D01*
X123864819Y-127486667D02*
X123864819Y-128153333D01*
X123864819Y-128153333D02*
X124864819Y-127724762D01*
X127404819Y-117165714D02*
X126404819Y-117165714D01*
X126404819Y-117165714D02*
X126404819Y-117546666D01*
X126404819Y-117546666D02*
X126452438Y-117641904D01*
X126452438Y-117641904D02*
X126500057Y-117689523D01*
X126500057Y-117689523D02*
X126595295Y-117737142D01*
X126595295Y-117737142D02*
X126738152Y-117737142D01*
X126738152Y-117737142D02*
X126833390Y-117689523D01*
X126833390Y-117689523D02*
X126881009Y-117641904D01*
X126881009Y-117641904D02*
X126928628Y-117546666D01*
X126928628Y-117546666D02*
X126928628Y-117165714D01*
X127404819Y-118689523D02*
X127404819Y-118118095D01*
X127404819Y-118403809D02*
X126404819Y-118403809D01*
X126404819Y-118403809D02*
X126547676Y-118308571D01*
X126547676Y-118308571D02*
X126642914Y-118213333D01*
X126642914Y-118213333D02*
X126690533Y-118118095D01*
X126404819Y-119546666D02*
X126404819Y-119356190D01*
X126404819Y-119356190D02*
X126452438Y-119260952D01*
X126452438Y-119260952D02*
X126500057Y-119213333D01*
X126500057Y-119213333D02*
X126642914Y-119118095D01*
X126642914Y-119118095D02*
X126833390Y-119070476D01*
X126833390Y-119070476D02*
X127214342Y-119070476D01*
X127214342Y-119070476D02*
X127309580Y-119118095D01*
X127309580Y-119118095D02*
X127357200Y-119165714D01*
X127357200Y-119165714D02*
X127404819Y-119260952D01*
X127404819Y-119260952D02*
X127404819Y-119451428D01*
X127404819Y-119451428D02*
X127357200Y-119546666D01*
X127357200Y-119546666D02*
X127309580Y-119594285D01*
X127309580Y-119594285D02*
X127214342Y-119641904D01*
X127214342Y-119641904D02*
X126976247Y-119641904D01*
X126976247Y-119641904D02*
X126881009Y-119594285D01*
X126881009Y-119594285D02*
X126833390Y-119546666D01*
X126833390Y-119546666D02*
X126785771Y-119451428D01*
X126785771Y-119451428D02*
X126785771Y-119260952D01*
X126785771Y-119260952D02*
X126833390Y-119165714D01*
X126833390Y-119165714D02*
X126881009Y-119118095D01*
X126881009Y-119118095D02*
X126976247Y-119070476D01*
X127404819Y-126581905D02*
X126404819Y-126581905D01*
X126404819Y-126581905D02*
X126404819Y-126962857D01*
X126404819Y-126962857D02*
X126452438Y-127058095D01*
X126452438Y-127058095D02*
X126500057Y-127105714D01*
X126500057Y-127105714D02*
X126595295Y-127153333D01*
X126595295Y-127153333D02*
X126738152Y-127153333D01*
X126738152Y-127153333D02*
X126833390Y-127105714D01*
X126833390Y-127105714D02*
X126881009Y-127058095D01*
X126881009Y-127058095D02*
X126928628Y-126962857D01*
X126928628Y-126962857D02*
X126928628Y-126581905D01*
X126833390Y-127724762D02*
X126785771Y-127629524D01*
X126785771Y-127629524D02*
X126738152Y-127581905D01*
X126738152Y-127581905D02*
X126642914Y-127534286D01*
X126642914Y-127534286D02*
X126595295Y-127534286D01*
X126595295Y-127534286D02*
X126500057Y-127581905D01*
X126500057Y-127581905D02*
X126452438Y-127629524D01*
X126452438Y-127629524D02*
X126404819Y-127724762D01*
X126404819Y-127724762D02*
X126404819Y-127915238D01*
X126404819Y-127915238D02*
X126452438Y-128010476D01*
X126452438Y-128010476D02*
X126500057Y-128058095D01*
X126500057Y-128058095D02*
X126595295Y-128105714D01*
X126595295Y-128105714D02*
X126642914Y-128105714D01*
X126642914Y-128105714D02*
X126738152Y-128058095D01*
X126738152Y-128058095D02*
X126785771Y-128010476D01*
X126785771Y-128010476D02*
X126833390Y-127915238D01*
X126833390Y-127915238D02*
X126833390Y-127724762D01*
X126833390Y-127724762D02*
X126881009Y-127629524D01*
X126881009Y-127629524D02*
X126928628Y-127581905D01*
X126928628Y-127581905D02*
X127023866Y-127534286D01*
X127023866Y-127534286D02*
X127214342Y-127534286D01*
X127214342Y-127534286D02*
X127309580Y-127581905D01*
X127309580Y-127581905D02*
X127357200Y-127629524D01*
X127357200Y-127629524D02*
X127404819Y-127724762D01*
X127404819Y-127724762D02*
X127404819Y-127915238D01*
X127404819Y-127915238D02*
X127357200Y-128010476D01*
X127357200Y-128010476D02*
X127309580Y-128058095D01*
X127309580Y-128058095D02*
X127214342Y-128105714D01*
X127214342Y-128105714D02*
X127023866Y-128105714D01*
X127023866Y-128105714D02*
X126928628Y-128058095D01*
X126928628Y-128058095D02*
X126881009Y-128010476D01*
X126881009Y-128010476D02*
X126833390Y-127915238D01*
X129944819Y-117165714D02*
X128944819Y-117165714D01*
X128944819Y-117165714D02*
X128944819Y-117546666D01*
X128944819Y-117546666D02*
X128992438Y-117641904D01*
X128992438Y-117641904D02*
X129040057Y-117689523D01*
X129040057Y-117689523D02*
X129135295Y-117737142D01*
X129135295Y-117737142D02*
X129278152Y-117737142D01*
X129278152Y-117737142D02*
X129373390Y-117689523D01*
X129373390Y-117689523D02*
X129421009Y-117641904D01*
X129421009Y-117641904D02*
X129468628Y-117546666D01*
X129468628Y-117546666D02*
X129468628Y-117165714D01*
X129944819Y-118689523D02*
X129944819Y-118118095D01*
X129944819Y-118403809D02*
X128944819Y-118403809D01*
X128944819Y-118403809D02*
X129087676Y-118308571D01*
X129087676Y-118308571D02*
X129182914Y-118213333D01*
X129182914Y-118213333D02*
X129230533Y-118118095D01*
X128944819Y-119308571D02*
X128944819Y-119403809D01*
X128944819Y-119403809D02*
X128992438Y-119499047D01*
X128992438Y-119499047D02*
X129040057Y-119546666D01*
X129040057Y-119546666D02*
X129135295Y-119594285D01*
X129135295Y-119594285D02*
X129325771Y-119641904D01*
X129325771Y-119641904D02*
X129563866Y-119641904D01*
X129563866Y-119641904D02*
X129754342Y-119594285D01*
X129754342Y-119594285D02*
X129849580Y-119546666D01*
X129849580Y-119546666D02*
X129897200Y-119499047D01*
X129897200Y-119499047D02*
X129944819Y-119403809D01*
X129944819Y-119403809D02*
X129944819Y-119308571D01*
X129944819Y-119308571D02*
X129897200Y-119213333D01*
X129897200Y-119213333D02*
X129849580Y-119165714D01*
X129849580Y-119165714D02*
X129754342Y-119118095D01*
X129754342Y-119118095D02*
X129563866Y-119070476D01*
X129563866Y-119070476D02*
X129325771Y-119070476D01*
X129325771Y-119070476D02*
X129135295Y-119118095D01*
X129135295Y-119118095D02*
X129040057Y-119165714D01*
X129040057Y-119165714D02*
X128992438Y-119213333D01*
X128992438Y-119213333D02*
X128944819Y-119308571D01*
X129944819Y-126581905D02*
X128944819Y-126581905D01*
X128944819Y-126581905D02*
X128944819Y-126962857D01*
X128944819Y-126962857D02*
X128992438Y-127058095D01*
X128992438Y-127058095D02*
X129040057Y-127105714D01*
X129040057Y-127105714D02*
X129135295Y-127153333D01*
X129135295Y-127153333D02*
X129278152Y-127153333D01*
X129278152Y-127153333D02*
X129373390Y-127105714D01*
X129373390Y-127105714D02*
X129421009Y-127058095D01*
X129421009Y-127058095D02*
X129468628Y-126962857D01*
X129468628Y-126962857D02*
X129468628Y-126581905D01*
X129944819Y-127629524D02*
X129944819Y-127820000D01*
X129944819Y-127820000D02*
X129897200Y-127915238D01*
X129897200Y-127915238D02*
X129849580Y-127962857D01*
X129849580Y-127962857D02*
X129706723Y-128058095D01*
X129706723Y-128058095D02*
X129516247Y-128105714D01*
X129516247Y-128105714D02*
X129135295Y-128105714D01*
X129135295Y-128105714D02*
X129040057Y-128058095D01*
X129040057Y-128058095D02*
X128992438Y-128010476D01*
X128992438Y-128010476D02*
X128944819Y-127915238D01*
X128944819Y-127915238D02*
X128944819Y-127724762D01*
X128944819Y-127724762D02*
X128992438Y-127629524D01*
X128992438Y-127629524D02*
X129040057Y-127581905D01*
X129040057Y-127581905D02*
X129135295Y-127534286D01*
X129135295Y-127534286D02*
X129373390Y-127534286D01*
X129373390Y-127534286D02*
X129468628Y-127581905D01*
X129468628Y-127581905D02*
X129516247Y-127629524D01*
X129516247Y-127629524D02*
X129563866Y-127724762D01*
X129563866Y-127724762D02*
X129563866Y-127915238D01*
X129563866Y-127915238D02*
X129516247Y-128010476D01*
X129516247Y-128010476D02*
X129468628Y-128058095D01*
X129468628Y-128058095D02*
X129373390Y-128105714D01*
X132954819Y-109880952D02*
X132954819Y-110071428D01*
X132954819Y-110071428D02*
X133002438Y-110166666D01*
X133002438Y-110166666D02*
X133097676Y-110261904D01*
X133097676Y-110261904D02*
X133288152Y-110309523D01*
X133288152Y-110309523D02*
X133621485Y-110309523D01*
X133621485Y-110309523D02*
X133811961Y-110261904D01*
X133811961Y-110261904D02*
X133907200Y-110166666D01*
X133907200Y-110166666D02*
X133954819Y-110071428D01*
X133954819Y-110071428D02*
X133954819Y-109880952D01*
X133954819Y-109880952D02*
X133907200Y-109785714D01*
X133907200Y-109785714D02*
X133811961Y-109690476D01*
X133811961Y-109690476D02*
X133621485Y-109642857D01*
X133621485Y-109642857D02*
X133288152Y-109642857D01*
X133288152Y-109642857D02*
X133097676Y-109690476D01*
X133097676Y-109690476D02*
X133002438Y-109785714D01*
X133002438Y-109785714D02*
X132954819Y-109880952D01*
X133954819Y-110738095D02*
X132954819Y-110738095D01*
X132954819Y-110738095D02*
X133954819Y-111309523D01*
X133954819Y-111309523D02*
X132954819Y-111309523D01*
X122954819Y-109547619D02*
X122954819Y-109738095D01*
X122954819Y-109738095D02*
X123002438Y-109833333D01*
X123002438Y-109833333D02*
X123097676Y-109928571D01*
X123097676Y-109928571D02*
X123288152Y-109976190D01*
X123288152Y-109976190D02*
X123621485Y-109976190D01*
X123621485Y-109976190D02*
X123811961Y-109928571D01*
X123811961Y-109928571D02*
X123907200Y-109833333D01*
X123907200Y-109833333D02*
X123954819Y-109738095D01*
X123954819Y-109738095D02*
X123954819Y-109547619D01*
X123954819Y-109547619D02*
X123907200Y-109452381D01*
X123907200Y-109452381D02*
X123811961Y-109357143D01*
X123811961Y-109357143D02*
X123621485Y-109309524D01*
X123621485Y-109309524D02*
X123288152Y-109309524D01*
X123288152Y-109309524D02*
X123097676Y-109357143D01*
X123097676Y-109357143D02*
X123002438Y-109452381D01*
X123002438Y-109452381D02*
X122954819Y-109547619D01*
X123431009Y-110738095D02*
X123431009Y-110404762D01*
X123954819Y-110404762D02*
X122954819Y-110404762D01*
X122954819Y-110404762D02*
X122954819Y-110880952D01*
X123431009Y-111595238D02*
X123431009Y-111261905D01*
X123954819Y-111261905D02*
X122954819Y-111261905D01*
X122954819Y-111261905D02*
X122954819Y-111738095D01*
D11*
%TO.C,S1*%
X111050000Y-123050000D02*
X111250000Y-123600000D01*
X111650000Y-124150000D01*
X111950000Y-124400000D01*
X112450000Y-124700000D01*
X113050000Y-124850000D01*
X113550000Y-124850000D01*
X114000000Y-124750000D01*
X114250000Y-124650000D01*
X114700000Y-124400000D01*
X114850000Y-124500000D01*
X115000000Y-124600000D01*
X115000000Y-125000000D01*
X114900000Y-125400000D01*
X114750000Y-125650000D01*
X114600000Y-125850000D01*
X114450000Y-126000000D01*
X114250000Y-126150000D01*
X114100000Y-126250000D01*
X113900000Y-126350000D01*
X113600000Y-126450000D01*
X113300000Y-126500000D01*
X113100000Y-126500000D01*
X108750000Y-126500000D01*
X109050000Y-126050000D01*
X109200000Y-125650000D01*
X109250000Y-125400000D01*
X109250000Y-125050000D01*
X109250000Y-124750000D01*
X109150000Y-124350000D01*
X109000000Y-124000000D01*
X108850000Y-123750000D01*
X108550000Y-123400000D01*
X108300000Y-123200000D01*
X107850000Y-122950000D01*
X109900000Y-122950000D01*
X110400000Y-122900000D01*
X110750000Y-122800000D01*
X111000000Y-122600000D01*
X111050000Y-123050000D01*
G36*
X111050000Y-123050000D02*
G01*
X111250000Y-123600000D01*
X111650000Y-124150000D01*
X111950000Y-124400000D01*
X112450000Y-124700000D01*
X113050000Y-124850000D01*
X113550000Y-124850000D01*
X114000000Y-124750000D01*
X114250000Y-124650000D01*
X114700000Y-124400000D01*
X114850000Y-124500000D01*
X115000000Y-124600000D01*
X115000000Y-125000000D01*
X114900000Y-125400000D01*
X114750000Y-125650000D01*
X114600000Y-125850000D01*
X114450000Y-126000000D01*
X114250000Y-126150000D01*
X114100000Y-126250000D01*
X113900000Y-126350000D01*
X113600000Y-126450000D01*
X113300000Y-126500000D01*
X113100000Y-126500000D01*
X108750000Y-126500000D01*
X109050000Y-126050000D01*
X109200000Y-125650000D01*
X109250000Y-125400000D01*
X109250000Y-125050000D01*
X109250000Y-124750000D01*
X109150000Y-124350000D01*
X109000000Y-124000000D01*
X108850000Y-123750000D01*
X108550000Y-123400000D01*
X108300000Y-123200000D01*
X107850000Y-122950000D01*
X109900000Y-122950000D01*
X110400000Y-122900000D01*
X110750000Y-122800000D01*
X111000000Y-122600000D01*
X111050000Y-123050000D01*
G37*
%TO.C,S2*%
X130050000Y-123050000D02*
X130250000Y-123600000D01*
X130650000Y-124150000D01*
X130950000Y-124400000D01*
X131450000Y-124700000D01*
X132050000Y-124850000D01*
X132550000Y-124850000D01*
X133000000Y-124750000D01*
X133250000Y-124650000D01*
X133700000Y-124400000D01*
X133850000Y-124500000D01*
X134000000Y-124600000D01*
X134000000Y-125000000D01*
X133900000Y-125400000D01*
X133750000Y-125650000D01*
X133600000Y-125850000D01*
X133450000Y-126000000D01*
X133250000Y-126150000D01*
X133100000Y-126250000D01*
X132900000Y-126350000D01*
X132600000Y-126450000D01*
X132300000Y-126500000D01*
X132100000Y-126500000D01*
X127750000Y-126500000D01*
X128050000Y-126050000D01*
X128200000Y-125650000D01*
X128250000Y-125400000D01*
X128250000Y-125050000D01*
X128250000Y-124750000D01*
X128150000Y-124350000D01*
X128000000Y-124000000D01*
X127850000Y-123750000D01*
X127550000Y-123400000D01*
X127300000Y-123200000D01*
X126850000Y-122950000D01*
X128900000Y-122950000D01*
X129400000Y-122900000D01*
X129750000Y-122800000D01*
X130000000Y-122600000D01*
X130050000Y-123050000D01*
G36*
X130050000Y-123050000D02*
G01*
X130250000Y-123600000D01*
X130650000Y-124150000D01*
X130950000Y-124400000D01*
X131450000Y-124700000D01*
X132050000Y-124850000D01*
X132550000Y-124850000D01*
X133000000Y-124750000D01*
X133250000Y-124650000D01*
X133700000Y-124400000D01*
X133850000Y-124500000D01*
X134000000Y-124600000D01*
X134000000Y-125000000D01*
X133900000Y-125400000D01*
X133750000Y-125650000D01*
X133600000Y-125850000D01*
X133450000Y-126000000D01*
X133250000Y-126150000D01*
X133100000Y-126250000D01*
X132900000Y-126350000D01*
X132600000Y-126450000D01*
X132300000Y-126500000D01*
X132100000Y-126500000D01*
X127750000Y-126500000D01*
X128050000Y-126050000D01*
X128200000Y-125650000D01*
X128250000Y-125400000D01*
X128250000Y-125050000D01*
X128250000Y-124750000D01*
X128150000Y-124350000D01*
X128000000Y-124000000D01*
X127850000Y-123750000D01*
X127550000Y-123400000D01*
X127300000Y-123200000D01*
X126850000Y-122950000D01*
X128900000Y-122950000D01*
X129400000Y-122900000D01*
X129750000Y-122800000D01*
X130000000Y-122600000D01*
X130050000Y-123050000D01*
G37*
%TO.C,S3*%
X149050000Y-123050000D02*
X149250000Y-123600000D01*
X149650000Y-124150000D01*
X149950000Y-124400000D01*
X150450000Y-124700000D01*
X151050000Y-124850000D01*
X151550000Y-124850000D01*
X152000000Y-124750000D01*
X152250000Y-124650000D01*
X152700000Y-124400000D01*
X152850000Y-124500000D01*
X153000000Y-124600000D01*
X153000000Y-125000000D01*
X152900000Y-125400000D01*
X152750000Y-125650000D01*
X152600000Y-125850000D01*
X152450000Y-126000000D01*
X152250000Y-126150000D01*
X152100000Y-126250000D01*
X151900000Y-126350000D01*
X151600000Y-126450000D01*
X151300000Y-126500000D01*
X151100000Y-126500000D01*
X146750000Y-126500000D01*
X147050000Y-126050000D01*
X147200000Y-125650000D01*
X147250000Y-125400000D01*
X147250000Y-125050000D01*
X147250000Y-124750000D01*
X147150000Y-124350000D01*
X147000000Y-124000000D01*
X146850000Y-123750000D01*
X146550000Y-123400000D01*
X146300000Y-123200000D01*
X145850000Y-122950000D01*
X147900000Y-122950000D01*
X148400000Y-122900000D01*
X148750000Y-122800000D01*
X149000000Y-122600000D01*
X149050000Y-123050000D01*
G36*
X149050000Y-123050000D02*
G01*
X149250000Y-123600000D01*
X149650000Y-124150000D01*
X149950000Y-124400000D01*
X150450000Y-124700000D01*
X151050000Y-124850000D01*
X151550000Y-124850000D01*
X152000000Y-124750000D01*
X152250000Y-124650000D01*
X152700000Y-124400000D01*
X152850000Y-124500000D01*
X153000000Y-124600000D01*
X153000000Y-125000000D01*
X152900000Y-125400000D01*
X152750000Y-125650000D01*
X152600000Y-125850000D01*
X152450000Y-126000000D01*
X152250000Y-126150000D01*
X152100000Y-126250000D01*
X151900000Y-126350000D01*
X151600000Y-126450000D01*
X151300000Y-126500000D01*
X151100000Y-126500000D01*
X146750000Y-126500000D01*
X147050000Y-126050000D01*
X147200000Y-125650000D01*
X147250000Y-125400000D01*
X147250000Y-125050000D01*
X147250000Y-124750000D01*
X147150000Y-124350000D01*
X147000000Y-124000000D01*
X146850000Y-123750000D01*
X146550000Y-123400000D01*
X146300000Y-123200000D01*
X145850000Y-122950000D01*
X147900000Y-122950000D01*
X148400000Y-122900000D01*
X148750000Y-122800000D01*
X149000000Y-122600000D01*
X149050000Y-123050000D01*
G37*
%TO.C,S4*%
X168050000Y-123050000D02*
X168250000Y-123600000D01*
X168650000Y-124150000D01*
X168950000Y-124400000D01*
X169450000Y-124700000D01*
X170050000Y-124850000D01*
X170550000Y-124850000D01*
X171000000Y-124750000D01*
X171250000Y-124650000D01*
X171700000Y-124400000D01*
X171850000Y-124500000D01*
X172000000Y-124600000D01*
X172000000Y-125000000D01*
X171900000Y-125400000D01*
X171750000Y-125650000D01*
X171600000Y-125850000D01*
X171450000Y-126000000D01*
X171250000Y-126150000D01*
X171100000Y-126250000D01*
X170900000Y-126350000D01*
X170600000Y-126450000D01*
X170300000Y-126500000D01*
X170100000Y-126500000D01*
X165750000Y-126500000D01*
X166050000Y-126050000D01*
X166200000Y-125650000D01*
X166250000Y-125400000D01*
X166250000Y-125050000D01*
X166250000Y-124750000D01*
X166150000Y-124350000D01*
X166000000Y-124000000D01*
X165850000Y-123750000D01*
X165550000Y-123400000D01*
X165300000Y-123200000D01*
X164850000Y-122950000D01*
X166900000Y-122950000D01*
X167400000Y-122900000D01*
X167750000Y-122800000D01*
X168000000Y-122600000D01*
X168050000Y-123050000D01*
G36*
X168050000Y-123050000D02*
G01*
X168250000Y-123600000D01*
X168650000Y-124150000D01*
X168950000Y-124400000D01*
X169450000Y-124700000D01*
X170050000Y-124850000D01*
X170550000Y-124850000D01*
X171000000Y-124750000D01*
X171250000Y-124650000D01*
X171700000Y-124400000D01*
X171850000Y-124500000D01*
X172000000Y-124600000D01*
X172000000Y-125000000D01*
X171900000Y-125400000D01*
X171750000Y-125650000D01*
X171600000Y-125850000D01*
X171450000Y-126000000D01*
X171250000Y-126150000D01*
X171100000Y-126250000D01*
X170900000Y-126350000D01*
X170600000Y-126450000D01*
X170300000Y-126500000D01*
X170100000Y-126500000D01*
X165750000Y-126500000D01*
X166050000Y-126050000D01*
X166200000Y-125650000D01*
X166250000Y-125400000D01*
X166250000Y-125050000D01*
X166250000Y-124750000D01*
X166150000Y-124350000D01*
X166000000Y-124000000D01*
X165850000Y-123750000D01*
X165550000Y-123400000D01*
X165300000Y-123200000D01*
X164850000Y-122950000D01*
X166900000Y-122950000D01*
X167400000Y-122900000D01*
X167750000Y-122800000D01*
X168000000Y-122600000D01*
X168050000Y-123050000D01*
G37*
%TO.C,S5*%
X187050000Y-123050000D02*
X187250000Y-123600000D01*
X187650000Y-124150000D01*
X187950000Y-124400000D01*
X188450000Y-124700000D01*
X189050000Y-124850000D01*
X189550000Y-124850000D01*
X190000000Y-124750000D01*
X190250000Y-124650000D01*
X190700000Y-124400000D01*
X190850000Y-124500000D01*
X191000000Y-124600000D01*
X191000000Y-125000000D01*
X190900000Y-125400000D01*
X190750000Y-125650000D01*
X190600000Y-125850000D01*
X190450000Y-126000000D01*
X190250000Y-126150000D01*
X190100000Y-126250000D01*
X189900000Y-126350000D01*
X189600000Y-126450000D01*
X189300000Y-126500000D01*
X189100000Y-126500000D01*
X184750000Y-126500000D01*
X185050000Y-126050000D01*
X185200000Y-125650000D01*
X185250000Y-125400000D01*
X185250000Y-125050000D01*
X185250000Y-124750000D01*
X185150000Y-124350000D01*
X185000000Y-124000000D01*
X184850000Y-123750000D01*
X184550000Y-123400000D01*
X184300000Y-123200000D01*
X183850000Y-122950000D01*
X185900000Y-122950000D01*
X186400000Y-122900000D01*
X186750000Y-122800000D01*
X187000000Y-122600000D01*
X187050000Y-123050000D01*
G36*
X187050000Y-123050000D02*
G01*
X187250000Y-123600000D01*
X187650000Y-124150000D01*
X187950000Y-124400000D01*
X188450000Y-124700000D01*
X189050000Y-124850000D01*
X189550000Y-124850000D01*
X190000000Y-124750000D01*
X190250000Y-124650000D01*
X190700000Y-124400000D01*
X190850000Y-124500000D01*
X191000000Y-124600000D01*
X191000000Y-125000000D01*
X190900000Y-125400000D01*
X190750000Y-125650000D01*
X190600000Y-125850000D01*
X190450000Y-126000000D01*
X190250000Y-126150000D01*
X190100000Y-126250000D01*
X189900000Y-126350000D01*
X189600000Y-126450000D01*
X189300000Y-126500000D01*
X189100000Y-126500000D01*
X184750000Y-126500000D01*
X185050000Y-126050000D01*
X185200000Y-125650000D01*
X185250000Y-125400000D01*
X185250000Y-125050000D01*
X185250000Y-124750000D01*
X185150000Y-124350000D01*
X185000000Y-124000000D01*
X184850000Y-123750000D01*
X184550000Y-123400000D01*
X184300000Y-123200000D01*
X183850000Y-122950000D01*
X185900000Y-122950000D01*
X186400000Y-122900000D01*
X186750000Y-122800000D01*
X187000000Y-122600000D01*
X187050000Y-123050000D01*
G37*
%TO.C,S6*%
X206050000Y-123050000D02*
X206250000Y-123600000D01*
X206650000Y-124150000D01*
X206950000Y-124400000D01*
X207450000Y-124700000D01*
X208050000Y-124850000D01*
X208550000Y-124850000D01*
X209000000Y-124750000D01*
X209250000Y-124650000D01*
X209700000Y-124400000D01*
X209850000Y-124500000D01*
X210000000Y-124600000D01*
X210000000Y-125000000D01*
X209900000Y-125400000D01*
X209750000Y-125650000D01*
X209600000Y-125850000D01*
X209450000Y-126000000D01*
X209250000Y-126150000D01*
X209100000Y-126250000D01*
X208900000Y-126350000D01*
X208600000Y-126450000D01*
X208300000Y-126500000D01*
X208100000Y-126500000D01*
X203750000Y-126500000D01*
X204050000Y-126050000D01*
X204200000Y-125650000D01*
X204250000Y-125400000D01*
X204250000Y-125050000D01*
X204250000Y-124750000D01*
X204150000Y-124350000D01*
X204000000Y-124000000D01*
X203850000Y-123750000D01*
X203550000Y-123400000D01*
X203300000Y-123200000D01*
X202850000Y-122950000D01*
X204900000Y-122950000D01*
X205400000Y-122900000D01*
X205750000Y-122800000D01*
X206000000Y-122600000D01*
X206050000Y-123050000D01*
G36*
X206050000Y-123050000D02*
G01*
X206250000Y-123600000D01*
X206650000Y-124150000D01*
X206950000Y-124400000D01*
X207450000Y-124700000D01*
X208050000Y-124850000D01*
X208550000Y-124850000D01*
X209000000Y-124750000D01*
X209250000Y-124650000D01*
X209700000Y-124400000D01*
X209850000Y-124500000D01*
X210000000Y-124600000D01*
X210000000Y-125000000D01*
X209900000Y-125400000D01*
X209750000Y-125650000D01*
X209600000Y-125850000D01*
X209450000Y-126000000D01*
X209250000Y-126150000D01*
X209100000Y-126250000D01*
X208900000Y-126350000D01*
X208600000Y-126450000D01*
X208300000Y-126500000D01*
X208100000Y-126500000D01*
X203750000Y-126500000D01*
X204050000Y-126050000D01*
X204200000Y-125650000D01*
X204250000Y-125400000D01*
X204250000Y-125050000D01*
X204250000Y-124750000D01*
X204150000Y-124350000D01*
X204000000Y-124000000D01*
X203850000Y-123750000D01*
X203550000Y-123400000D01*
X203300000Y-123200000D01*
X202850000Y-122950000D01*
X204900000Y-122950000D01*
X205400000Y-122900000D01*
X205750000Y-122800000D01*
X206000000Y-122600000D01*
X206050000Y-123050000D01*
G37*
%TO.C,S7*%
X225050000Y-123050000D02*
X225250000Y-123600000D01*
X225650000Y-124150000D01*
X225950000Y-124400000D01*
X226450000Y-124700000D01*
X227050000Y-124850000D01*
X227550000Y-124850000D01*
X228000000Y-124750000D01*
X228250000Y-124650000D01*
X228700000Y-124400000D01*
X228850000Y-124500000D01*
X229000000Y-124600000D01*
X229000000Y-125000000D01*
X228900000Y-125400000D01*
X228750000Y-125650000D01*
X228600000Y-125850000D01*
X228450000Y-126000000D01*
X228250000Y-126150000D01*
X228100000Y-126250000D01*
X227900000Y-126350000D01*
X227600000Y-126450000D01*
X227300000Y-126500000D01*
X227100000Y-126500000D01*
X222750000Y-126500000D01*
X223050000Y-126050000D01*
X223200000Y-125650000D01*
X223250000Y-125400000D01*
X223250000Y-125050000D01*
X223250000Y-124750000D01*
X223150000Y-124350000D01*
X223000000Y-124000000D01*
X222850000Y-123750000D01*
X222550000Y-123400000D01*
X222300000Y-123200000D01*
X221850000Y-122950000D01*
X223900000Y-122950000D01*
X224400000Y-122900000D01*
X224750000Y-122800000D01*
X225000000Y-122600000D01*
X225050000Y-123050000D01*
G36*
X225050000Y-123050000D02*
G01*
X225250000Y-123600000D01*
X225650000Y-124150000D01*
X225950000Y-124400000D01*
X226450000Y-124700000D01*
X227050000Y-124850000D01*
X227550000Y-124850000D01*
X228000000Y-124750000D01*
X228250000Y-124650000D01*
X228700000Y-124400000D01*
X228850000Y-124500000D01*
X229000000Y-124600000D01*
X229000000Y-125000000D01*
X228900000Y-125400000D01*
X228750000Y-125650000D01*
X228600000Y-125850000D01*
X228450000Y-126000000D01*
X228250000Y-126150000D01*
X228100000Y-126250000D01*
X227900000Y-126350000D01*
X227600000Y-126450000D01*
X227300000Y-126500000D01*
X227100000Y-126500000D01*
X222750000Y-126500000D01*
X223050000Y-126050000D01*
X223200000Y-125650000D01*
X223250000Y-125400000D01*
X223250000Y-125050000D01*
X223250000Y-124750000D01*
X223150000Y-124350000D01*
X223000000Y-124000000D01*
X222850000Y-123750000D01*
X222550000Y-123400000D01*
X222300000Y-123200000D01*
X221850000Y-122950000D01*
X223900000Y-122950000D01*
X224400000Y-122900000D01*
X224750000Y-122800000D01*
X225000000Y-122600000D01*
X225050000Y-123050000D01*
G37*
%TO.C,S8*%
X244050000Y-123050000D02*
X244250000Y-123600000D01*
X244650000Y-124150000D01*
X244950000Y-124400000D01*
X245450000Y-124700000D01*
X246050000Y-124850000D01*
X246550000Y-124850000D01*
X247000000Y-124750000D01*
X247250000Y-124650000D01*
X247700000Y-124400000D01*
X247850000Y-124500000D01*
X248000000Y-124600000D01*
X248000000Y-125000000D01*
X247900000Y-125400000D01*
X247750000Y-125650000D01*
X247600000Y-125850000D01*
X247450000Y-126000000D01*
X247250000Y-126150000D01*
X247100000Y-126250000D01*
X246900000Y-126350000D01*
X246600000Y-126450000D01*
X246300000Y-126500000D01*
X246100000Y-126500000D01*
X241750000Y-126500000D01*
X242050000Y-126050000D01*
X242200000Y-125650000D01*
X242250000Y-125400000D01*
X242250000Y-125050000D01*
X242250000Y-124750000D01*
X242150000Y-124350000D01*
X242000000Y-124000000D01*
X241850000Y-123750000D01*
X241550000Y-123400000D01*
X241300000Y-123200000D01*
X240850000Y-122950000D01*
X242900000Y-122950000D01*
X243400000Y-122900000D01*
X243750000Y-122800000D01*
X244000000Y-122600000D01*
X244050000Y-123050000D01*
G36*
X244050000Y-123050000D02*
G01*
X244250000Y-123600000D01*
X244650000Y-124150000D01*
X244950000Y-124400000D01*
X245450000Y-124700000D01*
X246050000Y-124850000D01*
X246550000Y-124850000D01*
X247000000Y-124750000D01*
X247250000Y-124650000D01*
X247700000Y-124400000D01*
X247850000Y-124500000D01*
X248000000Y-124600000D01*
X248000000Y-125000000D01*
X247900000Y-125400000D01*
X247750000Y-125650000D01*
X247600000Y-125850000D01*
X247450000Y-126000000D01*
X247250000Y-126150000D01*
X247100000Y-126250000D01*
X246900000Y-126350000D01*
X246600000Y-126450000D01*
X246300000Y-126500000D01*
X246100000Y-126500000D01*
X241750000Y-126500000D01*
X242050000Y-126050000D01*
X242200000Y-125650000D01*
X242250000Y-125400000D01*
X242250000Y-125050000D01*
X242250000Y-124750000D01*
X242150000Y-124350000D01*
X242000000Y-124000000D01*
X241850000Y-123750000D01*
X241550000Y-123400000D01*
X241300000Y-123200000D01*
X240850000Y-122950000D01*
X242900000Y-122950000D01*
X243400000Y-122900000D01*
X243750000Y-122800000D01*
X244000000Y-122600000D01*
X244050000Y-123050000D01*
G37*
%TO.C,S9*%
X263050000Y-123050000D02*
X263250000Y-123600000D01*
X263650000Y-124150000D01*
X263950000Y-124400000D01*
X264450000Y-124700000D01*
X265050000Y-124850000D01*
X265550000Y-124850000D01*
X266000000Y-124750000D01*
X266250000Y-124650000D01*
X266700000Y-124400000D01*
X266850000Y-124500000D01*
X267000000Y-124600000D01*
X267000000Y-125000000D01*
X266900000Y-125400000D01*
X266750000Y-125650000D01*
X266600000Y-125850000D01*
X266450000Y-126000000D01*
X266250000Y-126150000D01*
X266100000Y-126250000D01*
X265900000Y-126350000D01*
X265600000Y-126450000D01*
X265300000Y-126500000D01*
X265100000Y-126500000D01*
X260750000Y-126500000D01*
X261050000Y-126050000D01*
X261200000Y-125650000D01*
X261250000Y-125400000D01*
X261250000Y-125050000D01*
X261250000Y-124750000D01*
X261150000Y-124350000D01*
X261000000Y-124000000D01*
X260850000Y-123750000D01*
X260550000Y-123400000D01*
X260300000Y-123200000D01*
X259850000Y-122950000D01*
X261900000Y-122950000D01*
X262400000Y-122900000D01*
X262750000Y-122800000D01*
X263000000Y-122600000D01*
X263050000Y-123050000D01*
G36*
X263050000Y-123050000D02*
G01*
X263250000Y-123600000D01*
X263650000Y-124150000D01*
X263950000Y-124400000D01*
X264450000Y-124700000D01*
X265050000Y-124850000D01*
X265550000Y-124850000D01*
X266000000Y-124750000D01*
X266250000Y-124650000D01*
X266700000Y-124400000D01*
X266850000Y-124500000D01*
X267000000Y-124600000D01*
X267000000Y-125000000D01*
X266900000Y-125400000D01*
X266750000Y-125650000D01*
X266600000Y-125850000D01*
X266450000Y-126000000D01*
X266250000Y-126150000D01*
X266100000Y-126250000D01*
X265900000Y-126350000D01*
X265600000Y-126450000D01*
X265300000Y-126500000D01*
X265100000Y-126500000D01*
X260750000Y-126500000D01*
X261050000Y-126050000D01*
X261200000Y-125650000D01*
X261250000Y-125400000D01*
X261250000Y-125050000D01*
X261250000Y-124750000D01*
X261150000Y-124350000D01*
X261000000Y-124000000D01*
X260850000Y-123750000D01*
X260550000Y-123400000D01*
X260300000Y-123200000D01*
X259850000Y-122950000D01*
X261900000Y-122950000D01*
X262400000Y-122900000D01*
X262750000Y-122800000D01*
X263000000Y-122600000D01*
X263050000Y-123050000D01*
G37*
%TO.C,S10*%
X282050000Y-123050000D02*
X282250000Y-123600000D01*
X282650000Y-124150000D01*
X282950000Y-124400000D01*
X283450000Y-124700000D01*
X284050000Y-124850000D01*
X284550000Y-124850000D01*
X285000000Y-124750000D01*
X285250000Y-124650000D01*
X285700000Y-124400000D01*
X285850000Y-124500000D01*
X286000000Y-124600000D01*
X286000000Y-125000000D01*
X285900000Y-125400000D01*
X285750000Y-125650000D01*
X285600000Y-125850000D01*
X285450000Y-126000000D01*
X285250000Y-126150000D01*
X285100000Y-126250000D01*
X284900000Y-126350000D01*
X284600000Y-126450000D01*
X284300000Y-126500000D01*
X284100000Y-126500000D01*
X279750000Y-126500000D01*
X280050000Y-126050000D01*
X280200000Y-125650000D01*
X280250000Y-125400000D01*
X280250000Y-125050000D01*
X280250000Y-124750000D01*
X280150000Y-124350000D01*
X280000000Y-124000000D01*
X279850000Y-123750000D01*
X279550000Y-123400000D01*
X279300000Y-123200000D01*
X278850000Y-122950000D01*
X280900000Y-122950000D01*
X281400000Y-122900000D01*
X281750000Y-122800000D01*
X282000000Y-122600000D01*
X282050000Y-123050000D01*
G36*
X282050000Y-123050000D02*
G01*
X282250000Y-123600000D01*
X282650000Y-124150000D01*
X282950000Y-124400000D01*
X283450000Y-124700000D01*
X284050000Y-124850000D01*
X284550000Y-124850000D01*
X285000000Y-124750000D01*
X285250000Y-124650000D01*
X285700000Y-124400000D01*
X285850000Y-124500000D01*
X286000000Y-124600000D01*
X286000000Y-125000000D01*
X285900000Y-125400000D01*
X285750000Y-125650000D01*
X285600000Y-125850000D01*
X285450000Y-126000000D01*
X285250000Y-126150000D01*
X285100000Y-126250000D01*
X284900000Y-126350000D01*
X284600000Y-126450000D01*
X284300000Y-126500000D01*
X284100000Y-126500000D01*
X279750000Y-126500000D01*
X280050000Y-126050000D01*
X280200000Y-125650000D01*
X280250000Y-125400000D01*
X280250000Y-125050000D01*
X280250000Y-124750000D01*
X280150000Y-124350000D01*
X280000000Y-124000000D01*
X279850000Y-123750000D01*
X279550000Y-123400000D01*
X279300000Y-123200000D01*
X278850000Y-122950000D01*
X280900000Y-122950000D01*
X281400000Y-122900000D01*
X281750000Y-122800000D01*
X282000000Y-122600000D01*
X282050000Y-123050000D01*
G37*
%TO.C,S11*%
X301050000Y-123050000D02*
X301250000Y-123600000D01*
X301650000Y-124150000D01*
X301950000Y-124400000D01*
X302450000Y-124700000D01*
X303050000Y-124850000D01*
X303550000Y-124850000D01*
X304000000Y-124750000D01*
X304250000Y-124650000D01*
X304700000Y-124400000D01*
X304850000Y-124500000D01*
X305000000Y-124600000D01*
X305000000Y-125000000D01*
X304900000Y-125400000D01*
X304750000Y-125650000D01*
X304600000Y-125850000D01*
X304450000Y-126000000D01*
X304250000Y-126150000D01*
X304100000Y-126250000D01*
X303900000Y-126350000D01*
X303600000Y-126450000D01*
X303300000Y-126500000D01*
X303100000Y-126500000D01*
X298750000Y-126500000D01*
X299050000Y-126050000D01*
X299200000Y-125650000D01*
X299250000Y-125400000D01*
X299250000Y-125050000D01*
X299250000Y-124750000D01*
X299150000Y-124350000D01*
X299000000Y-124000000D01*
X298850000Y-123750000D01*
X298550000Y-123400000D01*
X298300000Y-123200000D01*
X297850000Y-122950000D01*
X299900000Y-122950000D01*
X300400000Y-122900000D01*
X300750000Y-122800000D01*
X301000000Y-122600000D01*
X301050000Y-123050000D01*
G36*
X301050000Y-123050000D02*
G01*
X301250000Y-123600000D01*
X301650000Y-124150000D01*
X301950000Y-124400000D01*
X302450000Y-124700000D01*
X303050000Y-124850000D01*
X303550000Y-124850000D01*
X304000000Y-124750000D01*
X304250000Y-124650000D01*
X304700000Y-124400000D01*
X304850000Y-124500000D01*
X305000000Y-124600000D01*
X305000000Y-125000000D01*
X304900000Y-125400000D01*
X304750000Y-125650000D01*
X304600000Y-125850000D01*
X304450000Y-126000000D01*
X304250000Y-126150000D01*
X304100000Y-126250000D01*
X303900000Y-126350000D01*
X303600000Y-126450000D01*
X303300000Y-126500000D01*
X303100000Y-126500000D01*
X298750000Y-126500000D01*
X299050000Y-126050000D01*
X299200000Y-125650000D01*
X299250000Y-125400000D01*
X299250000Y-125050000D01*
X299250000Y-124750000D01*
X299150000Y-124350000D01*
X299000000Y-124000000D01*
X298850000Y-123750000D01*
X298550000Y-123400000D01*
X298300000Y-123200000D01*
X297850000Y-122950000D01*
X299900000Y-122950000D01*
X300400000Y-122900000D01*
X300750000Y-122800000D01*
X301000000Y-122600000D01*
X301050000Y-123050000D01*
G37*
%TO.C,S12*%
X327270000Y-123050000D02*
X327470000Y-123600000D01*
X327870000Y-124150000D01*
X328170000Y-124400000D01*
X328670000Y-124700000D01*
X329270000Y-124850000D01*
X329770000Y-124850000D01*
X330220000Y-124750000D01*
X330470000Y-124650000D01*
X330920000Y-124400000D01*
X331070000Y-124500000D01*
X331220000Y-124600000D01*
X331220000Y-125000000D01*
X331120000Y-125400000D01*
X330970000Y-125650000D01*
X330820000Y-125850000D01*
X330670000Y-126000000D01*
X330470000Y-126150000D01*
X330320000Y-126250000D01*
X330120000Y-126350000D01*
X329820000Y-126450000D01*
X329520000Y-126500000D01*
X329320000Y-126500000D01*
X324970000Y-126500000D01*
X325270000Y-126050000D01*
X325420000Y-125650000D01*
X325470000Y-125400000D01*
X325470000Y-125050000D01*
X325470000Y-124750000D01*
X325370000Y-124350000D01*
X325220000Y-124000000D01*
X325070000Y-123750000D01*
X324770000Y-123400000D01*
X324520000Y-123200000D01*
X324070000Y-122950000D01*
X326120000Y-122950000D01*
X326620000Y-122900000D01*
X326970000Y-122800000D01*
X327220000Y-122600000D01*
X327270000Y-123050000D01*
G36*
X327270000Y-123050000D02*
G01*
X327470000Y-123600000D01*
X327870000Y-124150000D01*
X328170000Y-124400000D01*
X328670000Y-124700000D01*
X329270000Y-124850000D01*
X329770000Y-124850000D01*
X330220000Y-124750000D01*
X330470000Y-124650000D01*
X330920000Y-124400000D01*
X331070000Y-124500000D01*
X331220000Y-124600000D01*
X331220000Y-125000000D01*
X331120000Y-125400000D01*
X330970000Y-125650000D01*
X330820000Y-125850000D01*
X330670000Y-126000000D01*
X330470000Y-126150000D01*
X330320000Y-126250000D01*
X330120000Y-126350000D01*
X329820000Y-126450000D01*
X329520000Y-126500000D01*
X329320000Y-126500000D01*
X324970000Y-126500000D01*
X325270000Y-126050000D01*
X325420000Y-125650000D01*
X325470000Y-125400000D01*
X325470000Y-125050000D01*
X325470000Y-124750000D01*
X325370000Y-124350000D01*
X325220000Y-124000000D01*
X325070000Y-123750000D01*
X324770000Y-123400000D01*
X324520000Y-123200000D01*
X324070000Y-122950000D01*
X326120000Y-122950000D01*
X326620000Y-122900000D01*
X326970000Y-122800000D01*
X327220000Y-122600000D01*
X327270000Y-123050000D01*
G37*
%TO.C,S13*%
X113425000Y-142050000D02*
X113625000Y-142600000D01*
X114025000Y-143150000D01*
X114325000Y-143400000D01*
X114825000Y-143700000D01*
X115425000Y-143850000D01*
X115925000Y-143850000D01*
X116375000Y-143750000D01*
X116625000Y-143650000D01*
X117075000Y-143400000D01*
X117225000Y-143500000D01*
X117375000Y-143600000D01*
X117375000Y-144000000D01*
X117275000Y-144400000D01*
X117125000Y-144650000D01*
X116975000Y-144850000D01*
X116825000Y-145000000D01*
X116625000Y-145150000D01*
X116475000Y-145250000D01*
X116275000Y-145350000D01*
X115975000Y-145450000D01*
X115675000Y-145500000D01*
X115475000Y-145500000D01*
X111125000Y-145500000D01*
X111425000Y-145050000D01*
X111575000Y-144650000D01*
X111625000Y-144400000D01*
X111625000Y-144050000D01*
X111625000Y-143750000D01*
X111525000Y-143350000D01*
X111375000Y-143000000D01*
X111225000Y-142750000D01*
X110925000Y-142400000D01*
X110675000Y-142200000D01*
X110225000Y-141950000D01*
X112275000Y-141950000D01*
X112775000Y-141900000D01*
X113125000Y-141800000D01*
X113375000Y-141600000D01*
X113425000Y-142050000D01*
G36*
X113425000Y-142050000D02*
G01*
X113625000Y-142600000D01*
X114025000Y-143150000D01*
X114325000Y-143400000D01*
X114825000Y-143700000D01*
X115425000Y-143850000D01*
X115925000Y-143850000D01*
X116375000Y-143750000D01*
X116625000Y-143650000D01*
X117075000Y-143400000D01*
X117225000Y-143500000D01*
X117375000Y-143600000D01*
X117375000Y-144000000D01*
X117275000Y-144400000D01*
X117125000Y-144650000D01*
X116975000Y-144850000D01*
X116825000Y-145000000D01*
X116625000Y-145150000D01*
X116475000Y-145250000D01*
X116275000Y-145350000D01*
X115975000Y-145450000D01*
X115675000Y-145500000D01*
X115475000Y-145500000D01*
X111125000Y-145500000D01*
X111425000Y-145050000D01*
X111575000Y-144650000D01*
X111625000Y-144400000D01*
X111625000Y-144050000D01*
X111625000Y-143750000D01*
X111525000Y-143350000D01*
X111375000Y-143000000D01*
X111225000Y-142750000D01*
X110925000Y-142400000D01*
X110675000Y-142200000D01*
X110225000Y-141950000D01*
X112275000Y-141950000D01*
X112775000Y-141900000D01*
X113125000Y-141800000D01*
X113375000Y-141600000D01*
X113425000Y-142050000D01*
G37*
%TO.C,S14*%
X134800000Y-142050000D02*
X135000000Y-142600000D01*
X135400000Y-143150000D01*
X135700000Y-143400000D01*
X136200000Y-143700000D01*
X136800000Y-143850000D01*
X137300000Y-143850000D01*
X137750000Y-143750000D01*
X138000000Y-143650000D01*
X138450000Y-143400000D01*
X138600000Y-143500000D01*
X138750000Y-143600000D01*
X138750000Y-144000000D01*
X138650000Y-144400000D01*
X138500000Y-144650000D01*
X138350000Y-144850000D01*
X138200000Y-145000000D01*
X138000000Y-145150000D01*
X137850000Y-145250000D01*
X137650000Y-145350000D01*
X137350000Y-145450000D01*
X137050000Y-145500000D01*
X136850000Y-145500000D01*
X132500000Y-145500000D01*
X132800000Y-145050000D01*
X132950000Y-144650000D01*
X133000000Y-144400000D01*
X133000000Y-144050000D01*
X133000000Y-143750000D01*
X132900000Y-143350000D01*
X132750000Y-143000000D01*
X132600000Y-142750000D01*
X132300000Y-142400000D01*
X132050000Y-142200000D01*
X131600000Y-141950000D01*
X133650000Y-141950000D01*
X134150000Y-141900000D01*
X134500000Y-141800000D01*
X134750000Y-141600000D01*
X134800000Y-142050000D01*
G36*
X134800000Y-142050000D02*
G01*
X135000000Y-142600000D01*
X135400000Y-143150000D01*
X135700000Y-143400000D01*
X136200000Y-143700000D01*
X136800000Y-143850000D01*
X137300000Y-143850000D01*
X137750000Y-143750000D01*
X138000000Y-143650000D01*
X138450000Y-143400000D01*
X138600000Y-143500000D01*
X138750000Y-143600000D01*
X138750000Y-144000000D01*
X138650000Y-144400000D01*
X138500000Y-144650000D01*
X138350000Y-144850000D01*
X138200000Y-145000000D01*
X138000000Y-145150000D01*
X137850000Y-145250000D01*
X137650000Y-145350000D01*
X137350000Y-145450000D01*
X137050000Y-145500000D01*
X136850000Y-145500000D01*
X132500000Y-145500000D01*
X132800000Y-145050000D01*
X132950000Y-144650000D01*
X133000000Y-144400000D01*
X133000000Y-144050000D01*
X133000000Y-143750000D01*
X132900000Y-143350000D01*
X132750000Y-143000000D01*
X132600000Y-142750000D01*
X132300000Y-142400000D01*
X132050000Y-142200000D01*
X131600000Y-141950000D01*
X133650000Y-141950000D01*
X134150000Y-141900000D01*
X134500000Y-141800000D01*
X134750000Y-141600000D01*
X134800000Y-142050000D01*
G37*
%TO.C,S15*%
X153800000Y-142050000D02*
X154000000Y-142600000D01*
X154400000Y-143150000D01*
X154700000Y-143400000D01*
X155200000Y-143700000D01*
X155800000Y-143850000D01*
X156300000Y-143850000D01*
X156750000Y-143750000D01*
X157000000Y-143650000D01*
X157450000Y-143400000D01*
X157600000Y-143500000D01*
X157750000Y-143600000D01*
X157750000Y-144000000D01*
X157650000Y-144400000D01*
X157500000Y-144650000D01*
X157350000Y-144850000D01*
X157200000Y-145000000D01*
X157000000Y-145150000D01*
X156850000Y-145250000D01*
X156650000Y-145350000D01*
X156350000Y-145450000D01*
X156050000Y-145500000D01*
X155850000Y-145500000D01*
X151500000Y-145500000D01*
X151800000Y-145050000D01*
X151950000Y-144650000D01*
X152000000Y-144400000D01*
X152000000Y-144050000D01*
X152000000Y-143750000D01*
X151900000Y-143350000D01*
X151750000Y-143000000D01*
X151600000Y-142750000D01*
X151300000Y-142400000D01*
X151050000Y-142200000D01*
X150600000Y-141950000D01*
X152650000Y-141950000D01*
X153150000Y-141900000D01*
X153500000Y-141800000D01*
X153750000Y-141600000D01*
X153800000Y-142050000D01*
G36*
X153800000Y-142050000D02*
G01*
X154000000Y-142600000D01*
X154400000Y-143150000D01*
X154700000Y-143400000D01*
X155200000Y-143700000D01*
X155800000Y-143850000D01*
X156300000Y-143850000D01*
X156750000Y-143750000D01*
X157000000Y-143650000D01*
X157450000Y-143400000D01*
X157600000Y-143500000D01*
X157750000Y-143600000D01*
X157750000Y-144000000D01*
X157650000Y-144400000D01*
X157500000Y-144650000D01*
X157350000Y-144850000D01*
X157200000Y-145000000D01*
X157000000Y-145150000D01*
X156850000Y-145250000D01*
X156650000Y-145350000D01*
X156350000Y-145450000D01*
X156050000Y-145500000D01*
X155850000Y-145500000D01*
X151500000Y-145500000D01*
X151800000Y-145050000D01*
X151950000Y-144650000D01*
X152000000Y-144400000D01*
X152000000Y-144050000D01*
X152000000Y-143750000D01*
X151900000Y-143350000D01*
X151750000Y-143000000D01*
X151600000Y-142750000D01*
X151300000Y-142400000D01*
X151050000Y-142200000D01*
X150600000Y-141950000D01*
X152650000Y-141950000D01*
X153150000Y-141900000D01*
X153500000Y-141800000D01*
X153750000Y-141600000D01*
X153800000Y-142050000D01*
G37*
%TO.C,S16*%
X172800000Y-142050000D02*
X173000000Y-142600000D01*
X173400000Y-143150000D01*
X173700000Y-143400000D01*
X174200000Y-143700000D01*
X174800000Y-143850000D01*
X175300000Y-143850000D01*
X175750000Y-143750000D01*
X176000000Y-143650000D01*
X176450000Y-143400000D01*
X176600000Y-143500000D01*
X176750000Y-143600000D01*
X176750000Y-144000000D01*
X176650000Y-144400000D01*
X176500000Y-144650000D01*
X176350000Y-144850000D01*
X176200000Y-145000000D01*
X176000000Y-145150000D01*
X175850000Y-145250000D01*
X175650000Y-145350000D01*
X175350000Y-145450000D01*
X175050000Y-145500000D01*
X174850000Y-145500000D01*
X170500000Y-145500000D01*
X170800000Y-145050000D01*
X170950000Y-144650000D01*
X171000000Y-144400000D01*
X171000000Y-144050000D01*
X171000000Y-143750000D01*
X170900000Y-143350000D01*
X170750000Y-143000000D01*
X170600000Y-142750000D01*
X170300000Y-142400000D01*
X170050000Y-142200000D01*
X169600000Y-141950000D01*
X171650000Y-141950000D01*
X172150000Y-141900000D01*
X172500000Y-141800000D01*
X172750000Y-141600000D01*
X172800000Y-142050000D01*
G36*
X172800000Y-142050000D02*
G01*
X173000000Y-142600000D01*
X173400000Y-143150000D01*
X173700000Y-143400000D01*
X174200000Y-143700000D01*
X174800000Y-143850000D01*
X175300000Y-143850000D01*
X175750000Y-143750000D01*
X176000000Y-143650000D01*
X176450000Y-143400000D01*
X176600000Y-143500000D01*
X176750000Y-143600000D01*
X176750000Y-144000000D01*
X176650000Y-144400000D01*
X176500000Y-144650000D01*
X176350000Y-144850000D01*
X176200000Y-145000000D01*
X176000000Y-145150000D01*
X175850000Y-145250000D01*
X175650000Y-145350000D01*
X175350000Y-145450000D01*
X175050000Y-145500000D01*
X174850000Y-145500000D01*
X170500000Y-145500000D01*
X170800000Y-145050000D01*
X170950000Y-144650000D01*
X171000000Y-144400000D01*
X171000000Y-144050000D01*
X171000000Y-143750000D01*
X170900000Y-143350000D01*
X170750000Y-143000000D01*
X170600000Y-142750000D01*
X170300000Y-142400000D01*
X170050000Y-142200000D01*
X169600000Y-141950000D01*
X171650000Y-141950000D01*
X172150000Y-141900000D01*
X172500000Y-141800000D01*
X172750000Y-141600000D01*
X172800000Y-142050000D01*
G37*
%TO.C,S17*%
X191800000Y-142050000D02*
X192000000Y-142600000D01*
X192400000Y-143150000D01*
X192700000Y-143400000D01*
X193200000Y-143700000D01*
X193800000Y-143850000D01*
X194300000Y-143850000D01*
X194750000Y-143750000D01*
X195000000Y-143650000D01*
X195450000Y-143400000D01*
X195600000Y-143500000D01*
X195750000Y-143600000D01*
X195750000Y-144000000D01*
X195650000Y-144400000D01*
X195500000Y-144650000D01*
X195350000Y-144850000D01*
X195200000Y-145000000D01*
X195000000Y-145150000D01*
X194850000Y-145250000D01*
X194650000Y-145350000D01*
X194350000Y-145450000D01*
X194050000Y-145500000D01*
X193850000Y-145500000D01*
X189500000Y-145500000D01*
X189800000Y-145050000D01*
X189950000Y-144650000D01*
X190000000Y-144400000D01*
X190000000Y-144050000D01*
X190000000Y-143750000D01*
X189900000Y-143350000D01*
X189750000Y-143000000D01*
X189600000Y-142750000D01*
X189300000Y-142400000D01*
X189050000Y-142200000D01*
X188600000Y-141950000D01*
X190650000Y-141950000D01*
X191150000Y-141900000D01*
X191500000Y-141800000D01*
X191750000Y-141600000D01*
X191800000Y-142050000D01*
G36*
X191800000Y-142050000D02*
G01*
X192000000Y-142600000D01*
X192400000Y-143150000D01*
X192700000Y-143400000D01*
X193200000Y-143700000D01*
X193800000Y-143850000D01*
X194300000Y-143850000D01*
X194750000Y-143750000D01*
X195000000Y-143650000D01*
X195450000Y-143400000D01*
X195600000Y-143500000D01*
X195750000Y-143600000D01*
X195750000Y-144000000D01*
X195650000Y-144400000D01*
X195500000Y-144650000D01*
X195350000Y-144850000D01*
X195200000Y-145000000D01*
X195000000Y-145150000D01*
X194850000Y-145250000D01*
X194650000Y-145350000D01*
X194350000Y-145450000D01*
X194050000Y-145500000D01*
X193850000Y-145500000D01*
X189500000Y-145500000D01*
X189800000Y-145050000D01*
X189950000Y-144650000D01*
X190000000Y-144400000D01*
X190000000Y-144050000D01*
X190000000Y-143750000D01*
X189900000Y-143350000D01*
X189750000Y-143000000D01*
X189600000Y-142750000D01*
X189300000Y-142400000D01*
X189050000Y-142200000D01*
X188600000Y-141950000D01*
X190650000Y-141950000D01*
X191150000Y-141900000D01*
X191500000Y-141800000D01*
X191750000Y-141600000D01*
X191800000Y-142050000D01*
G37*
%TO.C,S18*%
X210800000Y-142050000D02*
X211000000Y-142600000D01*
X211400000Y-143150000D01*
X211700000Y-143400000D01*
X212200000Y-143700000D01*
X212800000Y-143850000D01*
X213300000Y-143850000D01*
X213750000Y-143750000D01*
X214000000Y-143650000D01*
X214450000Y-143400000D01*
X214600000Y-143500000D01*
X214750000Y-143600000D01*
X214750000Y-144000000D01*
X214650000Y-144400000D01*
X214500000Y-144650000D01*
X214350000Y-144850000D01*
X214200000Y-145000000D01*
X214000000Y-145150000D01*
X213850000Y-145250000D01*
X213650000Y-145350000D01*
X213350000Y-145450000D01*
X213050000Y-145500000D01*
X212850000Y-145500000D01*
X208500000Y-145500000D01*
X208800000Y-145050000D01*
X208950000Y-144650000D01*
X209000000Y-144400000D01*
X209000000Y-144050000D01*
X209000000Y-143750000D01*
X208900000Y-143350000D01*
X208750000Y-143000000D01*
X208600000Y-142750000D01*
X208300000Y-142400000D01*
X208050000Y-142200000D01*
X207600000Y-141950000D01*
X209650000Y-141950000D01*
X210150000Y-141900000D01*
X210500000Y-141800000D01*
X210750000Y-141600000D01*
X210800000Y-142050000D01*
G36*
X210800000Y-142050000D02*
G01*
X211000000Y-142600000D01*
X211400000Y-143150000D01*
X211700000Y-143400000D01*
X212200000Y-143700000D01*
X212800000Y-143850000D01*
X213300000Y-143850000D01*
X213750000Y-143750000D01*
X214000000Y-143650000D01*
X214450000Y-143400000D01*
X214600000Y-143500000D01*
X214750000Y-143600000D01*
X214750000Y-144000000D01*
X214650000Y-144400000D01*
X214500000Y-144650000D01*
X214350000Y-144850000D01*
X214200000Y-145000000D01*
X214000000Y-145150000D01*
X213850000Y-145250000D01*
X213650000Y-145350000D01*
X213350000Y-145450000D01*
X213050000Y-145500000D01*
X212850000Y-145500000D01*
X208500000Y-145500000D01*
X208800000Y-145050000D01*
X208950000Y-144650000D01*
X209000000Y-144400000D01*
X209000000Y-144050000D01*
X209000000Y-143750000D01*
X208900000Y-143350000D01*
X208750000Y-143000000D01*
X208600000Y-142750000D01*
X208300000Y-142400000D01*
X208050000Y-142200000D01*
X207600000Y-141950000D01*
X209650000Y-141950000D01*
X210150000Y-141900000D01*
X210500000Y-141800000D01*
X210750000Y-141600000D01*
X210800000Y-142050000D01*
G37*
%TO.C,S19*%
X229800000Y-142050000D02*
X230000000Y-142600000D01*
X230400000Y-143150000D01*
X230700000Y-143400000D01*
X231200000Y-143700000D01*
X231800000Y-143850000D01*
X232300000Y-143850000D01*
X232750000Y-143750000D01*
X233000000Y-143650000D01*
X233450000Y-143400000D01*
X233600000Y-143500000D01*
X233750000Y-143600000D01*
X233750000Y-144000000D01*
X233650000Y-144400000D01*
X233500000Y-144650000D01*
X233350000Y-144850000D01*
X233200000Y-145000000D01*
X233000000Y-145150000D01*
X232850000Y-145250000D01*
X232650000Y-145350000D01*
X232350000Y-145450000D01*
X232050000Y-145500000D01*
X231850000Y-145500000D01*
X227500000Y-145500000D01*
X227800000Y-145050000D01*
X227950000Y-144650000D01*
X228000000Y-144400000D01*
X228000000Y-144050000D01*
X228000000Y-143750000D01*
X227900000Y-143350000D01*
X227750000Y-143000000D01*
X227600000Y-142750000D01*
X227300000Y-142400000D01*
X227050000Y-142200000D01*
X226600000Y-141950000D01*
X228650000Y-141950000D01*
X229150000Y-141900000D01*
X229500000Y-141800000D01*
X229750000Y-141600000D01*
X229800000Y-142050000D01*
G36*
X229800000Y-142050000D02*
G01*
X230000000Y-142600000D01*
X230400000Y-143150000D01*
X230700000Y-143400000D01*
X231200000Y-143700000D01*
X231800000Y-143850000D01*
X232300000Y-143850000D01*
X232750000Y-143750000D01*
X233000000Y-143650000D01*
X233450000Y-143400000D01*
X233600000Y-143500000D01*
X233750000Y-143600000D01*
X233750000Y-144000000D01*
X233650000Y-144400000D01*
X233500000Y-144650000D01*
X233350000Y-144850000D01*
X233200000Y-145000000D01*
X233000000Y-145150000D01*
X232850000Y-145250000D01*
X232650000Y-145350000D01*
X232350000Y-145450000D01*
X232050000Y-145500000D01*
X231850000Y-145500000D01*
X227500000Y-145500000D01*
X227800000Y-145050000D01*
X227950000Y-144650000D01*
X228000000Y-144400000D01*
X228000000Y-144050000D01*
X228000000Y-143750000D01*
X227900000Y-143350000D01*
X227750000Y-143000000D01*
X227600000Y-142750000D01*
X227300000Y-142400000D01*
X227050000Y-142200000D01*
X226600000Y-141950000D01*
X228650000Y-141950000D01*
X229150000Y-141900000D01*
X229500000Y-141800000D01*
X229750000Y-141600000D01*
X229800000Y-142050000D01*
G37*
%TO.C,S20*%
X248800000Y-142050000D02*
X249000000Y-142600000D01*
X249400000Y-143150000D01*
X249700000Y-143400000D01*
X250200000Y-143700000D01*
X250800000Y-143850000D01*
X251300000Y-143850000D01*
X251750000Y-143750000D01*
X252000000Y-143650000D01*
X252450000Y-143400000D01*
X252600000Y-143500000D01*
X252750000Y-143600000D01*
X252750000Y-144000000D01*
X252650000Y-144400000D01*
X252500000Y-144650000D01*
X252350000Y-144850000D01*
X252200000Y-145000000D01*
X252000000Y-145150000D01*
X251850000Y-145250000D01*
X251650000Y-145350000D01*
X251350000Y-145450000D01*
X251050000Y-145500000D01*
X250850000Y-145500000D01*
X246500000Y-145500000D01*
X246800000Y-145050000D01*
X246950000Y-144650000D01*
X247000000Y-144400000D01*
X247000000Y-144050000D01*
X247000000Y-143750000D01*
X246900000Y-143350000D01*
X246750000Y-143000000D01*
X246600000Y-142750000D01*
X246300000Y-142400000D01*
X246050000Y-142200000D01*
X245600000Y-141950000D01*
X247650000Y-141950000D01*
X248150000Y-141900000D01*
X248500000Y-141800000D01*
X248750000Y-141600000D01*
X248800000Y-142050000D01*
G36*
X248800000Y-142050000D02*
G01*
X249000000Y-142600000D01*
X249400000Y-143150000D01*
X249700000Y-143400000D01*
X250200000Y-143700000D01*
X250800000Y-143850000D01*
X251300000Y-143850000D01*
X251750000Y-143750000D01*
X252000000Y-143650000D01*
X252450000Y-143400000D01*
X252600000Y-143500000D01*
X252750000Y-143600000D01*
X252750000Y-144000000D01*
X252650000Y-144400000D01*
X252500000Y-144650000D01*
X252350000Y-144850000D01*
X252200000Y-145000000D01*
X252000000Y-145150000D01*
X251850000Y-145250000D01*
X251650000Y-145350000D01*
X251350000Y-145450000D01*
X251050000Y-145500000D01*
X250850000Y-145500000D01*
X246500000Y-145500000D01*
X246800000Y-145050000D01*
X246950000Y-144650000D01*
X247000000Y-144400000D01*
X247000000Y-144050000D01*
X247000000Y-143750000D01*
X246900000Y-143350000D01*
X246750000Y-143000000D01*
X246600000Y-142750000D01*
X246300000Y-142400000D01*
X246050000Y-142200000D01*
X245600000Y-141950000D01*
X247650000Y-141950000D01*
X248150000Y-141900000D01*
X248500000Y-141800000D01*
X248750000Y-141600000D01*
X248800000Y-142050000D01*
G37*
%TO.C,S21*%
X267800000Y-142050000D02*
X268000000Y-142600000D01*
X268400000Y-143150000D01*
X268700000Y-143400000D01*
X269200000Y-143700000D01*
X269800000Y-143850000D01*
X270300000Y-143850000D01*
X270750000Y-143750000D01*
X271000000Y-143650000D01*
X271450000Y-143400000D01*
X271600000Y-143500000D01*
X271750000Y-143600000D01*
X271750000Y-144000000D01*
X271650000Y-144400000D01*
X271500000Y-144650000D01*
X271350000Y-144850000D01*
X271200000Y-145000000D01*
X271000000Y-145150000D01*
X270850000Y-145250000D01*
X270650000Y-145350000D01*
X270350000Y-145450000D01*
X270050000Y-145500000D01*
X269850000Y-145500000D01*
X265500000Y-145500000D01*
X265800000Y-145050000D01*
X265950000Y-144650000D01*
X266000000Y-144400000D01*
X266000000Y-144050000D01*
X266000000Y-143750000D01*
X265900000Y-143350000D01*
X265750000Y-143000000D01*
X265600000Y-142750000D01*
X265300000Y-142400000D01*
X265050000Y-142200000D01*
X264600000Y-141950000D01*
X266650000Y-141950000D01*
X267150000Y-141900000D01*
X267500000Y-141800000D01*
X267750000Y-141600000D01*
X267800000Y-142050000D01*
G36*
X267800000Y-142050000D02*
G01*
X268000000Y-142600000D01*
X268400000Y-143150000D01*
X268700000Y-143400000D01*
X269200000Y-143700000D01*
X269800000Y-143850000D01*
X270300000Y-143850000D01*
X270750000Y-143750000D01*
X271000000Y-143650000D01*
X271450000Y-143400000D01*
X271600000Y-143500000D01*
X271750000Y-143600000D01*
X271750000Y-144000000D01*
X271650000Y-144400000D01*
X271500000Y-144650000D01*
X271350000Y-144850000D01*
X271200000Y-145000000D01*
X271000000Y-145150000D01*
X270850000Y-145250000D01*
X270650000Y-145350000D01*
X270350000Y-145450000D01*
X270050000Y-145500000D01*
X269850000Y-145500000D01*
X265500000Y-145500000D01*
X265800000Y-145050000D01*
X265950000Y-144650000D01*
X266000000Y-144400000D01*
X266000000Y-144050000D01*
X266000000Y-143750000D01*
X265900000Y-143350000D01*
X265750000Y-143000000D01*
X265600000Y-142750000D01*
X265300000Y-142400000D01*
X265050000Y-142200000D01*
X264600000Y-141950000D01*
X266650000Y-141950000D01*
X267150000Y-141900000D01*
X267500000Y-141800000D01*
X267750000Y-141600000D01*
X267800000Y-142050000D01*
G37*
%TO.C,S22*%
X286800000Y-142050000D02*
X287000000Y-142600000D01*
X287400000Y-143150000D01*
X287700000Y-143400000D01*
X288200000Y-143700000D01*
X288800000Y-143850000D01*
X289300000Y-143850000D01*
X289750000Y-143750000D01*
X290000000Y-143650000D01*
X290450000Y-143400000D01*
X290600000Y-143500000D01*
X290750000Y-143600000D01*
X290750000Y-144000000D01*
X290650000Y-144400000D01*
X290500000Y-144650000D01*
X290350000Y-144850000D01*
X290200000Y-145000000D01*
X290000000Y-145150000D01*
X289850000Y-145250000D01*
X289650000Y-145350000D01*
X289350000Y-145450000D01*
X289050000Y-145500000D01*
X288850000Y-145500000D01*
X284500000Y-145500000D01*
X284800000Y-145050000D01*
X284950000Y-144650000D01*
X285000000Y-144400000D01*
X285000000Y-144050000D01*
X285000000Y-143750000D01*
X284900000Y-143350000D01*
X284750000Y-143000000D01*
X284600000Y-142750000D01*
X284300000Y-142400000D01*
X284050000Y-142200000D01*
X283600000Y-141950000D01*
X285650000Y-141950000D01*
X286150000Y-141900000D01*
X286500000Y-141800000D01*
X286750000Y-141600000D01*
X286800000Y-142050000D01*
G36*
X286800000Y-142050000D02*
G01*
X287000000Y-142600000D01*
X287400000Y-143150000D01*
X287700000Y-143400000D01*
X288200000Y-143700000D01*
X288800000Y-143850000D01*
X289300000Y-143850000D01*
X289750000Y-143750000D01*
X290000000Y-143650000D01*
X290450000Y-143400000D01*
X290600000Y-143500000D01*
X290750000Y-143600000D01*
X290750000Y-144000000D01*
X290650000Y-144400000D01*
X290500000Y-144650000D01*
X290350000Y-144850000D01*
X290200000Y-145000000D01*
X290000000Y-145150000D01*
X289850000Y-145250000D01*
X289650000Y-145350000D01*
X289350000Y-145450000D01*
X289050000Y-145500000D01*
X288850000Y-145500000D01*
X284500000Y-145500000D01*
X284800000Y-145050000D01*
X284950000Y-144650000D01*
X285000000Y-144400000D01*
X285000000Y-144050000D01*
X285000000Y-143750000D01*
X284900000Y-143350000D01*
X284750000Y-143000000D01*
X284600000Y-142750000D01*
X284300000Y-142400000D01*
X284050000Y-142200000D01*
X283600000Y-141950000D01*
X285650000Y-141950000D01*
X286150000Y-141900000D01*
X286500000Y-141800000D01*
X286750000Y-141600000D01*
X286800000Y-142050000D01*
G37*
%TO.C,S23*%
X305800000Y-142050000D02*
X306000000Y-142600000D01*
X306400000Y-143150000D01*
X306700000Y-143400000D01*
X307200000Y-143700000D01*
X307800000Y-143850000D01*
X308300000Y-143850000D01*
X308750000Y-143750000D01*
X309000000Y-143650000D01*
X309450000Y-143400000D01*
X309600000Y-143500000D01*
X309750000Y-143600000D01*
X309750000Y-144000000D01*
X309650000Y-144400000D01*
X309500000Y-144650000D01*
X309350000Y-144850000D01*
X309200000Y-145000000D01*
X309000000Y-145150000D01*
X308850000Y-145250000D01*
X308650000Y-145350000D01*
X308350000Y-145450000D01*
X308050000Y-145500000D01*
X307850000Y-145500000D01*
X303500000Y-145500000D01*
X303800000Y-145050000D01*
X303950000Y-144650000D01*
X304000000Y-144400000D01*
X304000000Y-144050000D01*
X304000000Y-143750000D01*
X303900000Y-143350000D01*
X303750000Y-143000000D01*
X303600000Y-142750000D01*
X303300000Y-142400000D01*
X303050000Y-142200000D01*
X302600000Y-141950000D01*
X304650000Y-141950000D01*
X305150000Y-141900000D01*
X305500000Y-141800000D01*
X305750000Y-141600000D01*
X305800000Y-142050000D01*
G36*
X305800000Y-142050000D02*
G01*
X306000000Y-142600000D01*
X306400000Y-143150000D01*
X306700000Y-143400000D01*
X307200000Y-143700000D01*
X307800000Y-143850000D01*
X308300000Y-143850000D01*
X308750000Y-143750000D01*
X309000000Y-143650000D01*
X309450000Y-143400000D01*
X309600000Y-143500000D01*
X309750000Y-143600000D01*
X309750000Y-144000000D01*
X309650000Y-144400000D01*
X309500000Y-144650000D01*
X309350000Y-144850000D01*
X309200000Y-145000000D01*
X309000000Y-145150000D01*
X308850000Y-145250000D01*
X308650000Y-145350000D01*
X308350000Y-145450000D01*
X308050000Y-145500000D01*
X307850000Y-145500000D01*
X303500000Y-145500000D01*
X303800000Y-145050000D01*
X303950000Y-144650000D01*
X304000000Y-144400000D01*
X304000000Y-144050000D01*
X304000000Y-143750000D01*
X303900000Y-143350000D01*
X303750000Y-143000000D01*
X303600000Y-142750000D01*
X303300000Y-142400000D01*
X303050000Y-142200000D01*
X302600000Y-141950000D01*
X304650000Y-141950000D01*
X305150000Y-141900000D01*
X305500000Y-141800000D01*
X305750000Y-141600000D01*
X305800000Y-142050000D01*
G37*
%TO.C,S24*%
X329550000Y-142050000D02*
X329750000Y-142600000D01*
X330150000Y-143150000D01*
X330450000Y-143400000D01*
X330950000Y-143700000D01*
X331550000Y-143850000D01*
X332050000Y-143850000D01*
X332500000Y-143750000D01*
X332750000Y-143650000D01*
X333200000Y-143400000D01*
X333350000Y-143500000D01*
X333500000Y-143600000D01*
X333500000Y-144000000D01*
X333400000Y-144400000D01*
X333250000Y-144650000D01*
X333100000Y-144850000D01*
X332950000Y-145000000D01*
X332750000Y-145150000D01*
X332600000Y-145250000D01*
X332400000Y-145350000D01*
X332100000Y-145450000D01*
X331800000Y-145500000D01*
X331600000Y-145500000D01*
X327250000Y-145500000D01*
X327550000Y-145050000D01*
X327700000Y-144650000D01*
X327750000Y-144400000D01*
X327750000Y-144050000D01*
X327750000Y-143750000D01*
X327650000Y-143350000D01*
X327500000Y-143000000D01*
X327350000Y-142750000D01*
X327050000Y-142400000D01*
X326800000Y-142200000D01*
X326350000Y-141950000D01*
X328400000Y-141950000D01*
X328900000Y-141900000D01*
X329250000Y-141800000D01*
X329500000Y-141600000D01*
X329550000Y-142050000D01*
G36*
X329550000Y-142050000D02*
G01*
X329750000Y-142600000D01*
X330150000Y-143150000D01*
X330450000Y-143400000D01*
X330950000Y-143700000D01*
X331550000Y-143850000D01*
X332050000Y-143850000D01*
X332500000Y-143750000D01*
X332750000Y-143650000D01*
X333200000Y-143400000D01*
X333350000Y-143500000D01*
X333500000Y-143600000D01*
X333500000Y-144000000D01*
X333400000Y-144400000D01*
X333250000Y-144650000D01*
X333100000Y-144850000D01*
X332950000Y-145000000D01*
X332750000Y-145150000D01*
X332600000Y-145250000D01*
X332400000Y-145350000D01*
X332100000Y-145450000D01*
X331800000Y-145500000D01*
X331600000Y-145500000D01*
X327250000Y-145500000D01*
X327550000Y-145050000D01*
X327700000Y-144650000D01*
X327750000Y-144400000D01*
X327750000Y-144050000D01*
X327750000Y-143750000D01*
X327650000Y-143350000D01*
X327500000Y-143000000D01*
X327350000Y-142750000D01*
X327050000Y-142400000D01*
X326800000Y-142200000D01*
X326350000Y-141950000D01*
X328400000Y-141950000D01*
X328900000Y-141900000D01*
X329250000Y-141800000D01*
X329500000Y-141600000D01*
X329550000Y-142050000D01*
G37*
%TO.C,S25*%
X118175000Y-161050000D02*
X118375000Y-161600000D01*
X118775000Y-162150000D01*
X119075000Y-162400000D01*
X119575000Y-162700000D01*
X120175000Y-162850000D01*
X120675000Y-162850000D01*
X121125000Y-162750000D01*
X121375000Y-162650000D01*
X121825000Y-162400000D01*
X121975000Y-162500000D01*
X122125000Y-162600000D01*
X122125000Y-163000000D01*
X122025000Y-163400000D01*
X121875000Y-163650000D01*
X121725000Y-163850000D01*
X121575000Y-164000000D01*
X121375000Y-164150000D01*
X121225000Y-164250000D01*
X121025000Y-164350000D01*
X120725000Y-164450000D01*
X120425000Y-164500000D01*
X120225000Y-164500000D01*
X115875000Y-164500000D01*
X116175000Y-164050000D01*
X116325000Y-163650000D01*
X116375000Y-163400000D01*
X116375000Y-163050000D01*
X116375000Y-162750000D01*
X116275000Y-162350000D01*
X116125000Y-162000000D01*
X115975000Y-161750000D01*
X115675000Y-161400000D01*
X115425000Y-161200000D01*
X114975000Y-160950000D01*
X117025000Y-160950000D01*
X117525000Y-160900000D01*
X117875000Y-160800000D01*
X118125000Y-160600000D01*
X118175000Y-161050000D01*
G36*
X118175000Y-161050000D02*
G01*
X118375000Y-161600000D01*
X118775000Y-162150000D01*
X119075000Y-162400000D01*
X119575000Y-162700000D01*
X120175000Y-162850000D01*
X120675000Y-162850000D01*
X121125000Y-162750000D01*
X121375000Y-162650000D01*
X121825000Y-162400000D01*
X121975000Y-162500000D01*
X122125000Y-162600000D01*
X122125000Y-163000000D01*
X122025000Y-163400000D01*
X121875000Y-163650000D01*
X121725000Y-163850000D01*
X121575000Y-164000000D01*
X121375000Y-164150000D01*
X121225000Y-164250000D01*
X121025000Y-164350000D01*
X120725000Y-164450000D01*
X120425000Y-164500000D01*
X120225000Y-164500000D01*
X115875000Y-164500000D01*
X116175000Y-164050000D01*
X116325000Y-163650000D01*
X116375000Y-163400000D01*
X116375000Y-163050000D01*
X116375000Y-162750000D01*
X116275000Y-162350000D01*
X116125000Y-162000000D01*
X115975000Y-161750000D01*
X115675000Y-161400000D01*
X115425000Y-161200000D01*
X114975000Y-160950000D01*
X117025000Y-160950000D01*
X117525000Y-160900000D01*
X117875000Y-160800000D01*
X118125000Y-160600000D01*
X118175000Y-161050000D01*
G37*
%TO.C,S26*%
X144300000Y-161050000D02*
X144500000Y-161600000D01*
X144900000Y-162150000D01*
X145200000Y-162400000D01*
X145700000Y-162700000D01*
X146300000Y-162850000D01*
X146800000Y-162850000D01*
X147250000Y-162750000D01*
X147500000Y-162650000D01*
X147950000Y-162400000D01*
X148100000Y-162500000D01*
X148250000Y-162600000D01*
X148250000Y-163000000D01*
X148150000Y-163400000D01*
X148000000Y-163650000D01*
X147850000Y-163850000D01*
X147700000Y-164000000D01*
X147500000Y-164150000D01*
X147350000Y-164250000D01*
X147150000Y-164350000D01*
X146850000Y-164450000D01*
X146550000Y-164500000D01*
X146350000Y-164500000D01*
X142000000Y-164500000D01*
X142300000Y-164050000D01*
X142450000Y-163650000D01*
X142500000Y-163400000D01*
X142500000Y-163050000D01*
X142500000Y-162750000D01*
X142400000Y-162350000D01*
X142250000Y-162000000D01*
X142100000Y-161750000D01*
X141800000Y-161400000D01*
X141550000Y-161200000D01*
X141100000Y-160950000D01*
X143150000Y-160950000D01*
X143650000Y-160900000D01*
X144000000Y-160800000D01*
X144250000Y-160600000D01*
X144300000Y-161050000D01*
G36*
X144300000Y-161050000D02*
G01*
X144500000Y-161600000D01*
X144900000Y-162150000D01*
X145200000Y-162400000D01*
X145700000Y-162700000D01*
X146300000Y-162850000D01*
X146800000Y-162850000D01*
X147250000Y-162750000D01*
X147500000Y-162650000D01*
X147950000Y-162400000D01*
X148100000Y-162500000D01*
X148250000Y-162600000D01*
X148250000Y-163000000D01*
X148150000Y-163400000D01*
X148000000Y-163650000D01*
X147850000Y-163850000D01*
X147700000Y-164000000D01*
X147500000Y-164150000D01*
X147350000Y-164250000D01*
X147150000Y-164350000D01*
X146850000Y-164450000D01*
X146550000Y-164500000D01*
X146350000Y-164500000D01*
X142000000Y-164500000D01*
X142300000Y-164050000D01*
X142450000Y-163650000D01*
X142500000Y-163400000D01*
X142500000Y-163050000D01*
X142500000Y-162750000D01*
X142400000Y-162350000D01*
X142250000Y-162000000D01*
X142100000Y-161750000D01*
X141800000Y-161400000D01*
X141550000Y-161200000D01*
X141100000Y-160950000D01*
X143150000Y-160950000D01*
X143650000Y-160900000D01*
X144000000Y-160800000D01*
X144250000Y-160600000D01*
X144300000Y-161050000D01*
G37*
%TO.C,S27*%
X163300000Y-161050000D02*
X163500000Y-161600000D01*
X163900000Y-162150000D01*
X164200000Y-162400000D01*
X164700000Y-162700000D01*
X165300000Y-162850000D01*
X165800000Y-162850000D01*
X166250000Y-162750000D01*
X166500000Y-162650000D01*
X166950000Y-162400000D01*
X167100000Y-162500000D01*
X167250000Y-162600000D01*
X167250000Y-163000000D01*
X167150000Y-163400000D01*
X167000000Y-163650000D01*
X166850000Y-163850000D01*
X166700000Y-164000000D01*
X166500000Y-164150000D01*
X166350000Y-164250000D01*
X166150000Y-164350000D01*
X165850000Y-164450000D01*
X165550000Y-164500000D01*
X165350000Y-164500000D01*
X161000000Y-164500000D01*
X161300000Y-164050000D01*
X161450000Y-163650000D01*
X161500000Y-163400000D01*
X161500000Y-163050000D01*
X161500000Y-162750000D01*
X161400000Y-162350000D01*
X161250000Y-162000000D01*
X161100000Y-161750000D01*
X160800000Y-161400000D01*
X160550000Y-161200000D01*
X160100000Y-160950000D01*
X162150000Y-160950000D01*
X162650000Y-160900000D01*
X163000000Y-160800000D01*
X163250000Y-160600000D01*
X163300000Y-161050000D01*
G36*
X163300000Y-161050000D02*
G01*
X163500000Y-161600000D01*
X163900000Y-162150000D01*
X164200000Y-162400000D01*
X164700000Y-162700000D01*
X165300000Y-162850000D01*
X165800000Y-162850000D01*
X166250000Y-162750000D01*
X166500000Y-162650000D01*
X166950000Y-162400000D01*
X167100000Y-162500000D01*
X167250000Y-162600000D01*
X167250000Y-163000000D01*
X167150000Y-163400000D01*
X167000000Y-163650000D01*
X166850000Y-163850000D01*
X166700000Y-164000000D01*
X166500000Y-164150000D01*
X166350000Y-164250000D01*
X166150000Y-164350000D01*
X165850000Y-164450000D01*
X165550000Y-164500000D01*
X165350000Y-164500000D01*
X161000000Y-164500000D01*
X161300000Y-164050000D01*
X161450000Y-163650000D01*
X161500000Y-163400000D01*
X161500000Y-163050000D01*
X161500000Y-162750000D01*
X161400000Y-162350000D01*
X161250000Y-162000000D01*
X161100000Y-161750000D01*
X160800000Y-161400000D01*
X160550000Y-161200000D01*
X160100000Y-160950000D01*
X162150000Y-160950000D01*
X162650000Y-160900000D01*
X163000000Y-160800000D01*
X163250000Y-160600000D01*
X163300000Y-161050000D01*
G37*
%TO.C,S28*%
X182300000Y-161050000D02*
X182500000Y-161600000D01*
X182900000Y-162150000D01*
X183200000Y-162400000D01*
X183700000Y-162700000D01*
X184300000Y-162850000D01*
X184800000Y-162850000D01*
X185250000Y-162750000D01*
X185500000Y-162650000D01*
X185950000Y-162400000D01*
X186100000Y-162500000D01*
X186250000Y-162600000D01*
X186250000Y-163000000D01*
X186150000Y-163400000D01*
X186000000Y-163650000D01*
X185850000Y-163850000D01*
X185700000Y-164000000D01*
X185500000Y-164150000D01*
X185350000Y-164250000D01*
X185150000Y-164350000D01*
X184850000Y-164450000D01*
X184550000Y-164500000D01*
X184350000Y-164500000D01*
X180000000Y-164500000D01*
X180300000Y-164050000D01*
X180450000Y-163650000D01*
X180500000Y-163400000D01*
X180500000Y-163050000D01*
X180500000Y-162750000D01*
X180400000Y-162350000D01*
X180250000Y-162000000D01*
X180100000Y-161750000D01*
X179800000Y-161400000D01*
X179550000Y-161200000D01*
X179100000Y-160950000D01*
X181150000Y-160950000D01*
X181650000Y-160900000D01*
X182000000Y-160800000D01*
X182250000Y-160600000D01*
X182300000Y-161050000D01*
G36*
X182300000Y-161050000D02*
G01*
X182500000Y-161600000D01*
X182900000Y-162150000D01*
X183200000Y-162400000D01*
X183700000Y-162700000D01*
X184300000Y-162850000D01*
X184800000Y-162850000D01*
X185250000Y-162750000D01*
X185500000Y-162650000D01*
X185950000Y-162400000D01*
X186100000Y-162500000D01*
X186250000Y-162600000D01*
X186250000Y-163000000D01*
X186150000Y-163400000D01*
X186000000Y-163650000D01*
X185850000Y-163850000D01*
X185700000Y-164000000D01*
X185500000Y-164150000D01*
X185350000Y-164250000D01*
X185150000Y-164350000D01*
X184850000Y-164450000D01*
X184550000Y-164500000D01*
X184350000Y-164500000D01*
X180000000Y-164500000D01*
X180300000Y-164050000D01*
X180450000Y-163650000D01*
X180500000Y-163400000D01*
X180500000Y-163050000D01*
X180500000Y-162750000D01*
X180400000Y-162350000D01*
X180250000Y-162000000D01*
X180100000Y-161750000D01*
X179800000Y-161400000D01*
X179550000Y-161200000D01*
X179100000Y-160950000D01*
X181150000Y-160950000D01*
X181650000Y-160900000D01*
X182000000Y-160800000D01*
X182250000Y-160600000D01*
X182300000Y-161050000D01*
G37*
%TO.C,S29*%
X201300000Y-161050000D02*
X201500000Y-161600000D01*
X201900000Y-162150000D01*
X202200000Y-162400000D01*
X202700000Y-162700000D01*
X203300000Y-162850000D01*
X203800000Y-162850000D01*
X204250000Y-162750000D01*
X204500000Y-162650000D01*
X204950000Y-162400000D01*
X205100000Y-162500000D01*
X205250000Y-162600000D01*
X205250000Y-163000000D01*
X205150000Y-163400000D01*
X205000000Y-163650000D01*
X204850000Y-163850000D01*
X204700000Y-164000000D01*
X204500000Y-164150000D01*
X204350000Y-164250000D01*
X204150000Y-164350000D01*
X203850000Y-164450000D01*
X203550000Y-164500000D01*
X203350000Y-164500000D01*
X199000000Y-164500000D01*
X199300000Y-164050000D01*
X199450000Y-163650000D01*
X199500000Y-163400000D01*
X199500000Y-163050000D01*
X199500000Y-162750000D01*
X199400000Y-162350000D01*
X199250000Y-162000000D01*
X199100000Y-161750000D01*
X198800000Y-161400000D01*
X198550000Y-161200000D01*
X198100000Y-160950000D01*
X200150000Y-160950000D01*
X200650000Y-160900000D01*
X201000000Y-160800000D01*
X201250000Y-160600000D01*
X201300000Y-161050000D01*
G36*
X201300000Y-161050000D02*
G01*
X201500000Y-161600000D01*
X201900000Y-162150000D01*
X202200000Y-162400000D01*
X202700000Y-162700000D01*
X203300000Y-162850000D01*
X203800000Y-162850000D01*
X204250000Y-162750000D01*
X204500000Y-162650000D01*
X204950000Y-162400000D01*
X205100000Y-162500000D01*
X205250000Y-162600000D01*
X205250000Y-163000000D01*
X205150000Y-163400000D01*
X205000000Y-163650000D01*
X204850000Y-163850000D01*
X204700000Y-164000000D01*
X204500000Y-164150000D01*
X204350000Y-164250000D01*
X204150000Y-164350000D01*
X203850000Y-164450000D01*
X203550000Y-164500000D01*
X203350000Y-164500000D01*
X199000000Y-164500000D01*
X199300000Y-164050000D01*
X199450000Y-163650000D01*
X199500000Y-163400000D01*
X199500000Y-163050000D01*
X199500000Y-162750000D01*
X199400000Y-162350000D01*
X199250000Y-162000000D01*
X199100000Y-161750000D01*
X198800000Y-161400000D01*
X198550000Y-161200000D01*
X198100000Y-160950000D01*
X200150000Y-160950000D01*
X200650000Y-160900000D01*
X201000000Y-160800000D01*
X201250000Y-160600000D01*
X201300000Y-161050000D01*
G37*
%TO.C,S30*%
X220300000Y-161050000D02*
X220500000Y-161600000D01*
X220900000Y-162150000D01*
X221200000Y-162400000D01*
X221700000Y-162700000D01*
X222300000Y-162850000D01*
X222800000Y-162850000D01*
X223250000Y-162750000D01*
X223500000Y-162650000D01*
X223950000Y-162400000D01*
X224100000Y-162500000D01*
X224250000Y-162600000D01*
X224250000Y-163000000D01*
X224150000Y-163400000D01*
X224000000Y-163650000D01*
X223850000Y-163850000D01*
X223700000Y-164000000D01*
X223500000Y-164150000D01*
X223350000Y-164250000D01*
X223150000Y-164350000D01*
X222850000Y-164450000D01*
X222550000Y-164500000D01*
X222350000Y-164500000D01*
X218000000Y-164500000D01*
X218300000Y-164050000D01*
X218450000Y-163650000D01*
X218500000Y-163400000D01*
X218500000Y-163050000D01*
X218500000Y-162750000D01*
X218400000Y-162350000D01*
X218250000Y-162000000D01*
X218100000Y-161750000D01*
X217800000Y-161400000D01*
X217550000Y-161200000D01*
X217100000Y-160950000D01*
X219150000Y-160950000D01*
X219650000Y-160900000D01*
X220000000Y-160800000D01*
X220250000Y-160600000D01*
X220300000Y-161050000D01*
G36*
X220300000Y-161050000D02*
G01*
X220500000Y-161600000D01*
X220900000Y-162150000D01*
X221200000Y-162400000D01*
X221700000Y-162700000D01*
X222300000Y-162850000D01*
X222800000Y-162850000D01*
X223250000Y-162750000D01*
X223500000Y-162650000D01*
X223950000Y-162400000D01*
X224100000Y-162500000D01*
X224250000Y-162600000D01*
X224250000Y-163000000D01*
X224150000Y-163400000D01*
X224000000Y-163650000D01*
X223850000Y-163850000D01*
X223700000Y-164000000D01*
X223500000Y-164150000D01*
X223350000Y-164250000D01*
X223150000Y-164350000D01*
X222850000Y-164450000D01*
X222550000Y-164500000D01*
X222350000Y-164500000D01*
X218000000Y-164500000D01*
X218300000Y-164050000D01*
X218450000Y-163650000D01*
X218500000Y-163400000D01*
X218500000Y-163050000D01*
X218500000Y-162750000D01*
X218400000Y-162350000D01*
X218250000Y-162000000D01*
X218100000Y-161750000D01*
X217800000Y-161400000D01*
X217550000Y-161200000D01*
X217100000Y-160950000D01*
X219150000Y-160950000D01*
X219650000Y-160900000D01*
X220000000Y-160800000D01*
X220250000Y-160600000D01*
X220300000Y-161050000D01*
G37*
%TO.C,S31*%
X239300000Y-161050000D02*
X239500000Y-161600000D01*
X239900000Y-162150000D01*
X240200000Y-162400000D01*
X240700000Y-162700000D01*
X241300000Y-162850000D01*
X241800000Y-162850000D01*
X242250000Y-162750000D01*
X242500000Y-162650000D01*
X242950000Y-162400000D01*
X243100000Y-162500000D01*
X243250000Y-162600000D01*
X243250000Y-163000000D01*
X243150000Y-163400000D01*
X243000000Y-163650000D01*
X242850000Y-163850000D01*
X242700000Y-164000000D01*
X242500000Y-164150000D01*
X242350000Y-164250000D01*
X242150000Y-164350000D01*
X241850000Y-164450000D01*
X241550000Y-164500000D01*
X241350000Y-164500000D01*
X237000000Y-164500000D01*
X237300000Y-164050000D01*
X237450000Y-163650000D01*
X237500000Y-163400000D01*
X237500000Y-163050000D01*
X237500000Y-162750000D01*
X237400000Y-162350000D01*
X237250000Y-162000000D01*
X237100000Y-161750000D01*
X236800000Y-161400000D01*
X236550000Y-161200000D01*
X236100000Y-160950000D01*
X238150000Y-160950000D01*
X238650000Y-160900000D01*
X239000000Y-160800000D01*
X239250000Y-160600000D01*
X239300000Y-161050000D01*
G36*
X239300000Y-161050000D02*
G01*
X239500000Y-161600000D01*
X239900000Y-162150000D01*
X240200000Y-162400000D01*
X240700000Y-162700000D01*
X241300000Y-162850000D01*
X241800000Y-162850000D01*
X242250000Y-162750000D01*
X242500000Y-162650000D01*
X242950000Y-162400000D01*
X243100000Y-162500000D01*
X243250000Y-162600000D01*
X243250000Y-163000000D01*
X243150000Y-163400000D01*
X243000000Y-163650000D01*
X242850000Y-163850000D01*
X242700000Y-164000000D01*
X242500000Y-164150000D01*
X242350000Y-164250000D01*
X242150000Y-164350000D01*
X241850000Y-164450000D01*
X241550000Y-164500000D01*
X241350000Y-164500000D01*
X237000000Y-164500000D01*
X237300000Y-164050000D01*
X237450000Y-163650000D01*
X237500000Y-163400000D01*
X237500000Y-163050000D01*
X237500000Y-162750000D01*
X237400000Y-162350000D01*
X237250000Y-162000000D01*
X237100000Y-161750000D01*
X236800000Y-161400000D01*
X236550000Y-161200000D01*
X236100000Y-160950000D01*
X238150000Y-160950000D01*
X238650000Y-160900000D01*
X239000000Y-160800000D01*
X239250000Y-160600000D01*
X239300000Y-161050000D01*
G37*
%TO.C,S32*%
X258300000Y-161050000D02*
X258500000Y-161600000D01*
X258900000Y-162150000D01*
X259200000Y-162400000D01*
X259700000Y-162700000D01*
X260300000Y-162850000D01*
X260800000Y-162850000D01*
X261250000Y-162750000D01*
X261500000Y-162650000D01*
X261950000Y-162400000D01*
X262100000Y-162500000D01*
X262250000Y-162600000D01*
X262250000Y-163000000D01*
X262150000Y-163400000D01*
X262000000Y-163650000D01*
X261850000Y-163850000D01*
X261700000Y-164000000D01*
X261500000Y-164150000D01*
X261350000Y-164250000D01*
X261150000Y-164350000D01*
X260850000Y-164450000D01*
X260550000Y-164500000D01*
X260350000Y-164500000D01*
X256000000Y-164500000D01*
X256300000Y-164050000D01*
X256450000Y-163650000D01*
X256500000Y-163400000D01*
X256500000Y-163050000D01*
X256500000Y-162750000D01*
X256400000Y-162350000D01*
X256250000Y-162000000D01*
X256100000Y-161750000D01*
X255800000Y-161400000D01*
X255550000Y-161200000D01*
X255100000Y-160950000D01*
X257150000Y-160950000D01*
X257650000Y-160900000D01*
X258000000Y-160800000D01*
X258250000Y-160600000D01*
X258300000Y-161050000D01*
G36*
X258300000Y-161050000D02*
G01*
X258500000Y-161600000D01*
X258900000Y-162150000D01*
X259200000Y-162400000D01*
X259700000Y-162700000D01*
X260300000Y-162850000D01*
X260800000Y-162850000D01*
X261250000Y-162750000D01*
X261500000Y-162650000D01*
X261950000Y-162400000D01*
X262100000Y-162500000D01*
X262250000Y-162600000D01*
X262250000Y-163000000D01*
X262150000Y-163400000D01*
X262000000Y-163650000D01*
X261850000Y-163850000D01*
X261700000Y-164000000D01*
X261500000Y-164150000D01*
X261350000Y-164250000D01*
X261150000Y-164350000D01*
X260850000Y-164450000D01*
X260550000Y-164500000D01*
X260350000Y-164500000D01*
X256000000Y-164500000D01*
X256300000Y-164050000D01*
X256450000Y-163650000D01*
X256500000Y-163400000D01*
X256500000Y-163050000D01*
X256500000Y-162750000D01*
X256400000Y-162350000D01*
X256250000Y-162000000D01*
X256100000Y-161750000D01*
X255800000Y-161400000D01*
X255550000Y-161200000D01*
X255100000Y-160950000D01*
X257150000Y-160950000D01*
X257650000Y-160900000D01*
X258000000Y-160800000D01*
X258250000Y-160600000D01*
X258300000Y-161050000D01*
G37*
%TO.C,S33*%
X277300000Y-161050000D02*
X277500000Y-161600000D01*
X277900000Y-162150000D01*
X278200000Y-162400000D01*
X278700000Y-162700000D01*
X279300000Y-162850000D01*
X279800000Y-162850000D01*
X280250000Y-162750000D01*
X280500000Y-162650000D01*
X280950000Y-162400000D01*
X281100000Y-162500000D01*
X281250000Y-162600000D01*
X281250000Y-163000000D01*
X281150000Y-163400000D01*
X281000000Y-163650000D01*
X280850000Y-163850000D01*
X280700000Y-164000000D01*
X280500000Y-164150000D01*
X280350000Y-164250000D01*
X280150000Y-164350000D01*
X279850000Y-164450000D01*
X279550000Y-164500000D01*
X279350000Y-164500000D01*
X275000000Y-164500000D01*
X275300000Y-164050000D01*
X275450000Y-163650000D01*
X275500000Y-163400000D01*
X275500000Y-163050000D01*
X275500000Y-162750000D01*
X275400000Y-162350000D01*
X275250000Y-162000000D01*
X275100000Y-161750000D01*
X274800000Y-161400000D01*
X274550000Y-161200000D01*
X274100000Y-160950000D01*
X276150000Y-160950000D01*
X276650000Y-160900000D01*
X277000000Y-160800000D01*
X277250000Y-160600000D01*
X277300000Y-161050000D01*
G36*
X277300000Y-161050000D02*
G01*
X277500000Y-161600000D01*
X277900000Y-162150000D01*
X278200000Y-162400000D01*
X278700000Y-162700000D01*
X279300000Y-162850000D01*
X279800000Y-162850000D01*
X280250000Y-162750000D01*
X280500000Y-162650000D01*
X280950000Y-162400000D01*
X281100000Y-162500000D01*
X281250000Y-162600000D01*
X281250000Y-163000000D01*
X281150000Y-163400000D01*
X281000000Y-163650000D01*
X280850000Y-163850000D01*
X280700000Y-164000000D01*
X280500000Y-164150000D01*
X280350000Y-164250000D01*
X280150000Y-164350000D01*
X279850000Y-164450000D01*
X279550000Y-164500000D01*
X279350000Y-164500000D01*
X275000000Y-164500000D01*
X275300000Y-164050000D01*
X275450000Y-163650000D01*
X275500000Y-163400000D01*
X275500000Y-163050000D01*
X275500000Y-162750000D01*
X275400000Y-162350000D01*
X275250000Y-162000000D01*
X275100000Y-161750000D01*
X274800000Y-161400000D01*
X274550000Y-161200000D01*
X274100000Y-160950000D01*
X276150000Y-160950000D01*
X276650000Y-160900000D01*
X277000000Y-160800000D01*
X277250000Y-160600000D01*
X277300000Y-161050000D01*
G37*
%TO.C,S34*%
X296300000Y-161050000D02*
X296500000Y-161600000D01*
X296900000Y-162150000D01*
X297200000Y-162400000D01*
X297700000Y-162700000D01*
X298300000Y-162850000D01*
X298800000Y-162850000D01*
X299250000Y-162750000D01*
X299500000Y-162650000D01*
X299950000Y-162400000D01*
X300100000Y-162500000D01*
X300250000Y-162600000D01*
X300250000Y-163000000D01*
X300150000Y-163400000D01*
X300000000Y-163650000D01*
X299850000Y-163850000D01*
X299700000Y-164000000D01*
X299500000Y-164150000D01*
X299350000Y-164250000D01*
X299150000Y-164350000D01*
X298850000Y-164450000D01*
X298550000Y-164500000D01*
X298350000Y-164500000D01*
X294000000Y-164500000D01*
X294300000Y-164050000D01*
X294450000Y-163650000D01*
X294500000Y-163400000D01*
X294500000Y-163050000D01*
X294500000Y-162750000D01*
X294400000Y-162350000D01*
X294250000Y-162000000D01*
X294100000Y-161750000D01*
X293800000Y-161400000D01*
X293550000Y-161200000D01*
X293100000Y-160950000D01*
X295150000Y-160950000D01*
X295650000Y-160900000D01*
X296000000Y-160800000D01*
X296250000Y-160600000D01*
X296300000Y-161050000D01*
G36*
X296300000Y-161050000D02*
G01*
X296500000Y-161600000D01*
X296900000Y-162150000D01*
X297200000Y-162400000D01*
X297700000Y-162700000D01*
X298300000Y-162850000D01*
X298800000Y-162850000D01*
X299250000Y-162750000D01*
X299500000Y-162650000D01*
X299950000Y-162400000D01*
X300100000Y-162500000D01*
X300250000Y-162600000D01*
X300250000Y-163000000D01*
X300150000Y-163400000D01*
X300000000Y-163650000D01*
X299850000Y-163850000D01*
X299700000Y-164000000D01*
X299500000Y-164150000D01*
X299350000Y-164250000D01*
X299150000Y-164350000D01*
X298850000Y-164450000D01*
X298550000Y-164500000D01*
X298350000Y-164500000D01*
X294000000Y-164500000D01*
X294300000Y-164050000D01*
X294450000Y-163650000D01*
X294500000Y-163400000D01*
X294500000Y-163050000D01*
X294500000Y-162750000D01*
X294400000Y-162350000D01*
X294250000Y-162000000D01*
X294100000Y-161750000D01*
X293800000Y-161400000D01*
X293550000Y-161200000D01*
X293100000Y-160950000D01*
X295150000Y-160950000D01*
X295650000Y-160900000D01*
X296000000Y-160800000D01*
X296250000Y-160600000D01*
X296300000Y-161050000D01*
G37*
%TO.C,S35*%
X315300000Y-161050000D02*
X315500000Y-161600000D01*
X315900000Y-162150000D01*
X316200000Y-162400000D01*
X316700000Y-162700000D01*
X317300000Y-162850000D01*
X317800000Y-162850000D01*
X318250000Y-162750000D01*
X318500000Y-162650000D01*
X318950000Y-162400000D01*
X319100000Y-162500000D01*
X319250000Y-162600000D01*
X319250000Y-163000000D01*
X319150000Y-163400000D01*
X319000000Y-163650000D01*
X318850000Y-163850000D01*
X318700000Y-164000000D01*
X318500000Y-164150000D01*
X318350000Y-164250000D01*
X318150000Y-164350000D01*
X317850000Y-164450000D01*
X317550000Y-164500000D01*
X317350000Y-164500000D01*
X313000000Y-164500000D01*
X313300000Y-164050000D01*
X313450000Y-163650000D01*
X313500000Y-163400000D01*
X313500000Y-163050000D01*
X313500000Y-162750000D01*
X313400000Y-162350000D01*
X313250000Y-162000000D01*
X313100000Y-161750000D01*
X312800000Y-161400000D01*
X312550000Y-161200000D01*
X312100000Y-160950000D01*
X314150000Y-160950000D01*
X314650000Y-160900000D01*
X315000000Y-160800000D01*
X315250000Y-160600000D01*
X315300000Y-161050000D01*
G36*
X315300000Y-161050000D02*
G01*
X315500000Y-161600000D01*
X315900000Y-162150000D01*
X316200000Y-162400000D01*
X316700000Y-162700000D01*
X317300000Y-162850000D01*
X317800000Y-162850000D01*
X318250000Y-162750000D01*
X318500000Y-162650000D01*
X318950000Y-162400000D01*
X319100000Y-162500000D01*
X319250000Y-162600000D01*
X319250000Y-163000000D01*
X319150000Y-163400000D01*
X319000000Y-163650000D01*
X318850000Y-163850000D01*
X318700000Y-164000000D01*
X318500000Y-164150000D01*
X318350000Y-164250000D01*
X318150000Y-164350000D01*
X317850000Y-164450000D01*
X317550000Y-164500000D01*
X317350000Y-164500000D01*
X313000000Y-164500000D01*
X313300000Y-164050000D01*
X313450000Y-163650000D01*
X313500000Y-163400000D01*
X313500000Y-163050000D01*
X313500000Y-162750000D01*
X313400000Y-162350000D01*
X313250000Y-162000000D01*
X313100000Y-161750000D01*
X312800000Y-161400000D01*
X312550000Y-161200000D01*
X312100000Y-160950000D01*
X314150000Y-160950000D01*
X314650000Y-160900000D01*
X315000000Y-160800000D01*
X315250000Y-160600000D01*
X315300000Y-161050000D01*
G37*
%TO.C,S36*%
X334300000Y-161050000D02*
X334500000Y-161600000D01*
X334900000Y-162150000D01*
X335200000Y-162400000D01*
X335700000Y-162700000D01*
X336300000Y-162850000D01*
X336800000Y-162850000D01*
X337250000Y-162750000D01*
X337500000Y-162650000D01*
X337950000Y-162400000D01*
X338100000Y-162500000D01*
X338250000Y-162600000D01*
X338250000Y-163000000D01*
X338150000Y-163400000D01*
X338000000Y-163650000D01*
X337850000Y-163850000D01*
X337700000Y-164000000D01*
X337500000Y-164150000D01*
X337350000Y-164250000D01*
X337150000Y-164350000D01*
X336850000Y-164450000D01*
X336550000Y-164500000D01*
X336350000Y-164500000D01*
X332000000Y-164500000D01*
X332300000Y-164050000D01*
X332450000Y-163650000D01*
X332500000Y-163400000D01*
X332500000Y-163050000D01*
X332500000Y-162750000D01*
X332400000Y-162350000D01*
X332250000Y-162000000D01*
X332100000Y-161750000D01*
X331800000Y-161400000D01*
X331550000Y-161200000D01*
X331100000Y-160950000D01*
X333150000Y-160950000D01*
X333650000Y-160900000D01*
X334000000Y-160800000D01*
X334250000Y-160600000D01*
X334300000Y-161050000D01*
G36*
X334300000Y-161050000D02*
G01*
X334500000Y-161600000D01*
X334900000Y-162150000D01*
X335200000Y-162400000D01*
X335700000Y-162700000D01*
X336300000Y-162850000D01*
X336800000Y-162850000D01*
X337250000Y-162750000D01*
X337500000Y-162650000D01*
X337950000Y-162400000D01*
X338100000Y-162500000D01*
X338250000Y-162600000D01*
X338250000Y-163000000D01*
X338150000Y-163400000D01*
X338000000Y-163650000D01*
X337850000Y-163850000D01*
X337700000Y-164000000D01*
X337500000Y-164150000D01*
X337350000Y-164250000D01*
X337150000Y-164350000D01*
X336850000Y-164450000D01*
X336550000Y-164500000D01*
X336350000Y-164500000D01*
X332000000Y-164500000D01*
X332300000Y-164050000D01*
X332450000Y-163650000D01*
X332500000Y-163400000D01*
X332500000Y-163050000D01*
X332500000Y-162750000D01*
X332400000Y-162350000D01*
X332250000Y-162000000D01*
X332100000Y-161750000D01*
X331800000Y-161400000D01*
X331550000Y-161200000D01*
X331100000Y-160950000D01*
X333150000Y-160950000D01*
X333650000Y-160900000D01*
X334000000Y-160800000D01*
X334250000Y-160600000D01*
X334300000Y-161050000D01*
G37*
%TO.C,S37*%
X113425000Y-180050000D02*
X113625000Y-180600000D01*
X114025000Y-181150000D01*
X114325000Y-181400000D01*
X114825000Y-181700000D01*
X115425000Y-181850000D01*
X115925000Y-181850000D01*
X116375000Y-181750000D01*
X116625000Y-181650000D01*
X117075000Y-181400000D01*
X117225000Y-181500000D01*
X117375000Y-181600000D01*
X117375000Y-182000000D01*
X117275000Y-182400000D01*
X117125000Y-182650000D01*
X116975000Y-182850000D01*
X116825000Y-183000000D01*
X116625000Y-183150000D01*
X116475000Y-183250000D01*
X116275000Y-183350000D01*
X115975000Y-183450000D01*
X115675000Y-183500000D01*
X115475000Y-183500000D01*
X111125000Y-183500000D01*
X111425000Y-183050000D01*
X111575000Y-182650000D01*
X111625000Y-182400000D01*
X111625000Y-182050000D01*
X111625000Y-181750000D01*
X111525000Y-181350000D01*
X111375000Y-181000000D01*
X111225000Y-180750000D01*
X110925000Y-180400000D01*
X110675000Y-180200000D01*
X110225000Y-179950000D01*
X112275000Y-179950000D01*
X112775000Y-179900000D01*
X113125000Y-179800000D01*
X113375000Y-179600000D01*
X113425000Y-180050000D01*
G36*
X113425000Y-180050000D02*
G01*
X113625000Y-180600000D01*
X114025000Y-181150000D01*
X114325000Y-181400000D01*
X114825000Y-181700000D01*
X115425000Y-181850000D01*
X115925000Y-181850000D01*
X116375000Y-181750000D01*
X116625000Y-181650000D01*
X117075000Y-181400000D01*
X117225000Y-181500000D01*
X117375000Y-181600000D01*
X117375000Y-182000000D01*
X117275000Y-182400000D01*
X117125000Y-182650000D01*
X116975000Y-182850000D01*
X116825000Y-183000000D01*
X116625000Y-183150000D01*
X116475000Y-183250000D01*
X116275000Y-183350000D01*
X115975000Y-183450000D01*
X115675000Y-183500000D01*
X115475000Y-183500000D01*
X111125000Y-183500000D01*
X111425000Y-183050000D01*
X111575000Y-182650000D01*
X111625000Y-182400000D01*
X111625000Y-182050000D01*
X111625000Y-181750000D01*
X111525000Y-181350000D01*
X111375000Y-181000000D01*
X111225000Y-180750000D01*
X110925000Y-180400000D01*
X110675000Y-180200000D01*
X110225000Y-179950000D01*
X112275000Y-179950000D01*
X112775000Y-179900000D01*
X113125000Y-179800000D01*
X113375000Y-179600000D01*
X113425000Y-180050000D01*
G37*
%TO.C,S38*%
X139550000Y-180050000D02*
X139750000Y-180600000D01*
X140150000Y-181150000D01*
X140450000Y-181400000D01*
X140950000Y-181700000D01*
X141550000Y-181850000D01*
X142050000Y-181850000D01*
X142500000Y-181750000D01*
X142750000Y-181650000D01*
X143200000Y-181400000D01*
X143350000Y-181500000D01*
X143500000Y-181600000D01*
X143500000Y-182000000D01*
X143400000Y-182400000D01*
X143250000Y-182650000D01*
X143100000Y-182850000D01*
X142950000Y-183000000D01*
X142750000Y-183150000D01*
X142600000Y-183250000D01*
X142400000Y-183350000D01*
X142100000Y-183450000D01*
X141800000Y-183500000D01*
X141600000Y-183500000D01*
X137250000Y-183500000D01*
X137550000Y-183050000D01*
X137700000Y-182650000D01*
X137750000Y-182400000D01*
X137750000Y-182050000D01*
X137750000Y-181750000D01*
X137650000Y-181350000D01*
X137500000Y-181000000D01*
X137350000Y-180750000D01*
X137050000Y-180400000D01*
X136800000Y-180200000D01*
X136350000Y-179950000D01*
X138400000Y-179950000D01*
X138900000Y-179900000D01*
X139250000Y-179800000D01*
X139500000Y-179600000D01*
X139550000Y-180050000D01*
G36*
X139550000Y-180050000D02*
G01*
X139750000Y-180600000D01*
X140150000Y-181150000D01*
X140450000Y-181400000D01*
X140950000Y-181700000D01*
X141550000Y-181850000D01*
X142050000Y-181850000D01*
X142500000Y-181750000D01*
X142750000Y-181650000D01*
X143200000Y-181400000D01*
X143350000Y-181500000D01*
X143500000Y-181600000D01*
X143500000Y-182000000D01*
X143400000Y-182400000D01*
X143250000Y-182650000D01*
X143100000Y-182850000D01*
X142950000Y-183000000D01*
X142750000Y-183150000D01*
X142600000Y-183250000D01*
X142400000Y-183350000D01*
X142100000Y-183450000D01*
X141800000Y-183500000D01*
X141600000Y-183500000D01*
X137250000Y-183500000D01*
X137550000Y-183050000D01*
X137700000Y-182650000D01*
X137750000Y-182400000D01*
X137750000Y-182050000D01*
X137750000Y-181750000D01*
X137650000Y-181350000D01*
X137500000Y-181000000D01*
X137350000Y-180750000D01*
X137050000Y-180400000D01*
X136800000Y-180200000D01*
X136350000Y-179950000D01*
X138400000Y-179950000D01*
X138900000Y-179900000D01*
X139250000Y-179800000D01*
X139500000Y-179600000D01*
X139550000Y-180050000D01*
G37*
%TO.C,S39*%
X165580000Y-180050000D02*
X165780000Y-180600000D01*
X166180000Y-181150000D01*
X166480000Y-181400000D01*
X166980000Y-181700000D01*
X167580000Y-181850000D01*
X168080000Y-181850000D01*
X168530000Y-181750000D01*
X168780000Y-181650000D01*
X169230000Y-181400000D01*
X169380000Y-181500000D01*
X169530000Y-181600000D01*
X169530000Y-182000000D01*
X169430000Y-182400000D01*
X169280000Y-182650000D01*
X169130000Y-182850000D01*
X168980000Y-183000000D01*
X168780000Y-183150000D01*
X168630000Y-183250000D01*
X168430000Y-183350000D01*
X168130000Y-183450000D01*
X167830000Y-183500000D01*
X167630000Y-183500000D01*
X163280000Y-183500000D01*
X163580000Y-183050000D01*
X163730000Y-182650000D01*
X163780000Y-182400000D01*
X163780000Y-182050000D01*
X163780000Y-181750000D01*
X163680000Y-181350000D01*
X163530000Y-181000000D01*
X163380000Y-180750000D01*
X163080000Y-180400000D01*
X162830000Y-180200000D01*
X162380000Y-179950000D01*
X164430000Y-179950000D01*
X164930000Y-179900000D01*
X165280000Y-179800000D01*
X165530000Y-179600000D01*
X165580000Y-180050000D01*
G36*
X165580000Y-180050000D02*
G01*
X165780000Y-180600000D01*
X166180000Y-181150000D01*
X166480000Y-181400000D01*
X166980000Y-181700000D01*
X167580000Y-181850000D01*
X168080000Y-181850000D01*
X168530000Y-181750000D01*
X168780000Y-181650000D01*
X169230000Y-181400000D01*
X169380000Y-181500000D01*
X169530000Y-181600000D01*
X169530000Y-182000000D01*
X169430000Y-182400000D01*
X169280000Y-182650000D01*
X169130000Y-182850000D01*
X168980000Y-183000000D01*
X168780000Y-183150000D01*
X168630000Y-183250000D01*
X168430000Y-183350000D01*
X168130000Y-183450000D01*
X167830000Y-183500000D01*
X167630000Y-183500000D01*
X163280000Y-183500000D01*
X163580000Y-183050000D01*
X163730000Y-182650000D01*
X163780000Y-182400000D01*
X163780000Y-182050000D01*
X163780000Y-181750000D01*
X163680000Y-181350000D01*
X163530000Y-181000000D01*
X163380000Y-180750000D01*
X163080000Y-180400000D01*
X162830000Y-180200000D01*
X162380000Y-179950000D01*
X164430000Y-179950000D01*
X164930000Y-179900000D01*
X165280000Y-179800000D01*
X165530000Y-179600000D01*
X165580000Y-180050000D01*
G37*
%TO.C,S40*%
X198830000Y-180050000D02*
X199030000Y-180600000D01*
X199430000Y-181150000D01*
X199730000Y-181400000D01*
X200230000Y-181700000D01*
X200830000Y-181850000D01*
X201330000Y-181850000D01*
X201780000Y-181750000D01*
X202030000Y-181650000D01*
X202480000Y-181400000D01*
X202630000Y-181500000D01*
X202780000Y-181600000D01*
X202780000Y-182000000D01*
X202680000Y-182400000D01*
X202530000Y-182650000D01*
X202380000Y-182850000D01*
X202230000Y-183000000D01*
X202030000Y-183150000D01*
X201880000Y-183250000D01*
X201680000Y-183350000D01*
X201380000Y-183450000D01*
X201080000Y-183500000D01*
X200880000Y-183500000D01*
X196530000Y-183500000D01*
X196830000Y-183050000D01*
X196980000Y-182650000D01*
X197030000Y-182400000D01*
X197030000Y-182050000D01*
X197030000Y-181750000D01*
X196930000Y-181350000D01*
X196780000Y-181000000D01*
X196630000Y-180750000D01*
X196330000Y-180400000D01*
X196080000Y-180200000D01*
X195630000Y-179950000D01*
X197680000Y-179950000D01*
X198180000Y-179900000D01*
X198530000Y-179800000D01*
X198780000Y-179600000D01*
X198830000Y-180050000D01*
G36*
X198830000Y-180050000D02*
G01*
X199030000Y-180600000D01*
X199430000Y-181150000D01*
X199730000Y-181400000D01*
X200230000Y-181700000D01*
X200830000Y-181850000D01*
X201330000Y-181850000D01*
X201780000Y-181750000D01*
X202030000Y-181650000D01*
X202480000Y-181400000D01*
X202630000Y-181500000D01*
X202780000Y-181600000D01*
X202780000Y-182000000D01*
X202680000Y-182400000D01*
X202530000Y-182650000D01*
X202380000Y-182850000D01*
X202230000Y-183000000D01*
X202030000Y-183150000D01*
X201880000Y-183250000D01*
X201680000Y-183350000D01*
X201380000Y-183450000D01*
X201080000Y-183500000D01*
X200880000Y-183500000D01*
X196530000Y-183500000D01*
X196830000Y-183050000D01*
X196980000Y-182650000D01*
X197030000Y-182400000D01*
X197030000Y-182050000D01*
X197030000Y-181750000D01*
X196930000Y-181350000D01*
X196780000Y-181000000D01*
X196630000Y-180750000D01*
X196330000Y-180400000D01*
X196080000Y-180200000D01*
X195630000Y-179950000D01*
X197680000Y-179950000D01*
X198180000Y-179900000D01*
X198530000Y-179800000D01*
X198780000Y-179600000D01*
X198830000Y-180050000D01*
G37*
%TO.C,S41*%
X239300000Y-180050000D02*
X239500000Y-180600000D01*
X239900000Y-181150000D01*
X240200000Y-181400000D01*
X240700000Y-181700000D01*
X241300000Y-181850000D01*
X241800000Y-181850000D01*
X242250000Y-181750000D01*
X242500000Y-181650000D01*
X242950000Y-181400000D01*
X243100000Y-181500000D01*
X243250000Y-181600000D01*
X243250000Y-182000000D01*
X243150000Y-182400000D01*
X243000000Y-182650000D01*
X242850000Y-182850000D01*
X242700000Y-183000000D01*
X242500000Y-183150000D01*
X242350000Y-183250000D01*
X242150000Y-183350000D01*
X241850000Y-183450000D01*
X241550000Y-183500000D01*
X241350000Y-183500000D01*
X237000000Y-183500000D01*
X237300000Y-183050000D01*
X237450000Y-182650000D01*
X237500000Y-182400000D01*
X237500000Y-182050000D01*
X237500000Y-181750000D01*
X237400000Y-181350000D01*
X237250000Y-181000000D01*
X237100000Y-180750000D01*
X236800000Y-180400000D01*
X236550000Y-180200000D01*
X236100000Y-179950000D01*
X238150000Y-179950000D01*
X238650000Y-179900000D01*
X239000000Y-179800000D01*
X239250000Y-179600000D01*
X239300000Y-180050000D01*
G36*
X239300000Y-180050000D02*
G01*
X239500000Y-180600000D01*
X239900000Y-181150000D01*
X240200000Y-181400000D01*
X240700000Y-181700000D01*
X241300000Y-181850000D01*
X241800000Y-181850000D01*
X242250000Y-181750000D01*
X242500000Y-181650000D01*
X242950000Y-181400000D01*
X243100000Y-181500000D01*
X243250000Y-181600000D01*
X243250000Y-182000000D01*
X243150000Y-182400000D01*
X243000000Y-182650000D01*
X242850000Y-182850000D01*
X242700000Y-183000000D01*
X242500000Y-183150000D01*
X242350000Y-183250000D01*
X242150000Y-183350000D01*
X241850000Y-183450000D01*
X241550000Y-183500000D01*
X241350000Y-183500000D01*
X237000000Y-183500000D01*
X237300000Y-183050000D01*
X237450000Y-182650000D01*
X237500000Y-182400000D01*
X237500000Y-182050000D01*
X237500000Y-181750000D01*
X237400000Y-181350000D01*
X237250000Y-181000000D01*
X237100000Y-180750000D01*
X236800000Y-180400000D01*
X236550000Y-180200000D01*
X236100000Y-179950000D01*
X238150000Y-179950000D01*
X238650000Y-179900000D01*
X239000000Y-179800000D01*
X239250000Y-179600000D01*
X239300000Y-180050000D01*
G37*
%TO.C,S42*%
X272550000Y-180050000D02*
X272750000Y-180600000D01*
X273150000Y-181150000D01*
X273450000Y-181400000D01*
X273950000Y-181700000D01*
X274550000Y-181850000D01*
X275050000Y-181850000D01*
X275500000Y-181750000D01*
X275750000Y-181650000D01*
X276200000Y-181400000D01*
X276350000Y-181500000D01*
X276500000Y-181600000D01*
X276500000Y-182000000D01*
X276400000Y-182400000D01*
X276250000Y-182650000D01*
X276100000Y-182850000D01*
X275950000Y-183000000D01*
X275750000Y-183150000D01*
X275600000Y-183250000D01*
X275400000Y-183350000D01*
X275100000Y-183450000D01*
X274800000Y-183500000D01*
X274600000Y-183500000D01*
X270250000Y-183500000D01*
X270550000Y-183050000D01*
X270700000Y-182650000D01*
X270750000Y-182400000D01*
X270750000Y-182050000D01*
X270750000Y-181750000D01*
X270650000Y-181350000D01*
X270500000Y-181000000D01*
X270350000Y-180750000D01*
X270050000Y-180400000D01*
X269800000Y-180200000D01*
X269350000Y-179950000D01*
X271400000Y-179950000D01*
X271900000Y-179900000D01*
X272250000Y-179800000D01*
X272500000Y-179600000D01*
X272550000Y-180050000D01*
G36*
X272550000Y-180050000D02*
G01*
X272750000Y-180600000D01*
X273150000Y-181150000D01*
X273450000Y-181400000D01*
X273950000Y-181700000D01*
X274550000Y-181850000D01*
X275050000Y-181850000D01*
X275500000Y-181750000D01*
X275750000Y-181650000D01*
X276200000Y-181400000D01*
X276350000Y-181500000D01*
X276500000Y-181600000D01*
X276500000Y-182000000D01*
X276400000Y-182400000D01*
X276250000Y-182650000D01*
X276100000Y-182850000D01*
X275950000Y-183000000D01*
X275750000Y-183150000D01*
X275600000Y-183250000D01*
X275400000Y-183350000D01*
X275100000Y-183450000D01*
X274800000Y-183500000D01*
X274600000Y-183500000D01*
X270250000Y-183500000D01*
X270550000Y-183050000D01*
X270700000Y-182650000D01*
X270750000Y-182400000D01*
X270750000Y-182050000D01*
X270750000Y-181750000D01*
X270650000Y-181350000D01*
X270500000Y-181000000D01*
X270350000Y-180750000D01*
X270050000Y-180400000D01*
X269800000Y-180200000D01*
X269350000Y-179950000D01*
X271400000Y-179950000D01*
X271900000Y-179900000D01*
X272250000Y-179800000D01*
X272500000Y-179600000D01*
X272550000Y-180050000D01*
G37*
%TO.C,S43*%
X296300000Y-180050000D02*
X296500000Y-180600000D01*
X296900000Y-181150000D01*
X297200000Y-181400000D01*
X297700000Y-181700000D01*
X298300000Y-181850000D01*
X298800000Y-181850000D01*
X299250000Y-181750000D01*
X299500000Y-181650000D01*
X299950000Y-181400000D01*
X300100000Y-181500000D01*
X300250000Y-181600000D01*
X300250000Y-182000000D01*
X300150000Y-182400000D01*
X300000000Y-182650000D01*
X299850000Y-182850000D01*
X299700000Y-183000000D01*
X299500000Y-183150000D01*
X299350000Y-183250000D01*
X299150000Y-183350000D01*
X298850000Y-183450000D01*
X298550000Y-183500000D01*
X298350000Y-183500000D01*
X294000000Y-183500000D01*
X294300000Y-183050000D01*
X294450000Y-182650000D01*
X294500000Y-182400000D01*
X294500000Y-182050000D01*
X294500000Y-181750000D01*
X294400000Y-181350000D01*
X294250000Y-181000000D01*
X294100000Y-180750000D01*
X293800000Y-180400000D01*
X293550000Y-180200000D01*
X293100000Y-179950000D01*
X295150000Y-179950000D01*
X295650000Y-179900000D01*
X296000000Y-179800000D01*
X296250000Y-179600000D01*
X296300000Y-180050000D01*
G36*
X296300000Y-180050000D02*
G01*
X296500000Y-180600000D01*
X296900000Y-181150000D01*
X297200000Y-181400000D01*
X297700000Y-181700000D01*
X298300000Y-181850000D01*
X298800000Y-181850000D01*
X299250000Y-181750000D01*
X299500000Y-181650000D01*
X299950000Y-181400000D01*
X300100000Y-181500000D01*
X300250000Y-181600000D01*
X300250000Y-182000000D01*
X300150000Y-182400000D01*
X300000000Y-182650000D01*
X299850000Y-182850000D01*
X299700000Y-183000000D01*
X299500000Y-183150000D01*
X299350000Y-183250000D01*
X299150000Y-183350000D01*
X298850000Y-183450000D01*
X298550000Y-183500000D01*
X298350000Y-183500000D01*
X294000000Y-183500000D01*
X294300000Y-183050000D01*
X294450000Y-182650000D01*
X294500000Y-182400000D01*
X294500000Y-182050000D01*
X294500000Y-181750000D01*
X294400000Y-181350000D01*
X294250000Y-181000000D01*
X294100000Y-180750000D01*
X293800000Y-180400000D01*
X293550000Y-180200000D01*
X293100000Y-179950000D01*
X295150000Y-179950000D01*
X295650000Y-179900000D01*
X296000000Y-179800000D01*
X296250000Y-179600000D01*
X296300000Y-180050000D01*
G37*
%TO.C,S44*%
X315300000Y-180050000D02*
X315500000Y-180600000D01*
X315900000Y-181150000D01*
X316200000Y-181400000D01*
X316700000Y-181700000D01*
X317300000Y-181850000D01*
X317800000Y-181850000D01*
X318250000Y-181750000D01*
X318500000Y-181650000D01*
X318950000Y-181400000D01*
X319100000Y-181500000D01*
X319250000Y-181600000D01*
X319250000Y-182000000D01*
X319150000Y-182400000D01*
X319000000Y-182650000D01*
X318850000Y-182850000D01*
X318700000Y-183000000D01*
X318500000Y-183150000D01*
X318350000Y-183250000D01*
X318150000Y-183350000D01*
X317850000Y-183450000D01*
X317550000Y-183500000D01*
X317350000Y-183500000D01*
X313000000Y-183500000D01*
X313300000Y-183050000D01*
X313450000Y-182650000D01*
X313500000Y-182400000D01*
X313500000Y-182050000D01*
X313500000Y-181750000D01*
X313400000Y-181350000D01*
X313250000Y-181000000D01*
X313100000Y-180750000D01*
X312800000Y-180400000D01*
X312550000Y-180200000D01*
X312100000Y-179950000D01*
X314150000Y-179950000D01*
X314650000Y-179900000D01*
X315000000Y-179800000D01*
X315250000Y-179600000D01*
X315300000Y-180050000D01*
G36*
X315300000Y-180050000D02*
G01*
X315500000Y-180600000D01*
X315900000Y-181150000D01*
X316200000Y-181400000D01*
X316700000Y-181700000D01*
X317300000Y-181850000D01*
X317800000Y-181850000D01*
X318250000Y-181750000D01*
X318500000Y-181650000D01*
X318950000Y-181400000D01*
X319100000Y-181500000D01*
X319250000Y-181600000D01*
X319250000Y-182000000D01*
X319150000Y-182400000D01*
X319000000Y-182650000D01*
X318850000Y-182850000D01*
X318700000Y-183000000D01*
X318500000Y-183150000D01*
X318350000Y-183250000D01*
X318150000Y-183350000D01*
X317850000Y-183450000D01*
X317550000Y-183500000D01*
X317350000Y-183500000D01*
X313000000Y-183500000D01*
X313300000Y-183050000D01*
X313450000Y-182650000D01*
X313500000Y-182400000D01*
X313500000Y-182050000D01*
X313500000Y-181750000D01*
X313400000Y-181350000D01*
X313250000Y-181000000D01*
X313100000Y-180750000D01*
X312800000Y-180400000D01*
X312550000Y-180200000D01*
X312100000Y-179950000D01*
X314150000Y-179950000D01*
X314650000Y-179900000D01*
X315000000Y-179800000D01*
X315250000Y-179600000D01*
X315300000Y-180050000D01*
G37*
%TO.C,S45*%
X334300000Y-180050000D02*
X334500000Y-180600000D01*
X334900000Y-181150000D01*
X335200000Y-181400000D01*
X335700000Y-181700000D01*
X336300000Y-181850000D01*
X336800000Y-181850000D01*
X337250000Y-181750000D01*
X337500000Y-181650000D01*
X337950000Y-181400000D01*
X338100000Y-181500000D01*
X338250000Y-181600000D01*
X338250000Y-182000000D01*
X338150000Y-182400000D01*
X338000000Y-182650000D01*
X337850000Y-182850000D01*
X337700000Y-183000000D01*
X337500000Y-183150000D01*
X337350000Y-183250000D01*
X337150000Y-183350000D01*
X336850000Y-183450000D01*
X336550000Y-183500000D01*
X336350000Y-183500000D01*
X332000000Y-183500000D01*
X332300000Y-183050000D01*
X332450000Y-182650000D01*
X332500000Y-182400000D01*
X332500000Y-182050000D01*
X332500000Y-181750000D01*
X332400000Y-181350000D01*
X332250000Y-181000000D01*
X332100000Y-180750000D01*
X331800000Y-180400000D01*
X331550000Y-180200000D01*
X331100000Y-179950000D01*
X333150000Y-179950000D01*
X333650000Y-179900000D01*
X334000000Y-179800000D01*
X334250000Y-179600000D01*
X334300000Y-180050000D01*
G36*
X334300000Y-180050000D02*
G01*
X334500000Y-180600000D01*
X334900000Y-181150000D01*
X335200000Y-181400000D01*
X335700000Y-181700000D01*
X336300000Y-181850000D01*
X336800000Y-181850000D01*
X337250000Y-181750000D01*
X337500000Y-181650000D01*
X337950000Y-181400000D01*
X338100000Y-181500000D01*
X338250000Y-181600000D01*
X338250000Y-182000000D01*
X338150000Y-182400000D01*
X338000000Y-182650000D01*
X337850000Y-182850000D01*
X337700000Y-183000000D01*
X337500000Y-183150000D01*
X337350000Y-183250000D01*
X337150000Y-183350000D01*
X336850000Y-183450000D01*
X336550000Y-183500000D01*
X336350000Y-183500000D01*
X332000000Y-183500000D01*
X332300000Y-183050000D01*
X332450000Y-182650000D01*
X332500000Y-182400000D01*
X332500000Y-182050000D01*
X332500000Y-181750000D01*
X332400000Y-181350000D01*
X332250000Y-181000000D01*
X332100000Y-180750000D01*
X331800000Y-180400000D01*
X331550000Y-180200000D01*
X331100000Y-179950000D01*
X333150000Y-179950000D01*
X333650000Y-179900000D01*
X334000000Y-179800000D01*
X334250000Y-179600000D01*
X334300000Y-180050000D01*
G37*
D12*
%TO.C,D1*%
X101250000Y-128000000D02*
X101750000Y-128000000D01*
X101250000Y-128400000D02*
X100650000Y-128000000D01*
X101250000Y-127600000D02*
X101250000Y-128400000D01*
X100650000Y-128000000D02*
X101250000Y-127600000D01*
X100650000Y-128000000D02*
X100650000Y-128550000D01*
X100650000Y-128000000D02*
X100650000Y-127450000D01*
X100250000Y-128000000D02*
X100650000Y-128000000D01*
%TO.C,D2*%
X119500000Y-124250000D02*
X119500000Y-124750000D01*
X119100000Y-124250000D02*
X119500000Y-123650000D01*
X119900000Y-124250000D02*
X119100000Y-124250000D01*
X119500000Y-123650000D02*
X119900000Y-124250000D01*
X119500000Y-123650000D02*
X118950000Y-123650000D01*
X119500000Y-123650000D02*
X120050000Y-123650000D01*
X119500000Y-123250000D02*
X119500000Y-123650000D01*
%TO.C,D3*%
X147750000Y-129000000D02*
X148250000Y-129000000D01*
X147750000Y-129400000D02*
X147150000Y-129000000D01*
X147750000Y-128600000D02*
X147750000Y-129400000D01*
X147150000Y-129000000D02*
X147750000Y-128600000D01*
X147150000Y-129000000D02*
X147150000Y-129550000D01*
X147150000Y-129000000D02*
X147150000Y-128450000D01*
X146750000Y-129000000D02*
X147150000Y-129000000D01*
%TO.C,D4*%
X166750000Y-129000000D02*
X167250000Y-129000000D01*
X166750000Y-129400000D02*
X166150000Y-129000000D01*
X166750000Y-128600000D02*
X166750000Y-129400000D01*
X166150000Y-129000000D02*
X166750000Y-128600000D01*
X166150000Y-129000000D02*
X166150000Y-129550000D01*
X166150000Y-129000000D02*
X166150000Y-128450000D01*
X165750000Y-129000000D02*
X166150000Y-129000000D01*
%TO.C,D5*%
X185750000Y-129000000D02*
X186250000Y-129000000D01*
X185750000Y-129400000D02*
X185150000Y-129000000D01*
X185750000Y-128600000D02*
X185750000Y-129400000D01*
X185150000Y-129000000D02*
X185750000Y-128600000D01*
X185150000Y-129000000D02*
X185150000Y-129550000D01*
X185150000Y-129000000D02*
X185150000Y-128450000D01*
X184750000Y-129000000D02*
X185150000Y-129000000D01*
%TO.C,D6*%
X204750000Y-129000000D02*
X205250000Y-129000000D01*
X204750000Y-129400000D02*
X204150000Y-129000000D01*
X204750000Y-128600000D02*
X204750000Y-129400000D01*
X204150000Y-129000000D02*
X204750000Y-128600000D01*
X204150000Y-129000000D02*
X204150000Y-129550000D01*
X204150000Y-129000000D02*
X204150000Y-128450000D01*
X203750000Y-129000000D02*
X204150000Y-129000000D01*
%TO.C,D7*%
X223750000Y-129000000D02*
X224250000Y-129000000D01*
X223750000Y-129400000D02*
X223150000Y-129000000D01*
X223750000Y-128600000D02*
X223750000Y-129400000D01*
X223150000Y-129000000D02*
X223750000Y-128600000D01*
X223150000Y-129000000D02*
X223150000Y-129550000D01*
X223150000Y-129000000D02*
X223150000Y-128450000D01*
X222750000Y-129000000D02*
X223150000Y-129000000D01*
%TO.C,D8*%
X242750000Y-129000000D02*
X243250000Y-129000000D01*
X242750000Y-129400000D02*
X242150000Y-129000000D01*
X242750000Y-128600000D02*
X242750000Y-129400000D01*
X242150000Y-129000000D02*
X242750000Y-128600000D01*
X242150000Y-129000000D02*
X242150000Y-129550000D01*
X242150000Y-129000000D02*
X242150000Y-128450000D01*
X241750000Y-129000000D02*
X242150000Y-129000000D01*
%TO.C,D9*%
X261750000Y-129000000D02*
X262250000Y-129000000D01*
X261750000Y-129400000D02*
X261150000Y-129000000D01*
X261750000Y-128600000D02*
X261750000Y-129400000D01*
X261150000Y-129000000D02*
X261750000Y-128600000D01*
X261150000Y-129000000D02*
X261150000Y-129550000D01*
X261150000Y-129000000D02*
X261150000Y-128450000D01*
X260750000Y-129000000D02*
X261150000Y-129000000D01*
%TO.C,D10*%
X280750000Y-129000000D02*
X281250000Y-129000000D01*
X280750000Y-129400000D02*
X280150000Y-129000000D01*
X280750000Y-128600000D02*
X280750000Y-129400000D01*
X280150000Y-129000000D02*
X280750000Y-128600000D01*
X280150000Y-129000000D02*
X280150000Y-129550000D01*
X280150000Y-129000000D02*
X280150000Y-128450000D01*
X279750000Y-129000000D02*
X280150000Y-129000000D01*
%TO.C,D11*%
X299750000Y-129000000D02*
X300250000Y-129000000D01*
X299750000Y-129400000D02*
X299150000Y-129000000D01*
X299750000Y-128600000D02*
X299750000Y-129400000D01*
X299150000Y-129000000D02*
X299750000Y-128600000D01*
X299150000Y-129000000D02*
X299150000Y-129550000D01*
X299150000Y-129000000D02*
X299150000Y-128450000D01*
X298750000Y-129000000D02*
X299150000Y-129000000D01*
%TO.C,D12*%
X325970000Y-129000000D02*
X326470000Y-129000000D01*
X325970000Y-129400000D02*
X325370000Y-129000000D01*
X325970000Y-128600000D02*
X325970000Y-129400000D01*
X325370000Y-129000000D02*
X325970000Y-128600000D01*
X325370000Y-129000000D02*
X325370000Y-129550000D01*
X325370000Y-129000000D02*
X325370000Y-128450000D01*
X324970000Y-129000000D02*
X325370000Y-129000000D01*
%TO.C,D13*%
X112125000Y-148000000D02*
X112625000Y-148000000D01*
X112125000Y-148400000D02*
X111525000Y-148000000D01*
X112125000Y-147600000D02*
X112125000Y-148400000D01*
X111525000Y-148000000D02*
X112125000Y-147600000D01*
X111525000Y-148000000D02*
X111525000Y-148550000D01*
X111525000Y-148000000D02*
X111525000Y-147450000D01*
X111125000Y-148000000D02*
X111525000Y-148000000D01*
%TO.C,D14*%
X133500000Y-148000000D02*
X134000000Y-148000000D01*
X133500000Y-148400000D02*
X132900000Y-148000000D01*
X133500000Y-147600000D02*
X133500000Y-148400000D01*
X132900000Y-148000000D02*
X133500000Y-147600000D01*
X132900000Y-148000000D02*
X132900000Y-148550000D01*
X132900000Y-148000000D02*
X132900000Y-147450000D01*
X132500000Y-148000000D02*
X132900000Y-148000000D01*
%TO.C,D15*%
X152500000Y-148000000D02*
X153000000Y-148000000D01*
X152500000Y-148400000D02*
X151900000Y-148000000D01*
X152500000Y-147600000D02*
X152500000Y-148400000D01*
X151900000Y-148000000D02*
X152500000Y-147600000D01*
X151900000Y-148000000D02*
X151900000Y-148550000D01*
X151900000Y-148000000D02*
X151900000Y-147450000D01*
X151500000Y-148000000D02*
X151900000Y-148000000D01*
%TO.C,D16*%
X171500000Y-148000000D02*
X172000000Y-148000000D01*
X171500000Y-148400000D02*
X170900000Y-148000000D01*
X171500000Y-147600000D02*
X171500000Y-148400000D01*
X170900000Y-148000000D02*
X171500000Y-147600000D01*
X170900000Y-148000000D02*
X170900000Y-148550000D01*
X170900000Y-148000000D02*
X170900000Y-147450000D01*
X170500000Y-148000000D02*
X170900000Y-148000000D01*
%TO.C,D17*%
X190500000Y-148000000D02*
X191000000Y-148000000D01*
X190500000Y-148400000D02*
X189900000Y-148000000D01*
X190500000Y-147600000D02*
X190500000Y-148400000D01*
X189900000Y-148000000D02*
X190500000Y-147600000D01*
X189900000Y-148000000D02*
X189900000Y-148550000D01*
X189900000Y-148000000D02*
X189900000Y-147450000D01*
X189500000Y-148000000D02*
X189900000Y-148000000D01*
%TO.C,D18*%
X209500000Y-148000000D02*
X210000000Y-148000000D01*
X209500000Y-148400000D02*
X208900000Y-148000000D01*
X209500000Y-147600000D02*
X209500000Y-148400000D01*
X208900000Y-148000000D02*
X209500000Y-147600000D01*
X208900000Y-148000000D02*
X208900000Y-148550000D01*
X208900000Y-148000000D02*
X208900000Y-147450000D01*
X208500000Y-148000000D02*
X208900000Y-148000000D01*
%TO.C,D19*%
X228500000Y-148000000D02*
X229000000Y-148000000D01*
X228500000Y-148400000D02*
X227900000Y-148000000D01*
X228500000Y-147600000D02*
X228500000Y-148400000D01*
X227900000Y-148000000D02*
X228500000Y-147600000D01*
X227900000Y-148000000D02*
X227900000Y-148550000D01*
X227900000Y-148000000D02*
X227900000Y-147450000D01*
X227500000Y-148000000D02*
X227900000Y-148000000D01*
%TO.C,D20*%
X247500000Y-148000000D02*
X248000000Y-148000000D01*
X247500000Y-148400000D02*
X246900000Y-148000000D01*
X247500000Y-147600000D02*
X247500000Y-148400000D01*
X246900000Y-148000000D02*
X247500000Y-147600000D01*
X246900000Y-148000000D02*
X246900000Y-148550000D01*
X246900000Y-148000000D02*
X246900000Y-147450000D01*
X246500000Y-148000000D02*
X246900000Y-148000000D01*
%TO.C,D21*%
X266500000Y-148000000D02*
X267000000Y-148000000D01*
X266500000Y-148400000D02*
X265900000Y-148000000D01*
X266500000Y-147600000D02*
X266500000Y-148400000D01*
X265900000Y-148000000D02*
X266500000Y-147600000D01*
X265900000Y-148000000D02*
X265900000Y-148550000D01*
X265900000Y-148000000D02*
X265900000Y-147450000D01*
X265500000Y-148000000D02*
X265900000Y-148000000D01*
%TO.C,D22*%
X285500000Y-148000000D02*
X286000000Y-148000000D01*
X285500000Y-148400000D02*
X284900000Y-148000000D01*
X285500000Y-147600000D02*
X285500000Y-148400000D01*
X284900000Y-148000000D02*
X285500000Y-147600000D01*
X284900000Y-148000000D02*
X284900000Y-148550000D01*
X284900000Y-148000000D02*
X284900000Y-147450000D01*
X284500000Y-148000000D02*
X284900000Y-148000000D01*
%TO.C,D23*%
X304500000Y-148000000D02*
X305000000Y-148000000D01*
X304500000Y-148400000D02*
X303900000Y-148000000D01*
X304500000Y-147600000D02*
X304500000Y-148400000D01*
X303900000Y-148000000D02*
X304500000Y-147600000D01*
X303900000Y-148000000D02*
X303900000Y-148550000D01*
X303900000Y-148000000D02*
X303900000Y-147450000D01*
X303500000Y-148000000D02*
X303900000Y-148000000D01*
%TO.C,D24*%
X328250000Y-148000000D02*
X328750000Y-148000000D01*
X328250000Y-148400000D02*
X327650000Y-148000000D01*
X328250000Y-147600000D02*
X328250000Y-148400000D01*
X327650000Y-148000000D02*
X328250000Y-147600000D01*
X327650000Y-148000000D02*
X327650000Y-148550000D01*
X327650000Y-148000000D02*
X327650000Y-147450000D01*
X327250000Y-148000000D02*
X327650000Y-148000000D01*
%TO.C,D25*%
X116875000Y-167000000D02*
X117375000Y-167000000D01*
X116875000Y-167400000D02*
X116275000Y-167000000D01*
X116875000Y-166600000D02*
X116875000Y-167400000D01*
X116275000Y-167000000D02*
X116875000Y-166600000D01*
X116275000Y-167000000D02*
X116275000Y-167550000D01*
X116275000Y-167000000D02*
X116275000Y-166450000D01*
X115875000Y-167000000D02*
X116275000Y-167000000D01*
%TO.C,D26*%
X143000000Y-167000000D02*
X143500000Y-167000000D01*
X143000000Y-167400000D02*
X142400000Y-167000000D01*
X143000000Y-166600000D02*
X143000000Y-167400000D01*
X142400000Y-167000000D02*
X143000000Y-166600000D01*
X142400000Y-167000000D02*
X142400000Y-167550000D01*
X142400000Y-167000000D02*
X142400000Y-166450000D01*
X142000000Y-167000000D02*
X142400000Y-167000000D01*
%TO.C,D27*%
X162000000Y-167000000D02*
X162500000Y-167000000D01*
X162000000Y-167400000D02*
X161400000Y-167000000D01*
X162000000Y-166600000D02*
X162000000Y-167400000D01*
X161400000Y-167000000D02*
X162000000Y-166600000D01*
X161400000Y-167000000D02*
X161400000Y-167550000D01*
X161400000Y-167000000D02*
X161400000Y-166450000D01*
X161000000Y-167000000D02*
X161400000Y-167000000D01*
%TO.C,D28*%
X181000000Y-167000000D02*
X181500000Y-167000000D01*
X181000000Y-167400000D02*
X180400000Y-167000000D01*
X181000000Y-166600000D02*
X181000000Y-167400000D01*
X180400000Y-167000000D02*
X181000000Y-166600000D01*
X180400000Y-167000000D02*
X180400000Y-167550000D01*
X180400000Y-167000000D02*
X180400000Y-166450000D01*
X180000000Y-167000000D02*
X180400000Y-167000000D01*
%TO.C,D29*%
X200000000Y-167000000D02*
X200500000Y-167000000D01*
X200000000Y-167400000D02*
X199400000Y-167000000D01*
X200000000Y-166600000D02*
X200000000Y-167400000D01*
X199400000Y-167000000D02*
X200000000Y-166600000D01*
X199400000Y-167000000D02*
X199400000Y-167550000D01*
X199400000Y-167000000D02*
X199400000Y-166450000D01*
X199000000Y-167000000D02*
X199400000Y-167000000D01*
%TO.C,D30*%
X219000000Y-167000000D02*
X219500000Y-167000000D01*
X219000000Y-167400000D02*
X218400000Y-167000000D01*
X219000000Y-166600000D02*
X219000000Y-167400000D01*
X218400000Y-167000000D02*
X219000000Y-166600000D01*
X218400000Y-167000000D02*
X218400000Y-167550000D01*
X218400000Y-167000000D02*
X218400000Y-166450000D01*
X218000000Y-167000000D02*
X218400000Y-167000000D01*
%TO.C,D31*%
X238000000Y-167000000D02*
X238500000Y-167000000D01*
X238000000Y-167400000D02*
X237400000Y-167000000D01*
X238000000Y-166600000D02*
X238000000Y-167400000D01*
X237400000Y-167000000D02*
X238000000Y-166600000D01*
X237400000Y-167000000D02*
X237400000Y-167550000D01*
X237400000Y-167000000D02*
X237400000Y-166450000D01*
X237000000Y-167000000D02*
X237400000Y-167000000D01*
%TO.C,D32*%
X257000000Y-167000000D02*
X257500000Y-167000000D01*
X257000000Y-167400000D02*
X256400000Y-167000000D01*
X257000000Y-166600000D02*
X257000000Y-167400000D01*
X256400000Y-167000000D02*
X257000000Y-166600000D01*
X256400000Y-167000000D02*
X256400000Y-167550000D01*
X256400000Y-167000000D02*
X256400000Y-166450000D01*
X256000000Y-167000000D02*
X256400000Y-167000000D01*
%TO.C,D33*%
X276000000Y-167000000D02*
X276500000Y-167000000D01*
X276000000Y-167400000D02*
X275400000Y-167000000D01*
X276000000Y-166600000D02*
X276000000Y-167400000D01*
X275400000Y-167000000D02*
X276000000Y-166600000D01*
X275400000Y-167000000D02*
X275400000Y-167550000D01*
X275400000Y-167000000D02*
X275400000Y-166450000D01*
X275000000Y-167000000D02*
X275400000Y-167000000D01*
%TO.C,D34*%
X295000000Y-167000000D02*
X295500000Y-167000000D01*
X295000000Y-167400000D02*
X294400000Y-167000000D01*
X295000000Y-166600000D02*
X295000000Y-167400000D01*
X294400000Y-167000000D02*
X295000000Y-166600000D01*
X294400000Y-167000000D02*
X294400000Y-167550000D01*
X294400000Y-167000000D02*
X294400000Y-166450000D01*
X294000000Y-167000000D02*
X294400000Y-167000000D01*
%TO.C,D35*%
X314000000Y-167000000D02*
X314500000Y-167000000D01*
X314000000Y-167400000D02*
X313400000Y-167000000D01*
X314000000Y-166600000D02*
X314000000Y-167400000D01*
X313400000Y-167000000D02*
X314000000Y-166600000D01*
X313400000Y-167000000D02*
X313400000Y-167550000D01*
X313400000Y-167000000D02*
X313400000Y-166450000D01*
X313000000Y-167000000D02*
X313400000Y-167000000D01*
%TO.C,D36*%
X333000000Y-167000000D02*
X333500000Y-167000000D01*
X333000000Y-167400000D02*
X332400000Y-167000000D01*
X333000000Y-166600000D02*
X333000000Y-167400000D01*
X332400000Y-167000000D02*
X333000000Y-166600000D01*
X332400000Y-167000000D02*
X332400000Y-167550000D01*
X332400000Y-167000000D02*
X332400000Y-166450000D01*
X332000000Y-167000000D02*
X332400000Y-167000000D01*
%TO.C,D37*%
X112125000Y-186000000D02*
X112625000Y-186000000D01*
X112125000Y-186400000D02*
X111525000Y-186000000D01*
X112125000Y-185600000D02*
X112125000Y-186400000D01*
X111525000Y-186000000D02*
X112125000Y-185600000D01*
X111525000Y-186000000D02*
X111525000Y-186550000D01*
X111525000Y-186000000D02*
X111525000Y-185450000D01*
X111125000Y-186000000D02*
X111525000Y-186000000D01*
%TO.C,D38*%
X138250000Y-186000000D02*
X138750000Y-186000000D01*
X138250000Y-186400000D02*
X137650000Y-186000000D01*
X138250000Y-185600000D02*
X138250000Y-186400000D01*
X137650000Y-186000000D02*
X138250000Y-185600000D01*
X137650000Y-186000000D02*
X137650000Y-186550000D01*
X137650000Y-186000000D02*
X137650000Y-185450000D01*
X137250000Y-186000000D02*
X137650000Y-186000000D01*
%TO.C,D39*%
X164280000Y-186000000D02*
X164780000Y-186000000D01*
X164280000Y-186400000D02*
X163680000Y-186000000D01*
X164280000Y-185600000D02*
X164280000Y-186400000D01*
X163680000Y-186000000D02*
X164280000Y-185600000D01*
X163680000Y-186000000D02*
X163680000Y-186550000D01*
X163680000Y-186000000D02*
X163680000Y-185450000D01*
X163280000Y-186000000D02*
X163680000Y-186000000D01*
%TO.C,D40*%
X197530000Y-186000000D02*
X198030000Y-186000000D01*
X197530000Y-186400000D02*
X196930000Y-186000000D01*
X197530000Y-185600000D02*
X197530000Y-186400000D01*
X196930000Y-186000000D02*
X197530000Y-185600000D01*
X196930000Y-186000000D02*
X196930000Y-186550000D01*
X196930000Y-186000000D02*
X196930000Y-185450000D01*
X196530000Y-186000000D02*
X196930000Y-186000000D01*
%TO.C,D41*%
X238000000Y-186000000D02*
X238500000Y-186000000D01*
X238000000Y-186400000D02*
X237400000Y-186000000D01*
X238000000Y-185600000D02*
X238000000Y-186400000D01*
X237400000Y-186000000D02*
X238000000Y-185600000D01*
X237400000Y-186000000D02*
X237400000Y-186550000D01*
X237400000Y-186000000D02*
X237400000Y-185450000D01*
X237000000Y-186000000D02*
X237400000Y-186000000D01*
%TO.C,D42*%
X271250000Y-186000000D02*
X271750000Y-186000000D01*
X271250000Y-186400000D02*
X270650000Y-186000000D01*
X271250000Y-185600000D02*
X271250000Y-186400000D01*
X270650000Y-186000000D02*
X271250000Y-185600000D01*
X270650000Y-186000000D02*
X270650000Y-186550000D01*
X270650000Y-186000000D02*
X270650000Y-185450000D01*
X270250000Y-186000000D02*
X270650000Y-186000000D01*
%TO.C,D43*%
X295000000Y-186000000D02*
X295500000Y-186000000D01*
X295000000Y-186400000D02*
X294400000Y-186000000D01*
X295000000Y-185600000D02*
X295000000Y-186400000D01*
X294400000Y-186000000D02*
X295000000Y-185600000D01*
X294400000Y-186000000D02*
X294400000Y-186550000D01*
X294400000Y-186000000D02*
X294400000Y-185450000D01*
X294000000Y-186000000D02*
X294400000Y-186000000D01*
%TO.C,D44*%
X314000000Y-186000000D02*
X314500000Y-186000000D01*
X314000000Y-186400000D02*
X313400000Y-186000000D01*
X314000000Y-185600000D02*
X314000000Y-186400000D01*
X313400000Y-186000000D02*
X314000000Y-185600000D01*
X313400000Y-186000000D02*
X313400000Y-186550000D01*
X313400000Y-186000000D02*
X313400000Y-185450000D01*
X313000000Y-186000000D02*
X313400000Y-186000000D01*
%TO.C,D45*%
X333000000Y-186000000D02*
X333500000Y-186000000D01*
X333000000Y-186400000D02*
X332400000Y-186000000D01*
X333000000Y-185600000D02*
X333000000Y-186400000D01*
X332400000Y-186000000D02*
X333000000Y-185600000D01*
X332400000Y-186000000D02*
X332400000Y-186550000D01*
X332400000Y-186000000D02*
X332400000Y-185450000D01*
X332000000Y-186000000D02*
X332400000Y-186000000D01*
D13*
%TO.C,MCU1*%
X100220000Y-129140000D02*
X100220000Y-131800000D01*
X100220000Y-129140000D02*
X130820000Y-129140000D01*
X130820000Y-129140000D02*
X130820000Y-131800000D01*
X100220000Y-131800000D02*
X130820000Y-131800000D01*
X100220000Y-113900000D02*
X100220000Y-116560000D01*
X100220000Y-113900000D02*
X130820000Y-113900000D01*
X130820000Y-113900000D02*
X130820000Y-116560000D01*
X100220000Y-116560000D02*
X130820000Y-116560000D01*
X102820000Y-131800000D02*
X102820000Y-129140000D01*
D12*
%TO.C,JST1*%
X139500000Y-135950000D02*
X138500000Y-135950000D01*
X136500000Y-135950000D02*
X137500000Y-135950000D01*
X137000000Y-135450000D02*
X137000000Y-136450000D01*
D13*
X135940000Y-127090000D02*
X134940000Y-127090000D01*
X134940000Y-127090000D02*
X134940000Y-128090000D01*
X140140000Y-127090000D02*
X141060000Y-127090000D01*
X141060000Y-127090000D02*
X141060000Y-128090000D01*
X135860000Y-134910000D02*
X134940000Y-134910000D01*
X134940000Y-134910000D02*
X134940000Y-133910000D01*
X140140000Y-134910000D02*
X141060000Y-134910000D01*
X141060000Y-134910000D02*
X141060000Y-133910000D01*
%TO.C,PWR1*%
X129900000Y-111925000D02*
X130100000Y-111925000D01*
X131950000Y-110085000D02*
X131950000Y-110875000D01*
X125050000Y-110875000D02*
X125050000Y-110085000D01*
X126900000Y-111925000D02*
X128600000Y-111925000D01*
X125650000Y-109075000D02*
X131350000Y-109075000D01*
D12*
%TO.C,RST1*%
X135650000Y-109000000D02*
X135650000Y-108750000D01*
X135650000Y-112000000D02*
X135650000Y-112250000D01*
X135900000Y-108750000D02*
X135650000Y-108750000D01*
X135900000Y-112250000D02*
X135650000Y-112250000D01*
X140100000Y-108750000D02*
X140350000Y-108750000D01*
X140100000Y-112250000D02*
X140350000Y-112250000D01*
X140350000Y-109000000D02*
X140350000Y-108750000D01*
X140350000Y-112000000D02*
X140350000Y-112250000D01*
%TD*%
M02*
