%TF.GenerationSoftware,KiCad,Pcbnew,8.0.9-rc1*%
%TF.CreationDate,2026-07-19T00:15:23-06:00*%
%TF.ProjectId,40\u0025,3430252e-6b69-4636-9164-5f7063625858,v1.0.0*%
%TF.SameCoordinates,Original*%
%TF.FileFunction,Soldermask,Top*%
%TF.FilePolarity,Negative*%
%FSLAX46Y46*%
G04 Gerber Fmt 4.6, Leading zero omitted, Abs format (unit mm)*
G04 Created by KiCad (PCBNEW 8.0.9-rc1) date 2026-07-19 00:15:23*
%MOMM*%
%LPD*%
G01*
G04 APERTURE LIST*
G04 Aperture macros list*
%AMRoundRect*
0 Rectangle with rounded corners*
0 $1 Rounding radius*
0 $2 $3 $4 $5 $6 $7 $8 $9 X,Y pos of 4 corners*
0 Add a 4 corners polygon primitive as box body*
4,1,4,$2,$3,$4,$5,$6,$7,$8,$9,$2,$3,0*
0 Add four circle primitives for the rounded corners*
1,1,$1+$1,$2,$3*
1,1,$1+$1,$4,$5*
1,1,$1+$1,$6,$7*
1,1,$1+$1,$8,$9*
0 Add four rect primitives between the rounded corners*
20,1,$1+$1,$2,$3,$4,$5,0*
20,1,$1+$1,$4,$5,$6,$7,0*
20,1,$1+$1,$6,$7,$8,$9,0*
20,1,$1+$1,$8,$9,$2,$3,0*%
G04 Aperture macros list end*
%ADD10C,2.000000*%
%ADD11C,3.100000*%
%ADD12C,4.200000*%
%ADD13C,3.900000*%
%ADD14RoundRect,0.050000X-0.450000X-0.600000X0.450000X-0.600000X0.450000X0.600000X-0.450000X0.600000X0*%
%ADD15RoundRect,0.050000X-0.600000X0.450000X-0.600000X-0.450000X0.600000X-0.450000X0.600000X0.450000X0*%
%ADD16C,1.000000*%
%ADD17RoundRect,0.260000X-0.390000X-0.665000X0.390000X-0.665000X0.390000X0.665000X-0.390000X0.665000X0*%
%ADD18O,1.300000X1.850000*%
%ADD19C,1.800000*%
G04 APERTURE END LIST*
D10*
%TO.C,S2*%
X133580000Y-120000000D03*
D11*
X132310000Y-122540000D03*
D12*
X128500000Y-120000000D03*
D11*
X125960000Y-125080000D03*
D10*
X123420000Y-120000000D03*
%TD*%
%TO.C,S1*%
X114580000Y-120000000D03*
D11*
X113310000Y-122540000D03*
D12*
X109500000Y-120000000D03*
D11*
X106960000Y-125080000D03*
D10*
X104420000Y-120000000D03*
%TD*%
%TO.C,S39*%
X169110000Y-177000000D03*
D11*
X167840000Y-179540000D03*
D12*
X164030000Y-177000000D03*
D11*
X161490000Y-182080000D03*
D10*
X158950000Y-177000000D03*
%TD*%
%TO.C,S22*%
X290330000Y-139000000D03*
D11*
X289060000Y-141540000D03*
D12*
X285250000Y-139000000D03*
D11*
X282710000Y-144080000D03*
D10*
X280170000Y-139000000D03*
%TD*%
%TO.C,S8*%
X247580000Y-120000000D03*
D11*
X246310000Y-122540000D03*
D12*
X242500000Y-120000000D03*
D11*
X239960000Y-125080000D03*
D10*
X237420000Y-120000000D03*
%TD*%
%TO.C,S11*%
X304580000Y-120000000D03*
D11*
X303310000Y-122540000D03*
D12*
X299500000Y-120000000D03*
D11*
X296960000Y-125080000D03*
D10*
X294420000Y-120000000D03*
%TD*%
%TO.C,S19*%
X233330000Y-139000000D03*
D11*
X232060000Y-141540000D03*
D12*
X228250000Y-139000000D03*
D11*
X225710000Y-144080000D03*
D10*
X223170000Y-139000000D03*
%TD*%
%TO.C,S28*%
X185830000Y-158000000D03*
D11*
X184560000Y-160540000D03*
D12*
X180750000Y-158000000D03*
D11*
X178210000Y-163080000D03*
D10*
X175670000Y-158000000D03*
%TD*%
%TO.C,S18*%
X214330000Y-139000000D03*
D11*
X213060000Y-141540000D03*
D12*
X209250000Y-139000000D03*
D11*
X206710000Y-144080000D03*
D10*
X204170000Y-139000000D03*
%TD*%
%TO.C,S24*%
X333080000Y-139000000D03*
D11*
X331810000Y-141540000D03*
D12*
X328000000Y-139000000D03*
D11*
X325460000Y-144080000D03*
D10*
X322920000Y-139000000D03*
%TD*%
%TO.C,S25*%
X121705000Y-158000000D03*
D11*
X120435000Y-160540000D03*
D12*
X116625000Y-158000000D03*
D11*
X114085000Y-163080000D03*
D10*
X111545000Y-158000000D03*
%TD*%
%TO.C,S10*%
X285580000Y-120000000D03*
D11*
X284310000Y-122540000D03*
D12*
X280500000Y-120000000D03*
D11*
X277960000Y-125080000D03*
D10*
X275420000Y-120000000D03*
%TD*%
%TO.C,S38*%
X143080000Y-177000000D03*
D11*
X141810000Y-179540000D03*
D12*
X138000000Y-177000000D03*
D11*
X135460000Y-182080000D03*
D10*
X132920000Y-177000000D03*
%TD*%
%TO.C,S13*%
X116955000Y-139000000D03*
D11*
X115685000Y-141540000D03*
D12*
X111875000Y-139000000D03*
D11*
X109335000Y-144080000D03*
D10*
X106795000Y-139000000D03*
%TD*%
%TO.C,S6*%
X209580000Y-120000000D03*
D11*
X208310000Y-122540000D03*
D12*
X204500000Y-120000000D03*
D11*
X201960000Y-125080000D03*
D10*
X199420000Y-120000000D03*
%TD*%
%TO.C,S42*%
X276080000Y-177000000D03*
D11*
X274810000Y-179540000D03*
D12*
X271000000Y-177000000D03*
D11*
X268460000Y-182080000D03*
D10*
X265920000Y-177000000D03*
%TD*%
%TO.C,S15*%
X157330000Y-139000000D03*
D11*
X156060000Y-141540000D03*
D12*
X152250000Y-139000000D03*
D11*
X149710000Y-144080000D03*
D10*
X147170000Y-139000000D03*
%TD*%
%TO.C,S45*%
X337830000Y-177000000D03*
D11*
X336560000Y-179540000D03*
D12*
X332750000Y-177000000D03*
D11*
X330210000Y-182080000D03*
D10*
X327670000Y-177000000D03*
%TD*%
%TO.C,S34*%
X299830000Y-158000000D03*
D11*
X298560000Y-160540000D03*
D12*
X294750000Y-158000000D03*
D11*
X292210000Y-163080000D03*
D10*
X289670000Y-158000000D03*
%TD*%
%TO.C,S4*%
X171580000Y-120000000D03*
D11*
X170310000Y-122540000D03*
D12*
X166500000Y-120000000D03*
D11*
X163960000Y-125080000D03*
D10*
X161420000Y-120000000D03*
%TD*%
%TO.C,S44*%
X318830000Y-177000000D03*
D11*
X317560000Y-179540000D03*
D12*
X313750000Y-177000000D03*
D11*
X311210000Y-182080000D03*
D10*
X308670000Y-177000000D03*
%TD*%
%TO.C,S30*%
X223830000Y-158000000D03*
D11*
X222560000Y-160540000D03*
D12*
X218750000Y-158000000D03*
D11*
X216210000Y-163080000D03*
D10*
X213670000Y-158000000D03*
%TD*%
%TO.C,S17*%
X195330000Y-139000000D03*
D11*
X194060000Y-141540000D03*
D12*
X190250000Y-139000000D03*
D11*
X187710000Y-144080000D03*
D10*
X185170000Y-139000000D03*
%TD*%
%TO.C,S40*%
X202360000Y-177000000D03*
D11*
X201090000Y-179540000D03*
D12*
X197280000Y-177000000D03*
D11*
X194740000Y-182080000D03*
D10*
X192200000Y-177000000D03*
%TD*%
%TO.C,S3*%
X152580000Y-120000000D03*
D11*
X151310000Y-122540000D03*
D12*
X147500000Y-120000000D03*
D11*
X144960000Y-125080000D03*
D10*
X142420000Y-120000000D03*
%TD*%
%TO.C,S32*%
X261830000Y-158000000D03*
D11*
X260560000Y-160540000D03*
D12*
X256750000Y-158000000D03*
D11*
X254210000Y-163080000D03*
D10*
X251670000Y-158000000D03*
%TD*%
%TO.C,S12*%
X330800000Y-120000000D03*
D11*
X329530000Y-122540000D03*
D12*
X325720000Y-120000000D03*
D11*
X323180000Y-125080000D03*
D10*
X320640000Y-120000000D03*
%TD*%
%TO.C,S23*%
X309330000Y-139000000D03*
D11*
X308060000Y-141540000D03*
D12*
X304250000Y-139000000D03*
D11*
X301710000Y-144080000D03*
D10*
X299170000Y-139000000D03*
%TD*%
%TO.C,S7*%
X228580000Y-120000000D03*
D11*
X227310000Y-122540000D03*
D12*
X223500000Y-120000000D03*
D11*
X220960000Y-125080000D03*
D10*
X218420000Y-120000000D03*
%TD*%
%TO.C,S27*%
X166830000Y-158000000D03*
D11*
X165560000Y-160540000D03*
D12*
X161750000Y-158000000D03*
D11*
X159210000Y-163080000D03*
D10*
X156670000Y-158000000D03*
%TD*%
%TO.C,S5*%
X190580000Y-120000000D03*
D11*
X189310000Y-122540000D03*
D12*
X185500000Y-120000000D03*
D11*
X182960000Y-125080000D03*
D10*
X180420000Y-120000000D03*
%TD*%
%TO.C,S26*%
X147830000Y-158000000D03*
D11*
X146560000Y-160540000D03*
D12*
X142750000Y-158000000D03*
D11*
X140210000Y-163080000D03*
D10*
X137670000Y-158000000D03*
%TD*%
%TO.C,S31*%
X242830000Y-158000000D03*
D11*
X241560000Y-160540000D03*
D12*
X237750000Y-158000000D03*
D11*
X235210000Y-163080000D03*
D10*
X232670000Y-158000000D03*
%TD*%
%TO.C,S16*%
X176330000Y-139000000D03*
D11*
X175060000Y-141540000D03*
D12*
X171250000Y-139000000D03*
D11*
X168710000Y-144080000D03*
D10*
X166170000Y-139000000D03*
%TD*%
%TO.C,S43*%
X299830000Y-177000000D03*
D11*
X298560000Y-179540000D03*
D12*
X294750000Y-177000000D03*
D11*
X292210000Y-182080000D03*
D10*
X289670000Y-177000000D03*
%TD*%
%TO.C,S37*%
X116955000Y-177000000D03*
D11*
X115685000Y-179540000D03*
D12*
X111875000Y-177000000D03*
D11*
X109335000Y-182080000D03*
D10*
X106795000Y-177000000D03*
%TD*%
%TO.C,S33*%
X280830000Y-158000000D03*
D11*
X279560000Y-160540000D03*
D12*
X275750000Y-158000000D03*
D11*
X273210000Y-163080000D03*
D10*
X270670000Y-158000000D03*
%TD*%
%TO.C,S41*%
X242830000Y-177000000D03*
D11*
X241560000Y-179540000D03*
D12*
X237750000Y-177000000D03*
D11*
X235210000Y-182080000D03*
D10*
X232670000Y-177000000D03*
%TD*%
%TO.C,S36*%
X337830000Y-158000000D03*
D11*
X336560000Y-160540000D03*
D12*
X332750000Y-158000000D03*
D11*
X330210000Y-163080000D03*
D10*
X327670000Y-158000000D03*
%TD*%
%TO.C,S14*%
X138330000Y-139000000D03*
D11*
X137060000Y-141540000D03*
D12*
X133250000Y-139000000D03*
D11*
X130710000Y-144080000D03*
D10*
X128170000Y-139000000D03*
%TD*%
%TO.C,S35*%
X318830000Y-158000000D03*
D11*
X317560000Y-160540000D03*
D12*
X313750000Y-158000000D03*
D11*
X311210000Y-163080000D03*
D10*
X308670000Y-158000000D03*
%TD*%
%TO.C,S20*%
X252330000Y-139000000D03*
D11*
X251060000Y-141540000D03*
D12*
X247250000Y-139000000D03*
D11*
X244710000Y-144080000D03*
D10*
X242170000Y-139000000D03*
%TD*%
%TO.C,S21*%
X271330000Y-139000000D03*
D11*
X270060000Y-141540000D03*
D12*
X266250000Y-139000000D03*
D11*
X263710000Y-144080000D03*
D10*
X261170000Y-139000000D03*
%TD*%
%TO.C,S29*%
X204830000Y-158000000D03*
D11*
X203560000Y-160540000D03*
D12*
X199750000Y-158000000D03*
D11*
X197210000Y-163080000D03*
D10*
X194670000Y-158000000D03*
%TD*%
%TO.C,S9*%
X266580000Y-120000000D03*
D11*
X265310000Y-122540000D03*
D12*
X261500000Y-120000000D03*
D11*
X258960000Y-125080000D03*
D10*
X256420000Y-120000000D03*
%TD*%
D13*
%TO.C,H1*%
X147500000Y-114300000D03*
%TD*%
D14*
%TO.C,D16*%
X169600000Y-148000000D03*
X172900000Y-148000000D03*
%TD*%
%TO.C,D17*%
X188600000Y-148000000D03*
X191900000Y-148000000D03*
%TD*%
%TO.C,D35*%
X312100000Y-167000000D03*
X315400000Y-167000000D03*
%TD*%
%TO.C,D11*%
X297850000Y-129000000D03*
X301150000Y-129000000D03*
%TD*%
%TO.C,D15*%
X150600000Y-148000000D03*
X153900000Y-148000000D03*
%TD*%
%TO.C,D27*%
X160100000Y-167000000D03*
X163400000Y-167000000D03*
%TD*%
%TO.C,D38*%
X136350000Y-186000000D03*
X139650000Y-186000000D03*
%TD*%
%TO.C,D3*%
X145850000Y-129000000D03*
X149150000Y-129000000D03*
%TD*%
%TO.C,D39*%
X162380000Y-186000000D03*
X165680000Y-186000000D03*
%TD*%
%TO.C,D1*%
X99350000Y-128000000D03*
X102650000Y-128000000D03*
%TD*%
%TO.C,D26*%
X141100000Y-167000000D03*
X144400000Y-167000000D03*
%TD*%
D13*
%TO.C,H2*%
X325720000Y-114300000D03*
%TD*%
D14*
%TO.C,D4*%
X164850000Y-129000000D03*
X168150000Y-129000000D03*
%TD*%
D13*
%TO.C,H5*%
X218750000Y-152300000D03*
%TD*%
D14*
%TO.C,D31*%
X236100000Y-167000000D03*
X239400000Y-167000000D03*
%TD*%
D13*
%TO.C,H4*%
X332750000Y-171300000D03*
%TD*%
D14*
%TO.C,D28*%
X179100000Y-167000000D03*
X182400000Y-167000000D03*
%TD*%
%TO.C,D25*%
X114975000Y-167000000D03*
X118275000Y-167000000D03*
%TD*%
%TO.C,D30*%
X217100000Y-167000000D03*
X220400000Y-167000000D03*
%TD*%
%TO.C,D21*%
X264600000Y-148000000D03*
X267900000Y-148000000D03*
%TD*%
%TO.C,D32*%
X255100000Y-167000000D03*
X258400000Y-167000000D03*
%TD*%
%TO.C,D41*%
X236100000Y-186000000D03*
X239400000Y-186000000D03*
%TD*%
D13*
%TO.C,H3*%
X111875000Y-171300000D03*
%TD*%
D14*
%TO.C,D36*%
X331100000Y-167000000D03*
X334400000Y-167000000D03*
%TD*%
%TO.C,D14*%
X131600000Y-148000000D03*
X134900000Y-148000000D03*
%TD*%
%TO.C,D19*%
X226600000Y-148000000D03*
X229900000Y-148000000D03*
%TD*%
%TO.C,D23*%
X302600000Y-148000000D03*
X305900000Y-148000000D03*
%TD*%
%TO.C,D20*%
X245600000Y-148000000D03*
X248900000Y-148000000D03*
%TD*%
%TO.C,D34*%
X293100000Y-167000000D03*
X296400000Y-167000000D03*
%TD*%
%TO.C,D29*%
X198100000Y-167000000D03*
X201400000Y-167000000D03*
%TD*%
%TO.C,D24*%
X326350000Y-148000000D03*
X329650000Y-148000000D03*
%TD*%
%TO.C,D10*%
X278850000Y-129000000D03*
X282150000Y-129000000D03*
%TD*%
%TO.C,D12*%
X324070000Y-129000000D03*
X327370000Y-129000000D03*
%TD*%
%TO.C,D5*%
X183850000Y-129000000D03*
X187150000Y-129000000D03*
%TD*%
%TO.C,D40*%
X195630000Y-186000000D03*
X198930000Y-186000000D03*
%TD*%
%TO.C,D22*%
X283600000Y-148000000D03*
X286900000Y-148000000D03*
%TD*%
%TO.C,D43*%
X293100000Y-186000000D03*
X296400000Y-186000000D03*
%TD*%
%TO.C,D6*%
X202850000Y-129000000D03*
X206150000Y-129000000D03*
%TD*%
%TO.C,D45*%
X331100000Y-186000000D03*
X334400000Y-186000000D03*
%TD*%
%TO.C,D13*%
X110225000Y-148000000D03*
X113525000Y-148000000D03*
%TD*%
%TO.C,D33*%
X274100000Y-167000000D03*
X277400000Y-167000000D03*
%TD*%
%TO.C,D9*%
X259850000Y-129000000D03*
X263150000Y-129000000D03*
%TD*%
%TO.C,D8*%
X240850000Y-129000000D03*
X244150000Y-129000000D03*
%TD*%
%TO.C,D7*%
X221850000Y-129000000D03*
X225150000Y-129000000D03*
%TD*%
%TO.C,D37*%
X110225000Y-186000000D03*
X113525000Y-186000000D03*
%TD*%
%TO.C,D18*%
X207600000Y-148000000D03*
X210900000Y-148000000D03*
%TD*%
%TO.C,D44*%
X312100000Y-186000000D03*
X315400000Y-186000000D03*
%TD*%
%TO.C,D42*%
X269350000Y-186000000D03*
X272650000Y-186000000D03*
%TD*%
D15*
%TO.C,D2*%
X119500000Y-122350000D03*
X119500000Y-125650000D03*
%TD*%
D16*
%TO.C,PWR1*%
X127000000Y-110475000D03*
X130000000Y-110475000D03*
%TD*%
D17*
%TO.C,JST1*%
X139000000Y-128550000D03*
D18*
X137000000Y-128550000D03*
%TD*%
D19*
%TO.C,MCU1*%
X101550000Y-115230000D03*
X104090000Y-115230000D03*
X106630000Y-115230000D03*
X109170000Y-115230000D03*
X111710000Y-115230000D03*
X114250000Y-115230000D03*
X116790000Y-115230000D03*
X119330000Y-115230000D03*
X121870000Y-115230000D03*
X124410000Y-115230000D03*
X126950000Y-115230000D03*
X129490000Y-115230000D03*
X129490000Y-130470000D03*
X126950000Y-130470000D03*
X124410000Y-130470000D03*
X121870000Y-130470000D03*
X119330000Y-130470000D03*
X116790000Y-130470000D03*
X114250000Y-130470000D03*
X111710000Y-130470000D03*
X109170000Y-130470000D03*
X106630000Y-130470000D03*
X104090000Y-130470000D03*
X101550000Y-130470000D03*
%TD*%
M02*
