%TF.GenerationSoftware,KiCad,Pcbnew,8.0.9-rc1*%
%TF.CreationDate,2026-07-12T22:51:52-06:00*%
%TF.ProjectId,40\u0025,3430252e-6b69-4636-9164-5f7063625858,v1.0.0*%
%TF.SameCoordinates,Original*%
%TF.FileFunction,Legend,Top*%
%TF.FilePolarity,Positive*%
%FSLAX46Y46*%
G04 Gerber Fmt 4.6, Leading zero omitted, Abs format (unit mm)*
G04 Created by KiCad (PCBNEW 8.0.9-rc1) date 2026-07-12 22:51:52*
%MOMM*%
%LPD*%
G01*
G04 APERTURE LIST*
%ADD10C,0.000000*%
%ADD11C,0.100000*%
G04 APERTURE END LIST*
D10*
%TO.C,G\u002A\u002A\u002A*%
G36*
X300039454Y-153594719D02*
G01*
X300393220Y-153817801D01*
X300850377Y-154144115D01*
X301208529Y-154419230D01*
X301743988Y-154833343D01*
X302130116Y-155098881D01*
X302430233Y-155248068D01*
X302707662Y-155313123D01*
X302991241Y-155326373D01*
X303416507Y-155362218D01*
X303792642Y-155499223D01*
X304231141Y-155781593D01*
X304336691Y-155859819D01*
X304799627Y-156180504D01*
X305255358Y-156452786D01*
X305519199Y-156580818D01*
X305847411Y-156760886D01*
X306296201Y-157071159D01*
X306781265Y-157452282D01*
X306898901Y-157552181D01*
X307407290Y-157985116D01*
X307920149Y-158411508D01*
X308338490Y-158749219D01*
X308391077Y-158790340D01*
X308769153Y-159132063D01*
X309126271Y-159534150D01*
X309404009Y-159921885D01*
X309543943Y-160220553D01*
X309550550Y-160273143D01*
X309454436Y-160240698D01*
X309201563Y-160062155D01*
X308845131Y-159775329D01*
X308817857Y-159752326D01*
X308245836Y-159295334D01*
X307780787Y-158977830D01*
X307461274Y-158825235D01*
X307396538Y-158815384D01*
X307314784Y-158918648D01*
X307389582Y-159199053D01*
X307607282Y-159612515D01*
X307678221Y-159725020D01*
X308038859Y-160280769D01*
X307503770Y-159693740D01*
X307121848Y-159264665D01*
X306751099Y-158832285D01*
X306598336Y-158647037D01*
X306247768Y-158306979D01*
X305781684Y-157969472D01*
X305554363Y-157838461D01*
X305006540Y-157544397D01*
X304426883Y-157218218D01*
X304234549Y-157105769D01*
X303841486Y-156889646D01*
X303532299Y-156750444D01*
X303421455Y-156721978D01*
X303340469Y-156811498D01*
X303452635Y-157066576D01*
X303742793Y-157466988D01*
X304195783Y-157992512D01*
X304796444Y-158622924D01*
X304995902Y-158822286D01*
X305469464Y-159309472D01*
X305840189Y-159727329D01*
X306074941Y-160035963D01*
X306140582Y-160195481D01*
X306139039Y-160198497D01*
X305913218Y-160323072D01*
X305515840Y-160336219D01*
X305027011Y-160247229D01*
X304526838Y-160065396D01*
X304388972Y-159995460D01*
X303929448Y-159791256D01*
X303486305Y-159668612D01*
X303326200Y-159652747D01*
X302894806Y-159564082D01*
X302534446Y-159373626D01*
X302246906Y-159178986D01*
X302042790Y-159094605D01*
X302038890Y-159094505D01*
X301864402Y-158987005D01*
X301605273Y-158713958D01*
X301319833Y-158349543D01*
X301066406Y-157967943D01*
X300908215Y-157656508D01*
X300689490Y-157322046D01*
X300380680Y-157053053D01*
X299907132Y-156690772D01*
X299676834Y-156326891D01*
X299641758Y-156091609D01*
X299552920Y-155827661D01*
X299341991Y-155520776D01*
X299092357Y-155273549D01*
X298906415Y-155186813D01*
X298756896Y-155275998D01*
X298510474Y-155493789D01*
X298479465Y-155524431D01*
X298153989Y-155786545D01*
X297705243Y-156074110D01*
X297461308Y-156207227D01*
X296911060Y-156559549D01*
X296390465Y-157059349D01*
X295855847Y-157752874D01*
X295525244Y-158257142D01*
X295252723Y-158651681D01*
X294994944Y-158960612D01*
X294885955Y-159059511D01*
X294654253Y-159289921D01*
X294391922Y-159639104D01*
X294338526Y-159722423D01*
X294124742Y-160027824D01*
X293956867Y-160198206D01*
X293923237Y-160210989D01*
X293855653Y-160102809D01*
X293901098Y-159827766D01*
X294031974Y-159460107D01*
X294220686Y-159074077D01*
X294439638Y-158743922D01*
X294490598Y-158684544D01*
X294799319Y-158303568D01*
X294906627Y-158070989D01*
X294840785Y-157976591D01*
X294630057Y-158010158D01*
X294302705Y-158161475D01*
X293886993Y-158420325D01*
X293411182Y-158776495D01*
X292903536Y-159219766D01*
X292838187Y-159281810D01*
X292478043Y-159606417D01*
X292293992Y-159716585D01*
X292282629Y-159609088D01*
X292440551Y-159280698D01*
X292579606Y-159036622D01*
X292816094Y-158706868D01*
X293141491Y-158411478D01*
X293619169Y-158100074D01*
X294077489Y-157845905D01*
X294674786Y-157502639D01*
X295250558Y-157129245D01*
X295706527Y-156790732D01*
X295815816Y-156696045D01*
X296252270Y-156324640D01*
X296790188Y-155908818D01*
X297195109Y-155620155D01*
X297716230Y-155234743D01*
X298302227Y-154753952D01*
X298814063Y-154293182D01*
X299221207Y-153927149D01*
X299574493Y-153653005D01*
X299811068Y-153518369D01*
X299845018Y-153512088D01*
X300039454Y-153594719D01*
G37*
G36*
X289349773Y-142922353D02*
G01*
X289954017Y-143536044D01*
X290585855Y-144156365D01*
X291176146Y-144716699D01*
X291655748Y-145150429D01*
X291716904Y-145203039D01*
X292505875Y-145983554D01*
X293317098Y-146991707D01*
X293634449Y-147441657D01*
X294233153Y-148253442D01*
X294898141Y-149041550D01*
X295579731Y-149754711D01*
X296228240Y-150341656D01*
X296793983Y-150751116D01*
X296899135Y-150810557D01*
X297124066Y-150913459D01*
X297319016Y-150926151D01*
X297562563Y-150827952D01*
X297933287Y-150598180D01*
X298083605Y-150498803D01*
X298640278Y-150099434D01*
X299231943Y-149630075D01*
X299570222Y-149336764D01*
X300138833Y-148819449D01*
X300541261Y-148464402D01*
X300816281Y-148244416D01*
X301002671Y-148132287D01*
X301139208Y-148100809D01*
X301264667Y-148122778D01*
X301289601Y-148130478D01*
X301536870Y-148315516D01*
X301735343Y-148627901D01*
X301915833Y-148903114D01*
X302266058Y-149311497D01*
X302740136Y-149808966D01*
X303292187Y-150351436D01*
X303876330Y-150894825D01*
X304446684Y-151395049D01*
X304957368Y-151808023D01*
X305293956Y-152047137D01*
X305818521Y-152359357D01*
X306377402Y-152655915D01*
X306639520Y-152779577D01*
X307238142Y-153152078D01*
X307790244Y-153741079D01*
X307843557Y-153811549D01*
X308264539Y-154351280D01*
X308644753Y-154758859D01*
X309063526Y-155102075D01*
X309600186Y-155448713D01*
X310087763Y-155729301D01*
X310719533Y-156092763D01*
X311197439Y-156402812D01*
X311583982Y-156717052D01*
X311941664Y-157093086D01*
X312332988Y-157588519D01*
X312793134Y-158222660D01*
X313282192Y-158908599D01*
X313622144Y-159396511D01*
X313824539Y-159716617D01*
X313900930Y-159899142D01*
X313862865Y-159974306D01*
X313721896Y-159972332D01*
X313489572Y-159923444D01*
X313438746Y-159911949D01*
X313015067Y-159848996D01*
X312671397Y-159851899D01*
X312610927Y-159865246D01*
X312126292Y-159895822D01*
X311552146Y-159748202D01*
X310986238Y-159451176D01*
X310841020Y-159343919D01*
X310386896Y-159021421D01*
X309854195Y-158696748D01*
X309648168Y-158586031D01*
X309008672Y-158141041D01*
X308541506Y-157625746D01*
X308148006Y-157175429D01*
X307742998Y-156892019D01*
X307663022Y-156860396D01*
X307290080Y-156647855D01*
X307027482Y-156352562D01*
X306698683Y-155894637D01*
X306248692Y-155464952D01*
X305756332Y-155123505D01*
X305300429Y-154930292D01*
X305129187Y-154907692D01*
X304434274Y-154768785D01*
X303716010Y-154352517D01*
X302975561Y-153659572D01*
X302950392Y-153631583D01*
X302251304Y-152847524D01*
X301718071Y-152240199D01*
X301328506Y-151780068D01*
X301060422Y-151437591D01*
X300891634Y-151183228D01*
X300799953Y-150987440D01*
X300763194Y-150820687D01*
X300758242Y-150712916D01*
X300702615Y-150278803D01*
X300561552Y-149929287D01*
X300373782Y-149751430D01*
X300327205Y-149743956D01*
X300160616Y-149826613D01*
X299838527Y-150047150D01*
X299419578Y-150364411D01*
X299245553Y-150503083D01*
X298680526Y-150933265D01*
X298065128Y-151361053D01*
X297523142Y-151700808D01*
X297473603Y-151728971D01*
X297090582Y-151955301D01*
X296804260Y-152172252D01*
X296571854Y-152436423D01*
X296350578Y-152804412D01*
X296097650Y-153332817D01*
X295868375Y-153852524D01*
X295618198Y-154270265D01*
X295197430Y-154808633D01*
X294655888Y-155416994D01*
X294043384Y-156044713D01*
X293409734Y-156641156D01*
X292804752Y-157155689D01*
X292278252Y-157537678D01*
X292189144Y-157592306D01*
X291715366Y-157902588D01*
X291165623Y-158307265D01*
X290723496Y-158664789D01*
X290024375Y-159236358D01*
X289428304Y-159669796D01*
X288957982Y-159952036D01*
X288636108Y-160070013D01*
X288485381Y-160010661D01*
X288476923Y-159957978D01*
X288569176Y-159798242D01*
X288799360Y-159538325D01*
X288888772Y-159449952D01*
X289252910Y-159019599D01*
X289456294Y-158605759D01*
X289477121Y-158267536D01*
X289381159Y-158115170D01*
X289215243Y-157891664D01*
X289027240Y-157520242D01*
X288964118Y-157366106D01*
X288659149Y-156834539D01*
X288237015Y-156505935D01*
X287744941Y-156087977D01*
X287399910Y-155465215D01*
X287224022Y-154682440D01*
X287207432Y-154419230D01*
X287164307Y-153703710D01*
X287074308Y-153227336D01*
X286925151Y-152952283D01*
X286704555Y-152840727D01*
X286694321Y-152839166D01*
X286383848Y-152657728D01*
X286181064Y-152320782D01*
X285925575Y-151933732D01*
X285600846Y-151738894D01*
X285272921Y-151757970D01*
X285047980Y-151948438D01*
X284849754Y-152184294D01*
X284516119Y-152536536D01*
X284116561Y-152932008D01*
X284085858Y-152961388D01*
X283577013Y-153508300D01*
X283194095Y-154088076D01*
X282882819Y-154751758D01*
X282434426Y-155788067D01*
X282058593Y-156560578D01*
X281756266Y-157067463D01*
X281579568Y-157271184D01*
X281403145Y-157362670D01*
X281372733Y-157238665D01*
X281488980Y-156921959D01*
X281565281Y-156768178D01*
X281700356Y-156476146D01*
X281904022Y-155996518D01*
X282145700Y-155402604D01*
X282333777Y-154925588D01*
X282694360Y-154072922D01*
X283049914Y-153408480D01*
X283448376Y-152846435D01*
X283588577Y-152679032D01*
X284112405Y-152016799D01*
X284428938Y-151467476D01*
X284561707Y-150987043D01*
X284569231Y-150844649D01*
X284549699Y-150696501D01*
X284453630Y-150679889D01*
X284224814Y-150807091D01*
X283976099Y-150974197D01*
X283474826Y-151294052D01*
X282935371Y-151604723D01*
X282775239Y-151688986D01*
X282042499Y-152132614D01*
X281300098Y-152708528D01*
X280585280Y-153373903D01*
X279935288Y-154085911D01*
X279387367Y-154801727D01*
X278978760Y-155478522D01*
X278746710Y-156073472D01*
X278707692Y-156366289D01*
X278646097Y-156652733D01*
X278485648Y-157083584D01*
X278290779Y-157504783D01*
X278077192Y-157942650D01*
X277926223Y-158283965D01*
X277872098Y-158448059D01*
X277786035Y-158617816D01*
X277570873Y-158905313D01*
X277451649Y-159046047D01*
X277197243Y-159319897D01*
X277072542Y-159394280D01*
X277034161Y-159288702D01*
X277032967Y-159234282D01*
X277094380Y-158947352D01*
X277251164Y-158533576D01*
X277369383Y-158281782D01*
X277560645Y-157816142D01*
X277748400Y-157216565D01*
X277903302Y-156594279D01*
X277996006Y-156060512D01*
X278009890Y-155854073D01*
X277918250Y-155802280D01*
X277662334Y-155932865D01*
X277270650Y-156226356D01*
X276771706Y-156663284D01*
X276628047Y-156797866D01*
X275854561Y-157520173D01*
X275236165Y-158064401D01*
X274735189Y-158454344D01*
X274313962Y-158713796D01*
X273934817Y-158866551D01*
X273560083Y-158936404D01*
X273223378Y-158948447D01*
X272636813Y-158941948D01*
X273331769Y-158580586D01*
X273860560Y-158248682D01*
X274492924Y-157766880D01*
X275154867Y-157200422D01*
X275772391Y-156614550D01*
X276271503Y-156074506D01*
X276479474Y-155805241D01*
X276913949Y-155328854D01*
X277421060Y-155072905D01*
X277738961Y-154931949D01*
X278099602Y-154671894D01*
X278544516Y-154257989D01*
X279115236Y-153655484D01*
X279115691Y-153654987D01*
X280065665Y-152681569D01*
X280982007Y-151870563D01*
X281830555Y-151249805D01*
X282544323Y-150860988D01*
X282966387Y-150629486D01*
X283466122Y-150283870D01*
X283856289Y-149966742D01*
X284278614Y-149631563D01*
X284656161Y-149401711D01*
X284894467Y-149325274D01*
X285185583Y-149434221D01*
X285564300Y-149723583D01*
X285970190Y-150137141D01*
X286342824Y-150618675D01*
X286430909Y-150754690D01*
X286693911Y-151040337D01*
X287099533Y-151340699D01*
X287341333Y-151478779D01*
X287971874Y-151907696D01*
X288599376Y-152525689D01*
X289148408Y-153252263D01*
X289384464Y-153659025D01*
X289671967Y-154048571D01*
X290143051Y-154508040D01*
X290731587Y-154982640D01*
X291371445Y-155417582D01*
X291804053Y-155663732D01*
X292119618Y-155806073D01*
X292331243Y-155803697D01*
X292575598Y-155653362D01*
X292586719Y-155645160D01*
X292907483Y-155320138D01*
X293144154Y-154925712D01*
X293221978Y-154622004D01*
X293105809Y-154511674D01*
X292959946Y-154489011D01*
X292773672Y-154462453D01*
X292608416Y-154352219D01*
X292426975Y-154112467D01*
X292192149Y-153697356D01*
X291974450Y-153274668D01*
X291672023Y-152555762D01*
X291478912Y-151770488D01*
X291401191Y-151220510D01*
X291284923Y-150419225D01*
X291144333Y-149818540D01*
X290987438Y-149445152D01*
X290832080Y-149325274D01*
X290652099Y-149207091D01*
X290432585Y-148910150D01*
X290221138Y-148520870D01*
X290065357Y-148125665D01*
X290012088Y-147836578D01*
X289889794Y-147093651D01*
X289514708Y-146461755D01*
X289323661Y-146263702D01*
X289022037Y-145871916D01*
X288788911Y-145378786D01*
X288755208Y-145268266D01*
X288615731Y-144843840D01*
X288461569Y-144514145D01*
X288410421Y-144440659D01*
X288240367Y-144192221D01*
X288021192Y-143809357D01*
X287928545Y-143631206D01*
X287741456Y-143275886D01*
X287611012Y-143131950D01*
X287468771Y-143161262D01*
X287302448Y-143282305D01*
X286458382Y-143934818D01*
X285804693Y-144436670D01*
X285312194Y-144809530D01*
X284951695Y-145075070D01*
X284694006Y-145254960D01*
X284509939Y-145370871D01*
X284429671Y-145415117D01*
X284155185Y-145607803D01*
X283833950Y-145899397D01*
X283541065Y-146212638D01*
X283351634Y-146470264D01*
X283318859Y-146557867D01*
X283434595Y-146649411D01*
X283721983Y-146741201D01*
X283733273Y-146743715D01*
X284144561Y-146867961D01*
X284569653Y-147046561D01*
X284907708Y-147232611D01*
X285047547Y-147355013D01*
X284978409Y-147412348D01*
X284720848Y-147402964D01*
X284717738Y-147402511D01*
X284389565Y-147401344D01*
X283872315Y-147449654D01*
X283248954Y-147534459D01*
X282602448Y-147642777D01*
X282015763Y-147761628D01*
X281571865Y-147878030D01*
X281484516Y-147908395D01*
X281067389Y-148181719D01*
X280560579Y-148717519D01*
X279965294Y-149514363D01*
X279402441Y-150376883D01*
X279026239Y-150953642D01*
X278732593Y-151348641D01*
X278536053Y-151547360D01*
X278451167Y-151535280D01*
X278492485Y-151297883D01*
X278498352Y-151279121D01*
X278506684Y-151050585D01*
X278322495Y-151021920D01*
X277944769Y-151193122D01*
X277803787Y-151277120D01*
X277490014Y-151535671D01*
X277066323Y-151973359D01*
X276576272Y-152536180D01*
X276063417Y-153170130D01*
X275571315Y-153821206D01*
X275143525Y-154435405D01*
X274823602Y-154958725D01*
X274801901Y-154998934D01*
X274350991Y-155823150D01*
X273996448Y-156417082D01*
X273721963Y-156805814D01*
X273511223Y-157014426D01*
X273477536Y-157035495D01*
X273354678Y-157079026D01*
X273358892Y-156974160D01*
X273495617Y-156677605D01*
X273531338Y-156607151D01*
X273686995Y-156237677D01*
X273823790Y-155804904D01*
X273923500Y-155387239D01*
X273967900Y-155063088D01*
X273938763Y-154910858D01*
X273926363Y-154907692D01*
X273662021Y-154980722D01*
X273234186Y-155174931D01*
X272709119Y-155452994D01*
X272153077Y-155777587D01*
X271632319Y-156111387D01*
X271213105Y-156417069D01*
X271141730Y-156476287D01*
X270720362Y-156854235D01*
X270462082Y-157154463D01*
X270308458Y-157469066D01*
X270201060Y-157890141D01*
X270180871Y-157990732D01*
X270074629Y-158444121D01*
X269964946Y-158776751D01*
X269890965Y-158900257D01*
X269818875Y-158848702D01*
X269830817Y-158652627D01*
X269950851Y-158004672D01*
X270001520Y-157588714D01*
X269980820Y-157422198D01*
X269972501Y-157419780D01*
X269728240Y-157507405D01*
X269346720Y-157741514D01*
X268895492Y-158078955D01*
X268744374Y-158204294D01*
X268342497Y-158485517D01*
X267850058Y-158746238D01*
X267350588Y-158951444D01*
X266927618Y-159066127D01*
X266689036Y-159065759D01*
X266719078Y-158974551D01*
X266943010Y-158782611D01*
X267313606Y-158529820D01*
X267352570Y-158505428D01*
X267723575Y-158233466D01*
X268243746Y-157793879D01*
X268872336Y-157223596D01*
X269568598Y-156559542D01*
X270264286Y-155866652D01*
X271252224Y-154871414D01*
X272088262Y-154053587D01*
X272806675Y-153382617D01*
X273441732Y-152827952D01*
X274027708Y-152359038D01*
X274598874Y-151945324D01*
X274862375Y-151767582D01*
X275504463Y-151285007D01*
X275910298Y-150809450D01*
X276111910Y-150270902D01*
X276141327Y-149599350D01*
X276087666Y-149089259D01*
X276005140Y-148575688D01*
X275921347Y-148175463D01*
X275852575Y-147964601D01*
X275844370Y-147953817D01*
X275704843Y-147994486D01*
X275451108Y-148211564D01*
X275128554Y-148552467D01*
X274782570Y-148964613D01*
X274458544Y-149395418D01*
X274201865Y-149792298D01*
X274114900Y-149957449D01*
X273816546Y-150427485D01*
X273387754Y-150760236D01*
X273202344Y-150856911D01*
X272586888Y-151278994D01*
X271989598Y-151924723D01*
X271974539Y-151944423D01*
X271428424Y-152549113D01*
X270860405Y-152980407D01*
X270752747Y-153038545D01*
X270280909Y-153320737D01*
X269845843Y-153654961D01*
X269725336Y-153770015D01*
X269479892Y-154046986D01*
X269410482Y-154231119D01*
X269493078Y-154424213D01*
X269550885Y-154509092D01*
X269741504Y-154824609D01*
X269731641Y-154946292D01*
X269517978Y-154877877D01*
X269322253Y-154766602D01*
X268712064Y-154528720D01*
X268054734Y-154544199D01*
X267317899Y-154813991D01*
X267293987Y-154826147D01*
X266942975Y-155056438D01*
X266461814Y-155440025D01*
X265899655Y-155930133D01*
X265305648Y-156479987D01*
X264728942Y-157042813D01*
X264218689Y-157571837D01*
X263824039Y-158020285D01*
X263594141Y-158341383D01*
X263587989Y-158352991D01*
X263410853Y-158630863D01*
X263185240Y-158908233D01*
X262970520Y-159122948D01*
X262826060Y-159212851D01*
X262797802Y-159180264D01*
X262873475Y-159014013D01*
X263059779Y-158729794D01*
X263101900Y-158671889D01*
X263303923Y-158338291D01*
X263299607Y-158184939D01*
X263104815Y-158223157D01*
X262772079Y-158436449D01*
X262414834Y-158678690D01*
X261992985Y-158928752D01*
X261578330Y-159148922D01*
X261242663Y-159301484D01*
X261057784Y-159348722D01*
X261046063Y-159343132D01*
X261135036Y-159251666D01*
X261414286Y-159040047D01*
X261839983Y-158740116D01*
X262350521Y-158395486D01*
X263257739Y-157732772D01*
X264239388Y-156907583D01*
X265213643Y-155988729D01*
X265220010Y-155982363D01*
X265939781Y-155273485D01*
X266508273Y-154745634D01*
X266962154Y-154373480D01*
X267338090Y-154131690D01*
X267672750Y-153994933D01*
X268002802Y-153937877D01*
X268188958Y-153931291D01*
X268542927Y-153905749D01*
X268808134Y-153793073D01*
X269080531Y-153538018D01*
X269279252Y-153303531D01*
X269699955Y-152866483D01*
X270191180Y-152461178D01*
X270427720Y-152304455D01*
X270898567Y-151958850D01*
X271335291Y-151527598D01*
X271466248Y-151361638D01*
X271825563Y-150962457D01*
X272305035Y-150562888D01*
X272602450Y-150367129D01*
X273076579Y-150036557D01*
X273467609Y-149664137D01*
X273613736Y-149466563D01*
X273842883Y-149153195D01*
X274214092Y-148725396D01*
X274666135Y-148245574D01*
X275137784Y-147776137D01*
X275567811Y-147379494D01*
X275894988Y-147118054D01*
X275954713Y-147080460D01*
X276119425Y-147041389D01*
X276330184Y-147124508D01*
X276637539Y-147359229D01*
X277001416Y-147689503D01*
X277502015Y-148137015D01*
X278037889Y-148581396D01*
X278480597Y-148917354D01*
X279160643Y-149395055D01*
X279387739Y-149046153D01*
X279874785Y-148406113D01*
X280416193Y-147871840D01*
X280947069Y-147502256D01*
X281211197Y-147390488D01*
X281601735Y-147211849D01*
X282019855Y-146883588D01*
X282519785Y-146362318D01*
X282575486Y-146298912D01*
X283093016Y-145711748D01*
X283485106Y-145288995D01*
X283806808Y-144982154D01*
X284113173Y-144742725D01*
X284459254Y-144522209D01*
X284835198Y-144308166D01*
X285493702Y-143873269D01*
X286219855Y-143283041D01*
X286926827Y-142614626D01*
X287527789Y-141945170D01*
X287605268Y-141847046D01*
X287919876Y-141440110D01*
X289349773Y-142922353D01*
G37*
G36*
X298659160Y-156438447D02*
G01*
X298664835Y-156569289D01*
X298606592Y-156824538D01*
X298451728Y-157245230D01*
X298230041Y-157768247D01*
X297971330Y-158330473D01*
X297705394Y-158868789D01*
X297462031Y-159320079D01*
X297271038Y-159621225D01*
X297182136Y-159709860D01*
X297012876Y-159712205D01*
X296990110Y-159665232D01*
X297042669Y-159484327D01*
X297179726Y-159129800D01*
X297350308Y-158727579D01*
X297770303Y-157786416D01*
X298097112Y-157089542D01*
X298340069Y-156621632D01*
X298508507Y-156367362D01*
X298611760Y-156311409D01*
X298659160Y-156438447D01*
G37*
G36*
X285090757Y-154113363D02*
G01*
X285193087Y-154337843D01*
X285286614Y-154751582D01*
X285351016Y-155264289D01*
X285427445Y-155905607D01*
X285552120Y-156653272D01*
X285697206Y-157341680D01*
X285861776Y-158067764D01*
X285944893Y-158557971D01*
X285949468Y-158842491D01*
X285878415Y-158951514D01*
X285852835Y-158954945D01*
X285760405Y-158831669D01*
X285649706Y-158517554D01*
X285592544Y-158292033D01*
X285470285Y-157770128D01*
X285317900Y-157152047D01*
X285225632Y-156791758D01*
X285106551Y-156245595D01*
X285018031Y-155665652D01*
X284962812Y-155106370D01*
X284943635Y-154622185D01*
X284963243Y-154267538D01*
X285024377Y-154096865D01*
X285090757Y-154113363D01*
G37*
G36*
X299917619Y-150942988D02*
G01*
X299840225Y-151163089D01*
X299640666Y-151533159D01*
X299358181Y-151994954D01*
X299032010Y-152490230D01*
X298701392Y-152960742D01*
X298405565Y-153348245D01*
X298183771Y-153594497D01*
X298092794Y-153651648D01*
X298044074Y-153539142D01*
X298070298Y-153356689D01*
X298096000Y-153150860D01*
X297966247Y-153161759D01*
X297882782Y-153204314D01*
X297443928Y-153549266D01*
X297020381Y-154069137D01*
X296793510Y-154454121D01*
X296597991Y-154796150D01*
X296489034Y-154888351D01*
X296476232Y-154728316D01*
X296515499Y-154523901D01*
X296715878Y-153971826D01*
X297034375Y-153416236D01*
X297407570Y-152952417D01*
X297732920Y-152694747D01*
X298038683Y-152491041D01*
X298463173Y-152154679D01*
X298926917Y-151749541D01*
X299044148Y-151640790D01*
X299434530Y-151286672D01*
X299734677Y-151039266D01*
X299899543Y-150934559D01*
X299917619Y-150942988D01*
G37*
G36*
X287734485Y-145538034D02*
G01*
X287779121Y-145806942D01*
X287875309Y-146557502D01*
X288141851Y-147406900D01*
X288545713Y-148262811D01*
X288816390Y-148705858D01*
X289227495Y-149384638D01*
X289553794Y-150052214D01*
X289770365Y-150646898D01*
X289852285Y-151107004D01*
X289841178Y-151242357D01*
X289775913Y-151317928D01*
X289667615Y-151123199D01*
X289614056Y-150976128D01*
X289433610Y-150566717D01*
X289177664Y-150126011D01*
X288895934Y-149724931D01*
X288638137Y-149434397D01*
X288456775Y-149325274D01*
X288373442Y-149429692D01*
X288356201Y-149759709D01*
X288391757Y-150232417D01*
X288428937Y-150693021D01*
X288436185Y-151019536D01*
X288412903Y-151139560D01*
X288283902Y-151012768D01*
X288152078Y-150681637D01*
X288037196Y-150220033D01*
X287959019Y-149701820D01*
X287937049Y-149361155D01*
X287902181Y-148828393D01*
X287832515Y-148352123D01*
X287769481Y-148113655D01*
X287675853Y-147759608D01*
X287600838Y-147278807D01*
X287548354Y-146741340D01*
X287522317Y-146217294D01*
X287526642Y-145776759D01*
X287565247Y-145489823D01*
X287618831Y-145417582D01*
X287734485Y-145538034D01*
G37*
G36*
X151039454Y-151594719D02*
G01*
X151393220Y-151817801D01*
X151850377Y-152144115D01*
X152208529Y-152419230D01*
X152743988Y-152833343D01*
X153130116Y-153098881D01*
X153430233Y-153248068D01*
X153707662Y-153313123D01*
X153991241Y-153326373D01*
X154416507Y-153362218D01*
X154792642Y-153499223D01*
X155231141Y-153781593D01*
X155336691Y-153859819D01*
X155799627Y-154180504D01*
X156255358Y-154452786D01*
X156519199Y-154580818D01*
X156847411Y-154760886D01*
X157296201Y-155071159D01*
X157781265Y-155452282D01*
X157898901Y-155552181D01*
X158407290Y-155985116D01*
X158920149Y-156411508D01*
X159338490Y-156749219D01*
X159391077Y-156790340D01*
X159769153Y-157132063D01*
X160126271Y-157534150D01*
X160404009Y-157921885D01*
X160543943Y-158220553D01*
X160550550Y-158273143D01*
X160454436Y-158240698D01*
X160201563Y-158062155D01*
X159845131Y-157775329D01*
X159817857Y-157752326D01*
X159245836Y-157295334D01*
X158780787Y-156977830D01*
X158461274Y-156825235D01*
X158396538Y-156815384D01*
X158314784Y-156918648D01*
X158389582Y-157199053D01*
X158607282Y-157612515D01*
X158678221Y-157725020D01*
X159038859Y-158280769D01*
X158503770Y-157693740D01*
X158121848Y-157264665D01*
X157751099Y-156832285D01*
X157598336Y-156647037D01*
X157247768Y-156306979D01*
X156781684Y-155969472D01*
X156554363Y-155838461D01*
X156006540Y-155544397D01*
X155426883Y-155218218D01*
X155234549Y-155105769D01*
X154841486Y-154889646D01*
X154532299Y-154750444D01*
X154421455Y-154721978D01*
X154340469Y-154811498D01*
X154452635Y-155066576D01*
X154742793Y-155466988D01*
X155195783Y-155992512D01*
X155796444Y-156622924D01*
X155995902Y-156822286D01*
X156469464Y-157309472D01*
X156840189Y-157727329D01*
X157074941Y-158035963D01*
X157140582Y-158195481D01*
X157139039Y-158198497D01*
X156913218Y-158323072D01*
X156515840Y-158336219D01*
X156027011Y-158247229D01*
X155526838Y-158065396D01*
X155388972Y-157995460D01*
X154929448Y-157791256D01*
X154486305Y-157668612D01*
X154326200Y-157652747D01*
X153894806Y-157564082D01*
X153534446Y-157373626D01*
X153246906Y-157178986D01*
X153042790Y-157094605D01*
X153038890Y-157094505D01*
X152864402Y-156987005D01*
X152605273Y-156713958D01*
X152319833Y-156349543D01*
X152066406Y-155967943D01*
X151908215Y-155656508D01*
X151689490Y-155322046D01*
X151380680Y-155053053D01*
X150907132Y-154690772D01*
X150676834Y-154326891D01*
X150641758Y-154091609D01*
X150552920Y-153827661D01*
X150341991Y-153520776D01*
X150092357Y-153273549D01*
X149906415Y-153186813D01*
X149756896Y-153275998D01*
X149510474Y-153493789D01*
X149479465Y-153524431D01*
X149153989Y-153786545D01*
X148705243Y-154074110D01*
X148461308Y-154207227D01*
X147911060Y-154559549D01*
X147390465Y-155059349D01*
X146855847Y-155752874D01*
X146525244Y-156257142D01*
X146252723Y-156651681D01*
X145994944Y-156960612D01*
X145885955Y-157059511D01*
X145654253Y-157289921D01*
X145391922Y-157639104D01*
X145338526Y-157722423D01*
X145124742Y-158027824D01*
X144956867Y-158198206D01*
X144923237Y-158210989D01*
X144855653Y-158102809D01*
X144901098Y-157827766D01*
X145031974Y-157460107D01*
X145220686Y-157074077D01*
X145439638Y-156743922D01*
X145490598Y-156684544D01*
X145799319Y-156303568D01*
X145906627Y-156070989D01*
X145840785Y-155976591D01*
X145630057Y-156010158D01*
X145302705Y-156161475D01*
X144886993Y-156420325D01*
X144411182Y-156776495D01*
X143903536Y-157219766D01*
X143838187Y-157281810D01*
X143478043Y-157606417D01*
X143293992Y-157716585D01*
X143282629Y-157609088D01*
X143440551Y-157280698D01*
X143579606Y-157036622D01*
X143816094Y-156706868D01*
X144141491Y-156411478D01*
X144619169Y-156100074D01*
X145077489Y-155845905D01*
X145674786Y-155502639D01*
X146250558Y-155129245D01*
X146706527Y-154790732D01*
X146815816Y-154696045D01*
X147252270Y-154324640D01*
X147790188Y-153908818D01*
X148195109Y-153620155D01*
X148716230Y-153234743D01*
X149302227Y-152753952D01*
X149814063Y-152293182D01*
X150221207Y-151927149D01*
X150574493Y-151653005D01*
X150811068Y-151518369D01*
X150845018Y-151512088D01*
X151039454Y-151594719D01*
G37*
G36*
X140349773Y-140922353D02*
G01*
X140954017Y-141536044D01*
X141585855Y-142156365D01*
X142176146Y-142716699D01*
X142655748Y-143150429D01*
X142716904Y-143203039D01*
X143505875Y-143983554D01*
X144317098Y-144991707D01*
X144634449Y-145441657D01*
X145233153Y-146253442D01*
X145898141Y-147041550D01*
X146579731Y-147754711D01*
X147228240Y-148341656D01*
X147793983Y-148751116D01*
X147899135Y-148810557D01*
X148124066Y-148913459D01*
X148319016Y-148926151D01*
X148562563Y-148827952D01*
X148933287Y-148598180D01*
X149083605Y-148498803D01*
X149640278Y-148099434D01*
X150231943Y-147630075D01*
X150570222Y-147336764D01*
X151138833Y-146819449D01*
X151541261Y-146464402D01*
X151816281Y-146244416D01*
X152002671Y-146132287D01*
X152139208Y-146100809D01*
X152264667Y-146122778D01*
X152289601Y-146130478D01*
X152536870Y-146315516D01*
X152735343Y-146627901D01*
X152915833Y-146903114D01*
X153266058Y-147311497D01*
X153740136Y-147808966D01*
X154292187Y-148351436D01*
X154876330Y-148894825D01*
X155446684Y-149395049D01*
X155957368Y-149808023D01*
X156293956Y-150047137D01*
X156818521Y-150359357D01*
X157377402Y-150655915D01*
X157639520Y-150779577D01*
X158238142Y-151152078D01*
X158790244Y-151741079D01*
X158843557Y-151811549D01*
X159264539Y-152351280D01*
X159644753Y-152758859D01*
X160063526Y-153102075D01*
X160600186Y-153448713D01*
X161087763Y-153729301D01*
X161719533Y-154092763D01*
X162197439Y-154402812D01*
X162583982Y-154717052D01*
X162941664Y-155093086D01*
X163332988Y-155588519D01*
X163793134Y-156222660D01*
X164282192Y-156908599D01*
X164622144Y-157396511D01*
X164824539Y-157716617D01*
X164900930Y-157899142D01*
X164862865Y-157974306D01*
X164721896Y-157972332D01*
X164489572Y-157923444D01*
X164438746Y-157911949D01*
X164015067Y-157848996D01*
X163671397Y-157851899D01*
X163610927Y-157865246D01*
X163126292Y-157895822D01*
X162552146Y-157748202D01*
X161986238Y-157451176D01*
X161841020Y-157343919D01*
X161386896Y-157021421D01*
X160854195Y-156696748D01*
X160648168Y-156586031D01*
X160008672Y-156141041D01*
X159541506Y-155625746D01*
X159148006Y-155175429D01*
X158742998Y-154892019D01*
X158663022Y-154860396D01*
X158290080Y-154647855D01*
X158027482Y-154352562D01*
X157698683Y-153894637D01*
X157248692Y-153464952D01*
X156756332Y-153123505D01*
X156300429Y-152930292D01*
X156129187Y-152907692D01*
X155434274Y-152768785D01*
X154716010Y-152352517D01*
X153975561Y-151659572D01*
X153950392Y-151631583D01*
X153251304Y-150847524D01*
X152718071Y-150240199D01*
X152328506Y-149780068D01*
X152060422Y-149437591D01*
X151891634Y-149183228D01*
X151799953Y-148987440D01*
X151763194Y-148820687D01*
X151758242Y-148712916D01*
X151702615Y-148278803D01*
X151561552Y-147929287D01*
X151373782Y-147751430D01*
X151327205Y-147743956D01*
X151160616Y-147826613D01*
X150838527Y-148047150D01*
X150419578Y-148364411D01*
X150245553Y-148503083D01*
X149680526Y-148933265D01*
X149065128Y-149361053D01*
X148523142Y-149700808D01*
X148473603Y-149728971D01*
X148090582Y-149955301D01*
X147804260Y-150172252D01*
X147571854Y-150436423D01*
X147350578Y-150804412D01*
X147097650Y-151332817D01*
X146868375Y-151852524D01*
X146618198Y-152270265D01*
X146197430Y-152808633D01*
X145655888Y-153416994D01*
X145043384Y-154044713D01*
X144409734Y-154641156D01*
X143804752Y-155155689D01*
X143278252Y-155537678D01*
X143189144Y-155592306D01*
X142715366Y-155902588D01*
X142165623Y-156307265D01*
X141723496Y-156664789D01*
X141024375Y-157236358D01*
X140428304Y-157669796D01*
X139957982Y-157952036D01*
X139636108Y-158070013D01*
X139485381Y-158010661D01*
X139476923Y-157957978D01*
X139569176Y-157798242D01*
X139799360Y-157538325D01*
X139888772Y-157449952D01*
X140252910Y-157019599D01*
X140456294Y-156605759D01*
X140477121Y-156267536D01*
X140381159Y-156115170D01*
X140215243Y-155891664D01*
X140027240Y-155520242D01*
X139964118Y-155366106D01*
X139659149Y-154834539D01*
X139237015Y-154505935D01*
X138744941Y-154087977D01*
X138399910Y-153465215D01*
X138224022Y-152682440D01*
X138207432Y-152419230D01*
X138164307Y-151703710D01*
X138074308Y-151227336D01*
X137925151Y-150952283D01*
X137704555Y-150840727D01*
X137694321Y-150839166D01*
X137383848Y-150657728D01*
X137181064Y-150320782D01*
X136925575Y-149933732D01*
X136600846Y-149738894D01*
X136272921Y-149757970D01*
X136047980Y-149948438D01*
X135849754Y-150184294D01*
X135516119Y-150536536D01*
X135116561Y-150932008D01*
X135085858Y-150961388D01*
X134577013Y-151508300D01*
X134194095Y-152088076D01*
X133882819Y-152751758D01*
X133434426Y-153788067D01*
X133058593Y-154560578D01*
X132756266Y-155067463D01*
X132579568Y-155271184D01*
X132403145Y-155362670D01*
X132372733Y-155238665D01*
X132488980Y-154921959D01*
X132565281Y-154768178D01*
X132700356Y-154476146D01*
X132904022Y-153996518D01*
X133145700Y-153402604D01*
X133333777Y-152925588D01*
X133694360Y-152072922D01*
X134049914Y-151408480D01*
X134448376Y-150846435D01*
X134588577Y-150679032D01*
X135112405Y-150016799D01*
X135428938Y-149467476D01*
X135561707Y-148987043D01*
X135569231Y-148844649D01*
X135549699Y-148696501D01*
X135453630Y-148679889D01*
X135224814Y-148807091D01*
X134976099Y-148974197D01*
X134474826Y-149294052D01*
X133935371Y-149604723D01*
X133775239Y-149688986D01*
X133042499Y-150132614D01*
X132300098Y-150708528D01*
X131585280Y-151373903D01*
X130935288Y-152085911D01*
X130387367Y-152801727D01*
X129978760Y-153478522D01*
X129746710Y-154073472D01*
X129707692Y-154366289D01*
X129646097Y-154652733D01*
X129485648Y-155083584D01*
X129290779Y-155504783D01*
X129077192Y-155942650D01*
X128926223Y-156283965D01*
X128872098Y-156448059D01*
X128786035Y-156617816D01*
X128570873Y-156905313D01*
X128451649Y-157046047D01*
X128197243Y-157319897D01*
X128072542Y-157394280D01*
X128034161Y-157288702D01*
X128032967Y-157234282D01*
X128094380Y-156947352D01*
X128251164Y-156533576D01*
X128369383Y-156281782D01*
X128560645Y-155816142D01*
X128748400Y-155216565D01*
X128903302Y-154594279D01*
X128996006Y-154060512D01*
X129009890Y-153854073D01*
X128918250Y-153802280D01*
X128662334Y-153932865D01*
X128270650Y-154226356D01*
X127771706Y-154663284D01*
X127628047Y-154797866D01*
X126854561Y-155520173D01*
X126236165Y-156064401D01*
X125735189Y-156454344D01*
X125313962Y-156713796D01*
X124934817Y-156866551D01*
X124560083Y-156936404D01*
X124223378Y-156948447D01*
X123636813Y-156941948D01*
X124331769Y-156580586D01*
X124860560Y-156248682D01*
X125492924Y-155766880D01*
X126154867Y-155200422D01*
X126772391Y-154614550D01*
X127271503Y-154074506D01*
X127479474Y-153805241D01*
X127913949Y-153328854D01*
X128421060Y-153072905D01*
X128738961Y-152931949D01*
X129099602Y-152671894D01*
X129544516Y-152257989D01*
X130115236Y-151655484D01*
X130115691Y-151654987D01*
X131065665Y-150681569D01*
X131982007Y-149870563D01*
X132830555Y-149249805D01*
X133544323Y-148860988D01*
X133966387Y-148629486D01*
X134466122Y-148283870D01*
X134856289Y-147966742D01*
X135278614Y-147631563D01*
X135656161Y-147401711D01*
X135894467Y-147325274D01*
X136185583Y-147434221D01*
X136564300Y-147723583D01*
X136970190Y-148137141D01*
X137342824Y-148618675D01*
X137430909Y-148754690D01*
X137693911Y-149040337D01*
X138099533Y-149340699D01*
X138341333Y-149478779D01*
X138971874Y-149907696D01*
X139599376Y-150525689D01*
X140148408Y-151252263D01*
X140384464Y-151659025D01*
X140671967Y-152048571D01*
X141143051Y-152508040D01*
X141731587Y-152982640D01*
X142371445Y-153417582D01*
X142804053Y-153663732D01*
X143119618Y-153806073D01*
X143331243Y-153803697D01*
X143575598Y-153653362D01*
X143586719Y-153645160D01*
X143907483Y-153320138D01*
X144144154Y-152925712D01*
X144221978Y-152622004D01*
X144105809Y-152511674D01*
X143959946Y-152489011D01*
X143773672Y-152462453D01*
X143608416Y-152352219D01*
X143426975Y-152112467D01*
X143192149Y-151697356D01*
X142974450Y-151274668D01*
X142672023Y-150555762D01*
X142478912Y-149770488D01*
X142401191Y-149220510D01*
X142284923Y-148419225D01*
X142144333Y-147818540D01*
X141987438Y-147445152D01*
X141832080Y-147325274D01*
X141652099Y-147207091D01*
X141432585Y-146910150D01*
X141221138Y-146520870D01*
X141065357Y-146125665D01*
X141012088Y-145836578D01*
X140889794Y-145093651D01*
X140514708Y-144461755D01*
X140323661Y-144263702D01*
X140022037Y-143871916D01*
X139788911Y-143378786D01*
X139755208Y-143268266D01*
X139615731Y-142843840D01*
X139461569Y-142514145D01*
X139410421Y-142440659D01*
X139240367Y-142192221D01*
X139021192Y-141809357D01*
X138928545Y-141631206D01*
X138741456Y-141275886D01*
X138611012Y-141131950D01*
X138468771Y-141161262D01*
X138302448Y-141282305D01*
X137458382Y-141934818D01*
X136804693Y-142436670D01*
X136312194Y-142809530D01*
X135951695Y-143075070D01*
X135694006Y-143254960D01*
X135509939Y-143370871D01*
X135429671Y-143415117D01*
X135155185Y-143607803D01*
X134833950Y-143899397D01*
X134541065Y-144212638D01*
X134351634Y-144470264D01*
X134318859Y-144557867D01*
X134434595Y-144649411D01*
X134721983Y-144741201D01*
X134733273Y-144743715D01*
X135144561Y-144867961D01*
X135569653Y-145046561D01*
X135907708Y-145232611D01*
X136047547Y-145355013D01*
X135978409Y-145412348D01*
X135720848Y-145402964D01*
X135717738Y-145402511D01*
X135389565Y-145401344D01*
X134872315Y-145449654D01*
X134248954Y-145534459D01*
X133602448Y-145642777D01*
X133015763Y-145761628D01*
X132571865Y-145878030D01*
X132484516Y-145908395D01*
X132067389Y-146181719D01*
X131560579Y-146717519D01*
X130965294Y-147514363D01*
X130402441Y-148376883D01*
X130026239Y-148953642D01*
X129732593Y-149348641D01*
X129536053Y-149547360D01*
X129451167Y-149535280D01*
X129492485Y-149297883D01*
X129498352Y-149279121D01*
X129506684Y-149050585D01*
X129322495Y-149021920D01*
X128944769Y-149193122D01*
X128803787Y-149277120D01*
X128490014Y-149535671D01*
X128066323Y-149973359D01*
X127576272Y-150536180D01*
X127063417Y-151170130D01*
X126571315Y-151821206D01*
X126143525Y-152435405D01*
X125823602Y-152958725D01*
X125801901Y-152998934D01*
X125350991Y-153823150D01*
X124996448Y-154417082D01*
X124721963Y-154805814D01*
X124511223Y-155014426D01*
X124477536Y-155035495D01*
X124354678Y-155079026D01*
X124358892Y-154974160D01*
X124495617Y-154677605D01*
X124531338Y-154607151D01*
X124686995Y-154237677D01*
X124823790Y-153804904D01*
X124923500Y-153387239D01*
X124967900Y-153063088D01*
X124938763Y-152910858D01*
X124926363Y-152907692D01*
X124662021Y-152980722D01*
X124234186Y-153174931D01*
X123709119Y-153452994D01*
X123153077Y-153777587D01*
X122632319Y-154111387D01*
X122213105Y-154417069D01*
X122141730Y-154476287D01*
X121720362Y-154854235D01*
X121462082Y-155154463D01*
X121308458Y-155469066D01*
X121201060Y-155890141D01*
X121180871Y-155990732D01*
X121074629Y-156444121D01*
X120964946Y-156776751D01*
X120890965Y-156900257D01*
X120818875Y-156848702D01*
X120830817Y-156652627D01*
X120950851Y-156004672D01*
X121001520Y-155588714D01*
X120980820Y-155422198D01*
X120972501Y-155419780D01*
X120728240Y-155507405D01*
X120346720Y-155741514D01*
X119895492Y-156078955D01*
X119744374Y-156204294D01*
X119342497Y-156485517D01*
X118850058Y-156746238D01*
X118350588Y-156951444D01*
X117927618Y-157066127D01*
X117689036Y-157065759D01*
X117719078Y-156974551D01*
X117943010Y-156782611D01*
X118313606Y-156529820D01*
X118352570Y-156505428D01*
X118723575Y-156233466D01*
X119243746Y-155793879D01*
X119872336Y-155223596D01*
X120568598Y-154559542D01*
X121264286Y-153866652D01*
X122252224Y-152871414D01*
X123088262Y-152053587D01*
X123806675Y-151382617D01*
X124441732Y-150827952D01*
X125027708Y-150359038D01*
X125598874Y-149945324D01*
X125862375Y-149767582D01*
X126504463Y-149285007D01*
X126910298Y-148809450D01*
X127111910Y-148270902D01*
X127141327Y-147599350D01*
X127087666Y-147089259D01*
X127005140Y-146575688D01*
X126921347Y-146175463D01*
X126852575Y-145964601D01*
X126844370Y-145953817D01*
X126704843Y-145994486D01*
X126451108Y-146211564D01*
X126128554Y-146552467D01*
X125782570Y-146964613D01*
X125458544Y-147395418D01*
X125201865Y-147792298D01*
X125114900Y-147957449D01*
X124816546Y-148427485D01*
X124387754Y-148760236D01*
X124202344Y-148856911D01*
X123586888Y-149278994D01*
X122989598Y-149924723D01*
X122974539Y-149944423D01*
X122428424Y-150549113D01*
X121860405Y-150980407D01*
X121752747Y-151038545D01*
X121280909Y-151320737D01*
X120845843Y-151654961D01*
X120725336Y-151770015D01*
X120479892Y-152046986D01*
X120410482Y-152231119D01*
X120493078Y-152424213D01*
X120550885Y-152509092D01*
X120741504Y-152824609D01*
X120731641Y-152946292D01*
X120517978Y-152877877D01*
X120322253Y-152766602D01*
X119712064Y-152528720D01*
X119054734Y-152544199D01*
X118317899Y-152813991D01*
X118293987Y-152826147D01*
X117942975Y-153056438D01*
X117461814Y-153440025D01*
X116899655Y-153930133D01*
X116305648Y-154479987D01*
X115728942Y-155042813D01*
X115218689Y-155571837D01*
X114824039Y-156020285D01*
X114594141Y-156341383D01*
X114587989Y-156352991D01*
X114410853Y-156630863D01*
X114185240Y-156908233D01*
X113970520Y-157122948D01*
X113826060Y-157212851D01*
X113797802Y-157180264D01*
X113873475Y-157014013D01*
X114059779Y-156729794D01*
X114101900Y-156671889D01*
X114303923Y-156338291D01*
X114299607Y-156184939D01*
X114104815Y-156223157D01*
X113772079Y-156436449D01*
X113414834Y-156678690D01*
X112992985Y-156928752D01*
X112578330Y-157148922D01*
X112242663Y-157301484D01*
X112057784Y-157348722D01*
X112046063Y-157343132D01*
X112135036Y-157251666D01*
X112414286Y-157040047D01*
X112839983Y-156740116D01*
X113350521Y-156395486D01*
X114257739Y-155732772D01*
X115239388Y-154907583D01*
X116213643Y-153988729D01*
X116220010Y-153982363D01*
X116939781Y-153273485D01*
X117508273Y-152745634D01*
X117962154Y-152373480D01*
X118338090Y-152131690D01*
X118672750Y-151994933D01*
X119002802Y-151937877D01*
X119188958Y-151931291D01*
X119542927Y-151905749D01*
X119808134Y-151793073D01*
X120080531Y-151538018D01*
X120279252Y-151303531D01*
X120699955Y-150866483D01*
X121191180Y-150461178D01*
X121427720Y-150304455D01*
X121898567Y-149958850D01*
X122335291Y-149527598D01*
X122466248Y-149361638D01*
X122825563Y-148962457D01*
X123305035Y-148562888D01*
X123602450Y-148367129D01*
X124076579Y-148036557D01*
X124467609Y-147664137D01*
X124613736Y-147466563D01*
X124842883Y-147153195D01*
X125214092Y-146725396D01*
X125666135Y-146245574D01*
X126137784Y-145776137D01*
X126567811Y-145379494D01*
X126894988Y-145118054D01*
X126954713Y-145080460D01*
X127119425Y-145041389D01*
X127330184Y-145124508D01*
X127637539Y-145359229D01*
X128001416Y-145689503D01*
X128502015Y-146137015D01*
X129037889Y-146581396D01*
X129480597Y-146917354D01*
X130160643Y-147395055D01*
X130387739Y-147046153D01*
X130874785Y-146406113D01*
X131416193Y-145871840D01*
X131947069Y-145502256D01*
X132211197Y-145390488D01*
X132601735Y-145211849D01*
X133019855Y-144883588D01*
X133519785Y-144362318D01*
X133575486Y-144298912D01*
X134093016Y-143711748D01*
X134485106Y-143288995D01*
X134806808Y-142982154D01*
X135113173Y-142742725D01*
X135459254Y-142522209D01*
X135835198Y-142308166D01*
X136493702Y-141873269D01*
X137219855Y-141283041D01*
X137926827Y-140614626D01*
X138527789Y-139945170D01*
X138605268Y-139847046D01*
X138919876Y-139440110D01*
X140349773Y-140922353D01*
G37*
G36*
X149659160Y-154438447D02*
G01*
X149664835Y-154569289D01*
X149606592Y-154824538D01*
X149451728Y-155245230D01*
X149230041Y-155768247D01*
X148971330Y-156330473D01*
X148705394Y-156868789D01*
X148462031Y-157320079D01*
X148271038Y-157621225D01*
X148182136Y-157709860D01*
X148012876Y-157712205D01*
X147990110Y-157665232D01*
X148042669Y-157484327D01*
X148179726Y-157129800D01*
X148350308Y-156727579D01*
X148770303Y-155786416D01*
X149097112Y-155089542D01*
X149340069Y-154621632D01*
X149508507Y-154367362D01*
X149611760Y-154311409D01*
X149659160Y-154438447D01*
G37*
G36*
X136090757Y-152113363D02*
G01*
X136193087Y-152337843D01*
X136286614Y-152751582D01*
X136351016Y-153264289D01*
X136427445Y-153905607D01*
X136552120Y-154653272D01*
X136697206Y-155341680D01*
X136861776Y-156067764D01*
X136944893Y-156557971D01*
X136949468Y-156842491D01*
X136878415Y-156951514D01*
X136852835Y-156954945D01*
X136760405Y-156831669D01*
X136649706Y-156517554D01*
X136592544Y-156292033D01*
X136470285Y-155770128D01*
X136317900Y-155152047D01*
X136225632Y-154791758D01*
X136106551Y-154245595D01*
X136018031Y-153665652D01*
X135962812Y-153106370D01*
X135943635Y-152622185D01*
X135963243Y-152267538D01*
X136024377Y-152096865D01*
X136090757Y-152113363D01*
G37*
G36*
X150917619Y-148942988D02*
G01*
X150840225Y-149163089D01*
X150640666Y-149533159D01*
X150358181Y-149994954D01*
X150032010Y-150490230D01*
X149701392Y-150960742D01*
X149405565Y-151348245D01*
X149183771Y-151594497D01*
X149092794Y-151651648D01*
X149044074Y-151539142D01*
X149070298Y-151356689D01*
X149096000Y-151150860D01*
X148966247Y-151161759D01*
X148882782Y-151204314D01*
X148443928Y-151549266D01*
X148020381Y-152069137D01*
X147793510Y-152454121D01*
X147597991Y-152796150D01*
X147489034Y-152888351D01*
X147476232Y-152728316D01*
X147515499Y-152523901D01*
X147715878Y-151971826D01*
X148034375Y-151416236D01*
X148407570Y-150952417D01*
X148732920Y-150694747D01*
X149038683Y-150491041D01*
X149463173Y-150154679D01*
X149926917Y-149749541D01*
X150044148Y-149640790D01*
X150434530Y-149286672D01*
X150734677Y-149039266D01*
X150899543Y-148934559D01*
X150917619Y-148942988D01*
G37*
G36*
X138734485Y-143538034D02*
G01*
X138779121Y-143806942D01*
X138875309Y-144557502D01*
X139141851Y-145406900D01*
X139545713Y-146262811D01*
X139816390Y-146705858D01*
X140227495Y-147384638D01*
X140553794Y-148052214D01*
X140770365Y-148646898D01*
X140852285Y-149107004D01*
X140841178Y-149242357D01*
X140775913Y-149317928D01*
X140667615Y-149123199D01*
X140614056Y-148976128D01*
X140433610Y-148566717D01*
X140177664Y-148126011D01*
X139895934Y-147724931D01*
X139638137Y-147434397D01*
X139456775Y-147325274D01*
X139373442Y-147429692D01*
X139356201Y-147759709D01*
X139391757Y-148232417D01*
X139428937Y-148693021D01*
X139436185Y-149019536D01*
X139412903Y-149139560D01*
X139283902Y-149012768D01*
X139152078Y-148681637D01*
X139037196Y-148220033D01*
X138959019Y-147701820D01*
X138937049Y-147361155D01*
X138902181Y-146828393D01*
X138832515Y-146352123D01*
X138769481Y-146113655D01*
X138675853Y-145759608D01*
X138600838Y-145278807D01*
X138548354Y-144741340D01*
X138522317Y-144217294D01*
X138526642Y-143776759D01*
X138565247Y-143489823D01*
X138618831Y-143417582D01*
X138734485Y-143538034D01*
G37*
G36*
X227158252Y-149946999D02*
G01*
X227628219Y-150243356D01*
X228235537Y-150676855D01*
X228711330Y-151042336D01*
X229422670Y-151592471D01*
X229935628Y-151945230D01*
X230334324Y-152143419D01*
X230702878Y-152229844D01*
X231079604Y-152247446D01*
X231644557Y-152295064D01*
X232144239Y-152477070D01*
X232726770Y-152852190D01*
X232866991Y-152956110D01*
X233481986Y-153382130D01*
X234087409Y-153743848D01*
X234437914Y-153913934D01*
X234873932Y-154153149D01*
X235470135Y-154565336D01*
X236114526Y-155071646D01*
X236270803Y-155204358D01*
X236946180Y-155779498D01*
X237627496Y-156345945D01*
X238183249Y-156794583D01*
X238253109Y-156849212D01*
X238755370Y-157303180D01*
X239229790Y-157837339D01*
X239598756Y-158352432D01*
X239784654Y-158749203D01*
X239793430Y-158819066D01*
X239665747Y-158775965D01*
X239329813Y-158538776D01*
X238856305Y-158157737D01*
X238820073Y-158127178D01*
X238060161Y-157520080D01*
X237442359Y-157098286D01*
X237017897Y-156895568D01*
X236931896Y-156882482D01*
X236823289Y-157019665D01*
X236922656Y-157392173D01*
X237211863Y-157941443D01*
X237306103Y-158090904D01*
X237785199Y-158829197D01*
X237074351Y-158049349D01*
X236566980Y-157479337D01*
X236074452Y-156904934D01*
X235871511Y-156658838D01*
X235405794Y-156207082D01*
X234786616Y-155758716D01*
X234484628Y-155584672D01*
X233756863Y-155194018D01*
X232986807Y-154760699D01*
X232731298Y-154611314D01*
X232209127Y-154324202D01*
X231798382Y-154139277D01*
X231651129Y-154101460D01*
X231543543Y-154220385D01*
X231692551Y-154559247D01*
X232078016Y-155091183D01*
X232679798Y-155789324D01*
X233477757Y-156626805D01*
X233742731Y-156891651D01*
X234371842Y-157538862D01*
X234864338Y-158093971D01*
X235176198Y-158503981D01*
X235263401Y-158715895D01*
X235261351Y-158719901D01*
X234961355Y-158885396D01*
X234433452Y-158902861D01*
X233784058Y-158784640D01*
X233119594Y-158543082D01*
X232936444Y-158450174D01*
X232325981Y-158178895D01*
X231737281Y-158015967D01*
X231524586Y-157994891D01*
X230951494Y-157877103D01*
X230472767Y-157624088D01*
X230090780Y-157365515D01*
X229819618Y-157253417D01*
X229814438Y-157253285D01*
X229582635Y-157110474D01*
X229238392Y-156747740D01*
X228859193Y-156263628D01*
X228522524Y-155756684D01*
X228312373Y-155342953D01*
X228021804Y-154898631D01*
X227611560Y-154541282D01*
X226982466Y-154060005D01*
X226676523Y-153576601D01*
X226629927Y-153264036D01*
X226511907Y-152913391D01*
X226231696Y-152505703D01*
X225900064Y-152177271D01*
X225653047Y-152062044D01*
X225454416Y-152180524D01*
X225127053Y-152469852D01*
X225085858Y-152510558D01*
X224653473Y-152858769D01*
X224057329Y-153240789D01*
X223733270Y-153417631D01*
X223002283Y-153885679D01*
X222310691Y-154549647D01*
X221600468Y-155470973D01*
X221161272Y-156140876D01*
X220799238Y-156665008D01*
X220456786Y-157075412D01*
X220311999Y-157206796D01*
X220004189Y-157512889D01*
X219655691Y-157976767D01*
X219584757Y-158087453D01*
X219300752Y-158493168D01*
X219077735Y-158719515D01*
X219033059Y-158736497D01*
X218943276Y-158592783D01*
X219003647Y-158227399D01*
X219177513Y-157738976D01*
X219428211Y-157226147D01*
X219719081Y-156787547D01*
X219786780Y-156708665D01*
X220196904Y-156202551D01*
X220339460Y-155893578D01*
X220251991Y-155768173D01*
X219972046Y-155812765D01*
X219537170Y-156013785D01*
X218984910Y-156357659D01*
X218352811Y-156830818D01*
X217678420Y-157419690D01*
X217591606Y-157502113D01*
X217113166Y-157933343D01*
X216868660Y-158079698D01*
X216853565Y-157936892D01*
X217063359Y-157500636D01*
X217248089Y-157176389D01*
X217562256Y-156738322D01*
X217994535Y-156345906D01*
X218629115Y-155932216D01*
X219237977Y-155594561D01*
X220031466Y-155138543D01*
X220796361Y-154642501D01*
X221402101Y-154192798D01*
X221547287Y-154067009D01*
X222127102Y-153573610D01*
X222841709Y-153021204D01*
X223379634Y-152637724D01*
X224071926Y-152125718D01*
X224850403Y-151487003D01*
X225530361Y-150874884D01*
X226071239Y-150388622D01*
X226540567Y-150024431D01*
X226854849Y-149845572D01*
X226899950Y-149837227D01*
X227158252Y-149946999D01*
G37*
G36*
X212957362Y-135769112D02*
G01*
X213760080Y-136584381D01*
X214599457Y-137408457D01*
X215383639Y-138152842D01*
X216020774Y-138729038D01*
X216102017Y-138798929D01*
X217150140Y-139835817D01*
X218227823Y-141175115D01*
X218649413Y-141772858D01*
X219444772Y-142851289D01*
X220328187Y-143898264D01*
X221233657Y-144845676D01*
X222095179Y-145625413D01*
X222846750Y-146169366D01*
X222986441Y-146248331D01*
X223285255Y-146385033D01*
X223544239Y-146401895D01*
X223867784Y-146271441D01*
X224360278Y-145966196D01*
X224559972Y-145834177D01*
X225299493Y-145303629D01*
X226085500Y-144680101D01*
X226534893Y-144290446D01*
X227290274Y-143603211D01*
X227824886Y-143131542D01*
X228190241Y-142839298D01*
X228437854Y-142690338D01*
X228619239Y-142648521D01*
X228785908Y-142677706D01*
X228819032Y-142687936D01*
X229147521Y-142933752D01*
X229411185Y-143348745D01*
X229650961Y-143714357D01*
X230116223Y-144256880D01*
X230746020Y-144917751D01*
X231479401Y-145638405D01*
X232255416Y-146360279D01*
X233013112Y-147024810D01*
X233691540Y-147573433D01*
X234138686Y-147891087D01*
X234835553Y-148305863D01*
X235578008Y-148699829D01*
X235926223Y-148864111D01*
X236721473Y-149358966D01*
X237454922Y-150141434D01*
X237525747Y-150235052D01*
X238085007Y-150952066D01*
X238590109Y-151493522D01*
X239146436Y-151949472D01*
X239859371Y-152409970D01*
X240507101Y-152782722D01*
X241346386Y-153265569D01*
X241981268Y-153677459D01*
X242494778Y-154094916D01*
X242969947Y-154594465D01*
X243489808Y-155252632D01*
X244101097Y-156095068D01*
X244750794Y-157006315D01*
X245202409Y-157654490D01*
X245471285Y-158079741D01*
X245572768Y-158322218D01*
X245522200Y-158422071D01*
X245334927Y-158419450D01*
X245026293Y-158354503D01*
X244958772Y-158339233D01*
X244395927Y-158255601D01*
X243939374Y-158259458D01*
X243859042Y-158277189D01*
X243215219Y-158317809D01*
X242452486Y-158121700D01*
X241700695Y-157727110D01*
X241507778Y-157584623D01*
X240904489Y-157156195D01*
X240196813Y-156724878D01*
X239923113Y-156577794D01*
X239073563Y-155986640D01*
X238452950Y-155302087D01*
X237930197Y-154703855D01*
X237392158Y-154327354D01*
X237285912Y-154285344D01*
X236790470Y-154002991D01*
X236441618Y-153610703D01*
X236004820Y-153002365D01*
X235407020Y-152431543D01*
X234752937Y-151977942D01*
X234147285Y-151721265D01*
X233919796Y-151691241D01*
X232996626Y-151506707D01*
X232042436Y-150953710D01*
X231058774Y-150033155D01*
X231025337Y-149995972D01*
X230096622Y-148954376D01*
X229388239Y-148147564D01*
X228870715Y-147536295D01*
X228514575Y-147081326D01*
X228290345Y-146743413D01*
X228168550Y-146483315D01*
X228119717Y-146261790D01*
X228113138Y-146118619D01*
X228039239Y-145541914D01*
X227851842Y-145077594D01*
X227602396Y-144841317D01*
X227540520Y-144831387D01*
X227319212Y-144941195D01*
X226891327Y-145234170D01*
X226334767Y-145655641D01*
X226103581Y-145839862D01*
X225352961Y-146411346D01*
X224535425Y-146979647D01*
X223815414Y-147431001D01*
X223749603Y-147468415D01*
X223240773Y-147769087D01*
X222860404Y-148057299D01*
X222551659Y-148408242D01*
X222257702Y-148897103D01*
X221921695Y-149599072D01*
X221617110Y-150289485D01*
X221284758Y-150844441D01*
X220725783Y-151559645D01*
X220006362Y-152367832D01*
X219192671Y-153201736D01*
X218350887Y-153994092D01*
X217547188Y-154677632D01*
X216847751Y-155185091D01*
X216729374Y-155257663D01*
X216099975Y-155669862D01*
X215369659Y-156207462D01*
X214782308Y-156682421D01*
X213853548Y-157441732D01*
X213061688Y-158017540D01*
X212436881Y-158392487D01*
X212009282Y-158549215D01*
X211809045Y-158470367D01*
X211797810Y-158400381D01*
X211920365Y-158188176D01*
X212226156Y-157842886D01*
X212344938Y-157725484D01*
X212828683Y-157153774D01*
X213098871Y-156604002D01*
X213126540Y-156154683D01*
X212999058Y-155952270D01*
X212778643Y-155655350D01*
X212528888Y-155161929D01*
X212445032Y-154957163D01*
X212039891Y-154250994D01*
X211479100Y-153814455D01*
X210825396Y-153259211D01*
X210367034Y-152431892D01*
X210133372Y-151392001D01*
X210111333Y-151042336D01*
X210054042Y-150091791D01*
X209934481Y-149458943D01*
X209736332Y-149093544D01*
X209443277Y-148945346D01*
X209429681Y-148943273D01*
X209017228Y-148702238D01*
X208747836Y-148254616D01*
X208408428Y-147740433D01*
X207977036Y-147481597D01*
X207541399Y-147506939D01*
X207242571Y-147759970D01*
X206979235Y-148073296D01*
X206536012Y-148541239D01*
X206005212Y-149066610D01*
X205964424Y-149105640D01*
X205288440Y-149832195D01*
X204779746Y-150602408D01*
X204366226Y-151484088D01*
X203770551Y-152860790D01*
X203271269Y-153887046D01*
X202869637Y-154560427D01*
X202634900Y-154831063D01*
X202400528Y-154952599D01*
X202360127Y-154787863D01*
X202514557Y-154367129D01*
X202615920Y-154162835D01*
X202795363Y-153774881D01*
X203065926Y-153137710D01*
X203386988Y-152348716D01*
X203636842Y-151715016D01*
X204115864Y-150582277D01*
X204588206Y-149699587D01*
X205117550Y-148952929D01*
X205303802Y-148730539D01*
X205999691Y-147850785D01*
X206420194Y-147121027D01*
X206596573Y-146482788D01*
X206606569Y-146293622D01*
X206580621Y-146096812D01*
X206452997Y-146074744D01*
X206149023Y-146243727D01*
X205818613Y-146465722D01*
X205152688Y-146890639D01*
X204436040Y-147303355D01*
X204223310Y-147415297D01*
X203249888Y-148004641D01*
X202263633Y-148769724D01*
X201314021Y-149653653D01*
X200450529Y-150599532D01*
X199722633Y-151550470D01*
X199179812Y-152449571D01*
X198871541Y-153239941D01*
X198819708Y-153628940D01*
X198737880Y-154009471D01*
X198524729Y-154581842D01*
X198265852Y-155141392D01*
X197982109Y-155723083D01*
X197781551Y-156176509D01*
X197709647Y-156394503D01*
X197595316Y-156620020D01*
X197309481Y-157001950D01*
X197151095Y-157188910D01*
X196813125Y-157552711D01*
X196647464Y-157651526D01*
X196596476Y-157511269D01*
X196594890Y-157438974D01*
X196676475Y-157057797D01*
X196884758Y-156508109D01*
X197041807Y-156173608D01*
X197295893Y-155555022D01*
X197545319Y-154758503D01*
X197751102Y-153931817D01*
X197874256Y-153222725D01*
X197892700Y-152948478D01*
X197770959Y-152879672D01*
X197430983Y-153053150D01*
X196910643Y-153443043D01*
X196247813Y-154023487D01*
X196056966Y-154202276D01*
X195029417Y-155161836D01*
X194207898Y-155884825D01*
X193542367Y-156402851D01*
X192982781Y-156747525D01*
X192479099Y-156950456D01*
X191981277Y-157043253D01*
X191533977Y-157059251D01*
X190754744Y-157050618D01*
X191677969Y-156570560D01*
X192380451Y-156129637D01*
X193220527Y-155489578D01*
X194099895Y-154737057D01*
X194920257Y-153958746D01*
X195583310Y-153241315D01*
X195859593Y-152883606D01*
X196436779Y-152250741D01*
X197110459Y-151910722D01*
X197532779Y-151723466D01*
X198011879Y-151377991D01*
X198602933Y-150828133D01*
X199361115Y-150027725D01*
X199361720Y-150027063D01*
X200623730Y-148733910D01*
X201841059Y-147656516D01*
X202968329Y-146831858D01*
X203916546Y-146315328D01*
X204477243Y-146007785D01*
X205141126Y-145548646D01*
X205659449Y-145127352D01*
X206220493Y-144682077D01*
X206722053Y-144376726D01*
X207038634Y-144275183D01*
X207425373Y-144419915D01*
X207928486Y-144804323D01*
X208467697Y-145353721D01*
X208962729Y-145993423D01*
X209079747Y-146174114D01*
X209429137Y-146553587D01*
X209967992Y-146952608D01*
X210289215Y-147136043D01*
X211126868Y-147705845D01*
X211960485Y-148526828D01*
X212689856Y-149492058D01*
X213003448Y-150032428D01*
X213385387Y-150549927D01*
X214011206Y-151160316D01*
X214793057Y-151790807D01*
X215643087Y-152368613D01*
X216217792Y-152695615D01*
X216637010Y-152884711D01*
X216918147Y-152881555D01*
X217242764Y-152681839D01*
X217257539Y-152670944D01*
X217683663Y-152239162D01*
X217998073Y-151715181D01*
X218101460Y-151311715D01*
X217947133Y-151165145D01*
X217753358Y-151135037D01*
X217505899Y-151099756D01*
X217286362Y-150953313D01*
X217045324Y-150634811D01*
X216733365Y-150083350D01*
X216444160Y-149521823D01*
X216042394Y-148566780D01*
X215785853Y-147523568D01*
X215682603Y-146792941D01*
X215528146Y-145728461D01*
X215341376Y-144930470D01*
X215132946Y-144434437D01*
X214926559Y-144275183D01*
X214687460Y-144118180D01*
X214395843Y-143723704D01*
X214114942Y-143206558D01*
X213907991Y-142681541D01*
X213837226Y-142297499D01*
X213674762Y-141310544D01*
X213176473Y-140471091D01*
X212922673Y-140207985D01*
X212521975Y-139687509D01*
X212212276Y-139032403D01*
X212167503Y-138885580D01*
X211982211Y-138321745D01*
X211777412Y-137883756D01*
X211709463Y-137786132D01*
X211483552Y-137456090D01*
X211192386Y-136947468D01*
X211069307Y-136710800D01*
X210820766Y-136238769D01*
X210647475Y-136047555D01*
X210458513Y-136086495D01*
X210237558Y-136247297D01*
X209116244Y-137114139D01*
X208247840Y-137780832D01*
X207593571Y-138276165D01*
X207114660Y-138628925D01*
X206772329Y-138867903D01*
X206527801Y-139021887D01*
X206421168Y-139080668D01*
X206056523Y-139336645D01*
X205629772Y-139724017D01*
X205240685Y-140140147D01*
X204989032Y-140482395D01*
X204945491Y-140598773D01*
X205099242Y-140720386D01*
X205481028Y-140842326D01*
X205496026Y-140845666D01*
X206042409Y-141010723D01*
X206607129Y-141247987D01*
X207056225Y-141495148D01*
X207241997Y-141657755D01*
X207150149Y-141733923D01*
X206807987Y-141721457D01*
X206803856Y-141720854D01*
X206367889Y-141719305D01*
X205680739Y-141783483D01*
X204852624Y-141896144D01*
X203993762Y-142040041D01*
X203214370Y-142197930D01*
X202624667Y-142352566D01*
X202508626Y-142392905D01*
X201954488Y-142756006D01*
X201281207Y-143467799D01*
X200490389Y-144526381D01*
X199742658Y-145672210D01*
X199242886Y-146438416D01*
X198852787Y-146963159D01*
X198591690Y-147227150D01*
X198478923Y-147211103D01*
X198533811Y-146895728D01*
X198541606Y-146870803D01*
X198552674Y-146567201D01*
X198307986Y-146529120D01*
X197806188Y-146756556D01*
X197618899Y-146868145D01*
X197202062Y-147211623D01*
X196639203Y-147793076D01*
X195988185Y-148540765D01*
X195306874Y-149382947D01*
X194653134Y-150247880D01*
X194084828Y-151063824D01*
X193659821Y-151759036D01*
X193630991Y-151812454D01*
X193031972Y-152907397D01*
X192560975Y-153696417D01*
X192196330Y-154212833D01*
X191916369Y-154489969D01*
X191871617Y-154517958D01*
X191708404Y-154575787D01*
X191714002Y-154436476D01*
X191895636Y-154042512D01*
X191943090Y-153948917D01*
X192149875Y-153458082D01*
X192331604Y-152883158D01*
X192464066Y-152328304D01*
X192523048Y-151897680D01*
X192484342Y-151695447D01*
X192467869Y-151691241D01*
X192116699Y-151788260D01*
X191548335Y-152046259D01*
X190850800Y-152415657D01*
X190112116Y-152846868D01*
X189420307Y-153290310D01*
X188863395Y-153696399D01*
X188768575Y-153775068D01*
X188208801Y-154277160D01*
X187865685Y-154676003D01*
X187661601Y-155093943D01*
X187518925Y-155653327D01*
X187492105Y-155786959D01*
X187350966Y-156389271D01*
X187205256Y-156831159D01*
X187106975Y-156995233D01*
X187011206Y-156926743D01*
X187027070Y-156666265D01*
X187186531Y-155805478D01*
X187253844Y-155252891D01*
X187226345Y-155031680D01*
X187215293Y-155028467D01*
X186890800Y-155144875D01*
X186383963Y-155455881D01*
X185784522Y-155904160D01*
X185583766Y-156070669D01*
X185049886Y-156444265D01*
X184395697Y-156790623D01*
X183732168Y-157063234D01*
X183170266Y-157215586D01*
X182853318Y-157215097D01*
X182893227Y-157093930D01*
X183190713Y-156838944D01*
X183683038Y-156503119D01*
X183734801Y-156470715D01*
X184227669Y-156109423D01*
X184918699Y-155525446D01*
X185753760Y-154767843D01*
X186678721Y-153885670D01*
X187602919Y-152965188D01*
X188915362Y-151643047D01*
X190026012Y-150556591D01*
X190980399Y-149665229D01*
X191824053Y-148928375D01*
X192602502Y-148305439D01*
X193361278Y-147755833D01*
X193711330Y-147519708D01*
X194564322Y-146878623D01*
X195103461Y-146246862D01*
X195371295Y-145531417D01*
X195410375Y-144639283D01*
X195339089Y-143961644D01*
X195229456Y-143279382D01*
X195118139Y-142747697D01*
X195026777Y-142467574D01*
X195015878Y-142453247D01*
X194830520Y-142507274D01*
X194493442Y-142795655D01*
X194064940Y-143248534D01*
X193605312Y-143796057D01*
X193174854Y-144368367D01*
X192833864Y-144895609D01*
X192718334Y-145115006D01*
X192321980Y-145739433D01*
X191752344Y-146181483D01*
X191506032Y-146309912D01*
X190688419Y-146870636D01*
X189894940Y-147728464D01*
X189874935Y-147754636D01*
X189149439Y-148557946D01*
X188394844Y-149130906D01*
X188251824Y-149208141D01*
X187625003Y-149583024D01*
X187047032Y-150027029D01*
X186886942Y-150179875D01*
X186560877Y-150547821D01*
X186468669Y-150792436D01*
X186578395Y-151048956D01*
X186655190Y-151161714D01*
X186908421Y-151580869D01*
X186895319Y-151742520D01*
X186611474Y-151651632D01*
X186351460Y-151503808D01*
X185540843Y-151187789D01*
X184667602Y-151208353D01*
X183688742Y-151566762D01*
X183656975Y-151582911D01*
X183190667Y-151888846D01*
X182551461Y-152398428D01*
X181804651Y-153049520D01*
X181015531Y-153779983D01*
X180249397Y-154527679D01*
X179571543Y-155230471D01*
X179047262Y-155826219D01*
X178741851Y-156252787D01*
X178733678Y-156268208D01*
X178498358Y-156637352D01*
X178198640Y-157005829D01*
X177913391Y-157291070D01*
X177721480Y-157410504D01*
X177683941Y-157367213D01*
X177784470Y-157146353D01*
X178031969Y-156768779D01*
X178087925Y-156691853D01*
X178356306Y-156248679D01*
X178350572Y-156044956D01*
X178091798Y-156095727D01*
X177649768Y-156379078D01*
X177175180Y-156700888D01*
X176614768Y-157033088D01*
X176063912Y-157325576D01*
X175617990Y-157528249D01*
X175372383Y-157591003D01*
X175356813Y-157583577D01*
X175475011Y-157462068D01*
X175845986Y-157180939D01*
X176411510Y-156782490D01*
X177089742Y-156324661D01*
X178294952Y-155444267D01*
X179599040Y-154348031D01*
X180893306Y-153127364D01*
X180901764Y-153118907D01*
X181857957Y-152177185D01*
X182613180Y-151475953D01*
X183216145Y-150981558D01*
X183715564Y-150660348D01*
X184160149Y-150478671D01*
X184598613Y-150402874D01*
X184845914Y-150394124D01*
X185316151Y-150360193D01*
X185668470Y-150210507D01*
X186030339Y-149871674D01*
X186294335Y-149560165D01*
X186853224Y-148979562D01*
X187505801Y-148441127D01*
X187820036Y-148232926D01*
X188445541Y-147773802D01*
X189025714Y-147200897D01*
X189199686Y-146980425D01*
X189677025Y-146450126D01*
X190313987Y-145919311D01*
X190709093Y-145659253D01*
X191338958Y-145220098D01*
X191858429Y-144725350D01*
X192052554Y-144462880D01*
X192356968Y-144046581D01*
X192850107Y-143478264D01*
X193450631Y-142840836D01*
X194077201Y-142217205D01*
X194648478Y-141690278D01*
X195083122Y-141342963D01*
X195162465Y-141293021D01*
X195381279Y-141241116D01*
X195661266Y-141351537D01*
X196069576Y-141663355D01*
X196552976Y-142102114D01*
X197218005Y-142696619D01*
X197929896Y-143286965D01*
X198518018Y-143733274D01*
X199421438Y-144367883D01*
X199723128Y-143904380D01*
X200370151Y-143054107D01*
X201089394Y-142344342D01*
X201794645Y-141853363D01*
X202145531Y-141704883D01*
X202664347Y-141467566D01*
X203219807Y-141031482D01*
X203883948Y-140338993D01*
X203957945Y-140254760D01*
X204645467Y-139474732D01*
X205166345Y-138913118D01*
X205593715Y-138505489D01*
X206000711Y-138187416D01*
X206460469Y-137894468D01*
X206959898Y-137610120D01*
X207834699Y-137032373D01*
X208799369Y-136248274D01*
X209738558Y-135360307D01*
X210536916Y-134470957D01*
X210639844Y-134340602D01*
X211057790Y-133800000D01*
X212957362Y-135769112D01*
G37*
G36*
X225324577Y-153724799D02*
G01*
X225332116Y-153898619D01*
X225254742Y-154237708D01*
X225049010Y-154796583D01*
X224754507Y-155491395D01*
X224410818Y-156238293D01*
X224057530Y-156953429D01*
X223734230Y-157552953D01*
X223480503Y-157953015D01*
X223362399Y-158070763D01*
X223137543Y-158073878D01*
X223107299Y-158011476D01*
X223177122Y-157771151D01*
X223359198Y-157300174D01*
X223585811Y-156765835D01*
X224143759Y-155515532D01*
X224577914Y-154589758D01*
X224900675Y-153968154D01*
X225124440Y-153630365D01*
X225261608Y-153556033D01*
X225324577Y-153724799D01*
G37*
G36*
X207299400Y-150636001D02*
G01*
X207435342Y-150934216D01*
X207559589Y-151483854D01*
X207645145Y-152164969D01*
X207746678Y-153016938D01*
X207912305Y-154010187D01*
X208105047Y-154924715D01*
X208323673Y-155889293D01*
X208434090Y-156540518D01*
X208440169Y-156918493D01*
X208345778Y-157063325D01*
X208311795Y-157067883D01*
X208189005Y-156904116D01*
X208041944Y-156486825D01*
X207966007Y-156187227D01*
X207803589Y-155493893D01*
X207601151Y-154672793D01*
X207478576Y-154194161D01*
X207320381Y-153468601D01*
X207202785Y-152698167D01*
X207129428Y-151955178D01*
X207103953Y-151311955D01*
X207130002Y-150840817D01*
X207211215Y-150614084D01*
X207299400Y-150636001D01*
G37*
G36*
X226996399Y-146424262D02*
G01*
X226893583Y-146716659D01*
X226628475Y-147208285D01*
X226253203Y-147821765D01*
X225819896Y-148479722D01*
X225380680Y-149104782D01*
X224987685Y-149619568D01*
X224693038Y-149946704D01*
X224572178Y-150022628D01*
X224507456Y-149873168D01*
X224542293Y-149630785D01*
X224576438Y-149357348D01*
X224404064Y-149371826D01*
X224293184Y-149428359D01*
X223710181Y-149886617D01*
X223147513Y-150577248D01*
X222846123Y-151088686D01*
X222586382Y-151543061D01*
X222441636Y-151665547D01*
X222424628Y-151452946D01*
X222476793Y-151181387D01*
X222742991Y-150447974D01*
X223166104Y-149709891D01*
X223661881Y-149093722D01*
X224094098Y-148751416D01*
X224500294Y-148480799D01*
X225064214Y-148033954D01*
X225680284Y-147495742D01*
X225836021Y-147351270D01*
X226354630Y-146880836D01*
X226753366Y-146552165D01*
X226972385Y-146413065D01*
X226996399Y-146424262D01*
G37*
G36*
X210811505Y-139243959D02*
G01*
X210870803Y-139601194D01*
X210998586Y-140598289D01*
X211352678Y-141726685D01*
X211889195Y-142863736D01*
X212248780Y-143452308D01*
X212794920Y-144354045D01*
X213228397Y-145240898D01*
X213516105Y-146030916D01*
X213624932Y-146642152D01*
X213610177Y-146821965D01*
X213523476Y-146922357D01*
X213379604Y-146663666D01*
X213308454Y-146468287D01*
X213068737Y-145924399D01*
X212728721Y-145338936D01*
X212354452Y-144806114D01*
X212011978Y-144420149D01*
X211771044Y-144275183D01*
X211660338Y-144413898D01*
X211637434Y-144852316D01*
X211684670Y-145480292D01*
X211734062Y-146092190D01*
X211743690Y-146525954D01*
X211712761Y-146685402D01*
X211541388Y-146516963D01*
X211366264Y-146077066D01*
X211213647Y-145463840D01*
X211109792Y-144775412D01*
X211080605Y-144322849D01*
X211034284Y-143615092D01*
X210941735Y-142982384D01*
X210857996Y-142665586D01*
X210733614Y-142195247D01*
X210633960Y-141556518D01*
X210564237Y-140842511D01*
X210529647Y-140146333D01*
X210535393Y-139561097D01*
X210586678Y-139179912D01*
X210657863Y-139083942D01*
X210811505Y-139243959D01*
G37*
D11*
%TO.C,D1*%
X101250000Y-128000000D02*
X101750000Y-128000000D01*
X101250000Y-128400000D02*
X100650000Y-128000000D01*
X101250000Y-127600000D02*
X101250000Y-128400000D01*
X100650000Y-128000000D02*
X101250000Y-127600000D01*
X100650000Y-128000000D02*
X100650000Y-128550000D01*
X100650000Y-128000000D02*
X100650000Y-127450000D01*
X100250000Y-128000000D02*
X100650000Y-128000000D01*
%TO.C,D2*%
X119500000Y-124250000D02*
X119500000Y-124750000D01*
X119100000Y-124250000D02*
X119500000Y-123650000D01*
X119900000Y-124250000D02*
X119100000Y-124250000D01*
X119500000Y-123650000D02*
X119900000Y-124250000D01*
X119500000Y-123650000D02*
X118950000Y-123650000D01*
X119500000Y-123650000D02*
X120050000Y-123650000D01*
X119500000Y-123250000D02*
X119500000Y-123650000D01*
%TO.C,D3*%
X147750000Y-129000000D02*
X148250000Y-129000000D01*
X147750000Y-129400000D02*
X147150000Y-129000000D01*
X147750000Y-128600000D02*
X147750000Y-129400000D01*
X147150000Y-129000000D02*
X147750000Y-128600000D01*
X147150000Y-129000000D02*
X147150000Y-129550000D01*
X147150000Y-129000000D02*
X147150000Y-128450000D01*
X146750000Y-129000000D02*
X147150000Y-129000000D01*
%TO.C,D4*%
X166750000Y-129000000D02*
X167250000Y-129000000D01*
X166750000Y-129400000D02*
X166150000Y-129000000D01*
X166750000Y-128600000D02*
X166750000Y-129400000D01*
X166150000Y-129000000D02*
X166750000Y-128600000D01*
X166150000Y-129000000D02*
X166150000Y-129550000D01*
X166150000Y-129000000D02*
X166150000Y-128450000D01*
X165750000Y-129000000D02*
X166150000Y-129000000D01*
%TO.C,D5*%
X185750000Y-129000000D02*
X186250000Y-129000000D01*
X185750000Y-129400000D02*
X185150000Y-129000000D01*
X185750000Y-128600000D02*
X185750000Y-129400000D01*
X185150000Y-129000000D02*
X185750000Y-128600000D01*
X185150000Y-129000000D02*
X185150000Y-129550000D01*
X185150000Y-129000000D02*
X185150000Y-128450000D01*
X184750000Y-129000000D02*
X185150000Y-129000000D01*
%TO.C,D6*%
X204750000Y-129000000D02*
X205250000Y-129000000D01*
X204750000Y-129400000D02*
X204150000Y-129000000D01*
X204750000Y-128600000D02*
X204750000Y-129400000D01*
X204150000Y-129000000D02*
X204750000Y-128600000D01*
X204150000Y-129000000D02*
X204150000Y-129550000D01*
X204150000Y-129000000D02*
X204150000Y-128450000D01*
X203750000Y-129000000D02*
X204150000Y-129000000D01*
%TO.C,D7*%
X223750000Y-129000000D02*
X224250000Y-129000000D01*
X223750000Y-129400000D02*
X223150000Y-129000000D01*
X223750000Y-128600000D02*
X223750000Y-129400000D01*
X223150000Y-129000000D02*
X223750000Y-128600000D01*
X223150000Y-129000000D02*
X223150000Y-129550000D01*
X223150000Y-129000000D02*
X223150000Y-128450000D01*
X222750000Y-129000000D02*
X223150000Y-129000000D01*
%TO.C,D8*%
X242750000Y-129000000D02*
X243250000Y-129000000D01*
X242750000Y-129400000D02*
X242150000Y-129000000D01*
X242750000Y-128600000D02*
X242750000Y-129400000D01*
X242150000Y-129000000D02*
X242750000Y-128600000D01*
X242150000Y-129000000D02*
X242150000Y-129550000D01*
X242150000Y-129000000D02*
X242150000Y-128450000D01*
X241750000Y-129000000D02*
X242150000Y-129000000D01*
%TO.C,D9*%
X261750000Y-129000000D02*
X262250000Y-129000000D01*
X261750000Y-129400000D02*
X261150000Y-129000000D01*
X261750000Y-128600000D02*
X261750000Y-129400000D01*
X261150000Y-129000000D02*
X261750000Y-128600000D01*
X261150000Y-129000000D02*
X261150000Y-129550000D01*
X261150000Y-129000000D02*
X261150000Y-128450000D01*
X260750000Y-129000000D02*
X261150000Y-129000000D01*
%TO.C,D10*%
X280750000Y-129000000D02*
X281250000Y-129000000D01*
X280750000Y-129400000D02*
X280150000Y-129000000D01*
X280750000Y-128600000D02*
X280750000Y-129400000D01*
X280150000Y-129000000D02*
X280750000Y-128600000D01*
X280150000Y-129000000D02*
X280150000Y-129550000D01*
X280150000Y-129000000D02*
X280150000Y-128450000D01*
X279750000Y-129000000D02*
X280150000Y-129000000D01*
%TO.C,D11*%
X299750000Y-129000000D02*
X300250000Y-129000000D01*
X299750000Y-129400000D02*
X299150000Y-129000000D01*
X299750000Y-128600000D02*
X299750000Y-129400000D01*
X299150000Y-129000000D02*
X299750000Y-128600000D01*
X299150000Y-129000000D02*
X299150000Y-129550000D01*
X299150000Y-129000000D02*
X299150000Y-128450000D01*
X298750000Y-129000000D02*
X299150000Y-129000000D01*
%TO.C,D12*%
X325970000Y-129000000D02*
X326470000Y-129000000D01*
X325970000Y-129400000D02*
X325370000Y-129000000D01*
X325970000Y-128600000D02*
X325970000Y-129400000D01*
X325370000Y-129000000D02*
X325970000Y-128600000D01*
X325370000Y-129000000D02*
X325370000Y-129550000D01*
X325370000Y-129000000D02*
X325370000Y-128450000D01*
X324970000Y-129000000D02*
X325370000Y-129000000D01*
%TO.C,D13*%
X112125000Y-148000000D02*
X112625000Y-148000000D01*
X112125000Y-148400000D02*
X111525000Y-148000000D01*
X112125000Y-147600000D02*
X112125000Y-148400000D01*
X111525000Y-148000000D02*
X112125000Y-147600000D01*
X111525000Y-148000000D02*
X111525000Y-148550000D01*
X111525000Y-148000000D02*
X111525000Y-147450000D01*
X111125000Y-148000000D02*
X111525000Y-148000000D01*
%TO.C,D14*%
X133500000Y-148000000D02*
X134000000Y-148000000D01*
X133500000Y-148400000D02*
X132900000Y-148000000D01*
X133500000Y-147600000D02*
X133500000Y-148400000D01*
X132900000Y-148000000D02*
X133500000Y-147600000D01*
X132900000Y-148000000D02*
X132900000Y-148550000D01*
X132900000Y-148000000D02*
X132900000Y-147450000D01*
X132500000Y-148000000D02*
X132900000Y-148000000D01*
%TO.C,D15*%
X152500000Y-148000000D02*
X153000000Y-148000000D01*
X152500000Y-148400000D02*
X151900000Y-148000000D01*
X152500000Y-147600000D02*
X152500000Y-148400000D01*
X151900000Y-148000000D02*
X152500000Y-147600000D01*
X151900000Y-148000000D02*
X151900000Y-148550000D01*
X151900000Y-148000000D02*
X151900000Y-147450000D01*
X151500000Y-148000000D02*
X151900000Y-148000000D01*
%TO.C,D16*%
X171500000Y-148000000D02*
X172000000Y-148000000D01*
X171500000Y-148400000D02*
X170900000Y-148000000D01*
X171500000Y-147600000D02*
X171500000Y-148400000D01*
X170900000Y-148000000D02*
X171500000Y-147600000D01*
X170900000Y-148000000D02*
X170900000Y-148550000D01*
X170900000Y-148000000D02*
X170900000Y-147450000D01*
X170500000Y-148000000D02*
X170900000Y-148000000D01*
%TO.C,D17*%
X190500000Y-148000000D02*
X191000000Y-148000000D01*
X190500000Y-148400000D02*
X189900000Y-148000000D01*
X190500000Y-147600000D02*
X190500000Y-148400000D01*
X189900000Y-148000000D02*
X190500000Y-147600000D01*
X189900000Y-148000000D02*
X189900000Y-148550000D01*
X189900000Y-148000000D02*
X189900000Y-147450000D01*
X189500000Y-148000000D02*
X189900000Y-148000000D01*
%TO.C,D18*%
X209500000Y-148000000D02*
X210000000Y-148000000D01*
X209500000Y-148400000D02*
X208900000Y-148000000D01*
X209500000Y-147600000D02*
X209500000Y-148400000D01*
X208900000Y-148000000D02*
X209500000Y-147600000D01*
X208900000Y-148000000D02*
X208900000Y-148550000D01*
X208900000Y-148000000D02*
X208900000Y-147450000D01*
X208500000Y-148000000D02*
X208900000Y-148000000D01*
%TO.C,D19*%
X228500000Y-148000000D02*
X229000000Y-148000000D01*
X228500000Y-148400000D02*
X227900000Y-148000000D01*
X228500000Y-147600000D02*
X228500000Y-148400000D01*
X227900000Y-148000000D02*
X228500000Y-147600000D01*
X227900000Y-148000000D02*
X227900000Y-148550000D01*
X227900000Y-148000000D02*
X227900000Y-147450000D01*
X227500000Y-148000000D02*
X227900000Y-148000000D01*
%TO.C,D20*%
X247500000Y-148000000D02*
X248000000Y-148000000D01*
X247500000Y-148400000D02*
X246900000Y-148000000D01*
X247500000Y-147600000D02*
X247500000Y-148400000D01*
X246900000Y-148000000D02*
X247500000Y-147600000D01*
X246900000Y-148000000D02*
X246900000Y-148550000D01*
X246900000Y-148000000D02*
X246900000Y-147450000D01*
X246500000Y-148000000D02*
X246900000Y-148000000D01*
%TO.C,D21*%
X266500000Y-148000000D02*
X267000000Y-148000000D01*
X266500000Y-148400000D02*
X265900000Y-148000000D01*
X266500000Y-147600000D02*
X266500000Y-148400000D01*
X265900000Y-148000000D02*
X266500000Y-147600000D01*
X265900000Y-148000000D02*
X265900000Y-148550000D01*
X265900000Y-148000000D02*
X265900000Y-147450000D01*
X265500000Y-148000000D02*
X265900000Y-148000000D01*
%TO.C,D22*%
X285500000Y-148000000D02*
X286000000Y-148000000D01*
X285500000Y-148400000D02*
X284900000Y-148000000D01*
X285500000Y-147600000D02*
X285500000Y-148400000D01*
X284900000Y-148000000D02*
X285500000Y-147600000D01*
X284900000Y-148000000D02*
X284900000Y-148550000D01*
X284900000Y-148000000D02*
X284900000Y-147450000D01*
X284500000Y-148000000D02*
X284900000Y-148000000D01*
%TO.C,D23*%
X304500000Y-148000000D02*
X305000000Y-148000000D01*
X304500000Y-148400000D02*
X303900000Y-148000000D01*
X304500000Y-147600000D02*
X304500000Y-148400000D01*
X303900000Y-148000000D02*
X304500000Y-147600000D01*
X303900000Y-148000000D02*
X303900000Y-148550000D01*
X303900000Y-148000000D02*
X303900000Y-147450000D01*
X303500000Y-148000000D02*
X303900000Y-148000000D01*
%TO.C,D24*%
X328250000Y-148000000D02*
X328750000Y-148000000D01*
X328250000Y-148400000D02*
X327650000Y-148000000D01*
X328250000Y-147600000D02*
X328250000Y-148400000D01*
X327650000Y-148000000D02*
X328250000Y-147600000D01*
X327650000Y-148000000D02*
X327650000Y-148550000D01*
X327650000Y-148000000D02*
X327650000Y-147450000D01*
X327250000Y-148000000D02*
X327650000Y-148000000D01*
%TO.C,D25*%
X116875000Y-167000000D02*
X117375000Y-167000000D01*
X116875000Y-167400000D02*
X116275000Y-167000000D01*
X116875000Y-166600000D02*
X116875000Y-167400000D01*
X116275000Y-167000000D02*
X116875000Y-166600000D01*
X116275000Y-167000000D02*
X116275000Y-167550000D01*
X116275000Y-167000000D02*
X116275000Y-166450000D01*
X115875000Y-167000000D02*
X116275000Y-167000000D01*
%TO.C,D26*%
X143000000Y-167000000D02*
X143500000Y-167000000D01*
X143000000Y-167400000D02*
X142400000Y-167000000D01*
X143000000Y-166600000D02*
X143000000Y-167400000D01*
X142400000Y-167000000D02*
X143000000Y-166600000D01*
X142400000Y-167000000D02*
X142400000Y-167550000D01*
X142400000Y-167000000D02*
X142400000Y-166450000D01*
X142000000Y-167000000D02*
X142400000Y-167000000D01*
%TO.C,D27*%
X162000000Y-167000000D02*
X162500000Y-167000000D01*
X162000000Y-167400000D02*
X161400000Y-167000000D01*
X162000000Y-166600000D02*
X162000000Y-167400000D01*
X161400000Y-167000000D02*
X162000000Y-166600000D01*
X161400000Y-167000000D02*
X161400000Y-167550000D01*
X161400000Y-167000000D02*
X161400000Y-166450000D01*
X161000000Y-167000000D02*
X161400000Y-167000000D01*
%TO.C,D28*%
X181000000Y-167000000D02*
X181500000Y-167000000D01*
X181000000Y-167400000D02*
X180400000Y-167000000D01*
X181000000Y-166600000D02*
X181000000Y-167400000D01*
X180400000Y-167000000D02*
X181000000Y-166600000D01*
X180400000Y-167000000D02*
X180400000Y-167550000D01*
X180400000Y-167000000D02*
X180400000Y-166450000D01*
X180000000Y-167000000D02*
X180400000Y-167000000D01*
%TO.C,D29*%
X200000000Y-167000000D02*
X200500000Y-167000000D01*
X200000000Y-167400000D02*
X199400000Y-167000000D01*
X200000000Y-166600000D02*
X200000000Y-167400000D01*
X199400000Y-167000000D02*
X200000000Y-166600000D01*
X199400000Y-167000000D02*
X199400000Y-167550000D01*
X199400000Y-167000000D02*
X199400000Y-166450000D01*
X199000000Y-167000000D02*
X199400000Y-167000000D01*
%TO.C,D30*%
X219000000Y-167000000D02*
X219500000Y-167000000D01*
X219000000Y-167400000D02*
X218400000Y-167000000D01*
X219000000Y-166600000D02*
X219000000Y-167400000D01*
X218400000Y-167000000D02*
X219000000Y-166600000D01*
X218400000Y-167000000D02*
X218400000Y-167550000D01*
X218400000Y-167000000D02*
X218400000Y-166450000D01*
X218000000Y-167000000D02*
X218400000Y-167000000D01*
%TO.C,D31*%
X238000000Y-167000000D02*
X238500000Y-167000000D01*
X238000000Y-167400000D02*
X237400000Y-167000000D01*
X238000000Y-166600000D02*
X238000000Y-167400000D01*
X237400000Y-167000000D02*
X238000000Y-166600000D01*
X237400000Y-167000000D02*
X237400000Y-167550000D01*
X237400000Y-167000000D02*
X237400000Y-166450000D01*
X237000000Y-167000000D02*
X237400000Y-167000000D01*
%TO.C,D32*%
X257000000Y-167000000D02*
X257500000Y-167000000D01*
X257000000Y-167400000D02*
X256400000Y-167000000D01*
X257000000Y-166600000D02*
X257000000Y-167400000D01*
X256400000Y-167000000D02*
X257000000Y-166600000D01*
X256400000Y-167000000D02*
X256400000Y-167550000D01*
X256400000Y-167000000D02*
X256400000Y-166450000D01*
X256000000Y-167000000D02*
X256400000Y-167000000D01*
%TO.C,D33*%
X276000000Y-167000000D02*
X276500000Y-167000000D01*
X276000000Y-167400000D02*
X275400000Y-167000000D01*
X276000000Y-166600000D02*
X276000000Y-167400000D01*
X275400000Y-167000000D02*
X276000000Y-166600000D01*
X275400000Y-167000000D02*
X275400000Y-167550000D01*
X275400000Y-167000000D02*
X275400000Y-166450000D01*
X275000000Y-167000000D02*
X275400000Y-167000000D01*
%TO.C,D34*%
X295000000Y-167000000D02*
X295500000Y-167000000D01*
X295000000Y-167400000D02*
X294400000Y-167000000D01*
X295000000Y-166600000D02*
X295000000Y-167400000D01*
X294400000Y-167000000D02*
X295000000Y-166600000D01*
X294400000Y-167000000D02*
X294400000Y-167550000D01*
X294400000Y-167000000D02*
X294400000Y-166450000D01*
X294000000Y-167000000D02*
X294400000Y-167000000D01*
%TO.C,D35*%
X314000000Y-167000000D02*
X314500000Y-167000000D01*
X314000000Y-167400000D02*
X313400000Y-167000000D01*
X314000000Y-166600000D02*
X314000000Y-167400000D01*
X313400000Y-167000000D02*
X314000000Y-166600000D01*
X313400000Y-167000000D02*
X313400000Y-167550000D01*
X313400000Y-167000000D02*
X313400000Y-166450000D01*
X313000000Y-167000000D02*
X313400000Y-167000000D01*
%TO.C,D36*%
X333000000Y-167000000D02*
X333500000Y-167000000D01*
X333000000Y-167400000D02*
X332400000Y-167000000D01*
X333000000Y-166600000D02*
X333000000Y-167400000D01*
X332400000Y-167000000D02*
X333000000Y-166600000D01*
X332400000Y-167000000D02*
X332400000Y-167550000D01*
X332400000Y-167000000D02*
X332400000Y-166450000D01*
X332000000Y-167000000D02*
X332400000Y-167000000D01*
%TO.C,D37*%
X112125000Y-186000000D02*
X112625000Y-186000000D01*
X112125000Y-186400000D02*
X111525000Y-186000000D01*
X112125000Y-185600000D02*
X112125000Y-186400000D01*
X111525000Y-186000000D02*
X112125000Y-185600000D01*
X111525000Y-186000000D02*
X111525000Y-186550000D01*
X111525000Y-186000000D02*
X111525000Y-185450000D01*
X111125000Y-186000000D02*
X111525000Y-186000000D01*
%TO.C,D38*%
X138250000Y-186000000D02*
X138750000Y-186000000D01*
X138250000Y-186400000D02*
X137650000Y-186000000D01*
X138250000Y-185600000D02*
X138250000Y-186400000D01*
X137650000Y-186000000D02*
X138250000Y-185600000D01*
X137650000Y-186000000D02*
X137650000Y-186550000D01*
X137650000Y-186000000D02*
X137650000Y-185450000D01*
X137250000Y-186000000D02*
X137650000Y-186000000D01*
%TO.C,D39*%
X164280000Y-186000000D02*
X164780000Y-186000000D01*
X164280000Y-186400000D02*
X163680000Y-186000000D01*
X164280000Y-185600000D02*
X164280000Y-186400000D01*
X163680000Y-186000000D02*
X164280000Y-185600000D01*
X163680000Y-186000000D02*
X163680000Y-186550000D01*
X163680000Y-186000000D02*
X163680000Y-185450000D01*
X163280000Y-186000000D02*
X163680000Y-186000000D01*
%TO.C,D40*%
X197530000Y-186000000D02*
X198030000Y-186000000D01*
X197530000Y-186400000D02*
X196930000Y-186000000D01*
X197530000Y-185600000D02*
X197530000Y-186400000D01*
X196930000Y-186000000D02*
X197530000Y-185600000D01*
X196930000Y-186000000D02*
X196930000Y-186550000D01*
X196930000Y-186000000D02*
X196930000Y-185450000D01*
X196530000Y-186000000D02*
X196930000Y-186000000D01*
%TO.C,D41*%
X238000000Y-186000000D02*
X238500000Y-186000000D01*
X238000000Y-186400000D02*
X237400000Y-186000000D01*
X238000000Y-185600000D02*
X238000000Y-186400000D01*
X237400000Y-186000000D02*
X238000000Y-185600000D01*
X237400000Y-186000000D02*
X237400000Y-186550000D01*
X237400000Y-186000000D02*
X237400000Y-185450000D01*
X237000000Y-186000000D02*
X237400000Y-186000000D01*
%TO.C,D42*%
X271250000Y-186000000D02*
X271750000Y-186000000D01*
X271250000Y-186400000D02*
X270650000Y-186000000D01*
X271250000Y-185600000D02*
X271250000Y-186400000D01*
X270650000Y-186000000D02*
X271250000Y-185600000D01*
X270650000Y-186000000D02*
X270650000Y-186550000D01*
X270650000Y-186000000D02*
X270650000Y-185450000D01*
X270250000Y-186000000D02*
X270650000Y-186000000D01*
%TO.C,D43*%
X295000000Y-186000000D02*
X295500000Y-186000000D01*
X295000000Y-186400000D02*
X294400000Y-186000000D01*
X295000000Y-185600000D02*
X295000000Y-186400000D01*
X294400000Y-186000000D02*
X295000000Y-185600000D01*
X294400000Y-186000000D02*
X294400000Y-186550000D01*
X294400000Y-186000000D02*
X294400000Y-185450000D01*
X294000000Y-186000000D02*
X294400000Y-186000000D01*
%TO.C,D44*%
X314000000Y-186000000D02*
X314500000Y-186000000D01*
X314000000Y-186400000D02*
X313400000Y-186000000D01*
X314000000Y-185600000D02*
X314000000Y-186400000D01*
X313400000Y-186000000D02*
X314000000Y-185600000D01*
X313400000Y-186000000D02*
X313400000Y-186550000D01*
X313400000Y-186000000D02*
X313400000Y-185450000D01*
X313000000Y-186000000D02*
X313400000Y-186000000D01*
%TO.C,D45*%
X333000000Y-186000000D02*
X333500000Y-186000000D01*
X333000000Y-186400000D02*
X332400000Y-186000000D01*
X333000000Y-185600000D02*
X333000000Y-186400000D01*
X332400000Y-186000000D02*
X333000000Y-185600000D01*
X332400000Y-186000000D02*
X332400000Y-186550000D01*
X332400000Y-186000000D02*
X332400000Y-185450000D01*
X332000000Y-186000000D02*
X332400000Y-186000000D01*
%TD*%
M02*
