%TF.GenerationSoftware,KiCad,Pcbnew,8.0.9-rc1*%
%TF.CreationDate,2026-07-12T22:51:52-06:00*%
%TF.ProjectId,40\u0025,3430252e-6b69-4636-9164-5f7063625858,v1.0.0*%
%TF.SameCoordinates,Original*%
%TF.FileFunction,Paste,Bot*%
%TF.FilePolarity,Positive*%
%FSLAX46Y46*%
G04 Gerber Fmt 4.6, Leading zero omitted, Abs format (unit mm)*
G04 Created by KiCad (PCBNEW 8.0.9-rc1) date 2026-07-12 22:51:52*
%MOMM*%
%LPD*%
G01*
G04 APERTURE LIST*
%ADD10R,2.550000X2.500000*%
%ADD11R,0.900000X1.200000*%
%ADD12R,1.200000X0.900000*%
%ADD13R,1.000000X0.800000*%
%ADD14R,0.700000X1.500000*%
%ADD15R,1.550000X1.000000*%
G04 APERTURE END LIST*
D10*
%TO.C,S1*%
X116585000Y-122540000D03*
X103658000Y-125080000D03*
%TD*%
%TO.C,S2*%
X135585000Y-122540000D03*
X122658000Y-125080000D03*
%TD*%
%TO.C,S3*%
X154585000Y-122540000D03*
X141658000Y-125080000D03*
%TD*%
%TO.C,S4*%
X173585000Y-122540000D03*
X160658000Y-125080000D03*
%TD*%
%TO.C,S5*%
X192585000Y-122540000D03*
X179658000Y-125080000D03*
%TD*%
%TO.C,S6*%
X211585000Y-122540000D03*
X198658000Y-125080000D03*
%TD*%
%TO.C,S7*%
X230585000Y-122540000D03*
X217658000Y-125080000D03*
%TD*%
%TO.C,S8*%
X249585000Y-122540000D03*
X236658000Y-125080000D03*
%TD*%
%TO.C,S9*%
X268585000Y-122540000D03*
X255658000Y-125080000D03*
%TD*%
%TO.C,S10*%
X287585000Y-122540000D03*
X274658000Y-125080000D03*
%TD*%
%TO.C,S11*%
X306585000Y-122540000D03*
X293658000Y-125080000D03*
%TD*%
%TO.C,S12*%
X332805000Y-122540000D03*
X319878000Y-125080000D03*
%TD*%
%TO.C,S13*%
X118960000Y-141540000D03*
X106033000Y-144080000D03*
%TD*%
%TO.C,S14*%
X140335000Y-141540000D03*
X127408000Y-144080000D03*
%TD*%
%TO.C,S15*%
X159335000Y-141540000D03*
X146408000Y-144080000D03*
%TD*%
%TO.C,S16*%
X178335000Y-141540000D03*
X165408000Y-144080000D03*
%TD*%
%TO.C,S17*%
X197335000Y-141540000D03*
X184408000Y-144080000D03*
%TD*%
%TO.C,S18*%
X216335000Y-141540000D03*
X203408000Y-144080000D03*
%TD*%
%TO.C,S19*%
X235335000Y-141540000D03*
X222408000Y-144080000D03*
%TD*%
%TO.C,S20*%
X254335000Y-141540000D03*
X241408000Y-144080000D03*
%TD*%
%TO.C,S21*%
X273335000Y-141540000D03*
X260408000Y-144080000D03*
%TD*%
%TO.C,S22*%
X292335000Y-141540000D03*
X279408000Y-144080000D03*
%TD*%
%TO.C,S23*%
X311335000Y-141540000D03*
X298408000Y-144080000D03*
%TD*%
%TO.C,S24*%
X335085000Y-141540000D03*
X322158000Y-144080000D03*
%TD*%
%TO.C,S25*%
X123710000Y-160540000D03*
X110783000Y-163080000D03*
%TD*%
%TO.C,S26*%
X149835000Y-160540000D03*
X136908000Y-163080000D03*
%TD*%
%TO.C,S27*%
X168835000Y-160540000D03*
X155908000Y-163080000D03*
%TD*%
%TO.C,S28*%
X187835000Y-160540000D03*
X174908000Y-163080000D03*
%TD*%
%TO.C,S29*%
X206835000Y-160540000D03*
X193908000Y-163080000D03*
%TD*%
%TO.C,S30*%
X225835000Y-160540000D03*
X212908000Y-163080000D03*
%TD*%
%TO.C,S31*%
X244835000Y-160540000D03*
X231908000Y-163080000D03*
%TD*%
%TO.C,S32*%
X263835000Y-160540000D03*
X250908000Y-163080000D03*
%TD*%
%TO.C,S33*%
X282835000Y-160540000D03*
X269908000Y-163080000D03*
%TD*%
%TO.C,S34*%
X301835000Y-160540000D03*
X288908000Y-163080000D03*
%TD*%
%TO.C,S35*%
X320835000Y-160540000D03*
X307908000Y-163080000D03*
%TD*%
%TO.C,S36*%
X339835000Y-160540000D03*
X326908000Y-163080000D03*
%TD*%
%TO.C,S37*%
X118960000Y-179540000D03*
X106033000Y-182080000D03*
%TD*%
%TO.C,S38*%
X145085000Y-179540000D03*
X132158000Y-182080000D03*
%TD*%
%TO.C,S39*%
X171115000Y-179540000D03*
X158188000Y-182080000D03*
%TD*%
%TO.C,S40*%
X204365000Y-179540000D03*
X191438000Y-182080000D03*
%TD*%
%TO.C,S41*%
X244835000Y-179540000D03*
X231908000Y-182080000D03*
%TD*%
%TO.C,S42*%
X278085000Y-179540000D03*
X265158000Y-182080000D03*
%TD*%
%TO.C,S43*%
X301835000Y-179540000D03*
X288908000Y-182080000D03*
%TD*%
%TO.C,S44*%
X320835000Y-179540000D03*
X307908000Y-182080000D03*
%TD*%
%TO.C,S45*%
X339835000Y-179540000D03*
X326908000Y-182080000D03*
%TD*%
D11*
%TO.C,D1*%
X102650000Y-128000000D03*
X99350000Y-128000000D03*
%TD*%
D12*
%TO.C,D2*%
X119500000Y-125650000D03*
X119500000Y-122350000D03*
%TD*%
D11*
%TO.C,D3*%
X149150000Y-129000000D03*
X145850000Y-129000000D03*
%TD*%
%TO.C,D4*%
X168150000Y-129000000D03*
X164850000Y-129000000D03*
%TD*%
%TO.C,D5*%
X187150000Y-129000000D03*
X183850000Y-129000000D03*
%TD*%
%TO.C,D6*%
X206150000Y-129000000D03*
X202850000Y-129000000D03*
%TD*%
%TO.C,D7*%
X225150000Y-129000000D03*
X221850000Y-129000000D03*
%TD*%
%TO.C,D8*%
X244150000Y-129000000D03*
X240850000Y-129000000D03*
%TD*%
%TO.C,D9*%
X263150000Y-129000000D03*
X259850000Y-129000000D03*
%TD*%
%TO.C,D10*%
X282150000Y-129000000D03*
X278850000Y-129000000D03*
%TD*%
%TO.C,D11*%
X301150000Y-129000000D03*
X297850000Y-129000000D03*
%TD*%
%TO.C,D12*%
X327370000Y-129000000D03*
X324070000Y-129000000D03*
%TD*%
%TO.C,D13*%
X113525000Y-148000000D03*
X110225000Y-148000000D03*
%TD*%
%TO.C,D14*%
X134900000Y-148000000D03*
X131600000Y-148000000D03*
%TD*%
%TO.C,D15*%
X153900000Y-148000000D03*
X150600000Y-148000000D03*
%TD*%
%TO.C,D16*%
X172900000Y-148000000D03*
X169600000Y-148000000D03*
%TD*%
%TO.C,D17*%
X191900000Y-148000000D03*
X188600000Y-148000000D03*
%TD*%
%TO.C,D18*%
X210900000Y-148000000D03*
X207600000Y-148000000D03*
%TD*%
%TO.C,D19*%
X229900000Y-148000000D03*
X226600000Y-148000000D03*
%TD*%
%TO.C,D20*%
X248900000Y-148000000D03*
X245600000Y-148000000D03*
%TD*%
%TO.C,D21*%
X267900000Y-148000000D03*
X264600000Y-148000000D03*
%TD*%
%TO.C,D22*%
X286900000Y-148000000D03*
X283600000Y-148000000D03*
%TD*%
%TO.C,D23*%
X305900000Y-148000000D03*
X302600000Y-148000000D03*
%TD*%
%TO.C,D24*%
X329650000Y-148000000D03*
X326350000Y-148000000D03*
%TD*%
%TO.C,D25*%
X118275000Y-167000000D03*
X114975000Y-167000000D03*
%TD*%
%TO.C,D26*%
X144400000Y-167000000D03*
X141100000Y-167000000D03*
%TD*%
%TO.C,D27*%
X163400000Y-167000000D03*
X160100000Y-167000000D03*
%TD*%
%TO.C,D28*%
X182400000Y-167000000D03*
X179100000Y-167000000D03*
%TD*%
%TO.C,D29*%
X201400000Y-167000000D03*
X198100000Y-167000000D03*
%TD*%
%TO.C,D30*%
X220400000Y-167000000D03*
X217100000Y-167000000D03*
%TD*%
%TO.C,D31*%
X239400000Y-167000000D03*
X236100000Y-167000000D03*
%TD*%
%TO.C,D32*%
X258400000Y-167000000D03*
X255100000Y-167000000D03*
%TD*%
%TO.C,D33*%
X277400000Y-167000000D03*
X274100000Y-167000000D03*
%TD*%
%TO.C,D34*%
X296400000Y-167000000D03*
X293100000Y-167000000D03*
%TD*%
%TO.C,D35*%
X315400000Y-167000000D03*
X312100000Y-167000000D03*
%TD*%
%TO.C,D36*%
X334400000Y-167000000D03*
X331100000Y-167000000D03*
%TD*%
%TO.C,D37*%
X113525000Y-186000000D03*
X110225000Y-186000000D03*
%TD*%
%TO.C,D38*%
X139650000Y-186000000D03*
X136350000Y-186000000D03*
%TD*%
%TO.C,D39*%
X165680000Y-186000000D03*
X162380000Y-186000000D03*
%TD*%
%TO.C,D40*%
X198930000Y-186000000D03*
X195630000Y-186000000D03*
%TD*%
%TO.C,D41*%
X239400000Y-186000000D03*
X236100000Y-186000000D03*
%TD*%
%TO.C,D42*%
X272650000Y-186000000D03*
X269350000Y-186000000D03*
%TD*%
%TO.C,D43*%
X296400000Y-186000000D03*
X293100000Y-186000000D03*
%TD*%
%TO.C,D44*%
X315400000Y-186000000D03*
X312100000Y-186000000D03*
%TD*%
%TO.C,D45*%
X334400000Y-186000000D03*
X331100000Y-186000000D03*
%TD*%
D13*
%TO.C,PWR1*%
X124850000Y-111585000D03*
X124850000Y-109375000D03*
X132150000Y-111585000D03*
X132150000Y-109375000D03*
D14*
X126250000Y-112235000D03*
X129250000Y-112235000D03*
X130750000Y-112235000D03*
%TD*%
D15*
%TO.C,RST1*%
X135375000Y-109650000D03*
X135375000Y-111350000D03*
X140625000Y-109650000D03*
X140625000Y-111350000D03*
%TD*%
M02*
